<?xml version="1.0" encoding="utf-8" standalone="no"?>
<!DOCTYPE svg PUBLIC "-//W3C//DTD SVG 1.1//EN"
  "http://www.w3.org/Graphics/SVG/1.1/DTD/svg11.dtd">
<svg xmlns:xlink="http://www.w3.org/1999/xlink" width="552.514062pt" height="406.62375pt" viewBox="0 0 552.514062 406.62375" xmlns="http://www.w3.org/2000/svg" version="1.1">
 <metadata>
  <rdf:RDF xmlns:dc="http://purl.org/dc/elements/1.1/" xmlns:cc="http://creativecommons.org/ns#" xmlns:rdf="http://www.w3.org/1999/02/22-rdf-syntax-ns#">
   <cc:Work>
    <dc:type rdf:resource="http://purl.org/dc/dcmitype/StillImage"/>
    <dc:date>2024-05-14T14:10:03.825505</dc:date>
    <dc:format>image/svg+xml</dc:format>
    <dc:creator>
     <cc:Agent>
      <dc:title>Matplotlib v3.7.5, https://matplotlib.org/</dc:title>
     </cc:Agent>
    </dc:creator>
   </cc:Work>
  </rdf:RDF>
 </metadata>
 <defs>
  <style type="text/css">*{stroke-linejoin: round; stroke-linecap: butt}</style>
 </defs>
 <g id="figure_1">
  <g id="patch_1">
   <path d="M 0 406.62375 
L 552.514062 406.62375 
L 552.514062 0 
L 0 0 
z
" style="fill: #ffffff"/>
  </g>
  <g id="axes_1">
   <g id="patch_2">
    <path d="M 98.914062 339.84 
L 545.314062 339.84 
L 545.314062 7.2 
L 98.914062 7.2 
z
" style="fill: #ffffff"/>
   </g>
   <g id="PolyCollection_1">
    <defs>
     <path id="me3b49e6077" d="M 119.204972 -221.539638 
L 119.204972 -145.408199 
L 120.553205 -145.275369 
L 121.901438 -144.780279 
L 123.249671 -144.695751 
L 124.597904 -145.239143 
L 125.946137 -145.420274 
L 127.294371 -145.601405 
L 128.642604 -145.516877 
L 129.990837 -144.973485 
L 131.33907 -144.852731 
L 132.687303 -145.287445 
L 134.035536 -145.287445 
L 135.38377 -145.879139 
L 136.732003 -145.384048 
L 138.080236 -144.731977 
L 139.428469 -145.082163 
L 140.776702 -145.577254 
L 142.124935 -145.951591 
L 143.473169 -146.168948 
L 144.821402 -145.432349 
L 146.169635 -145.021786 
L 147.517868 -145.4565 
L 148.866101 -145.492726 
L 150.214334 -146.08442 
L 151.562567 -146.760642 
L 152.910801 -146.470833 
L 154.259034 -146.229325 
L 155.607267 -145.939516 
L 156.9555 -145.842913 
L 158.303733 -146.301777 
L 159.651966 -146.772717 
L 161.0002 -146.362154 
L 162.348433 -146.410456 
L 163.696666 -146.362154 
L 165.044899 -146.71234 
L 166.393132 -146.929697 
L 167.741365 -147.207431 
L 169.089599 -146.990074 
L 170.437832 -146.603662 
L 171.786065 -146.591586 
L 173.134298 -146.917622 
L 174.482531 -146.941773 
L 175.830764 -147.062526 
L 177.178998 -147.00215 
L 178.527231 -146.965923 
L 179.875464 -147.062526 
L 181.223697 -147.762899 
L 182.57193 -148.064783 
L 183.920163 -148.052708 
L 185.268397 -147.593843 
L 186.61663 -147.352336 
L 187.964863 -147.364411 
L 189.313096 -147.726673 
L 190.661329 -148.499497 
L 192.009562 -148.463271 
L 193.357796 -148.28214 
L 194.706029 -147.883653 
L 196.054262 -147.738748 
L 197.402495 -147.65422 
L 198.750728 -148.221763 
L 200.098961 -148.330442 
L 201.447194 -147.78705 
L 202.795428 -147.424788 
L 204.143661 -147.690446 
L 205.491894 -147.823276 
L 206.840127 -148.354593 
L 208.18836 -148.608176 
L 209.536593 -148.342517 
L 210.884827 -147.980256 
L 212.23306 -148.185537 
L 213.581293 -148.620251 
L 214.929526 -149.030814 
L 216.277759 -149.550056 
L 217.625992 -149.453453 
L 218.974226 -149.06704 
L 220.322459 -149.127417 
L 221.670692 -149.429302 
L 223.018925 -149.960619 
L 224.367158 -150.1659 
L 225.715391 -149.948543 
L 227.063625 -149.344774 
L 228.411858 -149.586282 
L 229.760091 -149.272322 
L 231.108324 -148.801382 
L 232.456557 -147.823276 
L 233.80479 -145.323671 
L 235.153024 -141.749357 
L 236.501257 -137.257314 
L 237.84949 -133.477719 
L 239.197723 -134.371297 
L 240.545956 -145.746309 
L 241.894189 -166.407293 
L 243.242423 -192.007109 
L 244.590656 -216.339009 
L 245.938889 -236.686032 
L 247.287122 -253.084405 
L 248.635355 -265.087338 
L 249.983588 -273.298599 
L 251.331821 -281.195901 
L 252.680055 -290.90451 
L 254.028288 -301.603301 
L 255.376521 -308.172311 
L 256.724754 -306.095344 
L 258.072987 -296.821449 
L 259.42122 -285.144552 
L 260.769454 -273.781615 
L 262.117687 -262.33415 
L 263.46592 -249.703297 
L 264.814153 -235.418117 
L 266.162386 -219.840871 
L 267.510619 -204.529283 
L 268.858853 -190.847872 
L 270.207086 -178.410225 
L 271.555319 -167.119741 
L 272.903552 -156.988493 
L 274.251785 -147.883653 
L 275.600018 -140.807477 
L 276.948252 -135.337328 
L 278.296485 -131.461129 
L 279.644718 -128.81662 
L 280.992951 -127.065689 
L 282.341184 -124.517783 
L 283.689417 -122.22346 
L 285.037651 -120.110268 
L 286.385884 -118.45594 
L 287.734117 -117.115572 
L 289.08235 -115.968411 
L 290.430583 -114.289932 
L 291.778816 -112.732207 
L 293.12705 -111.150332 
L 294.475283 -110.244678 
L 295.823516 -109.206195 
L 297.171749 -108.493747 
L 298.519982 -107.105078 
L 299.868215 -105.776786 
L 301.216448 -104.95566 
L 302.564682 -104.098307 
L 303.912915 -103.204729 
L 305.261148 -102.190396 
L 306.609381 -100.777576 
L 307.957614 -99.678716 
L 309.305847 -98.374575 
L 310.654081 -97.60175 
L 312.002314 -96.768549 
L 313.350547 -96.03195 
L 314.69878 -94.77611 
L 316.047013 -93.556496 
L 317.395246 -92.348958 
L 318.74348 -91.382927 
L 320.091713 -90.863686 
L 321.439946 -89.897655 
L 322.788179 -88.448609 
L 324.136412 -87.385975 
L 325.484645 -86.347492 
L 326.832879 -85.659195 
L 328.181112 -84.995049 
L 329.529345 -84.367129 
L 330.877578 -83.570153 
L 332.225811 -82.676575 
L 333.574044 -82.398841 
L 334.922278 -82.024504 
L 336.270511 -82.012428 
L 337.618744 -82.06073 
L 338.966977 -81.90375 
L 340.31521 -82.048655 
L 341.663443 -82.724876 
L 343.011677 -83.690907 
L 344.35991 -84.898445 
L 345.708143 -86.709753 
L 347.056376 -87.422201 
L 348.404609 -88.605589 
L 349.752842 -90.404821 
L 351.101075 -92.831973 
L 352.449309 -96.044026 
L 353.797542 -98.54363 
L 355.145775 -101.05531 
L 356.494008 -103.651518 
L 357.842241 -107.382812 
L 359.190474 -111.138257 
L 360.538708 -115.147284 
L 361.886941 -119.337443 
L 363.235174 -123.261943 
L 364.583407 -127.08984 
L 365.93164 -130.990189 
L 367.279873 -134.878463 
L 368.628107 -138.815039 
L 369.97634 -142.606709 
L 371.324573 -145.854988 
L 372.672806 -148.982513 
L 374.021039 -151.928907 
L 375.369272 -154.597567 
L 376.717506 -157.664714 
L 378.065739 -160.03149 
L 379.413972 -161.625441 
L 380.762205 -163.002034 
L 382.110438 -164.221648 
L 383.458671 -165.308433 
L 384.806905 -166.479745 
L 386.155138 -166.15371 
L 387.503371 -166.129559 
L 388.851604 -165.863901 
L 390.199837 -165.743147 
L 391.54807 -165.851825 
L 392.896304 -165.622393 
L 394.244537 -165.284282 
L 395.59277 -164.11297 
L 396.941003 -163.303919 
L 398.289236 -162.579396 
L 399.637469 -162.422416 
L 400.985702 -162.313737 
L 402.333936 -161.685817 
L 403.682169 -161.082048 
L 405.030402 -160.043565 
L 406.378635 -159.500173 
L 407.726868 -159.198288 
L 409.075101 -159.355268 
L 410.423335 -158.920554 
L 411.771568 -158.17188 
L 413.119801 -157.338679 
L 414.468034 -157.411131 
L 415.816267 -157.67679 
L 417.1645 -158.087353 
L 418.512734 -158.039051 
L 419.860967 -157.254151 
L 421.2092 -156.867739 
L 422.557433 -156.674533 
L 423.905666 -156.57793 
L 425.253899 -156.650382 
L 426.602133 -156.662457 
L 427.950366 -156.167367 
L 429.298599 -155.672276 
L 430.646832 -155.539447 
L 431.995065 -155.599823 
L 433.343298 -155.63605 
L 434.691532 -155.47907 
L 436.039765 -155.358316 
L 437.387998 -154.500963 
L 438.736231 -153.981722 
L 440.084464 -154.199079 
L 441.432697 -153.90927 
L 442.780931 -154.162853 
L 444.129164 -153.136445 
L 445.477397 -152.641354 
L 446.82563 -152.399847 
L 448.173863 -152.110037 
L 449.522096 -152.472299 
L 450.870329 -152.5206 
L 452.218563 -151.7357 
L 453.566796 -151.08363 
L 454.915029 -150.987026 
L 456.263262 -150.878348 
L 457.611495 -150.938725 
L 458.959728 -150.890423 
L 460.307962 -150.504011 
L 461.656195 -149.646659 
L 463.004428 -149.53798 
L 464.352661 -149.320623 
L 465.700894 -149.429302 
L 467.049127 -149.175719 
L 468.397361 -148.88591 
L 469.745594 -148.584025 
L 471.093827 -148.620251 
L 472.44206 -148.584025 
L 473.790293 -148.535723 
L 475.138526 -148.390819 
L 476.48676 -147.569693 
L 477.834993 -146.953848 
L 479.183226 -146.410456 
L 480.531459 -146.543285 
L 481.879692 -146.096496 
L 483.227925 -145.939516 
L 484.576159 -145.589329 
L 485.924392 -145.154616 
L 487.272625 -144.961409 
L 488.620858 -144.719902 
L 489.969091 -144.804429 
L 491.317324 -144.188585 
L 492.665558 -143.560665 
L 494.013791 -143.210479 
L 495.362024 -143.246705 
L 496.710257 -143.295006 
L 498.05849 -143.753871 
L 499.406723 -144.297263 
L 500.754956 -144.35764 
L 502.10319 -144.333489 
L 503.451423 -144.067831 
L 504.799656 -143.922926 
L 506.147889 -143.910851 
L 507.496122 -144.128208 
L 508.844355 -143.898776 
L 510.192589 -143.753871 
L 511.540822 -143.898776 
L 512.889055 -143.838399 
L 514.237288 -143.971228 
L 515.585521 -144.369716 
L 516.933754 -143.959153 
L 518.281988 -143.57274 
L 519.630221 -143.910851 
L 520.978454 -144.635374 
L 522.326687 -145.118389 
L 523.67492 -145.492726 
L 525.023153 -145.311596 
L 525.023153 -221.443035 
L 525.023153 -221.443035 
L 523.67492 -221.624166 
L 522.326687 -221.249829 
L 520.978454 -220.766814 
L 519.630221 -220.04229 
L 518.281988 -219.70418 
L 516.933754 -220.090592 
L 515.585521 -220.501155 
L 514.237288 -220.102667 
L 512.889055 -219.969838 
L 511.540822 -220.030215 
L 510.192589 -219.88531 
L 508.844355 -220.030215 
L 507.496122 -220.259647 
L 506.147889 -220.04229 
L 504.799656 -220.054366 
L 503.451423 -220.19927 
L 502.10319 -220.464929 
L 500.754956 -220.48908 
L 499.406723 -220.428703 
L 498.05849 -219.88531 
L 496.710257 -219.426446 
L 495.362024 -219.378144 
L 494.013791 -219.341918 
L 492.665558 -219.692104 
L 491.317324 -220.320024 
L 489.969091 -220.935869 
L 488.620858 -220.851341 
L 487.272625 -221.092849 
L 485.924392 -221.286055 
L 484.576159 -221.720769 
L 483.227925 -222.070955 
L 481.879692 -222.227935 
L 480.531459 -222.674724 
L 479.183226 -222.541895 
L 477.834993 -223.085287 
L 476.48676 -223.701132 
L 475.138526 -224.522258 
L 473.790293 -224.667163 
L 472.44206 -224.715464 
L 471.093827 -224.751691 
L 469.745594 -224.715464 
L 468.397361 -225.017349 
L 467.049127 -225.307158 
L 465.700894 -225.560741 
L 464.352661 -225.452063 
L 463.004428 -225.66942 
L 461.656195 -225.778098 
L 460.307962 -226.635451 
L 458.959728 -227.021863 
L 457.611495 -227.070164 
L 456.263262 -227.009787 
L 454.915029 -227.118466 
L 453.566796 -227.215069 
L 452.218563 -227.86714 
L 450.870329 -228.65204 
L 449.522096 -228.603738 
L 448.173863 -228.241477 
L 446.82563 -228.531286 
L 445.477397 -228.772794 
L 444.129164 -229.267884 
L 442.780931 -230.294292 
L 441.432697 -230.040709 
L 440.084464 -230.330518 
L 438.736231 -230.113161 
L 437.387998 -230.632403 
L 436.039765 -231.489755 
L 434.691532 -231.610509 
L 433.343298 -231.767489 
L 431.995065 -231.731263 
L 430.646832 -231.670886 
L 429.298599 -231.803715 
L 427.950366 -232.298806 
L 426.602133 -232.793897 
L 425.253899 -232.781821 
L 423.905666 -232.709369 
L 422.557433 -232.805972 
L 421.2092 -232.999178 
L 419.860967 -233.385591 
L 418.512734 -234.170491 
L 417.1645 -234.218792 
L 415.816267 -233.808229 
L 414.468034 -233.542571 
L 413.119801 -233.470118 
L 411.771568 -234.30332 
L 410.423335 -235.051994 
L 409.075101 -235.486708 
L 407.726868 -235.329728 
L 406.378635 -235.631612 
L 405.030402 -236.175005 
L 403.682169 -237.213488 
L 402.333936 -237.817257 
L 400.985702 -238.445177 
L 399.637469 -238.553855 
L 398.289236 -238.710835 
L 396.941003 -239.435358 
L 395.59277 -240.244409 
L 394.244537 -241.415722 
L 392.896304 -241.753832 
L 391.54807 -241.983265 
L 390.199837 -241.874586 
L 388.851604 -241.99534 
L 387.503371 -242.260999 
L 386.155138 -242.285149 
L 384.806905 -242.611185 
L 383.458671 -241.439872 
L 382.110438 -240.353088 
L 380.762205 -239.133474 
L 379.413972 -237.75688 
L 378.065739 -236.162929 
L 376.717506 -233.796154 
L 375.369272 -230.729006 
L 374.021039 -228.060346 
L 372.672806 -225.113952 
L 371.324573 -221.986427 
L 369.97634 -218.738149 
L 368.628107 -214.946478 
L 367.279873 -211.009903 
L 365.93164 -207.121629 
L 364.583407 -203.221279 
L 363.235174 -199.393382 
L 361.886941 -195.468882 
L 360.538708 -191.278724 
L 359.190474 -187.269696 
L 357.842241 -183.514251 
L 356.494008 -179.782958 
L 355.145775 -177.18675 
L 353.797542 -174.67507 
L 352.449309 -172.175465 
L 351.101075 -168.963413 
L 349.752842 -166.53626 
L 348.404609 -164.737028 
L 347.056376 -163.55364 
L 345.708143 -162.841193 
L 344.35991 -161.029885 
L 343.011677 -159.822346 
L 341.663443 -158.856316 
L 340.31521 -158.180094 
L 338.966977 -158.035189 
L 337.618744 -158.192169 
L 336.270511 -158.143868 
L 334.922278 -158.155943 
L 333.574044 -158.53028 
L 332.225811 -158.808014 
L 330.877578 -159.701593 
L 329.529345 -160.498568 
L 328.181112 -161.126488 
L 326.832879 -161.790634 
L 325.484645 -162.478931 
L 324.136412 -163.517414 
L 322.788179 -164.580048 
L 321.439946 -166.029094 
L 320.091713 -166.995125 
L 318.74348 -167.514367 
L 317.395246 -168.480397 
L 316.047013 -169.687936 
L 314.69878 -170.90755 
L 313.350547 -172.16339 
L 312.002314 -172.899988 
L 310.654081 -173.73319 
L 309.305847 -174.506014 
L 307.957614 -175.810156 
L 306.609381 -176.909016 
L 305.261148 -178.321836 
L 303.912915 -179.336168 
L 302.564682 -180.229747 
L 301.216448 -181.087099 
L 299.868215 -181.908225 
L 298.519982 -183.236518 
L 297.171749 -184.625187 
L 295.823516 -185.337635 
L 294.475283 -186.376118 
L 293.12705 -187.281771 
L 291.778816 -188.863647 
L 290.430583 -190.421372 
L 289.08235 -192.09985 
L 287.734117 -193.247012 
L 286.385884 -194.587379 
L 285.037651 -196.241707 
L 283.689417 -198.354899 
L 282.341184 -200.649222 
L 280.992951 -203.197129 
L 279.644718 -204.948059 
L 278.296485 -207.592569 
L 276.948252 -211.468767 
L 275.600018 -216.938917 
L 274.251785 -224.015092 
L 272.903552 -233.119932 
L 271.555319 -243.25118 
L 270.207086 -254.541665 
L 268.858853 -266.979311 
L 267.510619 -280.660722 
L 266.162386 -295.97231 
L 264.814153 -311.549557 
L 263.46592 -325.834737 
L 262.117687 -338.465589 
L 260.769454 -349.913054 
L 259.42122 -361.275991 
L 258.072987 -372.952888 
L 256.724754 -382.226784 
L 255.376521 -384.30375 
L 254.028288 -377.734741 
L 252.680055 -367.03595 
L 251.331821 -357.32734 
L 249.983588 -349.430039 
L 248.635355 -341.218777 
L 247.287122 -329.215845 
L 245.938889 -312.817472 
L 244.590656 -292.470449 
L 243.242423 -268.138548 
L 241.894189 -242.538732 
L 240.545956 -221.877749 
L 239.197723 -210.502736 
L 237.84949 -209.609158 
L 236.501257 -213.388753 
L 235.153024 -217.880797 
L 233.80479 -221.45511 
L 232.456557 -223.954715 
L 231.108324 -224.932821 
L 229.760091 -225.403761 
L 228.411858 -225.717721 
L 227.063625 -225.476214 
L 225.715391 -226.079983 
L 224.367158 -226.29734 
L 223.018925 -226.092058 
L 221.670692 -225.560741 
L 220.322459 -225.258857 
L 218.974226 -225.19848 
L 217.625992 -225.584892 
L 216.277759 -225.681495 
L 214.929526 -225.162254 
L 213.581293 -224.751691 
L 212.23306 -224.316977 
L 210.884827 -224.111695 
L 209.536593 -224.473957 
L 208.18836 -224.739615 
L 206.840127 -224.486032 
L 205.491894 -223.954715 
L 204.143661 -223.821886 
L 202.795428 -223.556227 
L 201.447194 -223.918489 
L 200.098961 -224.461881 
L 198.750728 -224.353203 
L 197.402495 -223.78566 
L 196.054262 -223.870187 
L 194.706029 -224.015092 
L 193.357796 -224.41358 
L 192.009562 -224.594711 
L 190.661329 -224.630937 
L 189.313096 -223.858112 
L 187.964863 -223.495851 
L 186.61663 -223.483775 
L 185.268397 -223.725283 
L 183.920163 -224.184147 
L 182.57193 -224.196223 
L 181.223697 -223.894338 
L 179.875464 -223.193966 
L 178.527231 -223.097363 
L 177.178998 -223.133589 
L 175.830764 -223.193966 
L 174.482531 -223.073212 
L 173.134298 -223.049061 
L 171.786065 -222.723026 
L 170.437832 -222.735101 
L 169.089599 -223.121514 
L 167.741365 -223.338871 
L 166.393132 -223.061137 
L 165.044899 -222.84378 
L 163.696666 -222.493594 
L 162.348433 -222.541895 
L 161.0002 -222.493594 
L 159.651966 -222.904157 
L 158.303733 -222.433217 
L 156.9555 -221.974352 
L 155.607267 -222.070955 
L 154.259034 -222.360764 
L 152.910801 -222.602272 
L 151.562567 -222.892081 
L 150.214334 -222.21586 
L 148.866101 -221.624166 
L 147.517868 -221.58794 
L 146.169635 -221.153226 
L 144.821402 -221.563789 
L 143.473169 -222.300387 
L 142.124935 -222.08303 
L 140.776702 -221.708694 
L 139.428469 -221.213603 
L 138.080236 -220.863417 
L 136.732003 -221.515487 
L 135.38377 -222.010578 
L 134.035536 -221.418884 
L 132.687303 -221.418884 
L 131.33907 -220.98417 
L 129.990837 -221.104924 
L 128.642604 -221.648317 
L 127.294371 -221.732844 
L 125.946137 -221.551714 
L 124.597904 -221.370583 
L 123.249671 -220.82719 
L 121.901438 -220.911718 
L 120.553205 -221.406809 
L 119.204972 -221.539638 
z
" style="stroke: #808080; stroke-opacity: 0.3"/>
    </defs>
    <g clip-path="url(#pdd5687b07b)">
     <use xlink:href="#me3b49e6077" x="0" y="406.62375" style="fill: #808080; fill-opacity: 0.3; stroke: #808080; stroke-opacity: 0.3"/>
    </g>
   </g>
   <g id="matplotlib.axis_1">
    <g id="xtick_1">
     <g id="line2d_1">
      <defs>
       <path id="m32d2810d42" d="M 0 0 
L 0 -3.5 
" style="stroke: #000000; stroke-width: 2"/>
      </defs>
      <g>
       <use xlink:href="#m32d2810d42" x="119.204972" y="339.84" style="stroke: #000000; stroke-width: 2"/>
      </g>
     </g>
     <g id="text_1">
      <!-- 0 -->
      <g transform="translate(112.206222 363.556563) scale(0.22 -0.22)">
       <defs>
        <path id="DejaVuSans-30" d="M 2034 4250 
Q 1547 4250 1301 3770 
Q 1056 3291 1056 2328 
Q 1056 1369 1301 889 
Q 1547 409 2034 409 
Q 2525 409 2770 889 
Q 3016 1369 3016 2328 
Q 3016 3291 2770 3770 
Q 2525 4250 2034 4250 
z
M 2034 4750 
Q 2819 4750 3233 4129 
Q 3647 3509 3647 2328 
Q 3647 1150 3233 529 
Q 2819 -91 2034 -91 
Q 1250 -91 836 529 
Q 422 1150 422 2328 
Q 422 3509 836 4129 
Q 1250 4750 2034 4750 
z
" transform="scale(0.015625)"/>
       </defs>
       <use xlink:href="#DejaVuSans-30"/>
      </g>
     </g>
    </g>
    <g id="xtick_2">
     <g id="line2d_2">
      <g>
       <use xlink:href="#m32d2810d42" x="254.028288" y="339.84" style="stroke: #000000; stroke-width: 2"/>
      </g>
     </g>
     <g id="text_2">
      <!-- 100 -->
      <g transform="translate(233.032038 363.556563) scale(0.22 -0.22)">
       <defs>
        <path id="DejaVuSans-31" d="M 794 531 
L 1825 531 
L 1825 4091 
L 703 3866 
L 703 4441 
L 1819 4666 
L 2450 4666 
L 2450 531 
L 3481 531 
L 3481 0 
L 794 0 
L 794 531 
z
" transform="scale(0.015625)"/>
       </defs>
       <use xlink:href="#DejaVuSans-31"/>
       <use xlink:href="#DejaVuSans-30" x="63.623047"/>
       <use xlink:href="#DejaVuSans-30" x="127.246094"/>
      </g>
     </g>
    </g>
    <g id="xtick_3">
     <g id="line2d_3">
      <g>
       <use xlink:href="#m32d2810d42" x="388.851604" y="339.84" style="stroke: #000000; stroke-width: 2"/>
      </g>
     </g>
     <g id="text_3">
      <!-- 200 -->
      <g transform="translate(367.855354 363.556563) scale(0.22 -0.22)">
       <defs>
        <path id="DejaVuSans-32" d="M 1228 531 
L 3431 531 
L 3431 0 
L 469 0 
L 469 531 
Q 828 903 1448 1529 
Q 2069 2156 2228 2338 
Q 2531 2678 2651 2914 
Q 2772 3150 2772 3378 
Q 2772 3750 2511 3984 
Q 2250 4219 1831 4219 
Q 1534 4219 1204 4116 
Q 875 4013 500 3803 
L 500 4441 
Q 881 4594 1212 4672 
Q 1544 4750 1819 4750 
Q 2544 4750 2975 4387 
Q 3406 4025 3406 3419 
Q 3406 3131 3298 2873 
Q 3191 2616 2906 2266 
Q 2828 2175 2409 1742 
Q 1991 1309 1228 531 
z
" transform="scale(0.015625)"/>
       </defs>
       <use xlink:href="#DejaVuSans-32"/>
       <use xlink:href="#DejaVuSans-30" x="63.623047"/>
       <use xlink:href="#DejaVuSans-30" x="127.246094"/>
      </g>
     </g>
    </g>
    <g id="xtick_4">
     <g id="line2d_4">
      <g>
       <use xlink:href="#m32d2810d42" x="523.67492" y="339.84" style="stroke: #000000; stroke-width: 2"/>
      </g>
     </g>
     <g id="text_4">
      <!-- 300 -->
      <g transform="translate(502.67867 363.556563) scale(0.22 -0.22)">
       <defs>
        <path id="DejaVuSans-33" d="M 2597 2516 
Q 3050 2419 3304 2112 
Q 3559 1806 3559 1356 
Q 3559 666 3084 287 
Q 2609 -91 1734 -91 
Q 1441 -91 1130 -33 
Q 819 25 488 141 
L 488 750 
Q 750 597 1062 519 
Q 1375 441 1716 441 
Q 2309 441 2620 675 
Q 2931 909 2931 1356 
Q 2931 1769 2642 2001 
Q 2353 2234 1838 2234 
L 1294 2234 
L 1294 2753 
L 1863 2753 
Q 2328 2753 2575 2939 
Q 2822 3125 2822 3475 
Q 2822 3834 2567 4026 
Q 2313 4219 1838 4219 
Q 1578 4219 1281 4162 
Q 984 4106 628 3988 
L 628 4550 
Q 988 4650 1302 4700 
Q 1616 4750 1894 4750 
Q 2613 4750 3031 4423 
Q 3450 4097 3450 3541 
Q 3450 3153 3228 2886 
Q 3006 2619 2597 2516 
z
" transform="scale(0.015625)"/>
       </defs>
       <use xlink:href="#DejaVuSans-33"/>
       <use xlink:href="#DejaVuSans-30" x="63.623047"/>
       <use xlink:href="#DejaVuSans-30" x="127.246094"/>
      </g>
     </g>
    </g>
    <g id="text_5">
     <!-- Sample -->
     <g transform="translate(280.8675 394.848438) scale(0.22 -0.22)">
      <defs>
       <path id="DejaVuSans-53" d="M 3425 4513 
L 3425 3897 
Q 3066 4069 2747 4153 
Q 2428 4238 2131 4238 
Q 1616 4238 1336 4038 
Q 1056 3838 1056 3469 
Q 1056 3159 1242 3001 
Q 1428 2844 1947 2747 
L 2328 2669 
Q 3034 2534 3370 2195 
Q 3706 1856 3706 1288 
Q 3706 609 3251 259 
Q 2797 -91 1919 -91 
Q 1588 -91 1214 -16 
Q 841 59 441 206 
L 441 856 
Q 825 641 1194 531 
Q 1563 422 1919 422 
Q 2459 422 2753 634 
Q 3047 847 3047 1241 
Q 3047 1584 2836 1778 
Q 2625 1972 2144 2069 
L 1759 2144 
Q 1053 2284 737 2584 
Q 422 2884 422 3419 
Q 422 4038 858 4394 
Q 1294 4750 2059 4750 
Q 2388 4750 2728 4690 
Q 3069 4631 3425 4513 
z
" transform="scale(0.015625)"/>
       <path id="DejaVuSans-61" d="M 2194 1759 
Q 1497 1759 1228 1600 
Q 959 1441 959 1056 
Q 959 750 1161 570 
Q 1363 391 1709 391 
Q 2188 391 2477 730 
Q 2766 1069 2766 1631 
L 2766 1759 
L 2194 1759 
z
M 3341 1997 
L 3341 0 
L 2766 0 
L 2766 531 
Q 2569 213 2275 61 
Q 1981 -91 1556 -91 
Q 1019 -91 701 211 
Q 384 513 384 1019 
Q 384 1609 779 1909 
Q 1175 2209 1959 2209 
L 2766 2209 
L 2766 2266 
Q 2766 2663 2505 2880 
Q 2244 3097 1772 3097 
Q 1472 3097 1187 3025 
Q 903 2953 641 2809 
L 641 3341 
Q 956 3463 1253 3523 
Q 1550 3584 1831 3584 
Q 2591 3584 2966 3190 
Q 3341 2797 3341 1997 
z
" transform="scale(0.015625)"/>
       <path id="DejaVuSans-6d" d="M 3328 2828 
Q 3544 3216 3844 3400 
Q 4144 3584 4550 3584 
Q 5097 3584 5394 3201 
Q 5691 2819 5691 2113 
L 5691 0 
L 5113 0 
L 5113 2094 
Q 5113 2597 4934 2840 
Q 4756 3084 4391 3084 
Q 3944 3084 3684 2787 
Q 3425 2491 3425 1978 
L 3425 0 
L 2847 0 
L 2847 2094 
Q 2847 2600 2669 2842 
Q 2491 3084 2119 3084 
Q 1678 3084 1418 2786 
Q 1159 2488 1159 1978 
L 1159 0 
L 581 0 
L 581 3500 
L 1159 3500 
L 1159 2956 
Q 1356 3278 1631 3431 
Q 1906 3584 2284 3584 
Q 2666 3584 2933 3390 
Q 3200 3197 3328 2828 
z
" transform="scale(0.015625)"/>
       <path id="DejaVuSans-70" d="M 1159 525 
L 1159 -1331 
L 581 -1331 
L 581 3500 
L 1159 3500 
L 1159 2969 
Q 1341 3281 1617 3432 
Q 1894 3584 2278 3584 
Q 2916 3584 3314 3078 
Q 3713 2572 3713 1747 
Q 3713 922 3314 415 
Q 2916 -91 2278 -91 
Q 1894 -91 1617 61 
Q 1341 213 1159 525 
z
M 3116 1747 
Q 3116 2381 2855 2742 
Q 2594 3103 2138 3103 
Q 1681 3103 1420 2742 
Q 1159 2381 1159 1747 
Q 1159 1113 1420 752 
Q 1681 391 2138 391 
Q 2594 391 2855 752 
Q 3116 1113 3116 1747 
z
" transform="scale(0.015625)"/>
       <path id="DejaVuSans-6c" d="M 603 4863 
L 1178 4863 
L 1178 0 
L 603 0 
L 603 4863 
z
" transform="scale(0.015625)"/>
       <path id="DejaVuSans-65" d="M 3597 1894 
L 3597 1613 
L 953 1613 
Q 991 1019 1311 708 
Q 1631 397 2203 397 
Q 2534 397 2845 478 
Q 3156 559 3463 722 
L 3463 178 
Q 3153 47 2828 -22 
Q 2503 -91 2169 -91 
Q 1331 -91 842 396 
Q 353 884 353 1716 
Q 353 2575 817 3079 
Q 1281 3584 2069 3584 
Q 2775 3584 3186 3129 
Q 3597 2675 3597 1894 
z
M 3022 2063 
Q 3016 2534 2758 2815 
Q 2500 3097 2075 3097 
Q 1594 3097 1305 2825 
Q 1016 2553 972 2059 
L 3022 2063 
z
" transform="scale(0.015625)"/>
      </defs>
      <use xlink:href="#DejaVuSans-53"/>
      <use xlink:href="#DejaVuSans-61" x="63.476562"/>
      <use xlink:href="#DejaVuSans-6d" x="124.755859"/>
      <use xlink:href="#DejaVuSans-70" x="222.167969"/>
      <use xlink:href="#DejaVuSans-6c" x="285.644531"/>
      <use xlink:href="#DejaVuSans-65" x="313.427734"/>
     </g>
    </g>
   </g>
   <g id="matplotlib.axis_2">
    <g id="ytick_1">
     <g id="line2d_5">
      <defs>
       <path id="m2d4196ddce" d="M 0 0 
L 3.5 0 
" style="stroke: #000000; stroke-width: 2"/>
      </defs>
      <g>
       <use xlink:href="#m2d4196ddce" x="98.914062" y="303.168369" style="stroke: #000000; stroke-width: 2"/>
      </g>
     </g>
     <g id="text_6">
      <!-- −0.5 -->
      <g transform="translate(38.491875 311.52665) scale(0.22 -0.22)">
       <defs>
        <path id="DejaVuSans-2212" d="M 678 2272 
L 4684 2272 
L 4684 1741 
L 678 1741 
L 678 2272 
z
" transform="scale(0.015625)"/>
        <path id="DejaVuSans-2e" d="M 684 794 
L 1344 794 
L 1344 0 
L 684 0 
L 684 794 
z
" transform="scale(0.015625)"/>
        <path id="DejaVuSans-35" d="M 691 4666 
L 3169 4666 
L 3169 4134 
L 1269 4134 
L 1269 2991 
Q 1406 3038 1543 3061 
Q 1681 3084 1819 3084 
Q 2600 3084 3056 2656 
Q 3513 2228 3513 1497 
Q 3513 744 3044 326 
Q 2575 -91 1722 -91 
Q 1428 -91 1123 -41 
Q 819 9 494 109 
L 494 744 
Q 775 591 1075 516 
Q 1375 441 1709 441 
Q 2250 441 2565 725 
Q 2881 1009 2881 1497 
Q 2881 1984 2565 2268 
Q 2250 2553 1709 2553 
Q 1456 2553 1204 2497 
Q 953 2441 691 2322 
L 691 4666 
z
" transform="scale(0.015625)"/>
       </defs>
       <use xlink:href="#DejaVuSans-2212"/>
       <use xlink:href="#DejaVuSans-30" x="83.789062"/>
       <use xlink:href="#DejaVuSans-2e" x="147.412109"/>
       <use xlink:href="#DejaVuSans-35" x="179.199219"/>
      </g>
     </g>
    </g>
    <g id="ytick_2">
     <g id="line2d_6">
      <g>
       <use xlink:href="#m2d4196ddce" x="98.914062" y="222.240819" style="stroke: #000000; stroke-width: 2"/>
      </g>
     </g>
     <g id="text_7">
      <!-- 0.0 -->
      <g transform="translate(56.927188 230.5991) scale(0.22 -0.22)">
       <use xlink:href="#DejaVuSans-30"/>
       <use xlink:href="#DejaVuSans-2e" x="63.623047"/>
       <use xlink:href="#DejaVuSans-30" x="95.410156"/>
      </g>
     </g>
    </g>
    <g id="ytick_3">
     <g id="line2d_7">
      <g>
       <use xlink:href="#m2d4196ddce" x="98.914062" y="141.313269" style="stroke: #000000; stroke-width: 2"/>
      </g>
     </g>
     <g id="text_8">
      <!-- 0.5 -->
      <g transform="translate(56.927188 149.671551) scale(0.22 -0.22)">
       <use xlink:href="#DejaVuSans-30"/>
       <use xlink:href="#DejaVuSans-2e" x="63.623047"/>
       <use xlink:href="#DejaVuSans-35" x="95.410156"/>
      </g>
     </g>
    </g>
    <g id="ytick_4">
     <g id="line2d_8">
      <g>
       <use xlink:href="#m2d4196ddce" x="98.914062" y="60.38572" style="stroke: #000000; stroke-width: 2"/>
      </g>
     </g>
     <g id="text_9">
      <!-- 1.0 -->
      <g transform="translate(56.927188 68.744001) scale(0.22 -0.22)">
       <use xlink:href="#DejaVuSans-31"/>
       <use xlink:href="#DejaVuSans-2e" x="63.623047"/>
       <use xlink:href="#DejaVuSans-30" x="95.410156"/>
      </g>
     </g>
    </g>
    <g id="text_10">
     <!-- Amplitude(mV) -->
     <g transform="translate(23.916562 256.712656) rotate(-90) scale(0.22 -0.22)">
      <defs>
       <path id="DejaVuSans-41" d="M 2188 4044 
L 1331 1722 
L 3047 1722 
L 2188 4044 
z
M 1831 4666 
L 2547 4666 
L 4325 0 
L 3669 0 
L 3244 1197 
L 1141 1197 
L 716 0 
L 50 0 
L 1831 4666 
z
" transform="scale(0.015625)"/>
       <path id="DejaVuSans-69" d="M 603 3500 
L 1178 3500 
L 1178 0 
L 603 0 
L 603 3500 
z
M 603 4863 
L 1178 4863 
L 1178 4134 
L 603 4134 
L 603 4863 
z
" transform="scale(0.015625)"/>
       <path id="DejaVuSans-74" d="M 1172 4494 
L 1172 3500 
L 2356 3500 
L 2356 3053 
L 1172 3053 
L 1172 1153 
Q 1172 725 1289 603 
Q 1406 481 1766 481 
L 2356 481 
L 2356 0 
L 1766 0 
Q 1100 0 847 248 
Q 594 497 594 1153 
L 594 3053 
L 172 3053 
L 172 3500 
L 594 3500 
L 594 4494 
L 1172 4494 
z
" transform="scale(0.015625)"/>
       <path id="DejaVuSans-75" d="M 544 1381 
L 544 3500 
L 1119 3500 
L 1119 1403 
Q 1119 906 1312 657 
Q 1506 409 1894 409 
Q 2359 409 2629 706 
Q 2900 1003 2900 1516 
L 2900 3500 
L 3475 3500 
L 3475 0 
L 2900 0 
L 2900 538 
Q 2691 219 2414 64 
Q 2138 -91 1772 -91 
Q 1169 -91 856 284 
Q 544 659 544 1381 
z
M 1991 3584 
L 1991 3584 
z
" transform="scale(0.015625)"/>
       <path id="DejaVuSans-64" d="M 2906 2969 
L 2906 4863 
L 3481 4863 
L 3481 0 
L 2906 0 
L 2906 525 
Q 2725 213 2448 61 
Q 2172 -91 1784 -91 
Q 1150 -91 751 415 
Q 353 922 353 1747 
Q 353 2572 751 3078 
Q 1150 3584 1784 3584 
Q 2172 3584 2448 3432 
Q 2725 3281 2906 2969 
z
M 947 1747 
Q 947 1113 1208 752 
Q 1469 391 1925 391 
Q 2381 391 2643 752 
Q 2906 1113 2906 1747 
Q 2906 2381 2643 2742 
Q 2381 3103 1925 3103 
Q 1469 3103 1208 2742 
Q 947 2381 947 1747 
z
" transform="scale(0.015625)"/>
       <path id="DejaVuSans-28" d="M 1984 4856 
Q 1566 4138 1362 3434 
Q 1159 2731 1159 2009 
Q 1159 1288 1364 580 
Q 1569 -128 1984 -844 
L 1484 -844 
Q 1016 -109 783 600 
Q 550 1309 550 2009 
Q 550 2706 781 3412 
Q 1013 4119 1484 4856 
L 1984 4856 
z
" transform="scale(0.015625)"/>
       <path id="DejaVuSans-56" d="M 1831 0 
L 50 4666 
L 709 4666 
L 2188 738 
L 3669 4666 
L 4325 4666 
L 2547 0 
L 1831 0 
z
" transform="scale(0.015625)"/>
       <path id="DejaVuSans-29" d="M 513 4856 
L 1013 4856 
Q 1481 4119 1714 3412 
Q 1947 2706 1947 2009 
Q 1947 1309 1714 600 
Q 1481 -109 1013 -844 
L 513 -844 
Q 928 -128 1133 580 
Q 1338 1288 1338 2009 
Q 1338 2731 1133 3434 
Q 928 4138 513 4856 
z
" transform="scale(0.015625)"/>
      </defs>
      <use xlink:href="#DejaVuSans-41"/>
      <use xlink:href="#DejaVuSans-6d" x="68.408203"/>
      <use xlink:href="#DejaVuSans-70" x="165.820312"/>
      <use xlink:href="#DejaVuSans-6c" x="229.296875"/>
      <use xlink:href="#DejaVuSans-69" x="257.080078"/>
      <use xlink:href="#DejaVuSans-74" x="284.863281"/>
      <use xlink:href="#DejaVuSans-75" x="324.072266"/>
      <use xlink:href="#DejaVuSans-64" x="387.451172"/>
      <use xlink:href="#DejaVuSans-65" x="450.927734"/>
      <use xlink:href="#DejaVuSans-28" x="512.451172"/>
      <use xlink:href="#DejaVuSans-6d" x="551.464844"/>
      <use xlink:href="#DejaVuSans-56" x="648.876953"/>
      <use xlink:href="#DejaVuSans-29" x="717.285156"/>
     </g>
    </g>
   </g>
   <g id="line2d_9">
    <path d="M 119.204972 223.149832 
L 120.553205 223.282661 
L 121.901438 223.777752 
L 123.249671 223.862279 
L 124.597904 223.318887 
L 127.294371 222.956625 
L 128.642604 223.041153 
L 129.990837 223.584545 
L 131.33907 223.705299 
L 132.687303 223.270585 
L 134.035536 223.270585 
L 135.38377 222.678892 
L 136.732003 223.173982 
L 138.080236 223.826053 
L 139.428469 223.475867 
L 140.776702 222.980776 
L 142.124935 222.606439 
L 143.473169 222.389082 
L 144.821402 223.125681 
L 146.169635 223.536244 
L 147.517868 223.10153 
L 148.866101 223.065304 
L 151.562567 221.797388 
L 155.607267 222.618515 
L 156.9555 222.715118 
L 159.651966 221.785313 
L 161.0002 222.195876 
L 163.696666 222.195876 
L 165.044899 221.84569 
L 167.741365 221.350599 
L 169.089599 221.567956 
L 170.437832 221.954368 
L 171.786065 221.966444 
L 173.134298 221.640408 
L 179.875464 221.495504 
L 181.223697 220.795132 
L 182.57193 220.493247 
L 183.920163 220.505322 
L 185.268397 220.964187 
L 186.61663 221.205695 
L 187.964863 221.193619 
L 189.313096 220.831358 
L 190.661329 220.058533 
L 192.009562 220.094759 
L 193.357796 220.27589 
L 194.706029 220.674378 
L 197.402495 220.90381 
L 198.750728 220.336267 
L 200.098961 220.227588 
L 201.447194 220.770981 
L 202.795428 221.133242 
L 204.143661 220.867584 
L 205.491894 220.734755 
L 206.840127 220.203438 
L 208.18836 219.949855 
L 210.884827 220.577775 
L 212.23306 220.372493 
L 216.277759 219.007975 
L 217.625992 219.104578 
L 218.974226 219.49099 
L 220.322459 219.430613 
L 221.670692 219.128728 
L 223.018925 218.597411 
L 224.367158 218.39213 
L 225.715391 218.609487 
L 227.063625 219.213256 
L 228.411858 218.971748 
L 229.760091 219.285708 
L 231.108324 219.756648 
L 232.456557 220.734755 
L 233.80479 223.234359 
L 235.153024 226.808673 
L 236.501257 231.300716 
L 237.84949 235.080312 
L 239.197723 234.186733 
L 240.545956 222.811721 
L 241.894189 202.150737 
L 244.590656 152.219021 
L 245.938889 131.871998 
L 247.287122 115.473625 
L 248.635355 103.470693 
L 251.331821 87.362129 
L 252.680055 77.65352 
L 254.028288 66.954729 
L 255.376521 60.38572 
L 256.724754 62.462686 
L 258.072987 71.736581 
L 263.46592 118.854733 
L 264.814153 133.139913 
L 267.510619 164.028748 
L 268.858853 177.710159 
L 270.207086 190.147805 
L 271.555319 201.43829 
L 272.903552 211.569538 
L 274.251785 220.674378 
L 275.600018 227.750553 
L 276.948252 233.220702 
L 278.296485 237.096901 
L 279.644718 239.74141 
L 280.992951 241.492341 
L 282.341184 244.040247 
L 285.037651 248.447763 
L 286.385884 250.10209 
L 287.734117 251.442458 
L 289.08235 252.58962 
L 291.778816 255.825823 
L 293.12705 257.407698 
L 297.171749 260.064283 
L 299.868215 262.781245 
L 303.912915 265.353301 
L 305.261148 266.367634 
L 306.609381 267.780454 
L 307.957614 268.879314 
L 309.305847 270.183455 
L 313.350547 272.52608 
L 317.395246 276.209072 
L 318.74348 277.175103 
L 320.091713 277.694345 
L 321.439946 278.660376 
L 322.788179 280.109422 
L 325.484645 282.210539 
L 330.877578 284.987877 
L 332.225811 285.881456 
L 334.922278 286.533526 
L 340.31521 286.509376 
L 341.663443 285.833154 
L 343.011677 284.867123 
L 344.35991 283.659585 
L 345.708143 281.848277 
L 347.056376 281.135829 
L 348.404609 279.952442 
L 349.752842 278.153209 
L 351.101075 275.726057 
L 352.449309 272.514005 
L 356.494008 264.906512 
L 360.538708 253.410746 
L 363.235174 245.296087 
L 369.97634 225.951321 
L 372.672806 219.575518 
L 374.021039 216.629124 
L 375.369272 213.960464 
L 376.717506 210.893316 
L 378.065739 208.526541 
L 379.413972 206.93259 
L 382.110438 204.336382 
L 384.806905 202.078285 
L 386.155138 202.40432 
L 387.503371 202.428471 
L 388.851604 202.69413 
L 390.199837 202.814884 
L 391.54807 202.706205 
L 394.244537 203.273748 
L 395.59277 204.44506 
L 398.289236 205.978634 
L 400.985702 206.244293 
L 403.682169 207.475982 
L 405.030402 208.514465 
L 406.378635 209.057857 
L 407.726868 209.359742 
L 409.075101 209.202762 
L 410.423335 209.637476 
L 413.119801 211.219351 
L 414.468034 211.146899 
L 415.816267 210.881241 
L 417.1645 210.470678 
L 418.512734 210.518979 
L 419.860967 211.303879 
L 421.2092 211.690291 
L 423.905666 211.980101 
L 426.602133 211.895573 
L 429.298599 212.885754 
L 430.646832 213.018584 
L 433.343298 212.921981 
L 436.039765 213.199714 
L 437.387998 214.057067 
L 438.736231 214.576308 
L 440.084464 214.358951 
L 441.432697 214.648761 
L 442.780931 214.395178 
L 444.129164 215.421585 
L 445.477397 215.916676 
L 448.173863 216.447993 
L 449.522096 216.085731 
L 450.870329 216.03743 
L 452.218563 216.82233 
L 453.566796 217.474401 
L 456.263262 217.679682 
L 458.959728 217.667607 
L 460.307962 218.054019 
L 461.656195 218.911371 
L 467.049127 219.382312 
L 469.745594 219.974005 
L 472.44206 219.974005 
L 475.138526 220.167212 
L 476.48676 220.988338 
L 479.183226 222.147575 
L 480.531459 222.014745 
L 481.879692 222.461535 
L 483.227925 222.618515 
L 487.272625 223.596621 
L 488.620858 223.838128 
L 489.969091 223.753601 
L 492.665558 224.997365 
L 494.013791 225.347552 
L 496.710257 225.263024 
L 499.406723 224.260767 
L 502.10319 224.224541 
L 503.451423 224.490199 
L 504.799656 224.635104 
L 506.147889 224.647179 
L 507.496122 224.429822 
L 510.192589 224.804159 
L 511.540822 224.659255 
L 512.889055 224.719632 
L 514.237288 224.586802 
L 515.585521 224.188315 
L 518.281988 224.98529 
L 519.630221 224.647179 
L 520.978454 223.922656 
L 523.67492 223.065304 
L 525.023153 223.246435 
L 525.023153 223.246435 
" clip-path="url(#pdd5687b07b)" style="fill: none; stroke: #1f77b4; stroke-width: 2; stroke-linecap: square"/>
   </g>
   <g id="patch_3">
    <path d="M 98.914062 339.84 
L 98.914062 7.2 
" style="fill: none; stroke: #000000; stroke-width: 2; stroke-linejoin: miter; stroke-linecap: square"/>
   </g>
   <g id="patch_4">
    <path d="M 545.314062 339.84 
L 545.314062 7.2 
" style="fill: none; stroke: #000000; stroke-width: 2; stroke-linejoin: miter; stroke-linecap: square"/>
   </g>
   <g id="patch_5">
    <path d="M 98.914062 339.84 
L 545.314062 339.84 
" style="fill: none; stroke: #000000; stroke-width: 2; stroke-linejoin: miter; stroke-linecap: square"/>
   </g>
   <g id="patch_6">
    <path d="M 98.914062 7.2 
L 545.314062 7.2 
" style="fill: none; stroke: #000000; stroke-width: 2; stroke-linejoin: miter; stroke-linecap: square"/>
   </g>
   <g id="legend_1">
    <g id="patch_7">
     <path d="M 328.124375 74.44125 
L 532.714062 74.44125 
Q 536.314062 74.44125 536.314062 70.84125 
L 536.314062 19.8 
Q 536.314062 16.2 532.714062 16.2 
L 328.124375 16.2 
Q 324.524375 16.2 324.524375 19.8 
L 324.524375 70.84125 
Q 324.524375 74.44125 328.124375 74.44125 
z
" style="fill: #ffffff; opacity: 0.8; stroke: #cccccc; stroke-linejoin: miter"/>
    </g>
    <g id="line2d_10">
     <path d="M 331.724375 30.777188 
L 349.724375 30.777188 
L 367.724375 30.777188 
" style="fill: none; stroke: #1f77b4; stroke-width: 2; stroke-linecap: square"/>
    </g>
    <g id="text_11">
     <!-- Mean of N beats -->
     <g transform="translate(382.124375 37.077188) scale(0.18 -0.18)">
      <defs>
       <path id="DejaVuSans-4d" d="M 628 4666 
L 1569 4666 
L 2759 1491 
L 3956 4666 
L 4897 4666 
L 4897 0 
L 4281 0 
L 4281 4097 
L 3078 897 
L 2444 897 
L 1241 4097 
L 1241 0 
L 628 0 
L 628 4666 
z
" transform="scale(0.015625)"/>
       <path id="DejaVuSans-6e" d="M 3513 2113 
L 3513 0 
L 2938 0 
L 2938 2094 
Q 2938 2591 2744 2837 
Q 2550 3084 2163 3084 
Q 1697 3084 1428 2787 
Q 1159 2491 1159 1978 
L 1159 0 
L 581 0 
L 581 3500 
L 1159 3500 
L 1159 2956 
Q 1366 3272 1645 3428 
Q 1925 3584 2291 3584 
Q 2894 3584 3203 3211 
Q 3513 2838 3513 2113 
z
" transform="scale(0.015625)"/>
       <path id="DejaVuSans-20" transform="scale(0.015625)"/>
       <path id="DejaVuSans-6f" d="M 1959 3097 
Q 1497 3097 1228 2736 
Q 959 2375 959 1747 
Q 959 1119 1226 758 
Q 1494 397 1959 397 
Q 2419 397 2687 759 
Q 2956 1122 2956 1747 
Q 2956 2369 2687 2733 
Q 2419 3097 1959 3097 
z
M 1959 3584 
Q 2709 3584 3137 3096 
Q 3566 2609 3566 1747 
Q 3566 888 3137 398 
Q 2709 -91 1959 -91 
Q 1206 -91 779 398 
Q 353 888 353 1747 
Q 353 2609 779 3096 
Q 1206 3584 1959 3584 
z
" transform="scale(0.015625)"/>
       <path id="DejaVuSans-66" d="M 2375 4863 
L 2375 4384 
L 1825 4384 
Q 1516 4384 1395 4259 
Q 1275 4134 1275 3809 
L 1275 3500 
L 2222 3500 
L 2222 3053 
L 1275 3053 
L 1275 0 
L 697 0 
L 697 3053 
L 147 3053 
L 147 3500 
L 697 3500 
L 697 3744 
Q 697 4328 969 4595 
Q 1241 4863 1831 4863 
L 2375 4863 
z
" transform="scale(0.015625)"/>
       <path id="DejaVuSans-4e" d="M 628 4666 
L 1478 4666 
L 3547 763 
L 3547 4666 
L 4159 4666 
L 4159 0 
L 3309 0 
L 1241 3903 
L 1241 0 
L 628 0 
L 628 4666 
z
" transform="scale(0.015625)"/>
       <path id="DejaVuSans-62" d="M 3116 1747 
Q 3116 2381 2855 2742 
Q 2594 3103 2138 3103 
Q 1681 3103 1420 2742 
Q 1159 2381 1159 1747 
Q 1159 1113 1420 752 
Q 1681 391 2138 391 
Q 2594 391 2855 752 
Q 3116 1113 3116 1747 
z
M 1159 2969 
Q 1341 3281 1617 3432 
Q 1894 3584 2278 3584 
Q 2916 3584 3314 3078 
Q 3713 2572 3713 1747 
Q 3713 922 3314 415 
Q 2916 -91 2278 -91 
Q 1894 -91 1617 61 
Q 1341 213 1159 525 
L 1159 0 
L 581 0 
L 581 4863 
L 1159 4863 
L 1159 2969 
z
" transform="scale(0.015625)"/>
       <path id="DejaVuSans-73" d="M 2834 3397 
L 2834 2853 
Q 2591 2978 2328 3040 
Q 2066 3103 1784 3103 
Q 1356 3103 1142 2972 
Q 928 2841 928 2578 
Q 928 2378 1081 2264 
Q 1234 2150 1697 2047 
L 1894 2003 
Q 2506 1872 2764 1633 
Q 3022 1394 3022 966 
Q 3022 478 2636 193 
Q 2250 -91 1575 -91 
Q 1294 -91 989 -36 
Q 684 19 347 128 
L 347 722 
Q 666 556 975 473 
Q 1284 391 1588 391 
Q 1994 391 2212 530 
Q 2431 669 2431 922 
Q 2431 1156 2273 1281 
Q 2116 1406 1581 1522 
L 1381 1569 
Q 847 1681 609 1914 
Q 372 2147 372 2553 
Q 372 3047 722 3315 
Q 1072 3584 1716 3584 
Q 2034 3584 2315 3537 
Q 2597 3491 2834 3397 
z
" transform="scale(0.015625)"/>
      </defs>
      <use xlink:href="#DejaVuSans-4d"/>
      <use xlink:href="#DejaVuSans-65" x="86.279297"/>
      <use xlink:href="#DejaVuSans-61" x="147.802734"/>
      <use xlink:href="#DejaVuSans-6e" x="209.082031"/>
      <use xlink:href="#DejaVuSans-20" x="272.460938"/>
      <use xlink:href="#DejaVuSans-6f" x="304.248047"/>
      <use xlink:href="#DejaVuSans-66" x="365.429688"/>
      <use xlink:href="#DejaVuSans-20" x="400.634766"/>
      <use xlink:href="#DejaVuSans-4e" x="432.421875"/>
      <use xlink:href="#DejaVuSans-20" x="507.226562"/>
      <use xlink:href="#DejaVuSans-62" x="539.013672"/>
      <use xlink:href="#DejaVuSans-65" x="602.490234"/>
      <use xlink:href="#DejaVuSans-61" x="664.013672"/>
      <use xlink:href="#DejaVuSans-74" x="725.292969"/>
      <use xlink:href="#DejaVuSans-73" x="764.501953"/>
     </g>
    </g>
    <g id="patch_8">
     <path d="M 331.724375 63.497813 
L 367.724375 63.497813 
L 367.724375 50.897813 
L 331.724375 50.897813 
z
" style="fill: #808080; fill-opacity: 0.3; stroke: #808080; stroke-opacity: 0.3; stroke-linejoin: miter"/>
    </g>
    <g id="text_12">
     <!-- Standard Range -->
     <g transform="translate(382.124375 63.497813) scale(0.18 -0.18)">
      <defs>
       <path id="DejaVuSans-72" d="M 2631 2963 
Q 2534 3019 2420 3045 
Q 2306 3072 2169 3072 
Q 1681 3072 1420 2755 
Q 1159 2438 1159 1844 
L 1159 0 
L 581 0 
L 581 3500 
L 1159 3500 
L 1159 2956 
Q 1341 3275 1631 3429 
Q 1922 3584 2338 3584 
Q 2397 3584 2469 3576 
Q 2541 3569 2628 3553 
L 2631 2963 
z
" transform="scale(0.015625)"/>
       <path id="DejaVuSans-52" d="M 2841 2188 
Q 3044 2119 3236 1894 
Q 3428 1669 3622 1275 
L 4263 0 
L 3584 0 
L 2988 1197 
Q 2756 1666 2539 1819 
Q 2322 1972 1947 1972 
L 1259 1972 
L 1259 0 
L 628 0 
L 628 4666 
L 2053 4666 
Q 2853 4666 3247 4331 
Q 3641 3997 3641 3322 
Q 3641 2881 3436 2590 
Q 3231 2300 2841 2188 
z
M 1259 4147 
L 1259 2491 
L 2053 2491 
Q 2509 2491 2742 2702 
Q 2975 2913 2975 3322 
Q 2975 3731 2742 3939 
Q 2509 4147 2053 4147 
L 1259 4147 
z
" transform="scale(0.015625)"/>
       <path id="DejaVuSans-67" d="M 2906 1791 
Q 2906 2416 2648 2759 
Q 2391 3103 1925 3103 
Q 1463 3103 1205 2759 
Q 947 2416 947 1791 
Q 947 1169 1205 825 
Q 1463 481 1925 481 
Q 2391 481 2648 825 
Q 2906 1169 2906 1791 
z
M 3481 434 
Q 3481 -459 3084 -895 
Q 2688 -1331 1869 -1331 
Q 1566 -1331 1297 -1286 
Q 1028 -1241 775 -1147 
L 775 -588 
Q 1028 -725 1275 -790 
Q 1522 -856 1778 -856 
Q 2344 -856 2625 -561 
Q 2906 -266 2906 331 
L 2906 616 
Q 2728 306 2450 153 
Q 2172 0 1784 0 
Q 1141 0 747 490 
Q 353 981 353 1791 
Q 353 2603 747 3093 
Q 1141 3584 1784 3584 
Q 2172 3584 2450 3431 
Q 2728 3278 2906 2969 
L 2906 3500 
L 3481 3500 
L 3481 434 
z
" transform="scale(0.015625)"/>
      </defs>
      <use xlink:href="#DejaVuSans-53"/>
      <use xlink:href="#DejaVuSans-74" x="63.476562"/>
      <use xlink:href="#DejaVuSans-61" x="102.685547"/>
      <use xlink:href="#DejaVuSans-6e" x="163.964844"/>
      <use xlink:href="#DejaVuSans-64" x="227.34375"/>
      <use xlink:href="#DejaVuSans-61" x="290.820312"/>
      <use xlink:href="#DejaVuSans-72" x="352.099609"/>
      <use xlink:href="#DejaVuSans-64" x="391.462891"/>
      <use xlink:href="#DejaVuSans-20" x="454.939453"/>
      <use xlink:href="#DejaVuSans-52" x="486.726562"/>
      <use xlink:href="#DejaVuSans-61" x="553.958984"/>
      <use xlink:href="#DejaVuSans-6e" x="615.238281"/>
      <use xlink:href="#DejaVuSans-67" x="678.617188"/>
      <use xlink:href="#DejaVuSans-65" x="742.09375"/>
     </g>
    </g>
   </g>
  </g>
 </g>
 <defs>
  <clipPath id="pdd5687b07b">
   <rect x="98.914062" y="7.2" width="446.4" height="332.64"/>
  </clipPath>
 </defs>
</svg>
