<?xml version="1.0" encoding="utf-8" standalone="no"?>
<!DOCTYPE svg PUBLIC "-//W3C//DTD SVG 1.1//EN"
  "http://www.w3.org/Graphics/SVG/1.1/DTD/svg11.dtd">
<svg xmlns:xlink="http://www.w3.org/1999/xlink" width="566.511562pt" height="406.62375pt" viewBox="0 0 566.511562 406.62375" xmlns="http://www.w3.org/2000/svg" version="1.1">
 <metadata>
  <rdf:RDF xmlns:dc="http://purl.org/dc/elements/1.1/" xmlns:cc="http://creativecommons.org/ns#" xmlns:rdf="http://www.w3.org/1999/02/22-rdf-syntax-ns#">
   <cc:Work>
    <dc:type rdf:resource="http://purl.org/dc/dcmitype/StillImage"/>
    <dc:date>2024-05-14T14:04:43.520922</dc:date>
    <dc:format>image/svg+xml</dc:format>
    <dc:creator>
     <cc:Agent>
      <dc:title>Matplotlib v3.7.5, https://matplotlib.org/</dc:title>
     </cc:Agent>
    </dc:creator>
   </cc:Work>
  </rdf:RDF>
 </metadata>
 <defs>
  <style type="text/css">*{stroke-linejoin: round; stroke-linecap: butt}</style>
 </defs>
 <g id="figure_1">
  <g id="patch_1">
   <path d="M 0 406.62375 
L 566.511562 406.62375 
L 566.511562 0 
L 0 0 
z
" style="fill: #ffffff"/>
  </g>
  <g id="axes_1">
   <g id="patch_2">
    <path d="M 112.911563 339.84 
L 559.311563 339.84 
L 559.311563 7.2 
L 112.911563 7.2 
z
" style="fill: #ffffff"/>
   </g>
   <g id="PolyCollection_1">
    <defs>
     <path id="m12caaefd7b" d="M 133.202472 -171.358779 
L 133.202472 -103.155571 
L 134.550705 -103.201558 
L 135.898938 -103.322966 
L 137.247171 -103.442534 
L 138.595404 -103.383669 
L 139.943637 -103.672472 
L 141.291871 -103.712941 
L 142.640104 -103.348719 
L 143.988337 -102.85757 
L 145.33657 -102.669941 
L 146.684803 -102.530138 
L 148.033036 -102.688336 
L 149.38127 -102.82262 
L 150.729503 -103.105904 
L 152.077736 -103.212595 
L 153.425969 -103.107743 
L 154.774202 -103.265941 
L 156.122435 -103.788361 
L 157.470669 -104.548077 
L 158.818902 -105.129361 
L 160.167135 -105.248929 
L 161.515368 -105.13488 
L 162.863601 -104.98404 
L 164.211834 -105.074176 
L 165.560067 -105.563485 
L 166.908301 -106.336078 
L 168.256534 -107.165695 
L 169.604767 -107.643967 
L 170.953 -107.859189 
L 172.301233 -107.787448 
L 173.649466 -107.638448 
L 174.9977 -107.588782 
L 176.345933 -107.63109 
L 177.694166 -107.809522 
L 179.042399 -108.089127 
L 180.390632 -108.422078 
L 181.738865 -108.179263 
L 183.087099 -107.48209 
L 184.435332 -106.656152 
L 185.783565 -106.017843 
L 187.131798 -105.532213 
L 188.480031 -105.259966 
L 189.828264 -104.822164 
L 191.176498 -104.419312 
L 192.524731 -104.218805 
L 193.872964 -104.12683 
L 195.221197 -103.832509 
L 196.56943 -103.598892 
L 197.917663 -103.315608 
L 199.265897 -103.188682 
L 200.61413 -102.956904 
L 201.962363 -102.572447 
L 203.310596 -102.476793 
L 204.658829 -102.82078 
L 206.007062 -103.100385 
L 207.355296 -103.403904 
L 208.703529 -103.503237 
L 210.051762 -103.600731 
L 211.399995 -103.652237 
L 212.748228 -103.7902 
L 214.096461 -103.804916 
L 215.444694 -103.849065 
L 216.792928 -104.139707 
L 218.141161 -104.846077 
L 219.489394 -105.620509 
L 220.837627 -106.196275 
L 222.18586 -106.446448 
L 223.534093 -106.62488 
L 224.882327 -107.027732 
L 226.23056 -107.730424 
L 227.578793 -108.477263 
L 228.927026 -109.637992 
L 230.275259 -111.448067 
L 231.623492 -113.565339 
L 232.971726 -115.027747 
L 234.319959 -115.9475 
L 235.668192 -116.850698 
L 237.016425 -117.831155 
L 238.364658 -118.969809 
L 239.712891 -119.808624 
L 241.061125 -121.410835 
L 242.409358 -122.869564 
L 243.757591 -123.07007 
L 245.105824 -122.818057 
L 246.454057 -123.542823 
L 247.80229 -125.014428 
L 249.150524 -126.701256 
L 250.498757 -129.37038 
L 251.84699 -133.831184 
L 253.195223 -139.342346 
L 254.543456 -145.581952 
L 255.891689 -153.453201 
L 257.239923 -163.033352 
L 258.588156 -173.020034 
L 259.936389 -183.205382 
L 261.284622 -194.700459 
L 262.632855 -209.473538 
L 263.981088 -227.815259 
L 265.329321 -249.480968 
L 266.677555 -277.658531 
L 268.025788 -307.322416 
L 269.374021 -316.100542 
L 270.722254 -298.373216 
L 272.070487 -271.935826 
L 273.41872 -249.401869 
L 274.766954 -230.359296 
L 276.115187 -211.206353 
L 277.46342 -192.294385 
L 278.811653 -174.017046 
L 280.159886 -155.526325 
L 281.508119 -137.427419 
L 282.856353 -122.538452 
L 284.204586 -112.47819 
L 285.552819 -107.033251 
L 286.901052 -104.594065 
L 288.249285 -103.768126 
L 289.597518 -103.540027 
L 290.945752 -103.367114 
L 292.293985 -102.921953 
L 293.642218 -102.452879 
L 294.990451 -102.097854 
L 296.338684 -101.818249 
L 297.686917 -101.345496 
L 299.035151 -100.766051 
L 300.383384 -99.947471 
L 301.731617 -98.924705 
L 303.07985 -97.852273 
L 304.428083 -96.904927 
L 305.776316 -95.884001 
L 307.12455 -94.423432 
L 308.472783 -92.79179 
L 309.821016 -91.572197 
L 311.169249 -90.70395 
L 312.517482 -90.038048 
L 313.865715 -89.329838 
L 315.213948 -88.549888 
L 316.562182 -87.98148 
L 317.910415 -87.738665 
L 319.258648 -87.701875 
L 320.606881 -87.639332 
L 321.955114 -87.372603 
L 323.303347 -87.001023 
L 324.651581 -86.579776 
L 325.999814 -86.197159 
L 327.348047 -85.950665 
L 328.69628 -85.746479 
L 330.044513 -85.387776 
L 331.392746 -85.227739 
L 332.74098 -85.174393 
L 334.089213 -85.290282 
L 335.437446 -85.242455 
L 336.785679 -85.196467 
L 338.133912 -84.9978 
L 339.482145 -84.675887 
L 340.830379 -84.311664 
L 342.178612 -84.188417 
L 343.526845 -83.849948 
L 344.875078 -83.487565 
L 346.223311 -83.288899 
L 347.571544 -83.176689 
L 348.919778 -83.329368 
L 350.268011 -83.447096 
L 351.616244 -83.524355 
L 352.964477 -83.483886 
L 354.31271 -83.327528 
L 355.660943 -83.033207 
L 357.009177 -82.680022 
L 358.35741 -82.668985 
L 359.705643 -82.76096 
L 361.053876 -83.057121 
L 362.402109 -83.266824 
L 363.750342 -83.231874 
L 365.098575 -82.922837 
L 366.446809 -82.626676 
L 367.795042 -82.393059 
L 369.143275 -82.341553 
L 370.491508 -82.367306 
L 371.839741 -82.330516 
L 373.187974 -82.012281 
L 374.536208 -81.90375 
L 375.884441 -82.16312 
L 377.232674 -82.53838 
L 378.580907 -82.900763 
L 379.92914 -83.044244 
L 381.277373 -83.161973 
L 382.625607 -83.299936 
L 383.97384 -83.323849 
L 385.322073 -83.437899 
L 386.670306 -83.634726 
L 388.018539 -83.934565 
L 389.366772 -84.25464 
L 390.715006 -84.653812 
L 392.063239 -84.972047 
L 393.411472 -85.702331 
L 394.759705 -86.493319 
L 396.107938 -87.030455 
L 397.456171 -87.440665 
L 398.804405 -87.825122 
L 400.152638 -88.422962 
L 401.500871 -89.36295 
L 402.849104 -90.380197 
L 404.197337 -91.138073 
L 405.54557 -91.708321 
L 406.893804 -92.289605 
L 408.242037 -92.900321 
L 409.59027 -93.919408 
L 410.938503 -95.120605 
L 412.286736 -96.288692 
L 413.634969 -97.331692 
L 414.983202 -98.354458 
L 416.331436 -99.013002 
L 417.679669 -99.842619 
L 419.027902 -100.865385 
L 420.376135 -102.024274 
L 421.724368 -103.162929 
L 423.072601 -104.124991 
L 424.420835 -104.961966 
L 425.769068 -105.602114 
L 427.117301 -106.212831 
L 428.465534 -106.935757 
L 429.813767 -107.609016 
L 431.162 -108.293313 
L 432.510234 -109.023597 
L 433.858467 -109.880807 
L 435.2067 -110.511758 
L 436.554933 -110.859424 
L 437.903166 -110.916449 
L 439.251399 -110.899894 
L 440.599633 -111.021301 
L 441.947866 -111.370807 
L 443.296099 -112.029351 
L 444.644332 -112.242733 
L 445.992565 -112.196746 
L 447.340798 -112.071659 
L 448.689032 -112.047746 
L 450.037265 -112.21882 
L 451.385498 -112.281363 
L 452.733731 -112.205943 
L 454.081964 -112.055104 
L 455.430197 -112.14524 
L 456.778431 -112.36782 
L 458.126664 -112.51682 
L 459.474897 -112.290561 
L 460.82313 -111.830684 
L 462.171363 -111.146388 
L 463.519596 -110.750894 
L 464.867829 -110.296535 
L 466.216063 -110.009572 
L 467.564296 -110.000375 
L 468.912529 -109.801708 
L 470.260762 -109.492671 
L 471.608995 -109.095338 
L 472.957228 -108.802856 
L 474.305462 -108.778942 
L 475.653695 -108.652016 
L 477.001928 -108.374251 
L 478.350161 -107.862868 
L 479.698394 -107.22088 
L 481.046627 -106.32872 
L 482.394861 -105.811818 
L 483.743094 -105.743756 
L 485.091327 -105.975534 
L 486.43956 -105.896435 
L 487.787793 -105.780547 
L 489.136026 -105.449435 
L 490.48426 -104.950929 
L 491.832493 -104.656608 
L 493.180726 -104.531522 
L 494.528959 -104.485534 
L 495.877192 -104.251917 
L 497.225425 -103.830669 
L 498.573659 -103.521632 
L 499.921892 -103.313768 
L 501.270125 -102.949546 
L 502.618358 -102.646027 
L 503.966591 -102.651546 
L 505.314824 -102.690175 
L 506.663058 -102.802385 
L 508.011291 -103.023126 
L 509.359524 -103.284336 
L 510.707757 -103.339521 
L 512.05599 -103.3432 
L 513.404223 -103.098546 
L 514.752456 -102.953225 
L 516.10069 -102.984496 
L 517.448923 -102.743521 
L 518.797156 -102.428965 
L 520.145389 -102.042669 
L 521.493622 -101.713397 
L 522.841855 -101.711558 
L 524.190089 -101.689484 
L 525.538322 -101.792496 
L 526.886555 -102.051867 
L 528.234788 -102.647867 
L 529.583021 -103.061756 
L 530.931254 -103.383669 
L 532.279488 -103.15925 
L 533.627721 -102.668101 
L 534.975954 -101.884471 
L 536.324187 -101.511052 
L 537.67242 -101.485298 
L 539.020653 -101.917583 
L 539.020653 -170.120791 
L 539.020653 -170.120791 
L 537.67242 -169.688507 
L 536.324187 -169.71426 
L 534.975954 -170.08768 
L 533.627721 -170.87131 
L 532.279488 -171.362458 
L 530.931254 -171.586878 
L 529.583021 -171.264964 
L 528.234788 -170.851075 
L 526.886555 -170.255075 
L 525.538322 -169.995705 
L 524.190089 -169.892692 
L 522.841855 -169.914766 
L 521.493622 -169.916606 
L 520.145389 -170.245877 
L 518.797156 -170.632174 
L 517.448923 -170.946729 
L 516.10069 -171.187705 
L 514.752456 -171.156433 
L 513.404223 -171.301754 
L 512.05599 -171.546409 
L 510.707757 -171.54273 
L 509.359524 -171.487544 
L 508.011291 -171.226334 
L 506.663058 -171.005594 
L 505.314824 -170.893384 
L 503.966591 -170.854754 
L 502.618358 -170.849236 
L 501.270125 -171.152754 
L 499.921892 -171.516977 
L 498.573659 -171.724841 
L 497.225425 -172.033878 
L 495.877192 -172.455125 
L 494.528959 -172.688742 
L 493.180726 -172.73473 
L 491.832493 -172.859816 
L 490.48426 -173.154137 
L 489.136026 -173.652644 
L 487.787793 -173.983755 
L 486.43956 -174.099644 
L 485.091327 -174.178743 
L 483.743094 -173.946965 
L 482.394861 -174.015027 
L 481.046627 -174.531928 
L 479.698394 -175.424089 
L 478.350161 -176.066077 
L 477.001928 -176.577459 
L 475.653695 -176.855225 
L 474.305462 -176.982151 
L 472.957228 -177.006064 
L 471.608995 -177.298546 
L 470.260762 -177.695879 
L 468.912529 -178.004917 
L 467.564296 -178.203583 
L 466.216063 -178.212781 
L 464.867829 -178.499744 
L 463.519596 -178.954102 
L 462.171363 -179.349596 
L 460.82313 -180.033892 
L 459.474897 -180.493769 
L 458.126664 -180.720028 
L 456.778431 -180.571028 
L 455.430197 -180.348448 
L 454.081964 -180.258312 
L 452.733731 -180.409152 
L 451.385498 -180.484572 
L 450.037265 -180.422028 
L 448.689032 -180.250954 
L 447.340798 -180.274868 
L 445.992565 -180.399954 
L 444.644332 -180.445942 
L 443.296099 -180.232559 
L 441.947866 -179.574016 
L 440.599633 -179.224509 
L 439.251399 -179.103102 
L 437.903166 -179.119658 
L 436.554933 -179.062633 
L 435.2067 -178.714966 
L 433.858467 -178.084015 
L 432.510234 -177.226805 
L 431.162 -176.496521 
L 429.813767 -175.812225 
L 428.465534 -175.138965 
L 427.117301 -174.416039 
L 425.769068 -173.805323 
L 424.420835 -173.165175 
L 423.072601 -172.328199 
L 421.724368 -171.366137 
L 420.376135 -170.227482 
L 419.027902 -169.068593 
L 417.679669 -168.045827 
L 416.331436 -167.21621 
L 414.983202 -166.557667 
L 413.634969 -165.534901 
L 412.286736 -164.491901 
L 410.938503 -163.323814 
L 409.59027 -162.122616 
L 408.242037 -161.103529 
L 406.893804 -160.492813 
L 405.54557 -159.911529 
L 404.197337 -159.341282 
L 402.849104 -158.583405 
L 401.500871 -157.566158 
L 400.152638 -156.62617 
L 398.804405 -156.02833 
L 397.456171 -155.643873 
L 396.107938 -155.233663 
L 394.759705 -154.696528 
L 393.411472 -153.90554 
L 392.063239 -153.175256 
L 390.715006 -152.857021 
L 389.366772 -152.457848 
L 388.018539 -152.137774 
L 386.670306 -151.837934 
L 385.322073 -151.641107 
L 383.97384 -151.527058 
L 382.625607 -151.503144 
L 381.277373 -151.365181 
L 379.92914 -151.247453 
L 378.580907 -151.103971 
L 377.232674 -150.741588 
L 375.884441 -150.366329 
L 374.536208 -150.106958 
L 373.187974 -150.215489 
L 371.839741 -150.533724 
L 370.491508 -150.570514 
L 369.143275 -150.544761 
L 367.795042 -150.596267 
L 366.446809 -150.829885 
L 365.098575 -151.126045 
L 363.750342 -151.435082 
L 362.402109 -151.470033 
L 361.053876 -151.260329 
L 359.705643 -150.964169 
L 358.35741 -150.872193 
L 357.009177 -150.88323 
L 355.660943 -151.236415 
L 354.31271 -151.530737 
L 352.964477 -151.687095 
L 351.616244 -151.727564 
L 350.268011 -151.650304 
L 348.919778 -151.532576 
L 347.571544 -151.379897 
L 346.223311 -151.492107 
L 344.875078 -151.690774 
L 343.526845 -152.053156 
L 342.178612 -152.391626 
L 340.830379 -152.514873 
L 339.482145 -152.879095 
L 338.133912 -153.201009 
L 336.785679 -153.399675 
L 335.437446 -153.445663 
L 334.089213 -153.49349 
L 332.74098 -153.377601 
L 331.392746 -153.430947 
L 330.044513 -153.590984 
L 328.69628 -153.949688 
L 327.348047 -154.153873 
L 325.999814 -154.400367 
L 324.651581 -154.782984 
L 323.303347 -155.204231 
L 321.955114 -155.575812 
L 320.606881 -155.84254 
L 319.258648 -155.905083 
L 317.910415 -155.941874 
L 316.562182 -156.184688 
L 315.213948 -156.753096 
L 313.865715 -157.533047 
L 312.517482 -158.241257 
L 311.169249 -158.907158 
L 309.821016 -159.775405 
L 308.472783 -160.994998 
L 307.12455 -162.626641 
L 305.776316 -164.087209 
L 304.428083 -165.108135 
L 303.07985 -166.055481 
L 301.731617 -167.127914 
L 300.383384 -168.150679 
L 299.035151 -168.96926 
L 297.686917 -169.548704 
L 296.338684 -170.021458 
L 294.990451 -170.301063 
L 293.642218 -170.656087 
L 292.293985 -171.125162 
L 290.945752 -171.570322 
L 289.597518 -171.743236 
L 288.249285 -171.971335 
L 286.901052 -172.797273 
L 285.552819 -175.236459 
L 284.204586 -180.681399 
L 282.856353 -190.741661 
L 281.508119 -205.630628 
L 280.159886 -223.729534 
L 278.811653 -242.220255 
L 277.46342 -260.497593 
L 276.115187 -279.409561 
L 274.766954 -298.562505 
L 273.41872 -317.605078 
L 272.070487 -340.139034 
L 270.722254 -366.576424 
L 269.374021 -384.30375 
L 268.025788 -375.525624 
L 266.677555 -345.86174 
L 265.329321 -317.684176 
L 263.981088 -296.018467 
L 262.632855 -277.676746 
L 261.284622 -262.903668 
L 259.936389 -251.408591 
L 258.588156 -241.223242 
L 257.239923 -231.236561 
L 255.891689 -221.65641 
L 254.543456 -213.785161 
L 253.195223 -207.545554 
L 251.84699 -202.034392 
L 250.498757 -197.573588 
L 249.150524 -194.904464 
L 247.80229 -193.217637 
L 246.454057 -191.746031 
L 245.105824 -191.021266 
L 243.757591 -191.273278 
L 242.409358 -191.072772 
L 241.061125 -189.614043 
L 239.712891 -188.011833 
L 238.364658 -187.173018 
L 237.016425 -186.034363 
L 235.668192 -185.053906 
L 234.319959 -184.150708 
L 232.971726 -183.230955 
L 231.623492 -181.768547 
L 230.275259 -179.651275 
L 228.927026 -177.8412 
L 227.578793 -176.680472 
L 226.23056 -175.933632 
L 224.882327 -175.23094 
L 223.534093 -174.828089 
L 222.18586 -174.649656 
L 220.837627 -174.399483 
L 219.489394 -173.823718 
L 218.141161 -173.049286 
L 216.792928 -172.342915 
L 215.444694 -172.052273 
L 214.096461 -172.008125 
L 212.748228 -171.993409 
L 211.399995 -171.855446 
L 210.051762 -171.80394 
L 208.703529 -171.706446 
L 207.355296 -171.607112 
L 206.007062 -171.303594 
L 204.658829 -171.023989 
L 203.310596 -170.680001 
L 201.962363 -170.775655 
L 200.61413 -171.160112 
L 199.265897 -171.39189 
L 197.917663 -171.518816 
L 196.56943 -171.8021 
L 195.221197 -172.035717 
L 193.872964 -172.330038 
L 192.524731 -172.422014 
L 191.176498 -172.62252 
L 189.828264 -173.025372 
L 188.480031 -173.463175 
L 187.131798 -173.735422 
L 185.783565 -174.221051 
L 184.435332 -174.85936 
L 183.087099 -175.685299 
L 181.738865 -176.382472 
L 180.390632 -176.625287 
L 179.042399 -176.292336 
L 177.694166 -176.012731 
L 176.345933 -175.834299 
L 174.9977 -175.79199 
L 173.649466 -175.841657 
L 172.301233 -175.990657 
L 170.953 -176.062398 
L 169.604767 -175.847175 
L 168.256534 -175.368903 
L 166.908301 -174.539286 
L 165.560067 -173.766693 
L 164.211834 -173.277384 
L 162.863601 -173.187249 
L 161.515368 -173.338088 
L 160.167135 -173.452138 
L 158.818902 -173.33257 
L 157.470669 -172.751285 
L 156.122435 -171.991569 
L 154.774202 -171.469149 
L 153.425969 -171.310952 
L 152.077736 -171.415804 
L 150.729503 -171.309112 
L 149.38127 -171.025828 
L 148.033036 -170.891544 
L 146.684803 -170.733347 
L 145.33657 -170.873149 
L 143.988337 -171.060779 
L 142.640104 -171.551927 
L 141.291871 -171.916149 
L 139.943637 -171.87568 
L 138.595404 -171.586878 
L 137.247171 -171.645742 
L 135.898938 -171.526174 
L 134.550705 -171.404767 
L 133.202472 -171.358779 
z
" style="stroke: #808080; stroke-opacity: 0.3"/>
    </defs>
    <g clip-path="url(#p5b514687fc)">
     <use xlink:href="#m12caaefd7b" x="0" y="406.62375" style="fill: #808080; fill-opacity: 0.3; stroke: #808080; stroke-opacity: 0.3"/>
    </g>
   </g>
   <g id="matplotlib.axis_1">
    <g id="xtick_1">
     <g id="line2d_1">
      <defs>
       <path id="m3e2ab157a5" d="M 0 0 
L 0 -3.5 
" style="stroke: #000000; stroke-width: 2"/>
      </defs>
      <g>
       <use xlink:href="#m3e2ab157a5" x="133.202472" y="339.84" style="stroke: #000000; stroke-width: 2"/>
      </g>
     </g>
     <g id="text_1">
      <!-- 0 -->
      <g transform="translate(126.203722 363.556562) scale(0.22 -0.22)">
       <defs>
        <path id="DejaVuSans-30" d="M 2034 4250 
Q 1547 4250 1301 3770 
Q 1056 3291 1056 2328 
Q 1056 1369 1301 889 
Q 1547 409 2034 409 
Q 2525 409 2770 889 
Q 3016 1369 3016 2328 
Q 3016 3291 2770 3770 
Q 2525 4250 2034 4250 
z
M 2034 4750 
Q 2819 4750 3233 4129 
Q 3647 3509 3647 2328 
Q 3647 1150 3233 529 
Q 2819 -91 2034 -91 
Q 1250 -91 836 529 
Q 422 1150 422 2328 
Q 422 3509 836 4129 
Q 1250 4750 2034 4750 
z
" transform="scale(0.015625)"/>
       </defs>
       <use xlink:href="#DejaVuSans-30"/>
      </g>
     </g>
    </g>
    <g id="xtick_2">
     <g id="line2d_2">
      <g>
       <use xlink:href="#m3e2ab157a5" x="268.025788" y="339.84" style="stroke: #000000; stroke-width: 2"/>
      </g>
     </g>
     <g id="text_2">
      <!-- 100 -->
      <g transform="translate(247.029538 363.556562) scale(0.22 -0.22)">
       <defs>
        <path id="DejaVuSans-31" d="M 794 531 
L 1825 531 
L 1825 4091 
L 703 3866 
L 703 4441 
L 1819 4666 
L 2450 4666 
L 2450 531 
L 3481 531 
L 3481 0 
L 794 0 
L 794 531 
z
" transform="scale(0.015625)"/>
       </defs>
       <use xlink:href="#DejaVuSans-31"/>
       <use xlink:href="#DejaVuSans-30" x="63.623047"/>
       <use xlink:href="#DejaVuSans-30" x="127.246094"/>
      </g>
     </g>
    </g>
    <g id="xtick_3">
     <g id="line2d_3">
      <g>
       <use xlink:href="#m3e2ab157a5" x="402.849104" y="339.84" style="stroke: #000000; stroke-width: 2"/>
      </g>
     </g>
     <g id="text_3">
      <!-- 200 -->
      <g transform="translate(381.852854 363.556562) scale(0.22 -0.22)">
       <defs>
        <path id="DejaVuSans-32" d="M 1228 531 
L 3431 531 
L 3431 0 
L 469 0 
L 469 531 
Q 828 903 1448 1529 
Q 2069 2156 2228 2338 
Q 2531 2678 2651 2914 
Q 2772 3150 2772 3378 
Q 2772 3750 2511 3984 
Q 2250 4219 1831 4219 
Q 1534 4219 1204 4116 
Q 875 4013 500 3803 
L 500 4441 
Q 881 4594 1212 4672 
Q 1544 4750 1819 4750 
Q 2544 4750 2975 4387 
Q 3406 4025 3406 3419 
Q 3406 3131 3298 2873 
Q 3191 2616 2906 2266 
Q 2828 2175 2409 1742 
Q 1991 1309 1228 531 
z
" transform="scale(0.015625)"/>
       </defs>
       <use xlink:href="#DejaVuSans-32"/>
       <use xlink:href="#DejaVuSans-30" x="63.623047"/>
       <use xlink:href="#DejaVuSans-30" x="127.246094"/>
      </g>
     </g>
    </g>
    <g id="xtick_4">
     <g id="line2d_4">
      <g>
       <use xlink:href="#m3e2ab157a5" x="537.67242" y="339.84" style="stroke: #000000; stroke-width: 2"/>
      </g>
     </g>
     <g id="text_4">
      <!-- 300 -->
      <g transform="translate(516.67617 363.556562) scale(0.22 -0.22)">
       <defs>
        <path id="DejaVuSans-33" d="M 2597 2516 
Q 3050 2419 3304 2112 
Q 3559 1806 3559 1356 
Q 3559 666 3084 287 
Q 2609 -91 1734 -91 
Q 1441 -91 1130 -33 
Q 819 25 488 141 
L 488 750 
Q 750 597 1062 519 
Q 1375 441 1716 441 
Q 2309 441 2620 675 
Q 2931 909 2931 1356 
Q 2931 1769 2642 2001 
Q 2353 2234 1838 2234 
L 1294 2234 
L 1294 2753 
L 1863 2753 
Q 2328 2753 2575 2939 
Q 2822 3125 2822 3475 
Q 2822 3834 2567 4026 
Q 2313 4219 1838 4219 
Q 1578 4219 1281 4162 
Q 984 4106 628 3988 
L 628 4550 
Q 988 4650 1302 4700 
Q 1616 4750 1894 4750 
Q 2613 4750 3031 4423 
Q 3450 4097 3450 3541 
Q 3450 3153 3228 2886 
Q 3006 2619 2597 2516 
z
" transform="scale(0.015625)"/>
       </defs>
       <use xlink:href="#DejaVuSans-33"/>
       <use xlink:href="#DejaVuSans-30" x="63.623047"/>
       <use xlink:href="#DejaVuSans-30" x="127.246094"/>
      </g>
     </g>
    </g>
    <g id="text_5">
     <!-- Sample -->
     <g transform="translate(294.865 394.848437) scale(0.22 -0.22)">
      <defs>
       <path id="DejaVuSans-53" d="M 3425 4513 
L 3425 3897 
Q 3066 4069 2747 4153 
Q 2428 4238 2131 4238 
Q 1616 4238 1336 4038 
Q 1056 3838 1056 3469 
Q 1056 3159 1242 3001 
Q 1428 2844 1947 2747 
L 2328 2669 
Q 3034 2534 3370 2195 
Q 3706 1856 3706 1288 
Q 3706 609 3251 259 
Q 2797 -91 1919 -91 
Q 1588 -91 1214 -16 
Q 841 59 441 206 
L 441 856 
Q 825 641 1194 531 
Q 1563 422 1919 422 
Q 2459 422 2753 634 
Q 3047 847 3047 1241 
Q 3047 1584 2836 1778 
Q 2625 1972 2144 2069 
L 1759 2144 
Q 1053 2284 737 2584 
Q 422 2884 422 3419 
Q 422 4038 858 4394 
Q 1294 4750 2059 4750 
Q 2388 4750 2728 4690 
Q 3069 4631 3425 4513 
z
" transform="scale(0.015625)"/>
       <path id="DejaVuSans-61" d="M 2194 1759 
Q 1497 1759 1228 1600 
Q 959 1441 959 1056 
Q 959 750 1161 570 
Q 1363 391 1709 391 
Q 2188 391 2477 730 
Q 2766 1069 2766 1631 
L 2766 1759 
L 2194 1759 
z
M 3341 1997 
L 3341 0 
L 2766 0 
L 2766 531 
Q 2569 213 2275 61 
Q 1981 -91 1556 -91 
Q 1019 -91 701 211 
Q 384 513 384 1019 
Q 384 1609 779 1909 
Q 1175 2209 1959 2209 
L 2766 2209 
L 2766 2266 
Q 2766 2663 2505 2880 
Q 2244 3097 1772 3097 
Q 1472 3097 1187 3025 
Q 903 2953 641 2809 
L 641 3341 
Q 956 3463 1253 3523 
Q 1550 3584 1831 3584 
Q 2591 3584 2966 3190 
Q 3341 2797 3341 1997 
z
" transform="scale(0.015625)"/>
       <path id="DejaVuSans-6d" d="M 3328 2828 
Q 3544 3216 3844 3400 
Q 4144 3584 4550 3584 
Q 5097 3584 5394 3201 
Q 5691 2819 5691 2113 
L 5691 0 
L 5113 0 
L 5113 2094 
Q 5113 2597 4934 2840 
Q 4756 3084 4391 3084 
Q 3944 3084 3684 2787 
Q 3425 2491 3425 1978 
L 3425 0 
L 2847 0 
L 2847 2094 
Q 2847 2600 2669 2842 
Q 2491 3084 2119 3084 
Q 1678 3084 1418 2786 
Q 1159 2488 1159 1978 
L 1159 0 
L 581 0 
L 581 3500 
L 1159 3500 
L 1159 2956 
Q 1356 3278 1631 3431 
Q 1906 3584 2284 3584 
Q 2666 3584 2933 3390 
Q 3200 3197 3328 2828 
z
" transform="scale(0.015625)"/>
       <path id="DejaVuSans-70" d="M 1159 525 
L 1159 -1331 
L 581 -1331 
L 581 3500 
L 1159 3500 
L 1159 2969 
Q 1341 3281 1617 3432 
Q 1894 3584 2278 3584 
Q 2916 3584 3314 3078 
Q 3713 2572 3713 1747 
Q 3713 922 3314 415 
Q 2916 -91 2278 -91 
Q 1894 -91 1617 61 
Q 1341 213 1159 525 
z
M 3116 1747 
Q 3116 2381 2855 2742 
Q 2594 3103 2138 3103 
Q 1681 3103 1420 2742 
Q 1159 2381 1159 1747 
Q 1159 1113 1420 752 
Q 1681 391 2138 391 
Q 2594 391 2855 752 
Q 3116 1113 3116 1747 
z
" transform="scale(0.015625)"/>
       <path id="DejaVuSans-6c" d="M 603 4863 
L 1178 4863 
L 1178 0 
L 603 0 
L 603 4863 
z
" transform="scale(0.015625)"/>
       <path id="DejaVuSans-65" d="M 3597 1894 
L 3597 1613 
L 953 1613 
Q 991 1019 1311 708 
Q 1631 397 2203 397 
Q 2534 397 2845 478 
Q 3156 559 3463 722 
L 3463 178 
Q 3153 47 2828 -22 
Q 2503 -91 2169 -91 
Q 1331 -91 842 396 
Q 353 884 353 1716 
Q 353 2575 817 3079 
Q 1281 3584 2069 3584 
Q 2775 3584 3186 3129 
Q 3597 2675 3597 1894 
z
M 3022 2063 
Q 3016 2534 2758 2815 
Q 2500 3097 2075 3097 
Q 1594 3097 1305 2825 
Q 1016 2553 972 2059 
L 3022 2063 
z
" transform="scale(0.015625)"/>
      </defs>
      <use xlink:href="#DejaVuSans-53"/>
      <use xlink:href="#DejaVuSans-61" x="63.476562"/>
      <use xlink:href="#DejaVuSans-6d" x="124.755859"/>
      <use xlink:href="#DejaVuSans-70" x="222.167969"/>
      <use xlink:href="#DejaVuSans-6c" x="285.644531"/>
      <use xlink:href="#DejaVuSans-65" x="313.427734"/>
     </g>
    </g>
   </g>
   <g id="matplotlib.axis_2">
    <g id="ytick_1">
     <g id="line2d_5">
      <defs>
       <path id="m287feea703" d="M 0 0 
L 3.5 0 
" style="stroke: #000000; stroke-width: 2"/>
      </defs>
      <g>
       <use xlink:href="#m287feea703" x="112.911563" y="315.381825" style="stroke: #000000; stroke-width: 2"/>
      </g>
     </g>
     <g id="text_6">
      <!-- −0.25 -->
      <g transform="translate(38.491875 323.740107) scale(0.22 -0.22)">
       <defs>
        <path id="DejaVuSans-2212" d="M 678 2272 
L 4684 2272 
L 4684 1741 
L 678 1741 
L 678 2272 
z
" transform="scale(0.015625)"/>
        <path id="DejaVuSans-2e" d="M 684 794 
L 1344 794 
L 1344 0 
L 684 0 
L 684 794 
z
" transform="scale(0.015625)"/>
        <path id="DejaVuSans-35" d="M 691 4666 
L 3169 4666 
L 3169 4134 
L 1269 4134 
L 1269 2991 
Q 1406 3038 1543 3061 
Q 1681 3084 1819 3084 
Q 2600 3084 3056 2656 
Q 3513 2228 3513 1497 
Q 3513 744 3044 326 
Q 2575 -91 1722 -91 
Q 1428 -91 1123 -41 
Q 819 9 494 109 
L 494 744 
Q 775 591 1075 516 
Q 1375 441 1709 441 
Q 2250 441 2565 725 
Q 2881 1009 2881 1497 
Q 2881 1984 2565 2268 
Q 2250 2553 1709 2553 
Q 1456 2553 1204 2497 
Q 953 2441 691 2322 
L 691 4666 
z
" transform="scale(0.015625)"/>
       </defs>
       <use xlink:href="#DejaVuSans-2212"/>
       <use xlink:href="#DejaVuSans-30" x="83.789062"/>
       <use xlink:href="#DejaVuSans-2e" x="147.412109"/>
       <use xlink:href="#DejaVuSans-32" x="179.199219"/>
       <use xlink:href="#DejaVuSans-35" x="242.822266"/>
      </g>
     </g>
    </g>
    <g id="ytick_2">
     <g id="line2d_6">
      <g>
       <use xlink:href="#m287feea703" x="112.911563" y="263.589781" style="stroke: #000000; stroke-width: 2"/>
      </g>
     </g>
     <g id="text_7">
      <!-- 0.00 -->
      <g transform="translate(56.927188 271.948062) scale(0.22 -0.22)">
       <use xlink:href="#DejaVuSans-30"/>
       <use xlink:href="#DejaVuSans-2e" x="63.623047"/>
       <use xlink:href="#DejaVuSans-30" x="95.410156"/>
       <use xlink:href="#DejaVuSans-30" x="159.033203"/>
      </g>
     </g>
    </g>
    <g id="ytick_3">
     <g id="line2d_7">
      <g>
       <use xlink:href="#m287feea703" x="112.911563" y="211.797737" style="stroke: #000000; stroke-width: 2"/>
      </g>
     </g>
     <g id="text_8">
      <!-- 0.25 -->
      <g transform="translate(56.927188 220.156018) scale(0.22 -0.22)">
       <use xlink:href="#DejaVuSans-30"/>
       <use xlink:href="#DejaVuSans-2e" x="63.623047"/>
       <use xlink:href="#DejaVuSans-32" x="95.410156"/>
       <use xlink:href="#DejaVuSans-35" x="159.033203"/>
      </g>
     </g>
    </g>
    <g id="ytick_4">
     <g id="line2d_8">
      <g>
       <use xlink:href="#m287feea703" x="112.911563" y="160.005693" style="stroke: #000000; stroke-width: 2"/>
      </g>
     </g>
     <g id="text_9">
      <!-- 0.50 -->
      <g transform="translate(56.927188 168.363974) scale(0.22 -0.22)">
       <use xlink:href="#DejaVuSans-30"/>
       <use xlink:href="#DejaVuSans-2e" x="63.623047"/>
       <use xlink:href="#DejaVuSans-35" x="95.410156"/>
       <use xlink:href="#DejaVuSans-30" x="159.033203"/>
      </g>
     </g>
    </g>
    <g id="ytick_5">
     <g id="line2d_9">
      <g>
       <use xlink:href="#m287feea703" x="112.911563" y="108.213648" style="stroke: #000000; stroke-width: 2"/>
      </g>
     </g>
     <g id="text_10">
      <!-- 0.75 -->
      <g transform="translate(56.927188 116.57193) scale(0.22 -0.22)">
       <defs>
        <path id="DejaVuSans-37" d="M 525 4666 
L 3525 4666 
L 3525 4397 
L 1831 0 
L 1172 0 
L 2766 4134 
L 525 4134 
L 525 4666 
z
" transform="scale(0.015625)"/>
       </defs>
       <use xlink:href="#DejaVuSans-30"/>
       <use xlink:href="#DejaVuSans-2e" x="63.623047"/>
       <use xlink:href="#DejaVuSans-37" x="95.410156"/>
       <use xlink:href="#DejaVuSans-35" x="159.033203"/>
      </g>
     </g>
    </g>
    <g id="ytick_6">
     <g id="line2d_10">
      <g>
       <use xlink:href="#m287feea703" x="112.911563" y="56.421604" style="stroke: #000000; stroke-width: 2"/>
      </g>
     </g>
     <g id="text_11">
      <!-- 1.00 -->
      <g transform="translate(56.927188 64.779885) scale(0.22 -0.22)">
       <use xlink:href="#DejaVuSans-31"/>
       <use xlink:href="#DejaVuSans-2e" x="63.623047"/>
       <use xlink:href="#DejaVuSans-30" x="95.410156"/>
       <use xlink:href="#DejaVuSans-30" x="159.033203"/>
      </g>
     </g>
    </g>
    <g id="text_12">
     <!-- Amplitude(mV) -->
     <g transform="translate(23.916563 256.712656) rotate(-90) scale(0.22 -0.22)">
      <defs>
       <path id="DejaVuSans-41" d="M 2188 4044 
L 1331 1722 
L 3047 1722 
L 2188 4044 
z
M 1831 4666 
L 2547 4666 
L 4325 0 
L 3669 0 
L 3244 1197 
L 1141 1197 
L 716 0 
L 50 0 
L 1831 4666 
z
" transform="scale(0.015625)"/>
       <path id="DejaVuSans-69" d="M 603 3500 
L 1178 3500 
L 1178 0 
L 603 0 
L 603 3500 
z
M 603 4863 
L 1178 4863 
L 1178 4134 
L 603 4134 
L 603 4863 
z
" transform="scale(0.015625)"/>
       <path id="DejaVuSans-74" d="M 1172 4494 
L 1172 3500 
L 2356 3500 
L 2356 3053 
L 1172 3053 
L 1172 1153 
Q 1172 725 1289 603 
Q 1406 481 1766 481 
L 2356 481 
L 2356 0 
L 1766 0 
Q 1100 0 847 248 
Q 594 497 594 1153 
L 594 3053 
L 172 3053 
L 172 3500 
L 594 3500 
L 594 4494 
L 1172 4494 
z
" transform="scale(0.015625)"/>
       <path id="DejaVuSans-75" d="M 544 1381 
L 544 3500 
L 1119 3500 
L 1119 1403 
Q 1119 906 1312 657 
Q 1506 409 1894 409 
Q 2359 409 2629 706 
Q 2900 1003 2900 1516 
L 2900 3500 
L 3475 3500 
L 3475 0 
L 2900 0 
L 2900 538 
Q 2691 219 2414 64 
Q 2138 -91 1772 -91 
Q 1169 -91 856 284 
Q 544 659 544 1381 
z
M 1991 3584 
L 1991 3584 
z
" transform="scale(0.015625)"/>
       <path id="DejaVuSans-64" d="M 2906 2969 
L 2906 4863 
L 3481 4863 
L 3481 0 
L 2906 0 
L 2906 525 
Q 2725 213 2448 61 
Q 2172 -91 1784 -91 
Q 1150 -91 751 415 
Q 353 922 353 1747 
Q 353 2572 751 3078 
Q 1150 3584 1784 3584 
Q 2172 3584 2448 3432 
Q 2725 3281 2906 2969 
z
M 947 1747 
Q 947 1113 1208 752 
Q 1469 391 1925 391 
Q 2381 391 2643 752 
Q 2906 1113 2906 1747 
Q 2906 2381 2643 2742 
Q 2381 3103 1925 3103 
Q 1469 3103 1208 2742 
Q 947 2381 947 1747 
z
" transform="scale(0.015625)"/>
       <path id="DejaVuSans-28" d="M 1984 4856 
Q 1566 4138 1362 3434 
Q 1159 2731 1159 2009 
Q 1159 1288 1364 580 
Q 1569 -128 1984 -844 
L 1484 -844 
Q 1016 -109 783 600 
Q 550 1309 550 2009 
Q 550 2706 781 3412 
Q 1013 4119 1484 4856 
L 1984 4856 
z
" transform="scale(0.015625)"/>
       <path id="DejaVuSans-56" d="M 1831 0 
L 50 4666 
L 709 4666 
L 2188 738 
L 3669 4666 
L 4325 4666 
L 2547 0 
L 1831 0 
z
" transform="scale(0.015625)"/>
       <path id="DejaVuSans-29" d="M 513 4856 
L 1013 4856 
Q 1481 4119 1714 3412 
Q 1947 2706 1947 2009 
Q 1947 1309 1714 600 
Q 1481 -109 1013 -844 
L 513 -844 
Q 928 -128 1133 580 
Q 1338 1288 1338 2009 
Q 1338 2731 1133 3434 
Q 928 4138 513 4856 
z
" transform="scale(0.015625)"/>
      </defs>
      <use xlink:href="#DejaVuSans-41"/>
      <use xlink:href="#DejaVuSans-6d" x="68.408203"/>
      <use xlink:href="#DejaVuSans-70" x="165.820312"/>
      <use xlink:href="#DejaVuSans-6c" x="229.296875"/>
      <use xlink:href="#DejaVuSans-69" x="257.080078"/>
      <use xlink:href="#DejaVuSans-74" x="284.863281"/>
      <use xlink:href="#DejaVuSans-75" x="324.072266"/>
      <use xlink:href="#DejaVuSans-64" x="387.451172"/>
      <use xlink:href="#DejaVuSans-65" x="450.927734"/>
      <use xlink:href="#DejaVuSans-28" x="512.451172"/>
      <use xlink:href="#DejaVuSans-6d" x="551.464844"/>
      <use xlink:href="#DejaVuSans-56" x="648.876953"/>
      <use xlink:href="#DejaVuSans-29" x="717.285156"/>
     </g>
    </g>
   </g>
   <g id="line2d_11">
    <path d="M 133.202472 269.366575 
L 135.898938 269.19918 
L 137.247171 269.079612 
L 138.595404 269.138476 
L 139.943637 268.849674 
L 141.291871 268.809205 
L 142.640104 269.173427 
L 143.988337 269.664575 
L 146.684803 269.992008 
L 152.077736 269.309551 
L 153.425969 269.414402 
L 154.774202 269.256205 
L 156.122435 268.733785 
L 157.470669 267.974069 
L 158.818902 267.392785 
L 160.167135 267.273217 
L 162.863601 267.538106 
L 164.211834 267.44797 
L 165.560067 266.958661 
L 168.256534 265.356451 
L 169.604767 264.878179 
L 170.953 264.662957 
L 176.345933 264.891056 
L 179.042399 264.433018 
L 180.390632 264.100068 
L 181.738865 264.342883 
L 183.087099 265.040056 
L 184.435332 265.865994 
L 185.783565 266.504303 
L 187.131798 266.989933 
L 188.480031 267.26218 
L 191.176498 268.102834 
L 200.61413 269.565242 
L 201.962363 269.949699 
L 203.310596 270.045353 
L 207.355296 269.118242 
L 214.096461 268.717229 
L 215.444694 268.673081 
L 216.792928 268.382439 
L 220.837627 266.325871 
L 224.882327 265.494414 
L 227.578793 264.044882 
L 228.927026 262.884154 
L 230.275259 261.074079 
L 231.623492 258.956807 
L 232.971726 257.494399 
L 237.016425 254.690991 
L 238.364658 253.552336 
L 239.712891 252.713521 
L 242.409358 249.652582 
L 243.757591 249.452076 
L 245.105824 249.704088 
L 246.454057 248.979323 
L 247.80229 247.507717 
L 249.150524 245.82089 
L 250.498757 243.151766 
L 251.84699 238.690962 
L 253.195223 233.1798 
L 254.543456 226.940193 
L 255.891689 219.068944 
L 258.588156 199.502112 
L 259.936389 189.316764 
L 261.284622 177.821686 
L 262.632855 163.048608 
L 263.981088 144.706887 
L 265.329321 123.041178 
L 268.025788 65.19973 
L 269.374021 56.421604 
L 270.722254 74.14893 
L 272.070487 100.58632 
L 273.41872 123.120277 
L 280.159886 216.99582 
L 281.508119 235.094726 
L 282.856353 249.983693 
L 284.204586 260.043955 
L 285.552819 265.488895 
L 286.901052 267.928081 
L 288.249285 268.75402 
L 290.945752 269.155032 
L 294.990451 270.424292 
L 296.338684 270.703897 
L 299.035151 271.756094 
L 300.383384 272.574675 
L 305.776316 276.638145 
L 307.12455 278.098713 
L 308.472783 279.730356 
L 309.821016 280.949949 
L 311.169249 281.818196 
L 313.865715 283.192307 
L 315.213948 283.972258 
L 316.562182 284.540666 
L 317.910415 284.783481 
L 320.606881 284.882814 
L 323.303347 285.521123 
L 325.999814 286.324987 
L 331.392746 287.294407 
L 332.74098 287.347753 
L 334.089213 287.231864 
L 336.785679 287.325679 
L 338.133912 287.524346 
L 340.830379 288.210482 
L 342.178612 288.333729 
L 344.875078 289.034581 
L 347.571544 289.345457 
L 351.616244 288.99779 
L 352.964477 289.03826 
L 354.31271 289.194618 
L 357.009177 289.842124 
L 359.705643 289.761186 
L 362.402109 289.255321 
L 363.750342 289.290272 
L 367.795042 290.129087 
L 371.839741 290.19163 
L 373.187974 290.509865 
L 374.536208 290.618396 
L 375.884441 290.359025 
L 378.580907 289.621383 
L 382.625607 289.22221 
L 385.322073 289.084247 
L 388.018539 288.58758 
L 392.063239 287.550099 
L 394.759705 286.028827 
L 396.107938 285.491691 
L 398.804405 284.697024 
L 400.152638 284.099184 
L 404.197337 281.384072 
L 408.242037 279.621825 
L 409.59027 278.602738 
L 412.286736 276.233454 
L 414.983202 274.167688 
L 416.331436 273.509144 
L 417.679669 272.679527 
L 420.376135 270.497872 
L 421.724368 269.359217 
L 424.420835 267.56018 
L 429.813767 264.91313 
L 432.510234 263.498549 
L 433.858467 262.641339 
L 435.2067 262.010388 
L 436.554933 261.662721 
L 440.599633 261.500845 
L 441.947866 261.151338 
L 443.296099 260.492795 
L 444.644332 260.279412 
L 448.689032 260.4744 
L 451.385498 260.240783 
L 455.430197 260.376906 
L 458.126664 260.005326 
L 459.474897 260.231585 
L 460.82313 260.691462 
L 462.171363 261.375758 
L 466.216063 262.512573 
L 467.564296 262.521771 
L 470.260762 263.029475 
L 472.957228 263.71929 
L 475.653695 263.870129 
L 477.001928 264.147895 
L 478.350161 264.659278 
L 479.698394 265.301266 
L 481.046627 266.193426 
L 482.394861 266.710328 
L 483.743094 266.778389 
L 485.091327 266.546612 
L 487.787793 266.741599 
L 489.136026 267.07271 
L 490.48426 267.571217 
L 491.832493 267.865538 
L 495.877192 268.270229 
L 498.573659 269.000513 
L 499.921892 269.208378 
L 502.618358 269.876119 
L 505.314824 269.83197 
L 508.011291 269.49902 
L 509.359524 269.23781 
L 512.05599 269.178946 
L 514.752456 269.568921 
L 516.10069 269.537649 
L 518.797156 270.09318 
L 521.493622 270.808748 
L 525.538322 270.72965 
L 526.886555 270.470279 
L 528.234788 269.874279 
L 530.931254 269.138476 
L 532.279488 269.362896 
L 533.627721 269.854045 
L 534.975954 270.637674 
L 536.324187 271.011094 
L 537.67242 271.036847 
L 539.020653 270.604563 
L 539.020653 270.604563 
" clip-path="url(#p5b514687fc)" style="fill: none; stroke: #1f77b4; stroke-width: 2; stroke-linecap: square"/>
   </g>
   <g id="patch_3">
    <path d="M 112.911563 339.84 
L 112.911563 7.2 
" style="fill: none; stroke: #000000; stroke-width: 2; stroke-linejoin: miter; stroke-linecap: square"/>
   </g>
   <g id="patch_4">
    <path d="M 559.311563 339.84 
L 559.311563 7.2 
" style="fill: none; stroke: #000000; stroke-width: 2; stroke-linejoin: miter; stroke-linecap: square"/>
   </g>
   <g id="patch_5">
    <path d="M 112.911562 339.84 
L 559.311563 339.84 
" style="fill: none; stroke: #000000; stroke-width: 2; stroke-linejoin: miter; stroke-linecap: square"/>
   </g>
   <g id="patch_6">
    <path d="M 112.911562 7.2 
L 559.311563 7.2 
" style="fill: none; stroke: #000000; stroke-width: 2; stroke-linejoin: miter; stroke-linecap: square"/>
   </g>
   <g id="legend_1">
    <g id="patch_7">
     <path d="M 341.41875 74.44125 
L 546.711563 74.44125 
Q 550.311563 74.44125 550.311563 70.84125 
L 550.311563 19.8 
Q 550.311563 16.2 546.711563 16.2 
L 341.41875 16.2 
Q 337.81875 16.2 337.81875 19.8 
L 337.81875 70.84125 
Q 337.81875 74.44125 341.41875 74.44125 
z
" style="fill: #ffffff; opacity: 0.8; stroke: #cccccc; stroke-linejoin: miter"/>
    </g>
    <g id="line2d_12">
     <path d="M 345.01875 30.777187 
L 363.01875 30.777187 
L 381.01875 30.777187 
" style="fill: none; stroke: #1f77b4; stroke-width: 2; stroke-linecap: square"/>
    </g>
    <g id="text_13">
     <!-- Mean of Q beats -->
     <g transform="translate(395.41875 37.077187) scale(0.18 -0.18)">
      <defs>
       <path id="DejaVuSans-4d" d="M 628 4666 
L 1569 4666 
L 2759 1491 
L 3956 4666 
L 4897 4666 
L 4897 0 
L 4281 0 
L 4281 4097 
L 3078 897 
L 2444 897 
L 1241 4097 
L 1241 0 
L 628 0 
L 628 4666 
z
" transform="scale(0.015625)"/>
       <path id="DejaVuSans-6e" d="M 3513 2113 
L 3513 0 
L 2938 0 
L 2938 2094 
Q 2938 2591 2744 2837 
Q 2550 3084 2163 3084 
Q 1697 3084 1428 2787 
Q 1159 2491 1159 1978 
L 1159 0 
L 581 0 
L 581 3500 
L 1159 3500 
L 1159 2956 
Q 1366 3272 1645 3428 
Q 1925 3584 2291 3584 
Q 2894 3584 3203 3211 
Q 3513 2838 3513 2113 
z
" transform="scale(0.015625)"/>
       <path id="DejaVuSans-20" transform="scale(0.015625)"/>
       <path id="DejaVuSans-6f" d="M 1959 3097 
Q 1497 3097 1228 2736 
Q 959 2375 959 1747 
Q 959 1119 1226 758 
Q 1494 397 1959 397 
Q 2419 397 2687 759 
Q 2956 1122 2956 1747 
Q 2956 2369 2687 2733 
Q 2419 3097 1959 3097 
z
M 1959 3584 
Q 2709 3584 3137 3096 
Q 3566 2609 3566 1747 
Q 3566 888 3137 398 
Q 2709 -91 1959 -91 
Q 1206 -91 779 398 
Q 353 888 353 1747 
Q 353 2609 779 3096 
Q 1206 3584 1959 3584 
z
" transform="scale(0.015625)"/>
       <path id="DejaVuSans-66" d="M 2375 4863 
L 2375 4384 
L 1825 4384 
Q 1516 4384 1395 4259 
Q 1275 4134 1275 3809 
L 1275 3500 
L 2222 3500 
L 2222 3053 
L 1275 3053 
L 1275 0 
L 697 0 
L 697 3053 
L 147 3053 
L 147 3500 
L 697 3500 
L 697 3744 
Q 697 4328 969 4595 
Q 1241 4863 1831 4863 
L 2375 4863 
z
" transform="scale(0.015625)"/>
       <path id="DejaVuSans-51" d="M 2522 4238 
Q 1834 4238 1429 3725 
Q 1025 3213 1025 2328 
Q 1025 1447 1429 934 
Q 1834 422 2522 422 
Q 3209 422 3611 934 
Q 4013 1447 4013 2328 
Q 4013 3213 3611 3725 
Q 3209 4238 2522 4238 
z
M 3406 84 
L 4238 -825 
L 3475 -825 
L 2784 -78 
Q 2681 -84 2626 -87 
Q 2572 -91 2522 -91 
Q 1538 -91 948 567 
Q 359 1225 359 2328 
Q 359 3434 948 4092 
Q 1538 4750 2522 4750 
Q 3503 4750 4090 4092 
Q 4678 3434 4678 2328 
Q 4678 1516 4351 937 
Q 4025 359 3406 84 
z
" transform="scale(0.015625)"/>
       <path id="DejaVuSans-62" d="M 3116 1747 
Q 3116 2381 2855 2742 
Q 2594 3103 2138 3103 
Q 1681 3103 1420 2742 
Q 1159 2381 1159 1747 
Q 1159 1113 1420 752 
Q 1681 391 2138 391 
Q 2594 391 2855 752 
Q 3116 1113 3116 1747 
z
M 1159 2969 
Q 1341 3281 1617 3432 
Q 1894 3584 2278 3584 
Q 2916 3584 3314 3078 
Q 3713 2572 3713 1747 
Q 3713 922 3314 415 
Q 2916 -91 2278 -91 
Q 1894 -91 1617 61 
Q 1341 213 1159 525 
L 1159 0 
L 581 0 
L 581 4863 
L 1159 4863 
L 1159 2969 
z
" transform="scale(0.015625)"/>
       <path id="DejaVuSans-73" d="M 2834 3397 
L 2834 2853 
Q 2591 2978 2328 3040 
Q 2066 3103 1784 3103 
Q 1356 3103 1142 2972 
Q 928 2841 928 2578 
Q 928 2378 1081 2264 
Q 1234 2150 1697 2047 
L 1894 2003 
Q 2506 1872 2764 1633 
Q 3022 1394 3022 966 
Q 3022 478 2636 193 
Q 2250 -91 1575 -91 
Q 1294 -91 989 -36 
Q 684 19 347 128 
L 347 722 
Q 666 556 975 473 
Q 1284 391 1588 391 
Q 1994 391 2212 530 
Q 2431 669 2431 922 
Q 2431 1156 2273 1281 
Q 2116 1406 1581 1522 
L 1381 1569 
Q 847 1681 609 1914 
Q 372 2147 372 2553 
Q 372 3047 722 3315 
Q 1072 3584 1716 3584 
Q 2034 3584 2315 3537 
Q 2597 3491 2834 3397 
z
" transform="scale(0.015625)"/>
      </defs>
      <use xlink:href="#DejaVuSans-4d"/>
      <use xlink:href="#DejaVuSans-65" x="86.279297"/>
      <use xlink:href="#DejaVuSans-61" x="147.802734"/>
      <use xlink:href="#DejaVuSans-6e" x="209.082031"/>
      <use xlink:href="#DejaVuSans-20" x="272.460938"/>
      <use xlink:href="#DejaVuSans-6f" x="304.248047"/>
      <use xlink:href="#DejaVuSans-66" x="365.429688"/>
      <use xlink:href="#DejaVuSans-20" x="400.634766"/>
      <use xlink:href="#DejaVuSans-51" x="432.421875"/>
      <use xlink:href="#DejaVuSans-20" x="511.132812"/>
      <use xlink:href="#DejaVuSans-62" x="542.919922"/>
      <use xlink:href="#DejaVuSans-65" x="606.396484"/>
      <use xlink:href="#DejaVuSans-61" x="667.919922"/>
      <use xlink:href="#DejaVuSans-74" x="729.199219"/>
      <use xlink:href="#DejaVuSans-73" x="768.408203"/>
     </g>
    </g>
    <g id="patch_8">
     <path d="M 345.01875 63.497812 
L 381.01875 63.497812 
L 381.01875 50.897812 
L 345.01875 50.897812 
z
" style="fill: #808080; fill-opacity: 0.3; stroke: #808080; stroke-opacity: 0.3; stroke-linejoin: miter"/>
    </g>
    <g id="text_14">
     <!-- Standard Range -->
     <g transform="translate(395.41875 63.497812) scale(0.18 -0.18)">
      <defs>
       <path id="DejaVuSans-72" d="M 2631 2963 
Q 2534 3019 2420 3045 
Q 2306 3072 2169 3072 
Q 1681 3072 1420 2755 
Q 1159 2438 1159 1844 
L 1159 0 
L 581 0 
L 581 3500 
L 1159 3500 
L 1159 2956 
Q 1341 3275 1631 3429 
Q 1922 3584 2338 3584 
Q 2397 3584 2469 3576 
Q 2541 3569 2628 3553 
L 2631 2963 
z
" transform="scale(0.015625)"/>
       <path id="DejaVuSans-52" d="M 2841 2188 
Q 3044 2119 3236 1894 
Q 3428 1669 3622 1275 
L 4263 0 
L 3584 0 
L 2988 1197 
Q 2756 1666 2539 1819 
Q 2322 1972 1947 1972 
L 1259 1972 
L 1259 0 
L 628 0 
L 628 4666 
L 2053 4666 
Q 2853 4666 3247 4331 
Q 3641 3997 3641 3322 
Q 3641 2881 3436 2590 
Q 3231 2300 2841 2188 
z
M 1259 4147 
L 1259 2491 
L 2053 2491 
Q 2509 2491 2742 2702 
Q 2975 2913 2975 3322 
Q 2975 3731 2742 3939 
Q 2509 4147 2053 4147 
L 1259 4147 
z
" transform="scale(0.015625)"/>
       <path id="DejaVuSans-67" d="M 2906 1791 
Q 2906 2416 2648 2759 
Q 2391 3103 1925 3103 
Q 1463 3103 1205 2759 
Q 947 2416 947 1791 
Q 947 1169 1205 825 
Q 1463 481 1925 481 
Q 2391 481 2648 825 
Q 2906 1169 2906 1791 
z
M 3481 434 
Q 3481 -459 3084 -895 
Q 2688 -1331 1869 -1331 
Q 1566 -1331 1297 -1286 
Q 1028 -1241 775 -1147 
L 775 -588 
Q 1028 -725 1275 -790 
Q 1522 -856 1778 -856 
Q 2344 -856 2625 -561 
Q 2906 -266 2906 331 
L 2906 616 
Q 2728 306 2450 153 
Q 2172 0 1784 0 
Q 1141 0 747 490 
Q 353 981 353 1791 
Q 353 2603 747 3093 
Q 1141 3584 1784 3584 
Q 2172 3584 2450 3431 
Q 2728 3278 2906 2969 
L 2906 3500 
L 3481 3500 
L 3481 434 
z
" transform="scale(0.015625)"/>
      </defs>
      <use xlink:href="#DejaVuSans-53"/>
      <use xlink:href="#DejaVuSans-74" x="63.476562"/>
      <use xlink:href="#DejaVuSans-61" x="102.685547"/>
      <use xlink:href="#DejaVuSans-6e" x="163.964844"/>
      <use xlink:href="#DejaVuSans-64" x="227.34375"/>
      <use xlink:href="#DejaVuSans-61" x="290.820312"/>
      <use xlink:href="#DejaVuSans-72" x="352.099609"/>
      <use xlink:href="#DejaVuSans-64" x="391.462891"/>
      <use xlink:href="#DejaVuSans-20" x="454.939453"/>
      <use xlink:href="#DejaVuSans-52" x="486.726562"/>
      <use xlink:href="#DejaVuSans-61" x="553.958984"/>
      <use xlink:href="#DejaVuSans-6e" x="615.238281"/>
      <use xlink:href="#DejaVuSans-67" x="678.617188"/>
      <use xlink:href="#DejaVuSans-65" x="742.09375"/>
     </g>
    </g>
   </g>
  </g>
 </g>
 <defs>
  <clipPath id="p5b514687fc">
   <rect x="112.911563" y="7.2" width="446.4" height="332.64"/>
  </clipPath>
 </defs>
</svg>
