<?xml version="1.0" encoding="utf-8" standalone="no"?>
<!DOCTYPE svg PUBLIC "-//W3C//DTD SVG 1.1//EN"
  "http://www.w3.org/Graphics/SVG/1.1/DTD/svg11.dtd">
<svg xmlns:xlink="http://www.w3.org/1999/xlink" width="757.27875pt" height="325.803625pt" viewBox="0 0 757.27875 325.803625" xmlns="http://www.w3.org/2000/svg" version="1.1">
 <metadata>
  <rdf:RDF xmlns:dc="http://purl.org/dc/elements/1.1/" xmlns:cc="http://creativecommons.org/ns#" xmlns:rdf="http://www.w3.org/1999/02/22-rdf-syntax-ns#">
   <cc:Work>
    <dc:type rdf:resource="http://purl.org/dc/dcmitype/StillImage"/>
    <dc:date>2024-05-15T14:37:45.240118</dc:date>
    <dc:format>image/svg+xml</dc:format>
    <dc:creator>
     <cc:Agent>
      <dc:title>Matplotlib v3.7.5, https://matplotlib.org/</dc:title>
     </cc:Agent>
    </dc:creator>
   </cc:Work>
  </rdf:RDF>
 </metadata>
 <defs>
  <style type="text/css">*{stroke-linejoin: round; stroke-linecap: butt}</style>
 </defs>
 <g id="figure_1">
  <g id="patch_1">
   <path d="M 0 325.803625 
L 757.27875 325.803625 
L 757.27875 0 
L 0 0 
z
" style="fill: #ffffff"/>
  </g>
  <g id="axes_1">
   <g id="patch_2">
    <path d="M 80.47875 259.019875 
L 750.07875 259.019875 
L 750.07875 37.259875 
L 80.47875 37.259875 
z
" style="fill: #ffffff"/>
   </g>
   <g id="matplotlib.axis_1">
    <g id="xtick_1">
     <g id="line2d_1">
      <defs>
       <path id="me33cdfa1f6" d="M 0 0 
L 0 -3.5 
" style="stroke: #000000; stroke-width: 2"/>
      </defs>
      <g>
       <use xlink:href="#me33cdfa1f6" x="110.915114" y="259.019875" style="stroke: #000000; stroke-width: 2"/>
      </g>
     </g>
     <g id="text_1">
      <!-- 0 -->
      <g transform="translate(103.916364 282.736437) scale(0.22 -0.22)">
       <defs>
        <path id="DejaVuSans-30" d="M 2034 4250 
Q 1547 4250 1301 3770 
Q 1056 3291 1056 2328 
Q 1056 1369 1301 889 
Q 1547 409 2034 409 
Q 2525 409 2770 889 
Q 3016 1369 3016 2328 
Q 3016 3291 2770 3770 
Q 2525 4250 2034 4250 
z
M 2034 4750 
Q 2819 4750 3233 4129 
Q 3647 3509 3647 2328 
Q 3647 1150 3233 529 
Q 2819 -91 2034 -91 
Q 1250 -91 836 529 
Q 422 1150 422 2328 
Q 422 3509 836 4129 
Q 1250 4750 2034 4750 
z
" transform="scale(0.015625)"/>
       </defs>
       <use xlink:href="#DejaVuSans-30"/>
      </g>
     </g>
    </g>
    <g id="xtick_2">
     <g id="line2d_2">
      <g>
       <use xlink:href="#me33cdfa1f6" x="187.02505" y="259.019875" style="stroke: #000000; stroke-width: 2"/>
      </g>
     </g>
     <g id="text_2">
      <!-- 500 -->
      <g transform="translate(166.0288 282.736437) scale(0.22 -0.22)">
       <defs>
        <path id="DejaVuSans-35" d="M 691 4666 
L 3169 4666 
L 3169 4134 
L 1269 4134 
L 1269 2991 
Q 1406 3038 1543 3061 
Q 1681 3084 1819 3084 
Q 2600 3084 3056 2656 
Q 3513 2228 3513 1497 
Q 3513 744 3044 326 
Q 2575 -91 1722 -91 
Q 1428 -91 1123 -41 
Q 819 9 494 109 
L 494 744 
Q 775 591 1075 516 
Q 1375 441 1709 441 
Q 2250 441 2565 725 
Q 2881 1009 2881 1497 
Q 2881 1984 2565 2268 
Q 2250 2553 1709 2553 
Q 1456 2553 1204 2497 
Q 953 2441 691 2322 
L 691 4666 
z
" transform="scale(0.015625)"/>
       </defs>
       <use xlink:href="#DejaVuSans-35"/>
       <use xlink:href="#DejaVuSans-30" x="63.623047"/>
       <use xlink:href="#DejaVuSans-30" x="127.246094"/>
      </g>
     </g>
    </g>
    <g id="xtick_3">
     <g id="line2d_3">
      <g>
       <use xlink:href="#me33cdfa1f6" x="263.134987" y="259.019875" style="stroke: #000000; stroke-width: 2"/>
      </g>
     </g>
     <g id="text_3">
      <!-- 1000 -->
      <g transform="translate(235.139987 282.736437) scale(0.22 -0.22)">
       <defs>
        <path id="DejaVuSans-31" d="M 794 531 
L 1825 531 
L 1825 4091 
L 703 3866 
L 703 4441 
L 1819 4666 
L 2450 4666 
L 2450 531 
L 3481 531 
L 3481 0 
L 794 0 
L 794 531 
z
" transform="scale(0.015625)"/>
       </defs>
       <use xlink:href="#DejaVuSans-31"/>
       <use xlink:href="#DejaVuSans-30" x="63.623047"/>
       <use xlink:href="#DejaVuSans-30" x="127.246094"/>
       <use xlink:href="#DejaVuSans-30" x="190.869141"/>
      </g>
     </g>
    </g>
    <g id="xtick_4">
     <g id="line2d_4">
      <g>
       <use xlink:href="#me33cdfa1f6" x="339.244923" y="259.019875" style="stroke: #000000; stroke-width: 2"/>
      </g>
     </g>
     <g id="text_4">
      <!-- 1500 -->
      <g transform="translate(311.249923 282.736437) scale(0.22 -0.22)">
       <use xlink:href="#DejaVuSans-31"/>
       <use xlink:href="#DejaVuSans-35" x="63.623047"/>
       <use xlink:href="#DejaVuSans-30" x="127.246094"/>
       <use xlink:href="#DejaVuSans-30" x="190.869141"/>
      </g>
     </g>
    </g>
    <g id="xtick_5">
     <g id="line2d_5">
      <g>
       <use xlink:href="#me33cdfa1f6" x="415.35486" y="259.019875" style="stroke: #000000; stroke-width: 2"/>
      </g>
     </g>
     <g id="text_5">
      <!-- 2000 -->
      <g transform="translate(387.35986 282.736437) scale(0.22 -0.22)">
       <defs>
        <path id="DejaVuSans-32" d="M 1228 531 
L 3431 531 
L 3431 0 
L 469 0 
L 469 531 
Q 828 903 1448 1529 
Q 2069 2156 2228 2338 
Q 2531 2678 2651 2914 
Q 2772 3150 2772 3378 
Q 2772 3750 2511 3984 
Q 2250 4219 1831 4219 
Q 1534 4219 1204 4116 
Q 875 4013 500 3803 
L 500 4441 
Q 881 4594 1212 4672 
Q 1544 4750 1819 4750 
Q 2544 4750 2975 4387 
Q 3406 4025 3406 3419 
Q 3406 3131 3298 2873 
Q 3191 2616 2906 2266 
Q 2828 2175 2409 1742 
Q 1991 1309 1228 531 
z
" transform="scale(0.015625)"/>
       </defs>
       <use xlink:href="#DejaVuSans-32"/>
       <use xlink:href="#DejaVuSans-30" x="63.623047"/>
       <use xlink:href="#DejaVuSans-30" x="127.246094"/>
       <use xlink:href="#DejaVuSans-30" x="190.869141"/>
      </g>
     </g>
    </g>
    <g id="xtick_6">
     <g id="line2d_6">
      <g>
       <use xlink:href="#me33cdfa1f6" x="491.464797" y="259.019875" style="stroke: #000000; stroke-width: 2"/>
      </g>
     </g>
     <g id="text_6">
      <!-- 2500 -->
      <g transform="translate(463.469797 282.736437) scale(0.22 -0.22)">
       <use xlink:href="#DejaVuSans-32"/>
       <use xlink:href="#DejaVuSans-35" x="63.623047"/>
       <use xlink:href="#DejaVuSans-30" x="127.246094"/>
       <use xlink:href="#DejaVuSans-30" x="190.869141"/>
      </g>
     </g>
    </g>
    <g id="xtick_7">
     <g id="line2d_7">
      <g>
       <use xlink:href="#me33cdfa1f6" x="567.574733" y="259.019875" style="stroke: #000000; stroke-width: 2"/>
      </g>
     </g>
     <g id="text_7">
      <!-- 3000 -->
      <g transform="translate(539.579733 282.736437) scale(0.22 -0.22)">
       <defs>
        <path id="DejaVuSans-33" d="M 2597 2516 
Q 3050 2419 3304 2112 
Q 3559 1806 3559 1356 
Q 3559 666 3084 287 
Q 2609 -91 1734 -91 
Q 1441 -91 1130 -33 
Q 819 25 488 141 
L 488 750 
Q 750 597 1062 519 
Q 1375 441 1716 441 
Q 2309 441 2620 675 
Q 2931 909 2931 1356 
Q 2931 1769 2642 2001 
Q 2353 2234 1838 2234 
L 1294 2234 
L 1294 2753 
L 1863 2753 
Q 2328 2753 2575 2939 
Q 2822 3125 2822 3475 
Q 2822 3834 2567 4026 
Q 2313 4219 1838 4219 
Q 1578 4219 1281 4162 
Q 984 4106 628 3988 
L 628 4550 
Q 988 4650 1302 4700 
Q 1616 4750 1894 4750 
Q 2613 4750 3031 4423 
Q 3450 4097 3450 3541 
Q 3450 3153 3228 2886 
Q 3006 2619 2597 2516 
z
" transform="scale(0.015625)"/>
       </defs>
       <use xlink:href="#DejaVuSans-33"/>
       <use xlink:href="#DejaVuSans-30" x="63.623047"/>
       <use xlink:href="#DejaVuSans-30" x="127.246094"/>
       <use xlink:href="#DejaVuSans-30" x="190.869141"/>
      </g>
     </g>
    </g>
    <g id="xtick_8">
     <g id="line2d_8">
      <g>
       <use xlink:href="#me33cdfa1f6" x="643.68467" y="259.019875" style="stroke: #000000; stroke-width: 2"/>
      </g>
     </g>
     <g id="text_8">
      <!-- 3500 -->
      <g transform="translate(615.68967 282.736437) scale(0.22 -0.22)">
       <use xlink:href="#DejaVuSans-33"/>
       <use xlink:href="#DejaVuSans-35" x="63.623047"/>
       <use xlink:href="#DejaVuSans-30" x="127.246094"/>
       <use xlink:href="#DejaVuSans-30" x="190.869141"/>
      </g>
     </g>
    </g>
    <g id="xtick_9">
     <g id="line2d_9">
      <g>
       <use xlink:href="#me33cdfa1f6" x="719.794606" y="259.019875" style="stroke: #000000; stroke-width: 2"/>
      </g>
     </g>
     <g id="text_9">
      <!-- 4000 -->
      <g transform="translate(691.799606 282.736437) scale(0.22 -0.22)">
       <defs>
        <path id="DejaVuSans-34" d="M 2419 4116 
L 825 1625 
L 2419 1625 
L 2419 4116 
z
M 2253 4666 
L 3047 4666 
L 3047 1625 
L 3713 1625 
L 3713 1100 
L 3047 1100 
L 3047 0 
L 2419 0 
L 2419 1100 
L 313 1100 
L 313 1709 
L 2253 4666 
z
" transform="scale(0.015625)"/>
       </defs>
       <use xlink:href="#DejaVuSans-34"/>
       <use xlink:href="#DejaVuSans-30" x="63.623047"/>
       <use xlink:href="#DejaVuSans-30" x="127.246094"/>
       <use xlink:href="#DejaVuSans-30" x="190.869141"/>
      </g>
     </g>
    </g>
    <g id="text_10">
     <!-- Samples -->
     <g transform="translate(368.301875 314.028312) scale(0.22 -0.22)">
      <defs>
       <path id="DejaVuSans-53" d="M 3425 4513 
L 3425 3897 
Q 3066 4069 2747 4153 
Q 2428 4238 2131 4238 
Q 1616 4238 1336 4038 
Q 1056 3838 1056 3469 
Q 1056 3159 1242 3001 
Q 1428 2844 1947 2747 
L 2328 2669 
Q 3034 2534 3370 2195 
Q 3706 1856 3706 1288 
Q 3706 609 3251 259 
Q 2797 -91 1919 -91 
Q 1588 -91 1214 -16 
Q 841 59 441 206 
L 441 856 
Q 825 641 1194 531 
Q 1563 422 1919 422 
Q 2459 422 2753 634 
Q 3047 847 3047 1241 
Q 3047 1584 2836 1778 
Q 2625 1972 2144 2069 
L 1759 2144 
Q 1053 2284 737 2584 
Q 422 2884 422 3419 
Q 422 4038 858 4394 
Q 1294 4750 2059 4750 
Q 2388 4750 2728 4690 
Q 3069 4631 3425 4513 
z
" transform="scale(0.015625)"/>
       <path id="DejaVuSans-61" d="M 2194 1759 
Q 1497 1759 1228 1600 
Q 959 1441 959 1056 
Q 959 750 1161 570 
Q 1363 391 1709 391 
Q 2188 391 2477 730 
Q 2766 1069 2766 1631 
L 2766 1759 
L 2194 1759 
z
M 3341 1997 
L 3341 0 
L 2766 0 
L 2766 531 
Q 2569 213 2275 61 
Q 1981 -91 1556 -91 
Q 1019 -91 701 211 
Q 384 513 384 1019 
Q 384 1609 779 1909 
Q 1175 2209 1959 2209 
L 2766 2209 
L 2766 2266 
Q 2766 2663 2505 2880 
Q 2244 3097 1772 3097 
Q 1472 3097 1187 3025 
Q 903 2953 641 2809 
L 641 3341 
Q 956 3463 1253 3523 
Q 1550 3584 1831 3584 
Q 2591 3584 2966 3190 
Q 3341 2797 3341 1997 
z
" transform="scale(0.015625)"/>
       <path id="DejaVuSans-6d" d="M 3328 2828 
Q 3544 3216 3844 3400 
Q 4144 3584 4550 3584 
Q 5097 3584 5394 3201 
Q 5691 2819 5691 2113 
L 5691 0 
L 5113 0 
L 5113 2094 
Q 5113 2597 4934 2840 
Q 4756 3084 4391 3084 
Q 3944 3084 3684 2787 
Q 3425 2491 3425 1978 
L 3425 0 
L 2847 0 
L 2847 2094 
Q 2847 2600 2669 2842 
Q 2491 3084 2119 3084 
Q 1678 3084 1418 2786 
Q 1159 2488 1159 1978 
L 1159 0 
L 581 0 
L 581 3500 
L 1159 3500 
L 1159 2956 
Q 1356 3278 1631 3431 
Q 1906 3584 2284 3584 
Q 2666 3584 2933 3390 
Q 3200 3197 3328 2828 
z
" transform="scale(0.015625)"/>
       <path id="DejaVuSans-70" d="M 1159 525 
L 1159 -1331 
L 581 -1331 
L 581 3500 
L 1159 3500 
L 1159 2969 
Q 1341 3281 1617 3432 
Q 1894 3584 2278 3584 
Q 2916 3584 3314 3078 
Q 3713 2572 3713 1747 
Q 3713 922 3314 415 
Q 2916 -91 2278 -91 
Q 1894 -91 1617 61 
Q 1341 213 1159 525 
z
M 3116 1747 
Q 3116 2381 2855 2742 
Q 2594 3103 2138 3103 
Q 1681 3103 1420 2742 
Q 1159 2381 1159 1747 
Q 1159 1113 1420 752 
Q 1681 391 2138 391 
Q 2594 391 2855 752 
Q 3116 1113 3116 1747 
z
" transform="scale(0.015625)"/>
       <path id="DejaVuSans-6c" d="M 603 4863 
L 1178 4863 
L 1178 0 
L 603 0 
L 603 4863 
z
" transform="scale(0.015625)"/>
       <path id="DejaVuSans-65" d="M 3597 1894 
L 3597 1613 
L 953 1613 
Q 991 1019 1311 708 
Q 1631 397 2203 397 
Q 2534 397 2845 478 
Q 3156 559 3463 722 
L 3463 178 
Q 3153 47 2828 -22 
Q 2503 -91 2169 -91 
Q 1331 -91 842 396 
Q 353 884 353 1716 
Q 353 2575 817 3079 
Q 1281 3584 2069 3584 
Q 2775 3584 3186 3129 
Q 3597 2675 3597 1894 
z
M 3022 2063 
Q 3016 2534 2758 2815 
Q 2500 3097 2075 3097 
Q 1594 3097 1305 2825 
Q 1016 2553 972 2059 
L 3022 2063 
z
" transform="scale(0.015625)"/>
       <path id="DejaVuSans-73" d="M 2834 3397 
L 2834 2853 
Q 2591 2978 2328 3040 
Q 2066 3103 1784 3103 
Q 1356 3103 1142 2972 
Q 928 2841 928 2578 
Q 928 2378 1081 2264 
Q 1234 2150 1697 2047 
L 1894 2003 
Q 2506 1872 2764 1633 
Q 3022 1394 3022 966 
Q 3022 478 2636 193 
Q 2250 -91 1575 -91 
Q 1294 -91 989 -36 
Q 684 19 347 128 
L 347 722 
Q 666 556 975 473 
Q 1284 391 1588 391 
Q 1994 391 2212 530 
Q 2431 669 2431 922 
Q 2431 1156 2273 1281 
Q 2116 1406 1581 1522 
L 1381 1569 
Q 847 1681 609 1914 
Q 372 2147 372 2553 
Q 372 3047 722 3315 
Q 1072 3584 1716 3584 
Q 2034 3584 2315 3537 
Q 2597 3491 2834 3397 
z
" transform="scale(0.015625)"/>
      </defs>
      <use xlink:href="#DejaVuSans-53"/>
      <use xlink:href="#DejaVuSans-61" x="63.476562"/>
      <use xlink:href="#DejaVuSans-6d" x="124.755859"/>
      <use xlink:href="#DejaVuSans-70" x="222.167969"/>
      <use xlink:href="#DejaVuSans-6c" x="285.644531"/>
      <use xlink:href="#DejaVuSans-65" x="313.427734"/>
      <use xlink:href="#DejaVuSans-73" x="374.951172"/>
     </g>
    </g>
   </g>
   <g id="matplotlib.axis_2">
    <g id="ytick_1">
     <g id="line2d_10">
      <defs>
       <path id="m2b680df01a" d="M 0 0 
L 3.5 0 
" style="stroke: #000000; stroke-width: 2"/>
      </defs>
      <g>
       <use xlink:href="#m2b680df01a" x="80.47875" y="221.050433" style="stroke: #000000; stroke-width: 2"/>
      </g>
     </g>
     <g id="text_11">
      <!-- 0.0 -->
      <g transform="translate(38.491875 229.408714) scale(0.22 -0.22)">
       <defs>
        <path id="DejaVuSans-2e" d="M 684 794 
L 1344 794 
L 1344 0 
L 684 0 
L 684 794 
z
" transform="scale(0.015625)"/>
       </defs>
       <use xlink:href="#DejaVuSans-30"/>
       <use xlink:href="#DejaVuSans-2e" x="63.623047"/>
       <use xlink:href="#DejaVuSans-30" x="95.410156"/>
      </g>
     </g>
    </g>
    <g id="ytick_2">
     <g id="line2d_11">
      <g>
       <use xlink:href="#m2b680df01a" x="80.47875" y="138.220788" style="stroke: #000000; stroke-width: 2"/>
      </g>
     </g>
     <g id="text_12">
      <!-- 0.5 -->
      <g transform="translate(38.491875 146.57907) scale(0.22 -0.22)">
       <use xlink:href="#DejaVuSans-30"/>
       <use xlink:href="#DejaVuSans-2e" x="63.623047"/>
       <use xlink:href="#DejaVuSans-35" x="95.410156"/>
      </g>
     </g>
    </g>
    <g id="ytick_3">
     <g id="line2d_12">
      <g>
       <use xlink:href="#m2b680df01a" x="80.47875" y="55.391144" style="stroke: #000000; stroke-width: 2"/>
      </g>
     </g>
     <g id="text_13">
      <!-- 1.0 -->
      <g transform="translate(38.491875 63.749425) scale(0.22 -0.22)">
       <use xlink:href="#DejaVuSans-31"/>
       <use xlink:href="#DejaVuSans-2e" x="63.623047"/>
       <use xlink:href="#DejaVuSans-30" x="95.410156"/>
      </g>
     </g>
    </g>
    <g id="text_14">
     <!-- Amplitude(mV) -->
     <g transform="translate(23.916563 231.332531) rotate(-90) scale(0.22 -0.22)">
      <defs>
       <path id="DejaVuSans-41" d="M 2188 4044 
L 1331 1722 
L 3047 1722 
L 2188 4044 
z
M 1831 4666 
L 2547 4666 
L 4325 0 
L 3669 0 
L 3244 1197 
L 1141 1197 
L 716 0 
L 50 0 
L 1831 4666 
z
" transform="scale(0.015625)"/>
       <path id="DejaVuSans-69" d="M 603 3500 
L 1178 3500 
L 1178 0 
L 603 0 
L 603 3500 
z
M 603 4863 
L 1178 4863 
L 1178 4134 
L 603 4134 
L 603 4863 
z
" transform="scale(0.015625)"/>
       <path id="DejaVuSans-74" d="M 1172 4494 
L 1172 3500 
L 2356 3500 
L 2356 3053 
L 1172 3053 
L 1172 1153 
Q 1172 725 1289 603 
Q 1406 481 1766 481 
L 2356 481 
L 2356 0 
L 1766 0 
Q 1100 0 847 248 
Q 594 497 594 1153 
L 594 3053 
L 172 3053 
L 172 3500 
L 594 3500 
L 594 4494 
L 1172 4494 
z
" transform="scale(0.015625)"/>
       <path id="DejaVuSans-75" d="M 544 1381 
L 544 3500 
L 1119 3500 
L 1119 1403 
Q 1119 906 1312 657 
Q 1506 409 1894 409 
Q 2359 409 2629 706 
Q 2900 1003 2900 1516 
L 2900 3500 
L 3475 3500 
L 3475 0 
L 2900 0 
L 2900 538 
Q 2691 219 2414 64 
Q 2138 -91 1772 -91 
Q 1169 -91 856 284 
Q 544 659 544 1381 
z
M 1991 3584 
L 1991 3584 
z
" transform="scale(0.015625)"/>
       <path id="DejaVuSans-64" d="M 2906 2969 
L 2906 4863 
L 3481 4863 
L 3481 0 
L 2906 0 
L 2906 525 
Q 2725 213 2448 61 
Q 2172 -91 1784 -91 
Q 1150 -91 751 415 
Q 353 922 353 1747 
Q 353 2572 751 3078 
Q 1150 3584 1784 3584 
Q 2172 3584 2448 3432 
Q 2725 3281 2906 2969 
z
M 947 1747 
Q 947 1113 1208 752 
Q 1469 391 1925 391 
Q 2381 391 2643 752 
Q 2906 1113 2906 1747 
Q 2906 2381 2643 2742 
Q 2381 3103 1925 3103 
Q 1469 3103 1208 2742 
Q 947 2381 947 1747 
z
" transform="scale(0.015625)"/>
       <path id="DejaVuSans-28" d="M 1984 4856 
Q 1566 4138 1362 3434 
Q 1159 2731 1159 2009 
Q 1159 1288 1364 580 
Q 1569 -128 1984 -844 
L 1484 -844 
Q 1016 -109 783 600 
Q 550 1309 550 2009 
Q 550 2706 781 3412 
Q 1013 4119 1484 4856 
L 1984 4856 
z
" transform="scale(0.015625)"/>
       <path id="DejaVuSans-56" d="M 1831 0 
L 50 4666 
L 709 4666 
L 2188 738 
L 3669 4666 
L 4325 4666 
L 2547 0 
L 1831 0 
z
" transform="scale(0.015625)"/>
       <path id="DejaVuSans-29" d="M 513 4856 
L 1013 4856 
Q 1481 4119 1714 3412 
Q 1947 2706 1947 2009 
Q 1947 1309 1714 600 
Q 1481 -109 1013 -844 
L 513 -844 
Q 928 -128 1133 580 
Q 1338 1288 1338 2009 
Q 1338 2731 1133 3434 
Q 928 4138 513 4856 
z
" transform="scale(0.015625)"/>
      </defs>
      <use xlink:href="#DejaVuSans-41"/>
      <use xlink:href="#DejaVuSans-6d" x="68.408203"/>
      <use xlink:href="#DejaVuSans-70" x="165.820312"/>
      <use xlink:href="#DejaVuSans-6c" x="229.296875"/>
      <use xlink:href="#DejaVuSans-69" x="257.080078"/>
      <use xlink:href="#DejaVuSans-74" x="284.863281"/>
      <use xlink:href="#DejaVuSans-75" x="324.072266"/>
      <use xlink:href="#DejaVuSans-64" x="387.451172"/>
      <use xlink:href="#DejaVuSans-65" x="450.927734"/>
      <use xlink:href="#DejaVuSans-28" x="512.451172"/>
      <use xlink:href="#DejaVuSans-6d" x="551.464844"/>
      <use xlink:href="#DejaVuSans-56" x="648.876953"/>
      <use xlink:href="#DejaVuSans-29" x="717.285156"/>
     </g>
    </g>
   </g>
   <g id="line2d_13">
    <path d="M 110.915114 221.050433 
L 141.206868 221.050433 
L 141.359088 224.896747 
L 141.663528 223.834071 
L 141.815748 225.427285 
L 142.120188 224.215119 
L 142.424627 226.547574 
L 142.576847 225.495084 
L 142.881287 221.964214 
L 143.337947 226.892713 
L 143.490166 226.492755 
L 143.642386 224.114924 
L 144.099046 226.535747 
L 144.251266 225.783103 
L 144.403486 226.184511 
L 144.707925 223.347837 
L 144.860145 225.710446 
L 145.012365 225.553852 
L 145.164585 224.666487 
L 145.316805 225.144075 
L 145.469025 225.00638 
L 145.621245 221.989308 
L 145.925684 227.862301 
L 146.077904 226.77721 
L 146.230124 224.082527 
L 146.534564 222.59276 
L 146.991224 227.677259 
L 147.143443 222.481149 
L 147.295663 221.369384 
L 147.447883 222.187032 
L 147.600103 224.743978 
L 147.752323 224.264915 
L 147.904543 224.153164 
L 148.056763 223.293981 
L 148.208983 221.595246 
L 148.361202 221.850954 
L 148.665642 224.700842 
L 148.817862 224.337126 
L 148.970082 224.413005 
L 149.122302 221.196146 
L 149.274522 221.143157 
L 149.578961 223.693048 
L 149.731181 224.379463 
L 149.883401 224.290934 
L 150.035621 221.434734 
L 150.187841 221.26436 
L 150.340061 220.855296 
L 150.492281 223.320803 
L 151.10116 219.585631 
L 151.25338 221.995141 
L 151.4056 222.379709 
L 151.55782 224.086121 
L 151.86226 218.881739 
L 152.014479 219.046951 
L 152.166699 219.827524 
L 152.471139 223.203796 
L 152.927799 218.818374 
L 153.232238 223.367093 
L 153.384458 223.448577 
L 153.688898 218.584221 
L 153.841118 218.688808 
L 153.993338 220.344259 
L 154.145558 220.693569 
L 154.297777 222.047894 
L 154.602217 219.871807 
L 154.906657 220.60162 
L 155.058877 222.834151 
L 155.211097 223.382532 
L 155.363317 223.389761 
L 155.819976 219.395008 
L 156.124416 215.753517 
L 156.276636 215.904721 
L 156.428856 212.463836 
L 156.581076 214.065371 
L 156.733295 214.163067 
L 157.037735 217.773835 
L 157.342175 212.955736 
L 157.494395 213.700826 
L 157.798835 219.594744 
L 157.951054 219.976392 
L 158.103274 219.134266 
L 158.255494 219.955111 
L 158.407714 218.496094 
L 158.712154 222.772285 
L 158.864374 223.777233 
L 159.016594 222.462479 
L 159.168813 223.136376 
L 159.321033 222.486107 
L 159.625473 220.132755 
L 159.777693 220.156604 
L 160.082133 221.305251 
L 160.234353 220.660071 
L 160.386572 222.087976 
L 160.538792 221.531656 
L 160.691012 223.147372 
L 160.843232 220.251486 
L 160.995452 220.118394 
L 161.147672 217.720025 
L 161.299892 218.481101 
L 161.452112 217.510417 
L 161.604331 217.493551 
L 161.756551 215.515063 
L 162.060991 207.674706 
L 162.213211 203.893847 
L 162.365431 203.414651 
L 162.517651 200.32097 
L 162.82209 179.805588 
L 164.039849 56.641932 
L 164.192069 55.243396 
L 164.344289 65.831595 
L 165.105388 190.44375 
L 165.409828 216.01154 
L 165.562048 215.763683 
L 165.714268 211.61977 
L 166.018708 211.12742 
L 166.475367 219.634013 
L 166.627587 218.996265 
L 166.779807 219.848489 
L 167.084247 226.238802 
L 167.388687 224.414788 
L 167.540906 223.805725 
L 167.693126 224.489409 
L 167.845346 229.070743 
L 167.997566 228.586675 
L 168.302006 226.180153 
L 168.454226 225.973667 
L 168.606446 229.196145 
L 168.758665 227.507129 
L 168.910885 229.820252 
L 169.063105 227.132151 
L 169.215325 229.454067 
L 169.367545 225.366649 
L 169.671985 228.415817 
L 169.976424 233.775357 
L 170.128644 225.626112 
L 170.280864 225.96943 
L 170.433084 226.838612 
L 170.585304 232.899671 
L 171.194183 226.265199 
L 171.346403 226.696684 
L 171.498623 230.364546 
L 171.803063 226.797295 
L 171.955283 227.332339 
L 172.107503 224.792688 
L 172.259723 226.014921 
L 172.411942 228.777724 
L 172.564162 227.234957 
L 172.716382 227.373814 
L 172.868602 225.02039 
L 173.020822 220.587647 
L 173.477482 224.913344 
L 173.629701 222.41089 
L 173.781921 222.773554 
L 173.934141 216.575612 
L 174.390801 223.056555 
L 174.84746 213.044253 
L 174.99968 216.519487 
L 175.1519 213.665585 
L 175.30412 213.749694 
L 175.76078 205.09658 
L 175.912999 208.246848 
L 176.065219 207.957292 
L 176.369659 201.292735 
L 176.521879 201.102543 
L 176.674099 201.890636 
L 176.826319 197.651102 
L 176.978539 197.828511 
L 177.130758 197.699396 
L 177.739638 187.106421 
L 177.891858 191.386953 
L 178.500737 182.25753 
L 178.652957 188.736181 
L 178.805177 184.185414 
L 178.957397 187.845287 
L 179.261837 184.270247 
L 179.566276 192.195357 
L 180.022936 200.257996 
L 180.175156 196.050193 
L 180.327376 198.61591 
L 180.631816 207.55353 
L 180.936255 211.545665 
L 181.088475 207.737459 
L 181.240695 213.610255 
L 181.545135 216.409265 
L 181.697355 220.353877 
L 181.849575 217.312491 
L 182.306234 220.891057 
L 182.458454 223.753886 
L 182.610674 224.379219 
L 182.762894 223.585082 
L 182.915114 225.474402 
L 183.067334 223.482429 
L 183.371773 226.310466 
L 183.523993 229.837704 
L 183.676213 223.880205 
L 183.828433 223.531363 
L 184.132873 225.571798 
L 184.285092 225.68086 
L 184.437312 226.617943 
L 184.589532 225.705854 
L 184.741752 227.156609 
L 184.893972 223.333284 
L 185.198412 226.505369 
L 185.350632 227.751064 
L 185.502851 227.869854 
L 185.807291 222.295784 
L 186.111731 227.826753 
L 186.568391 222.131893 
L 186.72061 226.94945 
L 186.87283 221.886954 
L 187.17727 226.858426 
L 187.63393 220.331987 
L 187.78615 223.8472 
L 187.938369 222.88299 
L 188.242809 225.281771 
L 188.395029 222.212473 
L 188.699469 223.04179 
L 188.851689 224.961276 
L 189.003909 225.369741 
L 189.156128 223.287369 
L 189.308348 223.372653 
L 189.460568 221.507715 
L 189.612788 222.707105 
L 189.765008 224.869091 
L 189.917228 225.299691 
L 190.069448 222.77643 
L 190.221668 222.483189 
L 190.373887 223.556997 
L 190.526107 223.212686 
L 190.678327 224.807056 
L 190.830547 225.105191 
L 190.982767 221.539342 
L 191.287207 225.226607 
L 191.439427 223.910208 
L 191.743866 228.395 
L 191.896086 227.498021 
L 192.048306 221.569132 
L 192.200526 224.44932 
L 192.352746 224.708454 
L 192.657186 227.440909 
L 193.113845 221.887379 
L 193.266065 225.992718 
L 193.418285 226.494542 
L 193.570505 228.011789 
L 193.722725 225.056314 
L 193.874945 225.618531 
L 194.027164 222.103589 
L 194.331604 228.123018 
L 194.483824 227.000314 
L 194.636044 224.998297 
L 194.788264 224.71651 
L 194.940484 225.208406 
L 195.092703 228.386868 
L 195.549363 225.222188 
L 195.701583 225.866525 
L 195.853803 225.050588 
L 196.006023 225.881032 
L 196.158243 225.927931 
L 196.310462 227.648632 
L 196.462682 227.385519 
L 196.767122 224.564379 
L 196.919342 226.401598 
L 197.071562 229.846046 
L 197.223782 229.914711 
L 197.528221 223.601521 
L 197.680441 225.146112 
L 197.832661 224.587011 
L 197.984881 227.71417 
L 198.137101 227.656382 
L 198.289321 226.059704 
L 198.441541 226.009788 
L 198.593761 224.21131 
L 199.05042 228.69428 
L 199.35486 224.599273 
L 199.50708 224.825233 
L 199.6593 226.14894 
L 199.81152 226.294451 
L 199.963739 227.611448 
L 200.115959 225.762402 
L 200.268179 226.006127 
L 200.420399 224.569158 
L 200.572619 226.450287 
L 200.724839 226.595432 
L 200.877059 226.146205 
L 201.029279 227.716327 
L 201.333718 223.693648 
L 201.638158 227.254673 
L 201.790378 227.024108 
L 201.942598 224.600603 
L 202.094818 224.46059 
L 202.247038 223.661894 
L 202.551477 226.434972 
L 202.703697 226.431892 
L 203.160357 222.591993 
L 203.312577 224.669124 
L 203.464797 224.841468 
L 203.617016 225.693136 
L 203.769236 225.35269 
L 203.921456 225.823685 
L 204.073676 221.988944 
L 204.378116 224.477692 
L 204.530336 226.748165 
L 204.682555 226.686279 
L 204.986995 221.305673 
L 205.139215 224.384824 
L 205.291435 225.209695 
L 205.595875 222.818163 
L 205.748095 222.722724 
L 205.900314 223.348714 
L 206.052534 225.203512 
L 206.204754 228.821472 
L 206.356974 226.407001 
L 206.509194 225.986873 
L 206.813634 220.459064 
L 206.965854 224.34154 
L 207.118073 224.945814 
L 207.270293 223.843714 
L 207.422513 224.10052 
L 207.726953 222.940581 
L 207.879173 222.497251 
L 208.183613 224.726302 
L 208.488052 221.926162 
L 208.640272 221.548211 
L 208.792492 225.163768 
L 208.944712 224.073878 
L 209.096932 223.925478 
L 209.705811 221.11342 
L 210.010251 224.538497 
L 210.162471 223.390814 
L 210.314691 221.29594 
L 210.619131 221.816683 
L 210.77135 223.055073 
L 210.92357 223.023245 
L 211.07579 222.749301 
L 211.22801 220.327641 
L 211.38023 220.329904 
L 211.53245 221.151695 
L 211.83689 223.836764 
L 211.989109 223.248898 
L 212.293549 219.640639 
L 212.445769 223.750821 
L 212.597989 223.334464 
L 212.750209 223.680304 
L 213.054649 220.824094 
L 213.206868 221.857167 
L 213.359088 221.841009 
L 213.511308 220.610233 
L 213.663528 220.486913 
L 213.815748 219.860109 
L 213.967968 217.902793 
L 214.120188 219.700653 
L 214.272408 218.875654 
L 214.424627 221.721082 
L 214.729067 220.351488 
L 214.881287 220.181578 
L 215.033507 219.456921 
L 215.185727 219.577586 
L 215.337947 221.632054 
L 215.946826 211.112371 
L 216.251266 214.53611 
L 216.555706 212.02886 
L 216.707925 212.13923 
L 216.860145 212.109192 
L 217.012365 213.487875 
L 217.164585 213.482187 
L 217.469025 218.507129 
L 217.621245 217.040782 
L 217.773465 217.024343 
L 217.925684 217.617333 
L 218.077904 217.401419 
L 218.230124 221.406214 
L 218.382344 220.876634 
L 218.686784 217.715894 
L 218.839004 217.904615 
L 218.991224 219.061298 
L 219.143443 219.299417 
L 219.295663 219.327224 
L 219.600103 216.555313 
L 219.752323 216.590405 
L 219.904543 217.774347 
L 220.056763 221.861212 
L 220.361202 213.19704 
L 220.513422 214.00417 
L 220.817862 216.356028 
L 221.274522 213.86613 
L 221.426742 209.765522 
L 221.731181 208.72757 
L 222.492281 186.064863 
L 222.94894 143.097886 
L 223.55782 85.688467 
L 224.014479 50.742603 
L 224.166699 60.333634 
L 225.080018 182.007498 
L 225.384458 200.753678 
L 225.536678 204.781221 
L 225.688898 199.642676 
L 226.145558 206.653577 
L 226.449997 215.491394 
L 226.602217 214.098864 
L 226.754437 216.502144 
L 226.906657 215.978653 
L 227.363317 220.748968 
L 227.515536 215.811981 
L 227.667756 221.832993 
L 227.819976 222.147528 
L 227.972196 219.389451 
L 228.124416 222.276396 
L 228.276636 218.822405 
L 228.428856 221.612979 
L 228.733295 218.95792 
L 228.885515 223.66074 
L 229.189955 219.630845 
L 229.342175 220.53463 
L 229.494395 224.566716 
L 229.646615 215.582581 
L 229.798835 216.554236 
L 229.951054 220.98942 
L 230.255494 221.281761 
L 230.407714 218.120656 
L 230.559934 218.111262 
L 230.712154 217.474084 
L 231.016594 222.674319 
L 231.473253 214.678466 
L 231.625473 219.251033 
L 231.777693 216.861489 
L 231.929913 219.52283 
L 232.082133 216.69439 
L 232.234353 217.679349 
L 232.386572 216.738836 
L 232.538792 213.74132 
L 232.843232 215.371812 
L 232.995452 212.925176 
L 233.147672 212.464047 
L 233.299892 209.473494 
L 233.452112 213.941562 
L 233.604331 214.94739 
L 233.756551 212.303596 
L 233.908771 211.831831 
L 234.060991 205.246075 
L 234.213211 206.646947 
L 234.365431 206.293547 
L 234.517651 211.638609 
L 234.82209 204.050265 
L 234.97431 203.249194 
L 235.12653 203.918436 
L 235.27875 199.683109 
L 235.43097 203.148653 
L 235.58319 197.912185 
L 235.73541 198.587496 
L 235.887629 197.564311 
L 236.039849 194.962767 
L 236.192069 194.689802 
L 236.344289 194.995329 
L 236.648729 193.05938 
L 236.953169 188.413517 
L 237.257608 187.751749 
L 237.409828 189.22748 
L 237.562048 188.956111 
L 237.714268 182.919442 
L 237.866488 181.888723 
L 238.018708 184.305883 
L 238.170928 184.589394 
L 238.323147 179.725124 
L 238.475367 178.660873 
L 238.627587 182.354409 
L 238.779807 178.887669 
L 239.084247 183.720045 
L 239.236467 183.251682 
L 239.388687 184.873033 
L 239.540906 183.52228 
L 239.693126 184.643661 
L 239.845346 187.669926 
L 239.997566 187.976502 
L 240.302006 197.07453 
L 240.454226 195.259627 
L 240.606446 196.917025 
L 240.758665 203.627755 
L 240.910885 201.939157 
L 241.215325 211.596334 
L 241.367545 206.665089 
L 241.519765 209.117269 
L 241.671985 209.597038 
L 241.824205 216.322159 
L 241.976424 216.186012 
L 242.128644 219.642162 
L 242.433084 217.089243 
L 242.737524 222.8212 
L 242.889744 221.707761 
L 243.041964 222.199076 
L 243.194183 218.248043 
L 243.498623 222.513901 
L 243.650843 221.974393 
L 243.803063 224.335257 
L 244.107503 219.903104 
L 244.259723 222.882235 
L 244.564162 221.16082 
L 244.716382 224.748547 
L 244.868602 223.882323 
L 245.020822 219.631365 
L 245.173042 222.4286 
L 245.325262 222.108329 
L 245.477482 223.119367 
L 245.629701 226.072882 
L 245.934141 224.325374 
L 246.086361 221.449197 
L 246.238581 222.424658 
L 246.69524 226.691853 
L 246.84746 220.585416 
L 247.1519 225.624861 
L 247.30412 223.666386 
L 247.60856 226.845569 
L 247.912999 220.712166 
L 248.065219 228.279228 
L 248.217439 223.039727 
L 248.369659 223.055986 
L 248.521879 225.899086 
L 248.826319 220.166065 
L 249.130758 225.823953 
L 249.282978 223.878384 
L 249.435198 223.679615 
L 249.587418 223.937601 
L 249.739638 223.132525 
L 249.891858 221.199476 
L 250.044078 226.894294 
L 250.196298 222.021679 
L 250.348517 222.766554 
L 250.500737 222.937405 
L 250.805177 224.536676 
L 250.957397 224.449963 
L 251.109617 225.346435 
L 251.261837 224.75631 
L 251.566276 221.456627 
L 251.718496 224.538741 
L 251.870716 223.513289 
L 252.175156 225.886921 
L 252.327376 227.389457 
L 252.479596 222.945437 
L 252.631816 223.380459 
L 252.936255 227.302638 
L 253.088475 223.997042 
L 253.392915 224.800825 
L 253.545135 224.529648 
L 253.697355 229.077789 
L 253.849575 223.881547 
L 254.001794 223.816701 
L 254.154014 226.677348 
L 254.306234 223.044643 
L 254.610674 227.521247 
L 254.762894 227.884153 
L 255.067334 221.582328 
L 255.219553 220.927207 
L 255.523993 225.992641 
L 255.676213 224.542161 
L 255.828433 224.475826 
L 255.980653 227.563488 
L 256.285092 223.46834 
L 256.437312 223.424242 
L 256.741752 225.489043 
L 256.893972 222.726404 
L 257.046192 224.514209 
L 257.198412 222.995649 
L 257.350632 223.457014 
L 257.502851 226.020599 
L 257.655071 224.390817 
L 257.807291 224.263299 
L 257.959511 221.644908 
L 258.111731 223.176419 
L 258.263951 223.407877 
L 258.416171 225.39638 
L 258.87283 222.258697 
L 259.32949 226.249312 
L 259.78615 221.83976 
L 259.938369 221.836572 
L 260.090589 222.794706 
L 260.242809 225.018683 
L 260.699469 222.350766 
L 260.851689 222.682916 
L 261.003909 224.613319 
L 261.156128 228.13828 
L 261.308348 227.205803 
L 261.612788 220.317677 
L 261.917228 224.045766 
L 262.069448 224.082632 
L 262.373887 222.483696 
L 262.982767 224.541957 
L 263.134987 222.601049 
L 263.287207 218.44705 
L 263.439427 219.941144 
L 263.743866 228.322032 
L 264.200526 219.942407 
L 264.657186 225.876062 
L 265.113845 220.033902 
L 265.570505 224.376089 
L 265.722725 223.921893 
L 266.027164 220.824311 
L 266.331604 225.991738 
L 266.483824 225.793557 
L 266.788264 222.388298 
L 266.940484 221.38008 
L 267.244923 224.021951 
L 267.397143 225.499204 
L 267.701583 220.977604 
L 267.853803 218.677353 
L 268.158243 223.758589 
L 268.310462 224.506059 
L 268.614902 219.974574 
L 268.767122 219.44202 
L 269.376002 223.403496 
L 269.528221 219.727398 
L 269.680441 219.6903 
L 269.984881 223.965475 
L 270.137101 223.446826 
L 270.441541 219.416511 
L 270.593761 216.29726 
L 270.74598 217.951244 
L 270.8982 222.157246 
L 271.05042 222.521226 
L 271.20264 221.752102 
L 271.50708 217.108399 
L 271.6593 220.400612 
L 271.81152 221.168815 
L 271.963739 222.909549 
L 272.115959 221.696878 
L 272.268179 218.241463 
L 272.420399 217.491062 
L 272.724839 221.987062 
L 273.333718 218.515569 
L 273.485938 219.920538 
L 273.638158 222.62563 
L 273.790378 223.173269 
L 273.942598 221.666457 
L 274.094818 217.812161 
L 274.399257 218.771731 
L 274.551477 217.82526 
L 274.855917 222.735116 
L 275.160357 215.036949 
L 275.312577 216.944485 
L 275.464797 221.546623 
L 275.617016 221.055646 
L 276.073676 216.235715 
L 276.378116 219.755153 
L 276.530336 220.894706 
L 276.682555 218.517615 
L 276.834775 219.803782 
L 276.986995 216.839147 
L 277.291435 223.32845 
L 277.443655 222.574753 
L 277.595875 220.192016 
L 277.748095 215.105934 
L 277.900314 214.447603 
L 278.052534 212.736767 
L 278.356974 214.757208 
L 278.661414 211.90448 
L 278.813634 211.197526 
L 278.965854 212.374479 
L 279.118073 215.027458 
L 279.422513 214.62053 
L 279.574733 213.711054 
L 280.031393 218.745294 
L 280.183613 218.076382 
L 280.335832 219.365064 
L 280.640272 216.695827 
L 280.944712 221.287607 
L 281.096932 221.268981 
L 281.249152 221.940725 
L 281.553591 216.843283 
L 281.705811 218.903838 
L 282.162471 220.2858 
L 282.314691 218.013832 
L 282.466911 218.50001 
L 282.619131 217.30112 
L 282.77135 217.727503 
L 282.92357 219.336563 
L 283.07579 219.040502 
L 283.22801 218.498563 
L 283.53245 213.912105 
L 283.68467 219.220638 
L 283.83689 218.893863 
L 284.141329 212.426488 
L 284.293549 212.340876 
L 284.750209 204.09772 
L 284.902429 203.157527 
L 285.359088 178.00152 
L 286.881287 57.550552 
L 287.033507 65.741755 
L 288.099046 196.841435 
L 288.403486 208.333348 
L 288.707925 203.386344 
L 289.316805 213.639643 
L 289.469025 213.398204 
L 289.621245 216.552552 
L 289.773465 216.425784 
L 290.230124 222.258069 
L 290.382344 218.463302 
L 290.534564 219.350034 
L 290.686784 219.549611 
L 290.839004 222.654538 
L 290.991224 223.259562 
L 291.143443 223.106532 
L 291.295663 223.516412 
L 291.447883 223.534444 
L 291.600103 220.235299 
L 291.752323 220.613869 
L 291.904543 223.441329 
L 292.056763 223.263435 
L 292.208983 222.768582 
L 292.361202 220.309425 
L 292.513422 220.96711 
L 292.665642 222.204802 
L 292.817862 221.180356 
L 293.122302 224.964012 
L 293.274522 224.843103 
L 293.426742 219.368717 
L 293.731181 225.203785 
L 294.035621 220.734276 
L 294.187841 224.918281 
L 294.340061 219.251546 
L 294.492281 221.846006 
L 294.644501 227.18755 
L 294.79672 219.66361 
L 294.94894 222.457596 
L 295.10116 222.590841 
L 295.25338 220.825799 
L 295.4056 220.739508 
L 295.55782 221.432134 
L 295.71004 220.160478 
L 295.86226 216.929838 
L 296.166699 221.147687 
L 296.318919 215.868733 
L 296.623359 220.356183 
L 296.927799 218.788082 
L 297.080018 218.059136 
L 297.232238 212.88417 
L 297.536678 218.038796 
L 297.688898 214.756182 
L 297.841118 214.760771 
L 298.145558 210.996422 
L 298.297777 211.977262 
L 298.449997 214.603603 
L 298.602217 213.57553 
L 298.906657 203.349029 
L 299.058877 205.762892 
L 299.211097 211.007828 
L 299.363317 209.028341 
L 299.515536 200.896315 
L 299.667756 201.540722 
L 299.819976 200.270507 
L 299.972196 200.137445 
L 300.276636 198.325648 
L 300.428856 198.367619 
L 300.581076 193.591682 
L 300.733295 193.572589 
L 300.885515 194.422004 
L 301.037735 192.840051 
L 301.189955 193.872156 
L 301.342175 192.841311 
L 301.494395 189.028693 
L 301.646615 188.009621 
L 301.798835 185.747892 
L 301.951054 192.081671 
L 302.103274 184.821992 
L 302.255494 183.870095 
L 302.407714 185.826797 
L 302.559934 181.659763 
L 302.712154 181.151715 
L 303.016594 185.919735 
L 303.168813 186.649372 
L 303.321033 183.733627 
L 303.473253 184.030863 
L 303.625473 189.221148 
L 303.929913 190.613184 
L 304.082133 194.413548 
L 304.234353 191.685483 
L 304.386572 193.600285 
L 304.843232 203.591493 
L 304.995452 202.050164 
L 305.299892 207.865976 
L 305.452112 206.76344 
L 305.604331 214.123415 
L 305.756551 214.095214 
L 305.908771 214.190593 
L 306.060991 216.477162 
L 306.213211 214.835695 
L 306.669871 220.975132 
L 306.97431 217.230284 
L 307.12653 220.462911 
L 307.27875 219.392103 
L 307.58319 225.08937 
L 307.73541 224.760564 
L 308.039849 220.904954 
L 308.192069 221.11431 
L 308.496509 230.195275 
L 308.648729 226.617304 
L 308.800949 220.229696 
L 309.105388 226.390454 
L 309.257608 224.688841 
L 309.409828 226.272544 
L 309.562048 224.313526 
L 309.714268 227.598524 
L 309.866488 221.018942 
L 310.018708 221.882215 
L 310.170928 227.429874 
L 310.323147 225.844307 
L 310.475367 222.11798 
L 310.627587 224.862366 
L 310.779807 221.036676 
L 311.236467 227.659597 
L 311.388687 223.642982 
L 311.540906 223.785569 
L 311.693126 226.980823 
L 311.997566 221.886467 
L 312.302006 226.005769 
L 312.454226 226.591088 
L 312.606446 220.362517 
L 312.910885 226.380626 
L 313.063105 226.746982 
L 313.367545 221.867625 
L 313.519765 225.877898 
L 313.671985 223.99222 
L 313.824205 226.368519 
L 313.976424 222.757975 
L 314.128644 225.425534 
L 314.280864 221.750607 
L 314.585304 223.684311 
L 314.737524 224.628072 
L 314.889744 228.139354 
L 315.041964 227.729231 
L 315.346403 218.892248 
L 315.650843 224.325048 
L 315.803063 224.452315 
L 315.955283 223.837281 
L 316.259723 219.060624 
L 316.564162 222.433973 
L 316.716382 222.040822 
L 316.868602 224.185484 
L 317.020822 220.04639 
L 317.173042 220.170319 
L 317.477482 223.675434 
L 317.629701 225.717441 
L 317.934141 222.357047 
L 318.086361 222.086956 
L 318.238581 220.111848 
L 318.69524 224.380531 
L 318.84746 220.734977 
L 318.99968 219.943037 
L 319.1519 221.769435 
L 319.30412 222.169116 
L 319.45634 223.469525 
L 319.60856 222.715406 
L 319.76078 222.675272 
L 319.912999 220.499239 
L 320.065219 223.271191 
L 320.217439 223.5689 
L 320.369659 222.836068 
L 320.521879 224.866358 
L 320.674099 223.04661 
L 320.826319 219.836884 
L 320.978539 220.126815 
L 321.130758 224.067734 
L 321.282978 224.875496 
L 321.435198 224.169527 
L 321.587418 220.454954 
L 321.739638 220.303584 
L 322.196298 224.624503 
L 322.652957 219.896302 
L 322.805177 223.118897 
L 322.957397 223.126628 
L 323.109617 224.958362 
L 323.261837 223.305651 
L 323.414057 224.001459 
L 323.566276 226.380299 
L 323.718496 226.18611 
L 323.870716 224.425816 
L 324.022936 226.932477 
L 324.175156 224.905788 
L 324.327376 224.852254 
L 324.479596 222.045708 
L 324.631816 223.068413 
L 324.784035 225.665493 
L 324.936255 225.146105 
L 325.240695 222.578076 
L 325.392915 223.848053 
L 325.545135 224.035879 
L 325.697355 225.389917 
L 325.849575 224.09598 
L 326.001794 224.200769 
L 326.306234 222.279617 
L 326.458454 224.717341 
L 326.610674 223.85881 
L 326.762894 224.208247 
L 326.915114 227.328738 
L 327.219553 220.860692 
L 327.371773 222.011009 
L 327.523993 225.186781 
L 327.676213 224.127053 
L 327.828433 224.196576 
L 328.132873 221.820881 
L 328.589532 228.058507 
L 328.741752 226.764559 
L 329.046192 221.371412 
L 329.198412 225.054155 
L 329.350632 225.206547 
L 329.502851 227.897714 
L 329.807291 222.765078 
L 329.959511 222.625384 
L 330.111731 225.815704 
L 330.263951 226.179957 
L 330.416171 222.961059 
L 330.568391 223.178216 
L 330.72061 225.336458 
L 331.02505 222.638194 
L 331.32949 227.870297 
L 331.63393 222.496763 
L 332.090589 226.520243 
L 332.242809 226.130454 
L 332.699469 221.706682 
L 333.003909 226.472864 
L 333.308348 223.744934 
L 333.460568 221.55905 
L 333.612788 222.162308 
L 333.917228 225.620446 
L 334.221668 223.487823 
L 334.373887 222.398081 
L 334.526107 222.5052 
L 334.678327 224.033493 
L 334.830547 224.172368 
L 334.982767 223.239717 
L 335.134987 224.742332 
L 335.287207 223.560863 
L 335.439427 224.997173 
L 335.591646 223.369134 
L 335.743866 223.818067 
L 335.896086 223.042843 
L 336.048306 223.676401 
L 336.200526 223.073245 
L 336.352746 221.081979 
L 336.504966 221.802954 
L 336.657186 224.331823 
L 336.809405 224.525771 
L 337.266065 220.624712 
L 337.418285 220.867723 
L 337.722725 225.357531 
L 338.027164 219.740805 
L 338.331604 224.189387 
L 338.483824 222.819095 
L 338.636044 225.042501 
L 338.940484 221.407546 
L 339.092703 220.929161 
L 339.244923 223.356237 
L 339.397143 222.750366 
L 339.549363 222.625565 
L 339.853803 220.340475 
L 340.158243 220.455139 
L 340.310462 223.75503 
L 340.462682 223.593151 
L 340.767122 217.606148 
L 340.919342 217.425835 
L 341.071562 220.364915 
L 341.223782 220.558857 
L 341.376002 222.098752 
L 341.680441 221.236806 
L 341.832661 221.011023 
L 341.984881 222.473239 
L 342.441541 214.646646 
L 342.593761 213.252722 
L 342.74598 213.368743 
L 342.8982 213.12214 
L 343.05042 212.440303 
L 343.20264 213.816319 
L 343.35486 214.122632 
L 343.50708 213.838019 
L 343.6593 211.83688 
L 343.963739 215.092348 
L 344.115959 215.513668 
L 344.268179 216.396154 
L 344.420399 215.447495 
L 344.572619 216.011305 
L 345.029279 221.798235 
L 345.333718 217.27097 
L 345.485938 217.900944 
L 345.638158 219.722442 
L 345.790378 220.176635 
L 346.247038 217.38263 
L 346.399257 217.384486 
L 346.703697 219.707226 
L 346.855917 220.731414 
L 347.008137 220.524255 
L 347.312577 215.790139 
L 347.464797 216.881271 
L 347.617016 219.098443 
L 347.769236 218.698703 
L 348.073676 213.028969 
L 348.378116 212.680956 
L 348.530336 213.149805 
L 348.682555 212.181384 
L 349.291435 198.501608 
L 349.443655 196.203122 
L 349.748095 169.816491 
L 350.965854 47.339875 
L 351.118073 51.539248 
L 351.422513 94.658964 
L 351.879173 167.132912 
L 352.335832 213.619943 
L 352.488052 212.882427 
L 352.792492 203.114577 
L 353.553591 217.685597 
L 353.705811 216.891367 
L 354.162471 223.13202 
L 354.314691 220.038778 
L 354.619131 222.86682 
L 354.77135 220.406698 
L 354.92357 224.241417 
L 355.07579 224.946484 
L 355.22801 225.057406 
L 355.53245 222.38947 
L 355.68467 225.927063 
L 355.83689 223.868209 
L 356.445769 226.177606 
L 356.597989 225.252499 
L 356.750209 222.212606 
L 356.902429 227.474111 
L 357.359088 222.990583 
L 357.511308 223.449537 
L 357.663528 226.240105 
L 357.967968 221.439763 
L 358.120188 221.788215 
L 358.272408 221.682988 
L 358.576847 224.268131 
L 358.729067 221.930464 
L 359.033507 221.968943 
L 359.185727 219.467282 
L 359.337947 219.177535 
L 359.642386 221.986997 
L 359.794606 217.957004 
L 359.946826 220.215824 
L 360.099046 216.775345 
L 360.251266 220.833345 
L 360.403486 218.187184 
L 360.555706 220.284478 
L 360.707925 215.574901 
L 360.860145 214.910806 
L 361.012365 212.517352 
L 361.164585 215.267108 
L 361.316805 215.711533 
L 361.469025 212.469867 
L 361.621245 212.444995 
L 361.773465 213.001453 
L 361.925684 208.552186 
L 362.077904 211.023038 
L 362.382344 207.218098 
L 362.534564 210.506986 
L 362.839004 202.513613 
L 363.143443 205.700384 
L 363.600103 197.29453 
L 363.904543 196.923973 
L 364.056763 196.518946 
L 364.665642 191.346183 
L 364.817862 187.523941 
L 364.970082 191.303777 
L 365.122302 191.066561 
L 365.426742 186.982781 
L 365.578961 188.656223 
L 365.883401 184.623392 
L 366.035621 188.023434 
L 366.187841 188.828843 
L 366.340061 182.619241 
L 366.492281 189.293333 
L 366.644501 186.072422 
L 366.79672 191.274219 
L 366.94894 190.369603 
L 367.10116 195.055876 
L 367.4056 193.11382 
L 367.55782 199.957629 
L 367.71004 200.320194 
L 368.166699 205.196053 
L 368.318919 209.310849 
L 368.471139 209.605439 
L 368.927799 216.146177 
L 369.080018 214.660854 
L 369.384458 219.637652 
L 369.536678 220.313888 
L 369.841118 224.500463 
L 369.993338 220.984952 
L 370.145558 222.073628 
L 370.297777 224.495652 
L 370.449997 230.148341 
L 370.754437 225.364849 
L 370.906657 230.10867 
L 371.211097 224.058696 
L 371.363317 230.020873 
L 371.515536 229.698564 
L 371.819976 227.670187 
L 372.124416 231.175976 
L 372.428856 226.362808 
L 372.581076 230.587755 
L 372.733295 227.34458 
L 373.037735 229.451737 
L 373.189955 228.401664 
L 373.494395 230.865767 
L 373.646615 226.770656 
L 373.951054 228.50499 
L 374.103274 229.348565 
L 374.255494 231.527717 
L 374.407714 228.441381 
L 374.559934 227.748059 
L 374.712154 224.976806 
L 374.864374 228.601117 
L 375.168813 229.104994 
L 375.321033 228.706349 
L 375.625473 225.028274 
L 375.777693 230.731606 
L 375.929913 226.238737 
L 376.082133 230.688801 
L 376.386572 225.206338 
L 376.538792 224.924131 
L 376.691012 228.564098 
L 376.843232 228.52476 
L 376.995452 229.09712 
L 377.299892 225.06066 
L 377.452112 227.466138 
L 377.604331 226.71451 
L 377.756551 228.24981 
L 377.908771 227.646736 
L 378.060991 228.855382 
L 378.213211 224.736132 
L 378.365431 225.300459 
L 378.517651 229.931639 
L 378.669871 226.266648 
L 378.82209 226.80724 
L 378.97431 226.780483 
L 379.12653 228.05154 
L 379.43097 225.015949 
L 379.58319 229.552467 
L 379.73541 228.358272 
L 379.887629 225.720137 
L 380.039849 226.289204 
L 380.192069 225.055571 
L 380.344289 228.968014 
L 380.496509 227.086523 
L 380.648729 228.587203 
L 380.800949 228.486696 
L 381.257608 225.106455 
L 381.562048 231.033551 
L 381.714268 229.60529 
L 381.866488 226.59769 
L 382.018708 227.258619 
L 382.170928 224.859609 
L 382.323147 228.567645 
L 382.475367 228.84083 
L 382.627587 228.184408 
L 382.932027 224.640343 
L 383.084247 224.55186 
L 383.388687 230.080104 
L 383.540906 229.510969 
L 383.845346 224.466085 
L 384.149786 227.992501 
L 384.302006 227.398164 
L 384.454226 225.221472 
L 384.606446 225.029927 
L 384.758665 228.277837 
L 384.910885 228.012593 
L 385.063105 226.822295 
L 385.367545 228.52388 
L 385.671985 226.893248 
L 385.824205 227.050251 
L 386.128644 230.173015 
L 386.585304 226.763903 
L 387.041964 230.036812 
L 387.346403 225.905947 
L 387.650843 231.016523 
L 387.803063 229.066241 
L 387.955283 228.547598 
L 388.107503 229.804447 
L 388.411942 225.090343 
L 388.868602 230.224854 
L 389.020822 229.813629 
L 389.173042 227.683619 
L 389.477482 228.315252 
L 389.629701 229.555612 
L 389.934141 227.868428 
L 390.238581 226.02196 
L 390.390801 227.221593 
L 390.69524 231.706367 
L 390.99968 226.088604 
L 391.1519 225.956837 
L 391.30412 226.819125 
L 391.45634 229.876588 
L 391.60856 228.878903 
L 391.76078 226.769498 
L 391.912999 226.503149 
L 392.217439 228.765685 
L 392.369659 228.424062 
L 392.521879 230.997278 
L 392.826319 226.532259 
L 392.978539 226.596353 
L 393.130758 230.109818 
L 393.282978 229.380833 
L 393.435198 229.322278 
L 393.587418 228.859469 
L 393.891858 225.848092 
L 394.348517 228.721234 
L 394.652957 225.713829 
L 394.805177 226.148322 
L 394.957397 228.525574 
L 395.109617 225.939297 
L 395.261837 226.511976 
L 395.414057 227.549943 
L 395.566276 226.51201 
L 395.718496 223.937349 
L 396.175156 227.649819 
L 396.631816 223.414307 
L 396.784035 223.676736 
L 397.088475 228.624628 
L 397.240695 228.178884 
L 397.392915 225.964176 
L 397.545135 225.890828 
L 397.849575 229.533227 
L 398.001794 227.177534 
L 398.154014 226.954188 
L 398.306234 224.853108 
L 398.458454 225.269427 
L 398.610674 224.345884 
L 398.915114 227.655592 
L 399.067334 225.87075 
L 399.219553 226.697147 
L 399.371773 226.877436 
L 399.523993 225.696246 
L 399.676213 226.833641 
L 399.828433 226.362315 
L 399.980653 223.776948 
L 400.132873 225.039701 
L 400.285092 224.45727 
L 400.437312 225.108925 
L 400.589532 226.605909 
L 400.741752 229.870082 
L 400.893972 228.009383 
L 401.046192 227.945612 
L 401.198412 223.353399 
L 401.655071 226.824376 
L 401.959511 222.609198 
L 402.111731 222.820889 
L 402.263951 222.170576 
L 402.568391 224.04903 
L 402.72061 224.251843 
L 402.87283 221.432312 
L 403.17727 225.720269 
L 403.32949 226.481802 
L 403.48171 226.219332 
L 403.63393 226.188948 
L 403.938369 221.661822 
L 404.090589 221.239139 
L 404.242809 218.983709 
L 404.395029 218.96817 
L 404.547249 217.221227 
L 404.699469 217.228881 
L 404.851689 217.121239 
L 405.003909 217.99013 
L 405.156128 220.746323 
L 405.308348 220.649322 
L 405.460568 217.356504 
L 405.612788 217.159107 
L 405.765008 217.289904 
L 406.069448 222.92293 
L 406.221668 223.115821 
L 406.526107 222.112902 
L 406.678327 224.466866 
L 406.830547 224.740627 
L 406.982767 226.807552 
L 407.134987 226.169572 
L 407.439427 224.268522 
L 407.591646 225.312759 
L 407.743866 224.718883 
L 407.896086 224.87328 
L 408.048306 226.353073 
L 408.200526 225.527318 
L 408.504966 222.860668 
L 408.809405 227.195501 
L 408.961625 226.661372 
L 409.113845 226.099215 
L 409.570505 222.242634 
L 409.874945 220.683236 
L 410.027164 221.034635 
L 410.483824 208.960771 
L 410.636044 208.952001 
L 410.788264 204.588572 
L 411.092703 182.848778 
L 412.462682 66.278749 
L 412.614902 74.175899 
L 413.071562 144.816146 
L 413.376002 187.207148 
L 413.680441 209.089177 
L 413.832661 214.405075 
L 413.984881 209.440324 
L 414.137101 208.757058 
L 414.289321 215.064159 
L 414.593761 216.980176 
L 414.8982 224.997329 
L 415.05042 226.24772 
L 415.20264 228.89942 
L 415.35486 227.456055 
L 415.50708 227.598911 
L 415.6593 226.31972 
L 415.81152 227.416469 
L 415.963739 227.469802 
L 416.115959 229.104748 
L 416.268179 234.123164 
L 416.572619 227.537926 
L 417.029279 232.311809 
L 417.181498 232.27217 
L 417.485938 230.00183 
L 417.638158 231.769906 
L 417.790378 229.948351 
L 418.094818 233.232295 
L 418.247038 231.203088 
L 418.399257 231.291246 
L 418.551477 229.826397 
L 418.703697 232.171115 
L 418.855917 229.767372 
L 419.008137 231.524619 
L 419.160357 230.775466 
L 419.312577 229.121316 
L 419.464797 231.436372 
L 419.617016 230.34006 
L 419.769236 228.331303 
L 419.921456 230.381785 
L 420.378116 225.104707 
L 420.682555 228.897764 
L 420.834775 228.028254 
L 420.986995 225.261816 
L 421.139215 225.043347 
L 421.291435 222.134021 
L 421.443655 223.233553 
L 421.595875 223.313568 
L 421.748095 224.401754 
L 421.900314 224.125038 
L 422.204754 218.757365 
L 422.356974 218.614307 
L 422.661414 222.141737 
L 423.118073 214.968066 
L 423.574733 213.309722 
L 423.726953 211.60263 
L 423.879173 212.373872 
L 424.031393 206.702203 
L 424.183613 205.721184 
L 424.335832 206.9198 
L 424.488052 207.172253 
L 424.944712 196.564316 
L 425.096932 200.858548 
L 425.553591 197.341298 
L 425.858031 191.480654 
L 426.010251 194.198455 
L 426.162471 193.340896 
L 426.314691 193.733807 
L 426.619131 187.958374 
L 426.77135 187.310515 
L 427.07579 190.99014 
L 427.22801 192.533876 
L 427.53245 190.483376 
L 427.989109 200.868306 
L 428.141329 205.208424 
L 428.293549 203.465596 
L 428.445769 203.956353 
L 428.597989 206.270648 
L 428.902429 214.857616 
L 429.359088 220.211089 
L 429.511308 219.753877 
L 429.663528 223.882132 
L 429.815748 222.582828 
L 430.120188 227.062366 
L 430.272408 224.542118 
L 430.424627 225.764358 
L 430.881287 233.432591 
L 431.033507 229.625071 
L 431.185727 230.512532 
L 431.337947 227.607833 
L 431.642386 232.272928 
L 431.794606 233.272408 
L 431.946826 232.881915 
L 432.099046 231.840782 
L 432.251266 232.497596 
L 432.403486 234.398628 
L 432.555706 232.398363 
L 432.707925 233.420337 
L 432.860145 235.768325 
L 433.164585 229.798247 
L 433.316805 230.733783 
L 433.773465 235.525859 
L 434.077904 228.425368 
L 434.382344 234.199277 
L 434.534564 231.726889 
L 434.686784 231.950089 
L 434.839004 228.835198 
L 434.991224 230.746129 
L 435.143443 230.284273 
L 435.295663 233.968106 
L 435.447883 232.424256 
L 435.600103 232.598383 
L 435.752323 229.037691 
L 435.904543 229.605529 
L 436.361202 233.675937 
L 436.665642 228.970057 
L 436.970082 232.506155 
L 437.122302 232.774404 
L 437.274522 232.206343 
L 437.426742 232.150353 
L 437.578961 232.489734 
L 437.731181 230.862124 
L 438.035621 232.068162 
L 438.187841 231.207524 
L 438.340061 233.978324 
L 438.644501 229.276957 
L 438.94894 234.332532 
L 439.10116 233.813855 
L 439.25338 228.702472 
L 439.4056 229.716833 
L 439.55782 229.450497 
L 439.71004 232.075562 
L 439.86226 232.043237 
L 440.014479 233.483341 
L 440.166699 232.72788 
L 440.318919 230.926147 
L 440.471139 230.907685 
L 440.623359 233.199938 
L 440.775579 230.414118 
L 440.927799 231.782566 
L 441.080018 234.431082 
L 441.384458 229.174536 
L 441.688898 233.01502 
L 441.841118 231.812865 
L 441.993338 232.614357 
L 442.145558 230.577128 
L 442.297777 233.351932 
L 442.449997 233.083591 
L 442.602217 232.544404 
L 442.754437 234.723099 
L 442.906657 233.993308 
L 443.211097 231.045108 
L 443.363317 234.079343 
L 443.515536 233.162517 
L 443.667756 233.476683 
L 443.819976 234.07226 
L 443.972196 234.193357 
L 444.124416 232.607374 
L 444.276636 232.521017 
L 444.581076 234.869355 
L 444.733295 234.660628 
L 444.885515 232.084067 
L 445.037735 232.794694 
L 445.189955 232.842126 
L 445.342175 234.993351 
L 445.494395 235.105681 
L 445.798835 231.324203 
L 445.951054 230.948703 
L 446.103274 235.026172 
L 446.255494 234.326776 
L 446.407714 233.077067 
L 446.559934 234.040601 
L 446.712154 232.038697 
L 446.864374 232.09085 
L 447.168813 234.227665 
L 447.321033 234.492666 
L 447.625473 230.877 
L 447.777693 231.013054 
L 447.929913 232.197822 
L 448.082133 234.913055 
L 448.234353 235.363557 
L 448.386572 232.241038 
L 448.538792 233.490768 
L 448.691012 232.38782 
L 448.843232 232.493888 
L 448.995452 236.189046 
L 449.299892 235.183574 
L 449.452112 232.812804 
L 449.604331 232.537535 
L 449.756551 232.545634 
L 450.060991 236.186013 
L 450.365431 232.740025 
L 450.517651 233.025275 
L 450.669871 233.791494 
L 450.82209 233.748221 
L 451.12653 236.642301 
L 451.27875 234.970005 
L 451.43097 230.080312 
L 451.58319 231.88403 
L 451.73541 236.368809 
L 451.887629 237.050781 
L 452.192069 232.708259 
L 452.344289 232.6024 
L 452.800949 236.927817 
L 452.953169 233.802168 
L 453.257608 232.032145 
L 453.562048 234.523091 
L 453.714268 234.708826 
L 453.866488 232.193949 
L 454.018708 232.023499 
L 454.170928 232.590133 
L 454.323147 234.392778 
L 454.475367 234.179463 
L 454.627587 235.7234 
L 454.932027 232.903639 
L 455.084247 234.712987 
L 455.236467 232.460909 
L 455.388687 234.570748 
L 455.540906 234.295573 
L 455.693126 234.550192 
L 455.997566 231.755521 
L 456.454226 236.016503 
L 456.910885 231.486886 
L 457.215325 232.813409 
L 457.519765 237.569686 
L 457.671985 233.869175 
L 457.976424 231.418336 
L 458.280864 236.980918 
L 458.585304 231.052674 
L 458.737524 230.137258 
L 458.889744 232.586312 
L 459.041964 232.443984 
L 459.194183 233.366173 
L 459.650843 230.307003 
L 459.803063 230.346467 
L 460.107503 233.001996 
L 460.259723 233.204877 
L 460.411942 232.017578 
L 460.564162 229.42729 
L 460.868602 233.895916 
L 461.020822 234.339121 
L 461.325262 228.70147 
L 461.477482 228.047492 
L 461.629701 231.287521 
L 461.781921 231.533735 
L 462.086361 229.239441 
L 462.238581 228.936874 
L 462.543021 231.952356 
L 462.69524 231.305833 
L 462.84746 230.085506 
L 463.1519 223.524474 
L 463.30412 223.772474 
L 463.45634 223.450284 
L 463.76078 221.746103 
L 463.912999 221.861282 
L 464.217439 220.877305 
L 464.369659 222.33424 
L 464.521879 222.627235 
L 464.674099 225.710315 
L 464.826319 225.057771 
L 464.978539 222.70277 
L 465.130758 223.600035 
L 465.435198 227.170712 
L 465.587418 227.751909 
L 465.739638 229.148296 
L 465.891858 227.486419 
L 466.044078 224.146569 
L 466.196298 225.194317 
L 466.500737 228.455896 
L 466.652957 226.14301 
L 466.805177 225.917686 
L 466.957397 226.607198 
L 467.109617 225.683603 
L 467.261837 226.81589 
L 467.566276 224.764089 
L 467.718496 225.431064 
L 467.870716 223.726884 
L 468.175156 226.215792 
L 468.327376 225.193668 
L 468.784035 218.845625 
L 468.936255 219.530312 
L 469.240695 215.538124 
L 469.849575 186.985792 
L 471.067334 61.10196 
L 471.219553 57.085443 
L 471.371773 71.117675 
L 472.132873 195.828102 
L 472.437312 219.356479 
L 472.589532 220.989019 
L 472.741752 217.248449 
L 472.893972 216.519055 
L 473.655071 227.979064 
L 473.959511 231.445744 
L 474.111731 231.093251 
L 474.263951 229.885248 
L 474.568391 229.695063 
L 474.72061 235.067697 
L 474.87283 232.855402 
L 475.02505 232.369327 
L 475.17727 231.444457 
L 475.32949 231.579681 
L 475.48171 232.951426 
L 475.63393 235.95893 
L 475.938369 231.905893 
L 476.090589 231.452152 
L 476.242809 233.732261 
L 476.395029 232.421001 
L 476.547249 234.910312 
L 476.699469 235.053928 
L 477.003909 230.747494 
L 477.156128 234.834115 
L 477.308348 232.045832 
L 477.460568 234.830026 
L 477.612788 232.027166 
L 477.917228 230.401312 
L 478.069448 232.695183 
L 478.221668 232.221738 
L 478.373887 229.76471 
L 478.526107 231.074094 
L 478.830547 228.450831 
L 478.982767 230.026203 
L 479.287207 227.554261 
L 479.439427 229.905662 
L 479.743866 225.139367 
L 479.896086 224.945599 
L 480.048306 225.542939 
L 480.352746 228.41528 
L 480.504966 221.845562 
L 480.657186 225.554763 
L 480.809405 223.190248 
L 480.961625 225.778586 
L 481.266065 223.612803 
L 481.570505 217.624118 
L 481.722725 219.968375 
L 482.179384 217.461642 
L 482.483824 211.723484 
L 482.636044 210.687236 
L 482.788264 212.662136 
L 483.244923 206.919193 
L 483.397143 203.420153 
L 483.549363 204.773761 
L 483.701583 205.037466 
L 483.853803 203.980101 
L 484.158243 198.069287 
L 484.310462 196.876296 
L 484.767122 199.337704 
L 484.919342 199.396713 
L 485.223782 192.289065 
L 485.376002 191.506193 
L 485.528221 194.921803 
L 485.680441 193.160638 
L 485.832661 196.299356 
L 485.984881 193.135079 
L 486.137101 192.745338 
L 486.593761 201.905253 
L 486.74598 202.352795 
L 486.8982 203.945312 
L 487.05042 208.381897 
L 487.20264 208.148979 
L 487.35486 210.110368 
L 487.6593 216.087667 
L 487.81152 217.281399 
L 487.963739 215.383932 
L 488.420399 225.352295 
L 488.572619 226.258171 
L 488.724839 225.202768 
L 488.877059 225.840622 
L 489.181498 231.950433 
L 489.333718 229.164216 
L 489.638158 227.903116 
L 489.790378 232.31519 
L 489.942598 232.154228 
L 490.094818 233.398069 
L 490.247038 231.259659 
L 490.399257 232.394606 
L 490.551477 232.382735 
L 490.855917 230.753736 
L 491.008137 230.935551 
L 491.160357 234.262757 
L 491.464797 233.365673 
L 491.617016 232.610512 
L 491.769236 230.626091 
L 491.921456 234.364775 
L 492.073676 235.257662 
L 492.530336 231.656895 
L 492.682555 235.197011 
L 492.834775 234.731682 
L 492.986995 232.627236 
L 493.139215 233.032286 
L 493.291435 231.223274 
L 493.443655 232.758875 
L 493.595875 230.073496 
L 493.900314 234.002434 
L 494.052534 236.572373 
L 494.356974 228.437169 
L 494.509194 231.864925 
L 494.661414 232.228832 
L 494.813634 235.176282 
L 495.270293 227.325576 
L 495.574733 232.413134 
L 495.879173 233.91088 
L 496.031393 229.245667 
L 496.183613 229.368088 
L 496.335832 230.046462 
L 496.488052 233.025705 
L 496.640272 231.994848 
L 496.792492 233.682707 
L 496.944712 232.23407 
L 497.096932 232.22733 
L 497.249152 233.462943 
L 497.401372 232.676051 
L 497.553591 232.882137 
L 497.705811 232.887882 
L 497.858031 231.483149 
L 498.162471 233.426485 
L 498.314691 236.992708 
L 498.466911 231.729887 
L 498.619131 234.769078 
L 498.77135 230.700012 
L 498.92357 231.931526 
L 499.07579 231.719592 
L 499.22801 232.412781 
L 499.38023 237.239824 
L 499.53245 236.899363 
L 499.68467 230.913405 
L 499.83689 231.109483 
L 500.141329 236.353713 
L 500.293549 237.058625 
L 500.597989 230.157299 
L 500.750209 234.163189 
L 500.902429 231.148682 
L 501.054649 233.918429 
L 501.206868 234.300772 
L 501.359088 233.709463 
L 501.511308 232.60293 
L 501.663528 232.344271 
L 501.967968 235.631422 
L 502.120188 234.482878 
L 502.424627 230.256436 
L 502.576847 230.52494 
L 502.729067 230.344865 
L 503.033507 232.950819 
L 503.185727 232.569155 
L 503.337947 230.907955 
L 503.490166 231.741265 
L 503.642386 231.780405 
L 503.794606 231.633935 
L 504.099046 233.149915 
L 504.403486 229.922814 
L 504.555706 232.214566 
L 504.707925 232.359183 
L 504.860145 234.611815 
L 505.012365 231.569891 
L 505.164585 231.28035 
L 505.469025 233.523426 
L 505.621245 231.915506 
L 505.925684 234.343597 
L 506.077904 229.010357 
L 506.230124 229.378031 
L 506.382344 233.315558 
L 506.534564 233.969586 
L 506.991224 229.655562 
L 507.143443 231.293435 
L 507.295663 230.409049 
L 507.600103 233.181652 
L 507.752323 232.388888 
L 507.904543 230.130782 
L 508.056763 231.678947 
L 508.208983 231.267164 
L 508.361202 230.442795 
L 508.665642 234.431095 
L 508.970082 229.995111 
L 509.122302 231.56688 
L 509.274522 230.453924 
L 509.426742 230.258584 
L 509.578961 230.523963 
L 509.731181 230.199314 
L 509.883401 230.518317 
L 510.187841 232.745254 
L 510.340061 233.44808 
L 510.644501 228.501947 
L 510.94894 231.22077 
L 511.10116 231.542619 
L 511.4056 234.108226 
L 511.55782 230.234193 
L 511.86226 231.308167 
L 512.014479 233.352879 
L 512.623359 228.167948 
L 512.775579 228.966072 
L 512.927799 232.296406 
L 513.080018 231.340013 
L 513.232238 232.376213 
L 513.384458 228.338271 
L 513.536678 228.411839 
L 513.688898 231.381524 
L 513.841118 231.49393 
L 513.993338 232.504217 
L 514.145558 229.466252 
L 514.297777 230.785677 
L 514.449997 229.735746 
L 514.906657 232.24423 
L 515.211097 228.807328 
L 515.515536 231.87972 
L 515.667756 230.402276 
L 515.819976 231.818392 
L 516.124416 229.474994 
L 516.276636 227.427129 
L 516.581076 230.300778 
L 516.733295 232.125223 
L 517.037735 227.509551 
L 517.189955 229.479847 
L 517.342175 229.186872 
L 517.494395 228.382716 
L 517.646615 230.167302 
L 517.798835 229.037582 
L 517.951054 226.575296 
L 518.103274 227.019903 
L 518.407714 230.383212 
L 518.559934 230.169919 
L 518.864374 226.412169 
L 519.473253 228.70653 
L 519.625473 226.495303 
L 519.777693 227.592412 
L 519.929913 225.407063 
L 520.234353 227.612097 
L 520.386572 226.670088 
L 520.538792 227.795478 
L 520.843232 223.812887 
L 520.995452 225.23735 
L 521.147672 225.47301 
L 521.299892 227.941173 
L 521.452112 225.345605 
L 521.604331 225.110179 
L 521.908771 227.495095 
L 522.060991 227.863344 
L 522.213211 227.074749 
L 522.365431 224.53524 
L 522.517651 223.906874 
L 522.82209 218.778256 
L 523.12653 221.643207 
L 523.27875 221.121845 
L 523.43097 219.731409 
L 523.58319 221.264061 
L 523.73541 221.293503 
L 523.887629 221.649776 
L 524.192069 223.953892 
L 524.344289 222.076391 
L 524.648729 223.807344 
L 524.953169 228.560989 
L 525.105388 228.523901 
L 525.257608 229.5452 
L 525.409828 225.774703 
L 525.714268 227.490541 
L 525.866488 227.134268 
L 526.170928 225.874957 
L 526.323147 223.241685 
L 526.932027 226.396432 
L 527.084247 225.398573 
L 527.236467 222.32456 
L 527.388687 222.635716 
L 527.693126 224.748662 
L 527.997566 220.488701 
L 528.606446 215.955875 
L 529.215325 189.564298 
L 529.671985 151.876315 
L 530.585304 75.640787 
L 530.737524 66.821735 
L 530.889744 77.479007 
L 531.650843 186.222859 
L 532.107503 213.052749 
L 532.259723 215.530027 
L 532.411942 211.880238 
L 532.564162 212.355588 
L 532.716382 214.706599 
L 533.173042 226.605799 
L 533.325262 224.065894 
L 533.629701 228.210138 
L 533.781921 229.521898 
L 533.934141 233.13629 
L 534.086361 230.247382 
L 534.390801 235.320116 
L 534.543021 229.881869 
L 534.69524 235.133913 
L 534.84746 236.083643 
L 534.99968 235.274363 
L 535.1519 238.315217 
L 535.30412 237.050441 
L 535.60856 232.558028 
L 535.76078 236.053999 
L 535.912999 236.205415 
L 536.065219 234.967936 
L 536.217439 231.841872 
L 536.521879 237.060797 
L 537.130758 231.240437 
L 537.282978 232.545441 
L 537.435198 230.737577 
L 537.587418 232.17178 
L 537.739638 235.932173 
L 538.044078 228.089306 
L 538.196298 232.424159 
L 538.348517 231.800709 
L 538.500737 228.598573 
L 538.652957 230.805727 
L 538.957397 229.128756 
L 539.109617 225.898074 
L 539.261837 225.587631 
L 539.566276 231.658168 
L 539.718496 224.972058 
L 539.870716 224.384583 
L 540.175156 224.181811 
L 540.327376 224.418196 
L 540.479596 226.08691 
L 540.631816 220.564753 
L 540.784035 222.539673 
L 541.088475 216.97579 
L 541.240695 217.177831 
L 541.545135 218.502327 
L 541.697355 213.15209 
L 541.849575 211.965641 
L 542.001794 212.571418 
L 542.154014 214.676835 
L 542.306234 210.465384 
L 542.458454 210.618996 
L 542.762894 205.245226 
L 542.915114 205.054907 
L 543.067334 207.514658 
L 543.828433 197.964258 
L 544.132873 200.980723 
L 544.285092 197.563932 
L 544.437312 196.677588 
L 544.589532 191.309106 
L 544.741752 191.558611 
L 544.893972 192.523733 
L 545.046192 199.329503 
L 545.198412 194.107227 
L 545.350632 193.98565 
L 545.502851 192.632657 
L 545.959511 199.112192 
L 546.111731 199.462564 
L 546.263951 198.430902 
L 546.568391 204.914379 
L 546.87283 211.706443 
L 547.02505 211.684244 
L 547.32949 215.311707 
L 547.78615 223.273115 
L 547.938369 226.055477 
L 548.090589 225.390381 
L 548.242809 226.001746 
L 548.395029 226.067288 
L 548.547249 229.600967 
L 549.308348 233.269541 
L 549.612788 236.761716 
L 549.917228 234.80973 
L 550.069448 236.739985 
L 550.221668 237.161025 
L 550.526107 235.001678 
L 550.678327 237.838671 
L 550.830547 238.501232 
L 550.982767 236.322514 
L 551.134987 236.486697 
L 551.287207 239.032757 
L 551.439427 239.286347 
L 551.591646 237.431464 
L 551.743866 237.568938 
L 551.896086 235.447232 
L 552.048306 240.214637 
L 552.200526 237.845061 
L 552.352746 238.193289 
L 552.504966 241.841922 
L 552.657186 237.569394 
L 552.809405 236.946107 
L 552.961625 234.112158 
L 553.266065 239.498303 
L 553.418285 238.15602 
L 553.570505 239.906976 
L 553.722725 238.937011 
L 553.874945 234.730423 
L 554.027164 238.20029 
L 554.179384 238.97564 
L 554.331604 240.841745 
L 554.483824 237.091632 
L 554.636044 236.1368 
L 554.788264 236.485464 
L 554.940484 239.458427 
L 555.092703 238.833639 
L 555.549363 234.912975 
L 555.701583 234.896857 
L 556.006023 239.528823 
L 556.158243 238.46291 
L 556.310462 233.464734 
L 556.462682 234.624808 
L 556.614902 234.056078 
L 556.767122 237.111079 
L 556.919342 237.478057 
L 557.071562 236.064236 
L 557.223782 232.857421 
L 557.376002 233.365012 
L 557.680441 236.258245 
L 557.832661 239.249441 
L 557.984881 234.921129 
L 558.137101 235.940518 
L 558.289321 233.203426 
L 558.441541 235.914974 
L 558.593761 234.315675 
L 558.74598 236.888207 
L 558.8982 237.33883 
L 559.05042 235.850815 
L 559.20264 235.961062 
L 559.35486 233.635712 
L 559.50708 235.064436 
L 559.6593 238.620475 
L 559.81152 236.548061 
L 559.963739 232.69047 
L 560.115959 234.647387 
L 560.268179 238.070293 
L 560.420399 238.313111 
L 560.572619 237.756473 
L 560.724839 235.624515 
L 560.877059 238.259617 
L 561.029279 235.347743 
L 561.181498 236.600696 
L 561.333718 236.905633 
L 561.485938 239.773694 
L 561.790378 234.672863 
L 561.942598 234.601644 
L 562.094818 235.381604 
L 562.399257 238.524144 
L 562.703697 234.520129 
L 562.855917 233.831574 
L 563.008137 235.007672 
L 563.160357 238.945558 
L 563.312577 238.696166 
L 563.617016 236.044687 
L 563.769236 236.158391 
L 563.921456 237.264601 
L 564.073676 240.507512 
L 564.225896 240.494531 
L 564.682555 235.652823 
L 565.139215 239.36168 
L 565.443655 236.632204 
L 566.052534 239.18329 
L 566.204754 238.77137 
L 566.356974 236.816621 
L 566.509194 238.733127 
L 566.661414 237.373461 
L 566.813634 239.529476 
L 566.965854 240.074246 
L 567.118073 239.275858 
L 567.270293 234.273733 
L 567.422513 234.615276 
L 567.726953 239.697508 
L 568.031393 237.206221 
L 568.183613 236.461483 
L 568.488052 237.889176 
L 568.640272 240.923508 
L 568.944712 237.616274 
L 569.096932 234.439952 
L 569.249152 234.531502 
L 569.553591 237.750975 
L 569.705811 237.958403 
L 569.858031 237.435302 
L 570.010251 235.592314 
L 570.162471 235.85725 
L 570.314691 237.087038 
L 570.466911 235.805544 
L 570.619131 236.352798 
L 570.77135 235.986442 
L 570.92357 233.428763 
L 571.07579 234.260582 
L 571.53245 239.538909 
L 571.83689 232.94464 
L 572.141329 235.415338 
L 572.293549 235.283623 
L 572.445769 234.30497 
L 572.597989 236.929039 
L 572.750209 236.10778 
L 572.902429 232.936475 
L 573.359088 236.741659 
L 573.511308 235.491664 
L 573.815748 232.179103 
L 573.967968 235.009197 
L 574.120188 235.092893 
L 574.272408 237.736419 
L 574.576847 234.45265 
L 574.729067 233.312581 
L 574.881287 236.450451 
L 575.033507 235.842848 
L 575.185727 236.927375 
L 575.490166 232.912429 
L 575.642386 232.761067 
L 575.794606 235.530611 
L 575.946826 234.650543 
L 576.099046 236.070031 
L 576.251266 235.044751 
L 576.403486 232.150641 
L 576.555706 231.972179 
L 576.707925 232.939364 
L 576.860145 235.906154 
L 577.012365 236.052286 
L 577.469025 233.546833 
L 577.621245 233.803801 
L 577.773465 234.792057 
L 578.077904 233.155524 
L 578.230124 232.188409 
L 578.382344 232.728262 
L 578.534564 232.103425 
L 578.686784 233.666848 
L 578.991224 233.736089 
L 579.143443 233.632116 
L 579.295663 230.488768 
L 579.447883 231.425275 
L 579.752323 234.026308 
L 579.904543 233.066989 
L 580.208983 232.915712 
L 580.361202 233.206841 
L 580.513422 234.395793 
L 580.970082 229.840119 
L 581.274522 231.999618 
L 581.426742 231.023248 
L 581.578961 232.169284 
L 581.731181 229.620375 
L 581.883401 232.305477 
L 582.187841 229.605082 
L 582.492281 230.996261 
L 582.644501 231.135685 
L 582.79672 229.654568 
L 582.94894 229.935495 
L 583.4056 233.775468 
L 583.55782 233.918271 
L 583.71004 233.86894 
L 583.86226 229.357643 
L 584.014479 230.720616 
L 584.318919 228.431014 
L 584.623359 224.28585 
L 584.775579 221.988701 
L 584.927799 222.541685 
L 585.232238 225.68316 
L 585.688898 220.902174 
L 585.993338 225.544899 
L 586.145558 225.638589 
L 586.297777 226.182756 
L 586.602217 226.100279 
L 586.754437 227.064926 
L 587.058877 231.114886 
L 587.363317 228.37196 
L 587.515536 230.120852 
L 587.667756 228.537754 
L 588.124416 231.984477 
L 588.276636 231.480084 
L 588.428856 226.718388 
L 588.885515 232.119694 
L 589.037735 230.769202 
L 589.189955 227.605013 
L 589.342175 227.728613 
L 589.798835 230.996977 
L 590.103274 222.988418 
L 590.255494 223.854959 
L 590.407714 223.830015 
L 590.559934 223.969478 
L 590.712154 224.316929 
L 591.016594 216.72776 
L 591.625473 203.324405 
L 593.147672 77.844225 
L 593.299892 78.744435 
L 593.604331 116.644936 
L 594.213211 193.65593 
L 594.517651 213.873793 
L 594.82209 220.434693 
L 594.97431 219.662326 
L 595.12653 216.87486 
L 595.27875 222.279337 
L 595.43097 221.894652 
L 595.73541 226.123024 
L 596.039849 232.249716 
L 596.192069 232.438282 
L 596.344289 233.750034 
L 596.648729 230.95666 
L 596.800949 232.21953 
L 597.105388 238.828899 
L 597.409828 233.165737 
L 597.562048 233.012577 
L 597.866488 239.180928 
L 598.018708 236.930728 
L 598.170928 236.877916 
L 598.323147 234.490795 
L 598.779807 237.142526 
L 598.932027 237.204886 
L 599.084247 238.375075 
L 599.236467 235.026231 
L 599.388687 235.415003 
L 599.540906 236.262589 
L 599.693126 236.394435 
L 599.845346 237.752224 
L 599.997566 236.909847 
L 600.149786 233.797685 
L 600.302006 232.966027 
L 600.454226 236.944687 
L 600.606446 237.082147 
L 600.758665 236.978393 
L 600.910885 235.395253 
L 601.063105 235.897749 
L 601.367545 233.03058 
L 601.671985 235.321314 
L 601.824205 235.160524 
L 601.976424 230.540279 
L 602.128644 232.660015 
L 602.280864 231.321917 
L 602.585304 234.912815 
L 602.737524 235.502764 
L 602.889744 229.01932 
L 603.041964 228.940715 
L 603.194183 233.431109 
L 603.346403 228.502896 
L 603.498623 231.447839 
L 603.650843 230.821987 
L 603.803063 225.628329 
L 604.107503 227.129347 
L 604.259723 228.554097 
L 604.411942 226.346505 
L 604.564162 229.423351 
L 604.716382 223.598668 
L 605.020822 222.499728 
L 605.173042 220.749468 
L 605.325262 224.033886 
L 605.477482 219.128208 
L 605.934141 216.103817 
L 606.086361 215.948097 
L 606.543021 211.862659 
L 606.69524 209.335411 
L 606.84746 210.169086 
L 607.1519 205.220311 
L 607.30412 209.738434 
L 607.76078 200.712047 
L 608.065219 203.882997 
L 608.369659 199.777572 
L 608.521879 200.105347 
L 608.674099 196.170371 
L 608.826319 201.42574 
L 608.978539 201.870447 
L 609.130758 198.342779 
L 609.282978 201.198053 
L 609.435198 200.059491 
L 609.587418 204.118755 
L 609.739638 203.407708 
L 610.044078 207.405621 
L 610.196298 210.414392 
L 610.348517 210.254145 
L 610.805177 220.150421 
L 610.957397 219.059929 
L 611.109617 222.33754 
L 611.261837 222.868724 
L 611.414057 222.031639 
L 611.718496 231.967391 
L 611.870716 232.713428 
L 612.022936 228.042068 
L 612.175156 229.413968 
L 612.631816 238.791865 
L 612.784035 235.28753 
L 613.088475 237.244419 
L 613.240695 240.977643 
L 613.392915 238.289389 
L 613.697355 241.703832 
L 614.001794 238.019085 
L 614.154014 241.991569 
L 614.306234 242.868147 
L 614.458454 240.726347 
L 614.610674 243.16088 
L 614.762894 240.804232 
L 614.915114 243.186992 
L 615.067334 239.903094 
L 615.371773 245.077103 
L 615.676213 240.183961 
L 615.828433 243.770227 
L 615.980653 241.234556 
L 616.132873 242.498407 
L 616.285092 246.132684 
L 616.589532 238.240909 
L 617.046192 245.348914 
L 617.198412 241.155733 
L 617.350632 240.920427 
L 617.502851 237.949632 
L 617.807291 242.187397 
L 617.959511 240.96573 
L 618.111731 242.750563 
L 618.263951 241.755244 
L 618.416171 239.900374 
L 618.568391 242.049596 
L 618.72061 242.133782 
L 618.87283 243.960679 
L 619.02505 243.226795 
L 619.17727 239.239177 
L 619.32949 238.977469 
L 619.48171 238.259116 
L 619.63393 241.093272 
L 619.938369 241.41675 
L 620.090589 241.005072 
L 620.242809 238.721348 
L 620.395029 241.954885 
L 620.547249 239.783382 
L 620.699469 239.696698 
L 620.851689 241.448584 
L 621.003909 240.616624 
L 621.308348 237.938814 
L 621.612788 243.378835 
L 621.765008 242.228582 
L 621.917228 236.311216 
L 622.069448 235.52358 
L 622.526107 240.000693 
L 622.678327 243.128535 
L 622.830547 243.321204 
L 622.982767 239.442647 
L 623.134987 232.255814 
L 623.439427 238.681552 
L 623.591646 241.20815 
L 623.896086 237.10869 
L 624.352746 239.250977 
L 624.504966 238.621767 
L 624.657186 235.555832 
L 624.809405 235.354848 
L 624.961625 236.784861 
L 625.113845 236.085761 
L 625.418285 240.745678 
L 625.722725 235.73863 
L 625.874945 235.669472 
L 626.179384 239.342054 
L 626.331604 237.764663 
L 626.483824 240.341397 
L 626.788264 236.344722 
L 626.940484 236.760781 
L 627.092703 238.987198 
L 627.244923 238.5524 
L 627.397143 237.498997 
L 627.549363 237.626668 
L 627.701583 236.176597 
L 627.853803 239.407255 
L 628.006023 240.215094 
L 628.462682 238.036493 
L 628.614902 237.905889 
L 628.767122 236.920343 
L 628.919342 237.517726 
L 629.071562 238.870344 
L 629.223782 238.735971 
L 629.528221 235.156601 
L 629.680441 235.375187 
L 629.984881 240.794223 
L 630.137101 237.883275 
L 630.289321 238.87288 
L 630.441541 238.921386 
L 630.593761 237.013308 
L 630.8982 241.638653 
L 631.05042 240.953539 
L 631.35486 238.600169 
L 631.50708 239.707621 
L 631.6593 241.90541 
L 631.963739 239.642518 
L 632.115959 238.617288 
L 632.268179 238.977431 
L 632.572619 242.345165 
L 632.724839 240.902365 
L 632.877059 241.136916 
L 633.029279 240.798295 
L 633.181498 241.385144 
L 633.333718 238.086693 
L 633.485938 241.091834 
L 633.638158 241.136528 
L 633.942598 238.55042 
L 634.094818 237.964075 
L 634.247038 241.290927 
L 634.551477 240.509789 
L 634.703697 238.367008 
L 634.855917 240.133902 
L 635.008137 237.615789 
L 635.312577 238.883217 
L 635.464797 243.205324 
L 635.617016 241.735722 
L 635.769236 237.066292 
L 635.921456 236.875222 
L 636.073676 237.099773 
L 636.378116 239.104253 
L 636.682555 236.452949 
L 636.834775 237.748233 
L 636.986995 238.013871 
L 637.139215 240.966923 
L 637.291435 241.096163 
L 637.595875 236.834877 
L 637.748095 235.091724 
L 637.900314 237.852421 
L 638.052534 237.831226 
L 638.204754 238.127038 
L 638.356974 239.597021 
L 638.509194 239.865738 
L 638.813634 234.795628 
L 638.965854 238.635604 
L 639.118073 238.920582 
L 639.270293 237.831219 
L 639.422513 237.559819 
L 639.574733 235.564595 
L 640.031393 241.123981 
L 640.183613 236.254809 
L 640.335832 235.652653 
L 640.488052 235.964275 
L 640.792492 240.522009 
L 640.944712 240.506357 
L 641.401372 236.251221 
L 641.553591 238.207084 
L 641.705811 237.649829 
L 641.858031 238.661689 
L 642.010251 240.706433 
L 642.162471 236.945712 
L 642.314691 237.207413 
L 642.466911 238.008428 
L 642.77135 240.467754 
L 642.92357 238.85626 
L 643.07579 238.779877 
L 643.38023 236.816562 
L 643.53245 238.107 
L 643.68467 240.553194 
L 643.83689 239.276607 
L 643.989109 236.681929 
L 644.293549 237.264987 
L 644.445769 238.958547 
L 644.597989 239.259503 
L 644.750209 237.630324 
L 644.902429 238.798436 
L 645.054649 238.117869 
L 645.206868 236.47445 
L 645.359088 239.243019 
L 645.511308 239.872043 
L 645.815748 236.586337 
L 645.967968 236.59078 
L 646.120188 238.8265 
L 646.272408 237.013472 
L 646.424627 239.118265 
L 646.576847 239.015097 
L 646.729067 236.071906 
L 646.881287 237.377648 
L 647.033507 237.161941 
L 647.490166 239.506882 
L 647.794606 236.326397 
L 648.099046 243.053334 
L 648.251266 241.480133 
L 648.707925 232.113288 
L 648.860145 233.833291 
L 649.012365 234.069432 
L 649.164585 234.603003 
L 649.316805 232.091532 
L 649.469025 231.540898 
L 649.621245 229.646942 
L 649.773465 230.824252 
L 650.077904 235.115665 
L 650.230124 230.9156 
L 650.534564 231.776598 
L 650.991224 238.186852 
L 651.143443 237.72847 
L 651.295663 235.328115 
L 651.447883 236.453107 
L 651.752323 242.395246 
L 652.208983 236.182323 
L 652.513422 237.428742 
L 652.817862 239.647112 
L 652.970082 239.06309 
L 653.122302 237.402532 
L 653.274522 238.723738 
L 653.578961 238.178934 
L 653.731181 238.707771 
L 653.883401 236.873765 
L 654.035621 237.933836 
L 654.187841 232.251972 
L 654.340061 232.806007 
L 654.492281 234.153747 
L 654.79672 232.871631 
L 655.10116 223.994067 
L 655.4056 223.222877 
L 655.55782 220.513607 
L 655.71004 214.810362 
L 656.318919 164.137315 
L 657.384458 70.901102 
L 657.536678 67.878403 
L 657.841118 106.738315 
L 658.145558 163.420062 
L 658.449997 200.330257 
L 658.906657 232.589009 
L 659.058877 231.241463 
L 659.211097 226.859219 
L 659.363317 226.66325 
L 659.515536 227.574196 
L 659.819976 234.251206 
L 659.972196 236.33275 
L 660.124416 241.838486 
L 660.276636 236.208893 
L 660.581076 239.359482 
L 660.733295 238.474288 
L 661.037735 239.998743 
L 661.189955 244.808474 
L 661.342175 242.204545 
L 661.646615 243.705701 
L 661.798835 242.824761 
L 662.103274 247.264355 
L 662.255494 244.604244 
L 662.407714 243.975139 
L 662.559934 242.695183 
L 662.712154 247.892477 
L 662.864374 247.051486 
L 663.016594 245.528373 
L 663.168813 248.20623 
L 663.321033 244.988017 
L 663.473253 244.73762 
L 663.625473 246.15044 
L 663.777693 248.939875 
L 664.082133 244.734075 
L 664.234353 247.365696 
L 664.386572 244.955775 
L 664.538792 248.526216 
L 664.691012 245.93226 
L 664.843232 247.070241 
L 664.995452 242.527841 
L 665.147672 242.756246 
L 665.299892 242.044018 
L 665.452112 247.223407 
L 665.756551 243.199521 
L 665.908771 244.010783 
L 666.060991 243.089632 
L 666.365431 239.24654 
L 666.517651 242.29091 
L 666.669871 238.593255 
L 666.82209 240.002912 
L 666.97431 237.835889 
L 667.12653 237.286506 
L 667.27875 238.396483 
L 667.43097 236.754368 
L 667.58319 236.995007 
L 667.73541 238.548307 
L 667.887629 233.968053 
L 668.039849 232.907588 
L 668.192069 236.236864 
L 668.344289 231.358111 
L 668.496509 231.29248 
L 668.648729 233.716872 
L 668.800949 225.41558 
L 668.953169 225.48364 
L 669.105388 229.45785 
L 669.714268 219.95401 
L 669.866488 222.051444 
L 670.018708 219.722052 
L 670.170928 219.551406 
L 670.475367 214.988945 
L 670.779807 211.236082 
L 670.932027 213.798368 
L 671.084247 213.839487 
L 671.236467 214.006198 
L 671.388687 207.910827 
L 671.540906 207.245748 
L 671.693126 205.053681 
L 671.997566 206.784759 
L 672.149786 204.010679 
L 672.302006 204.26896 
L 672.454226 203.965226 
L 672.606446 202.313215 
L 672.758665 203.684712 
L 672.910885 201.847307 
L 673.063105 203.097444 
L 673.215325 201.172932 
L 673.519765 207.674186 
L 673.671985 206.577733 
L 673.824205 207.028375 
L 674.128644 212.776273 
L 674.280864 213.273784 
L 674.585304 216.30948 
L 674.889744 222.905747 
L 675.041964 223.281952 
L 675.194183 226.729067 
L 675.346403 225.391041 
L 675.650843 233.300705 
L 675.803063 232.74751 
L 675.955283 232.614385 
L 676.107503 234.76182 
L 676.259723 233.279614 
L 676.564162 242.141198 
L 676.868602 236.850382 
L 677.020822 242.512886 
L 677.173042 240.066574 
L 677.477482 243.178311 
L 677.629701 240.734189 
L 677.781921 240.088669 
L 677.934141 240.896672 
L 678.086361 243.018449 
L 678.238581 241.256445 
L 678.390801 245.283811 
L 678.543021 243.593014 
L 678.69524 239.439269 
L 679.30412 245.78329 
L 679.45634 245.583132 
L 679.60856 240.678557 
L 679.76078 239.945549 
L 679.912999 240.976999 
L 680.065219 244.90584 
L 680.217439 242.123564 
L 680.369659 243.293203 
L 680.521879 239.779147 
L 680.674099 239.802521 
L 680.826319 243.397275 
L 680.978539 240.489427 
L 681.130758 244.000329 
L 681.282978 244.36737 
L 681.739638 237.714018 
L 681.891858 242.981533 
L 682.348517 239.568493 
L 682.500737 237.967817 
L 682.957397 244.529285 
L 683.109617 241.60417 
L 683.261837 235.61806 
L 683.566276 241.785624 
L 683.718496 239.562046 
L 683.870716 242.781087 
L 684.022936 242.472012 
L 684.175156 237.556053 
L 684.327376 237.099076 
L 684.479596 238.035207 
L 684.631816 239.953058 
L 684.784035 243.375381 
L 685.240695 236.809384 
L 685.392915 239.021201 
L 685.545135 239.119374 
L 685.849575 240.991018 
L 686.001794 237.666328 
L 686.154014 237.723641 
L 686.458454 241.68068 
L 686.610674 241.270112 
L 686.762894 241.384924 
L 686.915114 236.744949 
L 687.219553 239.241132 
L 687.371773 239.515213 
L 687.523993 241.602996 
L 687.676213 240.87595 
L 687.980653 238.399612 
L 688.285092 243.060068 
L 688.437312 241.16425 
L 688.589532 240.869611 
L 688.893972 238.07262 
L 689.046192 238.452889 
L 689.198412 240.960314 
L 689.350632 241.366856 
L 689.807291 237.606806 
L 690.111731 244.057001 
L 690.263951 243.501963 
L 690.568391 240.100614 
L 690.72061 240.818428 
L 691.02505 242.825231 
L 691.17727 243.620599 
L 691.48171 239.679187 
L 691.78615 242.095156 
L 691.938369 239.831713 
L 692.242809 242.905425 
L 692.395029 241.686968 
L 692.547249 239.397269 
L 692.699469 244.693357 
L 693.003909 243.689079 
L 693.308348 241.295324 
L 693.765008 245.304317 
L 694.069448 243.310787 
L 694.221668 243.286871 
L 694.373887 242.870694 
L 694.526107 246.497692 
L 694.830547 245.745557 
L 694.982767 244.389246 
L 695.134987 246.150132 
L 695.287207 244.16872 
L 695.439427 244.222697 
L 695.591646 245.227496 
L 695.743866 245.167291 
L 695.896086 246.518993 
L 696.048306 245.203656 
L 696.200526 242.502105 
L 696.352746 243.156408 
L 696.657186 246.079852 
L 697.113845 240.165543 
L 697.418285 244.036387 
L 697.570505 243.022915 
L 697.722725 243.955827 
L 698.027164 239.59571 
L 698.179384 242.58389 
L 698.331604 243.035733 
L 698.636044 244.929615 
L 698.940484 239.571537 
L 699.244923 243.091509 
L 699.397143 242.993488 
L 699.853803 239.827316 
L 700.006023 243.392723 
L 700.158243 242.857094 
L 700.310462 243.171301 
L 700.462682 242.077171 
L 700.614902 242.27587 
L 700.767122 242.062613 
L 700.919342 240.728074 
L 701.071562 240.997982 
L 701.376002 243.887766 
L 701.528221 242.493997 
L 701.680441 237.976228 
L 702.137101 243.149843 
L 702.289321 243.16885 
L 702.74598 240.515407 
L 703.05042 244.138088 
L 703.20264 245.140554 
L 703.35486 243.73585 
L 703.50708 239.20045 
L 703.963739 244.140324 
L 704.115959 243.391091 
L 704.268179 243.41309 
L 704.420399 242.714566 
L 704.572619 243.319229 
L 704.877059 246.08389 
L 705.029279 245.016199 
L 705.485938 238.160575 
L 705.638158 242.795126 
L 705.942598 241.497144 
L 706.247038 238.182581 
L 706.399257 240.249274 
L 706.551477 244.017349 
L 706.703697 243.619617 
L 707.008137 237.179106 
L 707.160357 240.288466 
L 707.312577 239.547728 
L 707.464797 241.568618 
L 707.617016 239.757819 
L 707.769236 240.3035 
L 707.921456 237.433644 
L 708.073676 237.656422 
L 708.378116 241.457696 
L 708.530336 239.401483 
L 708.682555 242.566264 
L 708.834775 237.022266 
L 708.986995 235.888546 
L 709.291435 240.188093 
L 709.595875 237.731045 
L 709.748095 237.616557 
L 709.900314 237.983615 
L 710.052534 237.725385 
L 710.204754 239.262653 
L 710.509194 236.193776 
L 710.661414 236.60463 
L 710.965854 233.688014 
L 711.118073 237.719471 
L 711.270293 238.486211 
L 711.574733 236.599622 
L 711.726953 238.902268 
L 711.879173 238.861646 
L 712.031393 240.674706 
L 712.640272 230.781394 
L 712.792492 233.491767 
L 712.944712 233.449436 
L 713.096932 230.465142 
L 713.249152 231.637102 
L 713.401372 231.769983 
L 713.705811 230.014252 
L 713.858031 233.502846 
L 714.010251 233.703644 
L 714.162471 233.415577 
L 714.314691 231.693557 
L 714.466911 235.619284 
L 714.619131 236.040326 
L 714.77135 237.233494 
L 714.92357 237.526709 
L 715.07579 240.508503 
L 715.38023 238.46867 
L 715.53245 241.098739 
L 715.68467 238.112487 
L 715.83689 240.232132 
L 716.293549 235.853926 
L 716.445769 238.162011 
L 716.597989 238.65099 
L 716.750209 240.989149 
L 716.902429 239.497611 
L 717.054649 234.083256 
L 717.206868 235.616405 
L 717.359088 235.757368 
L 717.511308 238.534829 
L 717.663528 237.317532 
L 717.815748 234.824174 
L 717.967968 234.607079 
L 718.120188 230.181991 
L 718.272408 230.775037 
L 718.576847 229.020875 
L 718.881287 218.757301 
L 719.033507 218.480145 
L 719.337947 209.522157 
L 719.642386 177.740873 
L 719.642386 177.740873 
" clip-path="url(#pb925ef67e3)" style="fill: none; stroke: #1f77b4; stroke-width: 2; stroke-linecap: square"/>
   </g>
   <g id="patch_3">
    <path d="M 80.47875 259.019875 
L 80.47875 37.259875 
" style="fill: none; stroke: #000000; stroke-width: 2; stroke-linejoin: miter; stroke-linecap: square"/>
   </g>
   <g id="patch_4">
    <path d="M 750.07875 259.019875 
L 750.07875 37.259875 
" style="fill: none; stroke: #000000; stroke-width: 2; stroke-linejoin: miter; stroke-linecap: square"/>
   </g>
   <g id="patch_5">
    <path d="M 80.47875 259.019875 
L 750.07875 259.019875 
" style="fill: none; stroke: #000000; stroke-width: 2; stroke-linejoin: miter; stroke-linecap: square"/>
   </g>
   <g id="patch_6">
    <path d="M 80.47875 37.259875 
L 750.07875 37.259875 
" style="fill: none; stroke: #000000; stroke-width: 2; stroke-linejoin: miter; stroke-linecap: square"/>
   </g>
   <g id="text_15">
    <!-- Denoised ECG Signal -->
    <g transform="translate(276.779812 27.259875) scale(0.264 -0.264)">
     <defs>
      <path id="DejaVuSans-44" d="M 1259 4147 
L 1259 519 
L 2022 519 
Q 2988 519 3436 956 
Q 3884 1394 3884 2338 
Q 3884 3275 3436 3711 
Q 2988 4147 2022 4147 
L 1259 4147 
z
M 628 4666 
L 1925 4666 
Q 3281 4666 3915 4102 
Q 4550 3538 4550 2338 
Q 4550 1131 3912 565 
Q 3275 0 1925 0 
L 628 0 
L 628 4666 
z
" transform="scale(0.015625)"/>
      <path id="DejaVuSans-6e" d="M 3513 2113 
L 3513 0 
L 2938 0 
L 2938 2094 
Q 2938 2591 2744 2837 
Q 2550 3084 2163 3084 
Q 1697 3084 1428 2787 
Q 1159 2491 1159 1978 
L 1159 0 
L 581 0 
L 581 3500 
L 1159 3500 
L 1159 2956 
Q 1366 3272 1645 3428 
Q 1925 3584 2291 3584 
Q 2894 3584 3203 3211 
Q 3513 2838 3513 2113 
z
" transform="scale(0.015625)"/>
      <path id="DejaVuSans-6f" d="M 1959 3097 
Q 1497 3097 1228 2736 
Q 959 2375 959 1747 
Q 959 1119 1226 758 
Q 1494 397 1959 397 
Q 2419 397 2687 759 
Q 2956 1122 2956 1747 
Q 2956 2369 2687 2733 
Q 2419 3097 1959 3097 
z
M 1959 3584 
Q 2709 3584 3137 3096 
Q 3566 2609 3566 1747 
Q 3566 888 3137 398 
Q 2709 -91 1959 -91 
Q 1206 -91 779 398 
Q 353 888 353 1747 
Q 353 2609 779 3096 
Q 1206 3584 1959 3584 
z
" transform="scale(0.015625)"/>
      <path id="DejaVuSans-20" transform="scale(0.015625)"/>
      <path id="DejaVuSans-45" d="M 628 4666 
L 3578 4666 
L 3578 4134 
L 1259 4134 
L 1259 2753 
L 3481 2753 
L 3481 2222 
L 1259 2222 
L 1259 531 
L 3634 531 
L 3634 0 
L 628 0 
L 628 4666 
z
" transform="scale(0.015625)"/>
      <path id="DejaVuSans-43" d="M 4122 4306 
L 4122 3641 
Q 3803 3938 3442 4084 
Q 3081 4231 2675 4231 
Q 1875 4231 1450 3742 
Q 1025 3253 1025 2328 
Q 1025 1406 1450 917 
Q 1875 428 2675 428 
Q 3081 428 3442 575 
Q 3803 722 4122 1019 
L 4122 359 
Q 3791 134 3420 21 
Q 3050 -91 2638 -91 
Q 1578 -91 968 557 
Q 359 1206 359 2328 
Q 359 3453 968 4101 
Q 1578 4750 2638 4750 
Q 3056 4750 3426 4639 
Q 3797 4528 4122 4306 
z
" transform="scale(0.015625)"/>
      <path id="DejaVuSans-47" d="M 3809 666 
L 3809 1919 
L 2778 1919 
L 2778 2438 
L 4434 2438 
L 4434 434 
Q 4069 175 3628 42 
Q 3188 -91 2688 -91 
Q 1594 -91 976 548 
Q 359 1188 359 2328 
Q 359 3472 976 4111 
Q 1594 4750 2688 4750 
Q 3144 4750 3555 4637 
Q 3966 4525 4313 4306 
L 4313 3634 
Q 3963 3931 3569 4081 
Q 3175 4231 2741 4231 
Q 1884 4231 1454 3753 
Q 1025 3275 1025 2328 
Q 1025 1384 1454 906 
Q 1884 428 2741 428 
Q 3075 428 3337 486 
Q 3600 544 3809 666 
z
" transform="scale(0.015625)"/>
      <path id="DejaVuSans-67" d="M 2906 1791 
Q 2906 2416 2648 2759 
Q 2391 3103 1925 3103 
Q 1463 3103 1205 2759 
Q 947 2416 947 1791 
Q 947 1169 1205 825 
Q 1463 481 1925 481 
Q 2391 481 2648 825 
Q 2906 1169 2906 1791 
z
M 3481 434 
Q 3481 -459 3084 -895 
Q 2688 -1331 1869 -1331 
Q 1566 -1331 1297 -1286 
Q 1028 -1241 775 -1147 
L 775 -588 
Q 1028 -725 1275 -790 
Q 1522 -856 1778 -856 
Q 2344 -856 2625 -561 
Q 2906 -266 2906 331 
L 2906 616 
Q 2728 306 2450 153 
Q 2172 0 1784 0 
Q 1141 0 747 490 
Q 353 981 353 1791 
Q 353 2603 747 3093 
Q 1141 3584 1784 3584 
Q 2172 3584 2450 3431 
Q 2728 3278 2906 2969 
L 2906 3500 
L 3481 3500 
L 3481 434 
z
" transform="scale(0.015625)"/>
     </defs>
     <use xlink:href="#DejaVuSans-44"/>
     <use xlink:href="#DejaVuSans-65" x="77.001953"/>
     <use xlink:href="#DejaVuSans-6e" x="138.525391"/>
     <use xlink:href="#DejaVuSans-6f" x="201.904297"/>
     <use xlink:href="#DejaVuSans-69" x="263.085938"/>
     <use xlink:href="#DejaVuSans-73" x="290.869141"/>
     <use xlink:href="#DejaVuSans-65" x="342.96875"/>
     <use xlink:href="#DejaVuSans-64" x="404.492188"/>
     <use xlink:href="#DejaVuSans-20" x="467.96875"/>
     <use xlink:href="#DejaVuSans-45" x="499.755859"/>
     <use xlink:href="#DejaVuSans-43" x="562.939453"/>
     <use xlink:href="#DejaVuSans-47" x="632.763672"/>
     <use xlink:href="#DejaVuSans-20" x="710.253906"/>
     <use xlink:href="#DejaVuSans-53" x="742.041016"/>
     <use xlink:href="#DejaVuSans-69" x="805.517578"/>
     <use xlink:href="#DejaVuSans-67" x="833.300781"/>
     <use xlink:href="#DejaVuSans-6e" x="896.777344"/>
     <use xlink:href="#DejaVuSans-61" x="960.15625"/>
     <use xlink:href="#DejaVuSans-6c" x="1021.435547"/>
    </g>
   </g>
  </g>
 </g>
 <defs>
  <clipPath id="pb925ef67e3">
   <rect x="80.47875" y="37.259875" width="669.6" height="221.76"/>
  </clipPath>
 </defs>
</svg>
