<?xml version="1.0" encoding="utf-8" standalone="no"?>
<!DOCTYPE svg PUBLIC "-//W3C//DTD SVG 1.1//EN"
  "http://www.w3.org/Graphics/SVG/1.1/DTD/svg11.dtd">
<svg xmlns:xlink="http://www.w3.org/1999/xlink" width="775.714062pt" height="295.74375pt" viewBox="0 0 775.714062 295.74375" xmlns="http://www.w3.org/2000/svg" version="1.1">
 <metadata>
  <rdf:RDF xmlns:dc="http://purl.org/dc/elements/1.1/" xmlns:cc="http://creativecommons.org/ns#" xmlns:rdf="http://www.w3.org/1999/02/22-rdf-syntax-ns#">
   <cc:Work>
    <dc:type rdf:resource="http://purl.org/dc/dcmitype/StillImage"/>
    <dc:date>2024-05-15T15:26:22.356041</dc:date>
    <dc:format>image/svg+xml</dc:format>
    <dc:creator>
     <cc:Agent>
      <dc:title>Matplotlib v3.7.5, https://matplotlib.org/</dc:title>
     </cc:Agent>
    </dc:creator>
   </cc:Work>
  </rdf:RDF>
 </metadata>
 <defs>
  <style type="text/css">*{stroke-linejoin: round; stroke-linecap: butt}</style>
 </defs>
 <g id="figure_1">
  <g id="patch_1">
   <path d="M 0 295.74375 
L 775.714062 295.74375 
L 775.714062 0 
L 0 0 
z
" style="fill: #ffffff"/>
  </g>
  <g id="axes_1">
   <g id="patch_2">
    <path d="M 98.914062 228.96 
L 768.514063 228.96 
L 768.514063 7.2 
L 98.914062 7.2 
z
" style="fill: #ffffff"/>
   </g>
   <g id="matplotlib.axis_1">
    <g id="xtick_1">
     <g id="line2d_1">
      <defs>
       <path id="m39827e48c2" d="M 0 0 
L 0 -3.5 
" style="stroke: #000000; stroke-width: 2"/>
      </defs>
      <g>
       <use xlink:href="#m39827e48c2" x="129.350426" y="228.96" style="stroke: #000000; stroke-width: 2"/>
      </g>
     </g>
     <g id="text_1">
      <!-- 0 -->
      <g transform="translate(122.351676 252.676562) scale(0.22 -0.22)">
       <defs>
        <path id="DejaVuSans-30" d="M 2034 4250 
Q 1547 4250 1301 3770 
Q 1056 3291 1056 2328 
Q 1056 1369 1301 889 
Q 1547 409 2034 409 
Q 2525 409 2770 889 
Q 3016 1369 3016 2328 
Q 3016 3291 2770 3770 
Q 2525 4250 2034 4250 
z
M 2034 4750 
Q 2819 4750 3233 4129 
Q 3647 3509 3647 2328 
Q 3647 1150 3233 529 
Q 2819 -91 2034 -91 
Q 1250 -91 836 529 
Q 422 1150 422 2328 
Q 422 3509 836 4129 
Q 1250 4750 2034 4750 
z
" transform="scale(0.015625)"/>
       </defs>
       <use xlink:href="#DejaVuSans-30"/>
      </g>
     </g>
    </g>
    <g id="xtick_2">
     <g id="line2d_2">
      <g>
       <use xlink:href="#m39827e48c2" x="205.460363" y="228.96" style="stroke: #000000; stroke-width: 2"/>
      </g>
     </g>
     <g id="text_2">
      <!-- 500 -->
      <g transform="translate(184.464113 252.676562) scale(0.22 -0.22)">
       <defs>
        <path id="DejaVuSans-35" d="M 691 4666 
L 3169 4666 
L 3169 4134 
L 1269 4134 
L 1269 2991 
Q 1406 3038 1543 3061 
Q 1681 3084 1819 3084 
Q 2600 3084 3056 2656 
Q 3513 2228 3513 1497 
Q 3513 744 3044 326 
Q 2575 -91 1722 -91 
Q 1428 -91 1123 -41 
Q 819 9 494 109 
L 494 744 
Q 775 591 1075 516 
Q 1375 441 1709 441 
Q 2250 441 2565 725 
Q 2881 1009 2881 1497 
Q 2881 1984 2565 2268 
Q 2250 2553 1709 2553 
Q 1456 2553 1204 2497 
Q 953 2441 691 2322 
L 691 4666 
z
" transform="scale(0.015625)"/>
       </defs>
       <use xlink:href="#DejaVuSans-35"/>
       <use xlink:href="#DejaVuSans-30" x="63.623047"/>
       <use xlink:href="#DejaVuSans-30" x="127.246094"/>
      </g>
     </g>
    </g>
    <g id="xtick_3">
     <g id="line2d_3">
      <g>
       <use xlink:href="#m39827e48c2" x="281.570299" y="228.96" style="stroke: #000000; stroke-width: 2"/>
      </g>
     </g>
     <g id="text_3">
      <!-- 1000 -->
      <g transform="translate(253.575299 252.676562) scale(0.22 -0.22)">
       <defs>
        <path id="DejaVuSans-31" d="M 794 531 
L 1825 531 
L 1825 4091 
L 703 3866 
L 703 4441 
L 1819 4666 
L 2450 4666 
L 2450 531 
L 3481 531 
L 3481 0 
L 794 0 
L 794 531 
z
" transform="scale(0.015625)"/>
       </defs>
       <use xlink:href="#DejaVuSans-31"/>
       <use xlink:href="#DejaVuSans-30" x="63.623047"/>
       <use xlink:href="#DejaVuSans-30" x="127.246094"/>
       <use xlink:href="#DejaVuSans-30" x="190.869141"/>
      </g>
     </g>
    </g>
    <g id="xtick_4">
     <g id="line2d_4">
      <g>
       <use xlink:href="#m39827e48c2" x="357.680236" y="228.96" style="stroke: #000000; stroke-width: 2"/>
      </g>
     </g>
     <g id="text_4">
      <!-- 1500 -->
      <g transform="translate(329.685236 252.676562) scale(0.22 -0.22)">
       <use xlink:href="#DejaVuSans-31"/>
       <use xlink:href="#DejaVuSans-35" x="63.623047"/>
       <use xlink:href="#DejaVuSans-30" x="127.246094"/>
       <use xlink:href="#DejaVuSans-30" x="190.869141"/>
      </g>
     </g>
    </g>
    <g id="xtick_5">
     <g id="line2d_5">
      <g>
       <use xlink:href="#m39827e48c2" x="433.790172" y="228.96" style="stroke: #000000; stroke-width: 2"/>
      </g>
     </g>
     <g id="text_5">
      <!-- 2000 -->
      <g transform="translate(405.795172 252.676562) scale(0.22 -0.22)">
       <defs>
        <path id="DejaVuSans-32" d="M 1228 531 
L 3431 531 
L 3431 0 
L 469 0 
L 469 531 
Q 828 903 1448 1529 
Q 2069 2156 2228 2338 
Q 2531 2678 2651 2914 
Q 2772 3150 2772 3378 
Q 2772 3750 2511 3984 
Q 2250 4219 1831 4219 
Q 1534 4219 1204 4116 
Q 875 4013 500 3803 
L 500 4441 
Q 881 4594 1212 4672 
Q 1544 4750 1819 4750 
Q 2544 4750 2975 4387 
Q 3406 4025 3406 3419 
Q 3406 3131 3298 2873 
Q 3191 2616 2906 2266 
Q 2828 2175 2409 1742 
Q 1991 1309 1228 531 
z
" transform="scale(0.015625)"/>
       </defs>
       <use xlink:href="#DejaVuSans-32"/>
       <use xlink:href="#DejaVuSans-30" x="63.623047"/>
       <use xlink:href="#DejaVuSans-30" x="127.246094"/>
       <use xlink:href="#DejaVuSans-30" x="190.869141"/>
      </g>
     </g>
    </g>
    <g id="xtick_6">
     <g id="line2d_6">
      <g>
       <use xlink:href="#m39827e48c2" x="509.900109" y="228.96" style="stroke: #000000; stroke-width: 2"/>
      </g>
     </g>
     <g id="text_6">
      <!-- 2500 -->
      <g transform="translate(481.905109 252.676562) scale(0.22 -0.22)">
       <use xlink:href="#DejaVuSans-32"/>
       <use xlink:href="#DejaVuSans-35" x="63.623047"/>
       <use xlink:href="#DejaVuSans-30" x="127.246094"/>
       <use xlink:href="#DejaVuSans-30" x="190.869141"/>
      </g>
     </g>
    </g>
    <g id="xtick_7">
     <g id="line2d_7">
      <g>
       <use xlink:href="#m39827e48c2" x="586.010046" y="228.96" style="stroke: #000000; stroke-width: 2"/>
      </g>
     </g>
     <g id="text_7">
      <!-- 3000 -->
      <g transform="translate(558.015046 252.676562) scale(0.22 -0.22)">
       <defs>
        <path id="DejaVuSans-33" d="M 2597 2516 
Q 3050 2419 3304 2112 
Q 3559 1806 3559 1356 
Q 3559 666 3084 287 
Q 2609 -91 1734 -91 
Q 1441 -91 1130 -33 
Q 819 25 488 141 
L 488 750 
Q 750 597 1062 519 
Q 1375 441 1716 441 
Q 2309 441 2620 675 
Q 2931 909 2931 1356 
Q 2931 1769 2642 2001 
Q 2353 2234 1838 2234 
L 1294 2234 
L 1294 2753 
L 1863 2753 
Q 2328 2753 2575 2939 
Q 2822 3125 2822 3475 
Q 2822 3834 2567 4026 
Q 2313 4219 1838 4219 
Q 1578 4219 1281 4162 
Q 984 4106 628 3988 
L 628 4550 
Q 988 4650 1302 4700 
Q 1616 4750 1894 4750 
Q 2613 4750 3031 4423 
Q 3450 4097 3450 3541 
Q 3450 3153 3228 2886 
Q 3006 2619 2597 2516 
z
" transform="scale(0.015625)"/>
       </defs>
       <use xlink:href="#DejaVuSans-33"/>
       <use xlink:href="#DejaVuSans-30" x="63.623047"/>
       <use xlink:href="#DejaVuSans-30" x="127.246094"/>
       <use xlink:href="#DejaVuSans-30" x="190.869141"/>
      </g>
     </g>
    </g>
    <g id="xtick_8">
     <g id="line2d_8">
      <g>
       <use xlink:href="#m39827e48c2" x="662.119982" y="228.96" style="stroke: #000000; stroke-width: 2"/>
      </g>
     </g>
     <g id="text_8">
      <!-- 3500 -->
      <g transform="translate(634.124982 252.676562) scale(0.22 -0.22)">
       <use xlink:href="#DejaVuSans-33"/>
       <use xlink:href="#DejaVuSans-35" x="63.623047"/>
       <use xlink:href="#DejaVuSans-30" x="127.246094"/>
       <use xlink:href="#DejaVuSans-30" x="190.869141"/>
      </g>
     </g>
    </g>
    <g id="xtick_9">
     <g id="line2d_9">
      <g>
       <use xlink:href="#m39827e48c2" x="738.229919" y="228.96" style="stroke: #000000; stroke-width: 2"/>
      </g>
     </g>
     <g id="text_9">
      <!-- 4000 -->
      <g transform="translate(710.234919 252.676562) scale(0.22 -0.22)">
       <defs>
        <path id="DejaVuSans-34" d="M 2419 4116 
L 825 1625 
L 2419 1625 
L 2419 4116 
z
M 2253 4666 
L 3047 4666 
L 3047 1625 
L 3713 1625 
L 3713 1100 
L 3047 1100 
L 3047 0 
L 2419 0 
L 2419 1100 
L 313 1100 
L 313 1709 
L 2253 4666 
z
" transform="scale(0.015625)"/>
       </defs>
       <use xlink:href="#DejaVuSans-34"/>
       <use xlink:href="#DejaVuSans-30" x="63.623047"/>
       <use xlink:href="#DejaVuSans-30" x="127.246094"/>
       <use xlink:href="#DejaVuSans-30" x="190.869141"/>
      </g>
     </g>
    </g>
    <g id="text_10">
     <!-- Samples -->
     <g transform="translate(386.737188 283.968437) scale(0.22 -0.22)">
      <defs>
       <path id="DejaVuSans-53" d="M 3425 4513 
L 3425 3897 
Q 3066 4069 2747 4153 
Q 2428 4238 2131 4238 
Q 1616 4238 1336 4038 
Q 1056 3838 1056 3469 
Q 1056 3159 1242 3001 
Q 1428 2844 1947 2747 
L 2328 2669 
Q 3034 2534 3370 2195 
Q 3706 1856 3706 1288 
Q 3706 609 3251 259 
Q 2797 -91 1919 -91 
Q 1588 -91 1214 -16 
Q 841 59 441 206 
L 441 856 
Q 825 641 1194 531 
Q 1563 422 1919 422 
Q 2459 422 2753 634 
Q 3047 847 3047 1241 
Q 3047 1584 2836 1778 
Q 2625 1972 2144 2069 
L 1759 2144 
Q 1053 2284 737 2584 
Q 422 2884 422 3419 
Q 422 4038 858 4394 
Q 1294 4750 2059 4750 
Q 2388 4750 2728 4690 
Q 3069 4631 3425 4513 
z
" transform="scale(0.015625)"/>
       <path id="DejaVuSans-61" d="M 2194 1759 
Q 1497 1759 1228 1600 
Q 959 1441 959 1056 
Q 959 750 1161 570 
Q 1363 391 1709 391 
Q 2188 391 2477 730 
Q 2766 1069 2766 1631 
L 2766 1759 
L 2194 1759 
z
M 3341 1997 
L 3341 0 
L 2766 0 
L 2766 531 
Q 2569 213 2275 61 
Q 1981 -91 1556 -91 
Q 1019 -91 701 211 
Q 384 513 384 1019 
Q 384 1609 779 1909 
Q 1175 2209 1959 2209 
L 2766 2209 
L 2766 2266 
Q 2766 2663 2505 2880 
Q 2244 3097 1772 3097 
Q 1472 3097 1187 3025 
Q 903 2953 641 2809 
L 641 3341 
Q 956 3463 1253 3523 
Q 1550 3584 1831 3584 
Q 2591 3584 2966 3190 
Q 3341 2797 3341 1997 
z
" transform="scale(0.015625)"/>
       <path id="DejaVuSans-6d" d="M 3328 2828 
Q 3544 3216 3844 3400 
Q 4144 3584 4550 3584 
Q 5097 3584 5394 3201 
Q 5691 2819 5691 2113 
L 5691 0 
L 5113 0 
L 5113 2094 
Q 5113 2597 4934 2840 
Q 4756 3084 4391 3084 
Q 3944 3084 3684 2787 
Q 3425 2491 3425 1978 
L 3425 0 
L 2847 0 
L 2847 2094 
Q 2847 2600 2669 2842 
Q 2491 3084 2119 3084 
Q 1678 3084 1418 2786 
Q 1159 2488 1159 1978 
L 1159 0 
L 581 0 
L 581 3500 
L 1159 3500 
L 1159 2956 
Q 1356 3278 1631 3431 
Q 1906 3584 2284 3584 
Q 2666 3584 2933 3390 
Q 3200 3197 3328 2828 
z
" transform="scale(0.015625)"/>
       <path id="DejaVuSans-70" d="M 1159 525 
L 1159 -1331 
L 581 -1331 
L 581 3500 
L 1159 3500 
L 1159 2969 
Q 1341 3281 1617 3432 
Q 1894 3584 2278 3584 
Q 2916 3584 3314 3078 
Q 3713 2572 3713 1747 
Q 3713 922 3314 415 
Q 2916 -91 2278 -91 
Q 1894 -91 1617 61 
Q 1341 213 1159 525 
z
M 3116 1747 
Q 3116 2381 2855 2742 
Q 2594 3103 2138 3103 
Q 1681 3103 1420 2742 
Q 1159 2381 1159 1747 
Q 1159 1113 1420 752 
Q 1681 391 2138 391 
Q 2594 391 2855 752 
Q 3116 1113 3116 1747 
z
" transform="scale(0.015625)"/>
       <path id="DejaVuSans-6c" d="M 603 4863 
L 1178 4863 
L 1178 0 
L 603 0 
L 603 4863 
z
" transform="scale(0.015625)"/>
       <path id="DejaVuSans-65" d="M 3597 1894 
L 3597 1613 
L 953 1613 
Q 991 1019 1311 708 
Q 1631 397 2203 397 
Q 2534 397 2845 478 
Q 3156 559 3463 722 
L 3463 178 
Q 3153 47 2828 -22 
Q 2503 -91 2169 -91 
Q 1331 -91 842 396 
Q 353 884 353 1716 
Q 353 2575 817 3079 
Q 1281 3584 2069 3584 
Q 2775 3584 3186 3129 
Q 3597 2675 3597 1894 
z
M 3022 2063 
Q 3016 2534 2758 2815 
Q 2500 3097 2075 3097 
Q 1594 3097 1305 2825 
Q 1016 2553 972 2059 
L 3022 2063 
z
" transform="scale(0.015625)"/>
       <path id="DejaVuSans-73" d="M 2834 3397 
L 2834 2853 
Q 2591 2978 2328 3040 
Q 2066 3103 1784 3103 
Q 1356 3103 1142 2972 
Q 928 2841 928 2578 
Q 928 2378 1081 2264 
Q 1234 2150 1697 2047 
L 1894 2003 
Q 2506 1872 2764 1633 
Q 3022 1394 3022 966 
Q 3022 478 2636 193 
Q 2250 -91 1575 -91 
Q 1294 -91 989 -36 
Q 684 19 347 128 
L 347 722 
Q 666 556 975 473 
Q 1284 391 1588 391 
Q 1994 391 2212 530 
Q 2431 669 2431 922 
Q 2431 1156 2273 1281 
Q 2116 1406 1581 1522 
L 1381 1569 
Q 847 1681 609 1914 
Q 372 2147 372 2553 
Q 372 3047 722 3315 
Q 1072 3584 1716 3584 
Q 2034 3584 2315 3537 
Q 2597 3491 2834 3397 
z
" transform="scale(0.015625)"/>
      </defs>
      <use xlink:href="#DejaVuSans-53"/>
      <use xlink:href="#DejaVuSans-61" x="63.476562"/>
      <use xlink:href="#DejaVuSans-6d" x="124.755859"/>
      <use xlink:href="#DejaVuSans-70" x="222.167969"/>
      <use xlink:href="#DejaVuSans-6c" x="285.644531"/>
      <use xlink:href="#DejaVuSans-65" x="313.427734"/>
      <use xlink:href="#DejaVuSans-73" x="374.951172"/>
     </g>
    </g>
   </g>
   <g id="matplotlib.axis_2">
    <g id="ytick_1">
     <g id="line2d_10">
      <defs>
       <path id="m3f9f8bcc3a" d="M 0 0 
L 3.5 0 
" style="stroke: #000000; stroke-width: 2"/>
      </defs>
      <g>
       <use xlink:href="#m3f9f8bcc3a" x="98.914062" y="218.47341" style="stroke: #000000; stroke-width: 2"/>
      </g>
     </g>
     <g id="text_11">
      <!-- −0.5 -->
      <g transform="translate(38.491875 226.831691) scale(0.22 -0.22)">
       <defs>
        <path id="DejaVuSans-2212" d="M 678 2272 
L 4684 2272 
L 4684 1741 
L 678 1741 
L 678 2272 
z
" transform="scale(0.015625)"/>
        <path id="DejaVuSans-2e" d="M 684 794 
L 1344 794 
L 1344 0 
L 684 0 
L 684 794 
z
" transform="scale(0.015625)"/>
       </defs>
       <use xlink:href="#DejaVuSans-2212"/>
       <use xlink:href="#DejaVuSans-30" x="83.789062"/>
       <use xlink:href="#DejaVuSans-2e" x="147.412109"/>
       <use xlink:href="#DejaVuSans-35" x="179.199219"/>
      </g>
     </g>
    </g>
    <g id="ytick_2">
     <g id="line2d_11">
      <g>
       <use xlink:href="#m3f9f8bcc3a" x="98.914062" y="151.40894" style="stroke: #000000; stroke-width: 2"/>
      </g>
     </g>
     <g id="text_12">
      <!-- 0.0 -->
      <g transform="translate(56.927188 159.767221) scale(0.22 -0.22)">
       <use xlink:href="#DejaVuSans-30"/>
       <use xlink:href="#DejaVuSans-2e" x="63.623047"/>
       <use xlink:href="#DejaVuSans-30" x="95.410156"/>
      </g>
     </g>
    </g>
    <g id="ytick_3">
     <g id="line2d_12">
      <g>
       <use xlink:href="#m3f9f8bcc3a" x="98.914062" y="84.34447" style="stroke: #000000; stroke-width: 2"/>
      </g>
     </g>
     <g id="text_13">
      <!-- 0.5 -->
      <g transform="translate(56.927188 92.702751) scale(0.22 -0.22)">
       <use xlink:href="#DejaVuSans-30"/>
       <use xlink:href="#DejaVuSans-2e" x="63.623047"/>
       <use xlink:href="#DejaVuSans-35" x="95.410156"/>
      </g>
     </g>
    </g>
    <g id="ytick_4">
     <g id="line2d_13">
      <g>
       <use xlink:href="#m3f9f8bcc3a" x="98.914062" y="17.28" style="stroke: #000000; stroke-width: 2"/>
      </g>
     </g>
     <g id="text_14">
      <!-- 1.0 -->
      <g transform="translate(56.927188 25.638281) scale(0.22 -0.22)">
       <use xlink:href="#DejaVuSans-31"/>
       <use xlink:href="#DejaVuSans-2e" x="63.623047"/>
       <use xlink:href="#DejaVuSans-30" x="95.410156"/>
      </g>
     </g>
    </g>
    <g id="text_15">
     <!-- Amplitude(mV) -->
     <g transform="translate(23.916562 201.272656) rotate(-90) scale(0.22 -0.22)">
      <defs>
       <path id="DejaVuSans-41" d="M 2188 4044 
L 1331 1722 
L 3047 1722 
L 2188 4044 
z
M 1831 4666 
L 2547 4666 
L 4325 0 
L 3669 0 
L 3244 1197 
L 1141 1197 
L 716 0 
L 50 0 
L 1831 4666 
z
" transform="scale(0.015625)"/>
       <path id="DejaVuSans-69" d="M 603 3500 
L 1178 3500 
L 1178 0 
L 603 0 
L 603 3500 
z
M 603 4863 
L 1178 4863 
L 1178 4134 
L 603 4134 
L 603 4863 
z
" transform="scale(0.015625)"/>
       <path id="DejaVuSans-74" d="M 1172 4494 
L 1172 3500 
L 2356 3500 
L 2356 3053 
L 1172 3053 
L 1172 1153 
Q 1172 725 1289 603 
Q 1406 481 1766 481 
L 2356 481 
L 2356 0 
L 1766 0 
Q 1100 0 847 248 
Q 594 497 594 1153 
L 594 3053 
L 172 3053 
L 172 3500 
L 594 3500 
L 594 4494 
L 1172 4494 
z
" transform="scale(0.015625)"/>
       <path id="DejaVuSans-75" d="M 544 1381 
L 544 3500 
L 1119 3500 
L 1119 1403 
Q 1119 906 1312 657 
Q 1506 409 1894 409 
Q 2359 409 2629 706 
Q 2900 1003 2900 1516 
L 2900 3500 
L 3475 3500 
L 3475 0 
L 2900 0 
L 2900 538 
Q 2691 219 2414 64 
Q 2138 -91 1772 -91 
Q 1169 -91 856 284 
Q 544 659 544 1381 
z
M 1991 3584 
L 1991 3584 
z
" transform="scale(0.015625)"/>
       <path id="DejaVuSans-64" d="M 2906 2969 
L 2906 4863 
L 3481 4863 
L 3481 0 
L 2906 0 
L 2906 525 
Q 2725 213 2448 61 
Q 2172 -91 1784 -91 
Q 1150 -91 751 415 
Q 353 922 353 1747 
Q 353 2572 751 3078 
Q 1150 3584 1784 3584 
Q 2172 3584 2448 3432 
Q 2725 3281 2906 2969 
z
M 947 1747 
Q 947 1113 1208 752 
Q 1469 391 1925 391 
Q 2381 391 2643 752 
Q 2906 1113 2906 1747 
Q 2906 2381 2643 2742 
Q 2381 3103 1925 3103 
Q 1469 3103 1208 2742 
Q 947 2381 947 1747 
z
" transform="scale(0.015625)"/>
       <path id="DejaVuSans-28" d="M 1984 4856 
Q 1566 4138 1362 3434 
Q 1159 2731 1159 2009 
Q 1159 1288 1364 580 
Q 1569 -128 1984 -844 
L 1484 -844 
Q 1016 -109 783 600 
Q 550 1309 550 2009 
Q 550 2706 781 3412 
Q 1013 4119 1484 4856 
L 1984 4856 
z
" transform="scale(0.015625)"/>
       <path id="DejaVuSans-56" d="M 1831 0 
L 50 4666 
L 709 4666 
L 2188 738 
L 3669 4666 
L 4325 4666 
L 2547 0 
L 1831 0 
z
" transform="scale(0.015625)"/>
       <path id="DejaVuSans-29" d="M 513 4856 
L 1013 4856 
Q 1481 4119 1714 3412 
Q 1947 2706 1947 2009 
Q 1947 1309 1714 600 
Q 1481 -109 1013 -844 
L 513 -844 
Q 928 -128 1133 580 
Q 1338 1288 1338 2009 
Q 1338 2731 1133 3434 
Q 928 4138 513 4856 
z
" transform="scale(0.015625)"/>
      </defs>
      <use xlink:href="#DejaVuSans-41"/>
      <use xlink:href="#DejaVuSans-6d" x="68.408203"/>
      <use xlink:href="#DejaVuSans-70" x="165.820312"/>
      <use xlink:href="#DejaVuSans-6c" x="229.296875"/>
      <use xlink:href="#DejaVuSans-69" x="257.080078"/>
      <use xlink:href="#DejaVuSans-74" x="284.863281"/>
      <use xlink:href="#DejaVuSans-75" x="324.072266"/>
      <use xlink:href="#DejaVuSans-64" x="387.451172"/>
      <use xlink:href="#DejaVuSans-65" x="450.927734"/>
      <use xlink:href="#DejaVuSans-28" x="512.451172"/>
      <use xlink:href="#DejaVuSans-6d" x="551.464844"/>
      <use xlink:href="#DejaVuSans-56" x="648.876953"/>
      <use xlink:href="#DejaVuSans-29" x="717.285156"/>
     </g>
    </g>
   </g>
   <g id="line2d_14">
    <path d="M 129.350426 151.244344 
L 130.415965 151.244344 
L 130.720405 153.858282 
L 130.872625 154.185024 
L 131.177065 157.125705 
L 131.329284 157.77919 
L 131.481504 157.452447 
L 131.633724 157.452447 
L 131.785944 157.125705 
L 131.938164 157.452447 
L 132.090384 157.452447 
L 132.242604 158.105932 
L 132.394824 158.105932 
L 132.547043 156.798963 
L 132.699263 156.798963 
L 133.308143 159.086159 
L 133.460363 158.105932 
L 133.612583 158.105932 
L 134.069242 161.373355 
L 134.221462 161.046613 
L 134.525902 159.412901 
L 134.678122 160.393128 
L 134.830342 162.680324 
L 134.982561 161.046613 
L 135.287001 145.362982 
L 135.591441 119.877083 
L 136.048101 54.855365 
L 136.35254 17.933485 
L 136.50476 20.547423 
L 136.96142 84.588914 
L 137.418079 141.442075 
L 137.722519 158.105932 
L 137.874739 161.046613 
L 138.026959 161.373355 
L 138.179179 159.739643 
L 138.331399 159.739643 
L 138.635838 163.333809 
L 138.788058 164.314036 
L 138.940278 163.660551 
L 139.092498 163.660551 
L 139.244718 163.987293 
L 139.396938 165.947747 
L 139.549158 166.274489 
L 139.701378 165.621005 
L 139.853597 165.621005 
L 140.005817 164.96752 
L 140.158037 165.294263 
L 140.310257 165.947747 
L 140.462477 165.947747 
L 140.614697 165.621005 
L 140.766917 164.96752 
L 141.071356 165.621005 
L 141.223576 165.621005 
L 141.375796 166.601232 
L 141.832456 163.987293 
L 142.289115 166.274489 
L 142.441335 165.947747 
L 142.593555 164.314036 
L 142.745775 163.987293 
L 143.202435 166.274489 
L 143.506874 163.660551 
L 143.659094 164.640778 
L 143.811314 164.640778 
L 143.963534 165.621005 
L 144.420194 163.333809 
L 144.572413 162.353582 
L 144.724633 162.353582 
L 145.029073 163.333809 
L 145.485733 160.393128 
L 145.637953 161.046613 
L 145.942392 161.046613 
L 146.551272 155.491994 
L 146.855712 155.491994 
L 147.007931 155.165251 
L 147.312371 151.571086 
L 147.616811 151.571086 
L 147.769031 151.244344 
L 148.073471 149.610632 
L 148.22569 147.650178 
L 148.68235 147.650178 
L 148.83457 146.996694 
L 148.98679 145.689724 
L 149.13901 145.362982 
L 149.29123 145.689724 
L 149.443449 147.323436 
L 149.595669 147.650178 
L 149.747889 147.650178 
L 149.900109 146.669951 
L 150.052329 147.323436 
L 150.204549 148.630405 
L 150.356769 151.244344 
L 150.661208 152.224571 
L 150.813428 151.571086 
L 150.965648 151.897828 
L 151.422308 157.125705 
L 151.878967 157.125705 
L 152.335627 160.71987 
L 152.487847 160.393128 
L 152.640067 159.739643 
L 152.944506 159.739643 
L 153.248946 162.02684 
L 153.553386 160.066386 
L 153.705606 160.393128 
L 154.162265 163.333809 
L 154.466705 160.71987 
L 154.618925 161.046613 
L 154.771145 161.046613 
L 155.075585 162.680324 
L 155.380024 160.393128 
L 155.684464 160.393128 
L 155.836684 162.02684 
L 155.988904 161.373355 
L 156.141124 160.066386 
L 156.293344 159.739643 
L 156.445564 160.066386 
L 156.750003 161.046613 
L 156.902223 160.71987 
L 157.358883 156.798963 
L 157.511103 157.125705 
L 157.663323 157.125705 
L 157.967762 152.878055 
L 158.272202 145.689724 
L 158.424422 144.709498 
L 158.728862 136.867682 
L 159.185521 117.263144 
L 159.489961 109.748071 
L 159.794401 94.064441 
L 160.25106 74.459903 
L 160.5555 61.716953 
L 161.01216 35.904311 
L 161.16438 32.96363 
L 161.316599 34.924084 
L 162.382139 66.291345 
L 162.686578 73.479676 
L 163.143238 87.202853 
L 163.447678 85.569141 
L 163.599898 87.202853 
L 164.056557 114.649206 
L 164.969876 176.403501 
L 165.122096 177.71047 
L 165.883196 188.492966 
L 166.035416 189.146451 
L 166.339855 191.433647 
L 166.492075 191.433647 
L 166.948735 194.374327 
L 167.100955 193.3941 
L 167.405394 196.334781 
L 167.557614 196.334781 
L 167.709834 197.968493 
L 167.862054 197.968493 
L 168.014274 198.295235 
L 168.166494 200.255689 
L 168.318714 200.582431 
L 168.470934 201.8894 
L 168.623153 202.216143 
L 168.775373 203.523112 
L 169.079813 203.523112 
L 169.688693 208.424246 
L 169.840912 208.424246 
L 169.993132 207.444019 
L 170.145352 207.444019 
L 170.449792 210.711442 
L 171.058671 212.018412 
L 171.210891 212.018412 
L 171.363111 212.345154 
L 171.515331 212.018412 
L 171.667551 212.345154 
L 171.819771 209.404473 
L 171.971991 209.077731 
L 172.27643 210.3847 
L 172.42865 209.404473 
L 172.58087 207.444019 
L 172.73309 203.849854 
L 172.88531 203.523112 
L 173.03753 203.523112 
L 173.18975 202.216143 
L 173.494189 196.008039 
L 173.798629 191.433647 
L 173.950849 191.106904 
L 174.255289 187.839481 
L 174.559728 181.304635 
L 174.864168 179.017439 
L 175.016388 178.037212 
L 175.473048 171.502366 
L 175.625268 171.175624 
L 175.929707 171.175624 
L 176.538587 167.581459 
L 176.690807 169.541912 
L 176.843027 169.868655 
L 176.995246 169.868655 
L 177.299686 166.601232 
L 177.604126 168.234943 
L 177.756346 169.541912 
L 177.908566 169.541912 
L 178.213005 166.927974 
L 178.365225 168.234943 
L 178.517445 167.908201 
L 178.669665 168.561686 
L 179.126325 166.601232 
L 179.430764 168.561686 
L 179.582984 168.561686 
L 180.039644 165.947747 
L 180.344084 167.254716 
L 180.496304 167.581459 
L 180.648523 166.274489 
L 180.800743 165.947747 
L 180.952963 165.294263 
L 181.105183 165.294263 
L 181.257403 165.621005 
L 181.409623 166.601232 
L 181.714063 164.314036 
L 181.866282 164.314036 
L 182.170722 163.333809 
L 182.322942 163.987293 
L 182.475162 163.987293 
L 182.779602 163.333809 
L 182.931821 162.680324 
L 183.236261 164.314036 
L 183.388481 163.987293 
L 183.692921 162.680324 
L 183.845141 163.007066 
L 183.997361 162.680324 
L 184.14958 164.96752 
L 184.45402 162.353582 
L 184.75846 161.373355 
L 185.0629 163.333809 
L 185.519559 161.700097 
L 185.671779 161.373355 
L 185.976219 163.007066 
L 186.128439 162.680324 
L 186.432879 161.046613 
L 186.585098 161.373355 
L 186.889538 162.680324 
L 187.041758 162.680324 
L 187.346198 161.373355 
L 187.498418 161.373355 
L 187.650638 161.046613 
L 187.955077 163.333809 
L 188.259517 160.71987 
L 188.411737 161.046613 
L 188.563957 161.373355 
L 188.716177 163.007066 
L 188.868397 163.333809 
L 189.020616 162.680324 
L 189.325056 160.71987 
L 189.477276 163.007066 
L 189.629496 162.680324 
L 189.781716 162.680324 
L 190.238375 159.739643 
L 190.542815 162.680324 
L 190.695035 162.680324 
L 190.999475 159.739643 
L 191.151695 159.412901 
L 191.456134 161.373355 
L 191.608354 161.373355 
L 191.760574 159.739643 
L 191.912794 159.739643 
L 192.065014 159.412901 
L 192.217234 160.71987 
L 192.369454 161.046613 
L 192.521673 161.046613 
L 192.826113 158.759417 
L 193.282773 161.373355 
L 193.434993 161.046613 
L 193.739432 158.105932 
L 193.891652 158.105932 
L 194.043872 159.412901 
L 194.196092 159.412901 
L 194.500532 156.145478 
L 194.652752 154.185024 
L 195.109411 155.818736 
L 195.566071 148.630405 
L 195.718291 148.630405 
L 196.022731 151.244344 
L 196.47939 148.957147 
L 196.63161 149.937374 
L 196.93605 153.858282 
L 197.08827 154.185024 
L 197.24049 153.858282 
L 197.392709 155.165251 
L 197.697149 160.393128 
L 197.849369 160.71987 
L 198.153809 158.105932 
L 198.306029 158.759417 
L 198.610468 161.046613 
L 198.762688 161.700097 
L 198.914908 161.046613 
L 199.067128 159.739643 
L 199.523788 163.333809 
L 199.676008 162.680324 
L 199.980447 158.759417 
L 200.437107 161.373355 
L 200.589327 161.373355 
L 200.741547 160.71987 
L 200.893767 159.086159 
L 201.045986 159.086159 
L 201.350426 162.02684 
L 201.502646 161.373355 
L 201.654866 157.452447 
L 202.111526 130.332836 
L 202.415965 99.945802 
L 202.872625 48.647261 
L 203.024845 47.340292 
L 203.329284 83.281945 
L 203.785944 146.343209 
L 204.090384 161.046613 
L 204.242604 161.046613 
L 204.394824 162.02684 
L 204.547043 162.02684 
L 204.699263 162.353582 
L 204.851483 161.700097 
L 205.155923 162.353582 
L 205.764802 164.640778 
L 206.069242 164.640778 
L 206.221462 164.96752 
L 206.373682 164.96752 
L 206.525902 165.294263 
L 206.830342 163.660551 
L 206.982561 163.333809 
L 207.134781 163.987293 
L 207.287001 165.294263 
L 207.439221 163.660551 
L 208.048101 163.660551 
L 208.35254 162.680324 
L 208.50476 162.680324 
L 208.65698 161.373355 
L 208.8092 163.333809 
L 208.96142 162.02684 
L 209.11364 161.700097 
L 209.418079 160.393128 
L 209.570299 160.393128 
L 209.722519 162.02684 
L 210.331399 158.432674 
L 210.483619 158.432674 
L 210.635838 159.412901 
L 210.788058 159.086159 
L 210.940278 157.125705 
L 211.092498 157.125705 
L 211.244718 156.47222 
L 211.396938 157.125705 
L 211.701378 155.491994 
L 212.158037 152.224571 
L 212.310257 152.551313 
L 212.462477 152.224571 
L 212.614697 151.571086 
L 213.071356 146.669951 
L 213.223576 146.343209 
L 213.375796 146.343209 
L 213.680236 144.056013 
L 213.984676 140.461848 
L 214.136895 139.808363 
L 214.289115 140.461848 
L 214.441335 140.135105 
L 214.897995 134.580486 
L 215.050215 136.54094 
L 215.202435 136.214198 
L 215.354654 136.54094 
L 215.811314 132.946775 
L 216.267974 136.214198 
L 216.572413 134.907229 
L 216.724633 135.233971 
L 217.333513 142.422301 
L 217.485733 141.768817 
L 217.637953 143.075786 
L 217.942392 148.303663 
L 218.246832 149.610632 
L 218.399052 149.28389 
L 218.551272 149.937374 
L 219.007931 156.145478 
L 219.160151 155.165251 
L 219.464591 155.165251 
L 219.769031 159.739643 
L 219.921251 159.412901 
L 220.073471 158.759417 
L 220.22569 157.452447 
L 220.53013 159.086159 
L 220.68235 161.046613 
L 220.83457 160.71987 
L 220.98679 159.086159 
L 221.13901 158.759417 
L 221.29123 158.105932 
L 221.595669 160.71987 
L 221.747889 161.046613 
L 221.900109 159.412901 
L 222.052329 159.086159 
L 222.356769 159.086159 
L 222.508989 161.046613 
L 222.813428 159.412901 
L 223.117868 157.452447 
L 223.422308 159.739643 
L 223.574528 159.412901 
L 224.031187 157.452447 
L 224.335627 160.393128 
L 224.487847 159.739643 
L 224.792287 157.452447 
L 224.944506 157.125705 
L 225.401166 161.373355 
L 225.705606 158.759417 
L 225.857826 158.105932 
L 226.162265 160.393128 
L 226.771145 154.838509 
L 226.923365 156.145478 
L 227.075585 156.145478 
L 227.380024 151.897828 
L 227.684464 148.303663 
L 228.141124 149.937374 
L 228.445564 147.976921 
L 228.597783 148.303663 
L 229.054443 152.551313 
L 229.206663 153.204797 
L 229.358883 152.878055 
L 229.511103 153.53154 
L 229.967762 160.066386 
L 230.119982 160.393128 
L 230.424422 159.739643 
L 230.576642 161.046613 
L 230.728862 161.373355 
L 231.033301 157.125705 
L 231.794401 142.095559 
L 233.01216 103.213225 
L 233.468819 95.698152 
L 234.077699 75.113387 
L 234.229919 73.479676 
L 234.534358 54.855365 
L 234.838798 39.498476 
L 235.447678 23.161361 
L 235.599898 17.933485 
L 235.752117 17.28 
L 235.904337 31.003177 
L 236.513217 122.817763 
L 236.969876 161.700097 
L 237.274316 171.175624 
L 237.426536 170.848882 
L 237.578756 171.502366 
L 238.035416 179.997666 
L 238.492075 179.997666 
L 238.644295 180.977893 
L 238.948735 184.572058 
L 239.100955 184.245316 
L 239.253175 184.245316 
L 239.557614 183.591831 
L 239.862054 186.532512 
L 240.166494 184.572058 
L 240.470934 184.572058 
L 240.775373 189.146451 
L 241.232033 186.859254 
L 241.384253 187.185997 
L 241.688693 191.433647 
L 241.840912 191.760389 
L 241.993132 190.126677 
L 242.145352 190.126677 
L 242.297572 191.106904 
L 242.602012 194.047585 
L 242.754232 194.374327 
L 242.906452 193.720843 
L 243.210891 193.720843 
L 243.515331 196.988266 
L 243.971991 194.70107 
L 244.12421 195.354554 
L 244.58087 198.621977 
L 244.73309 197.968493 
L 245.03753 196.008039 
L 245.18975 196.988266 
L 245.341969 199.275462 
L 245.494189 198.621977 
L 245.950849 194.374327 
L 246.103069 194.374327 
L 246.255289 195.354554 
L 246.407509 194.047585 
L 246.711948 188.166224 
L 246.864168 188.166224 
L 247.016388 188.492966 
L 247.168608 188.492966 
L 247.777487 179.344182 
L 247.929707 179.997666 
L 248.234147 176.730243 
L 248.538587 171.502366 
L 248.690807 170.195397 
L 248.843027 171.502366 
L 248.995246 171.829109 
L 249.299686 167.908201 
L 249.604126 166.601232 
L 250.060786 168.561686 
L 250.365225 164.640778 
L 250.517445 165.621005 
L 250.821885 168.561686 
L 251.278545 165.947747 
L 251.430764 165.947747 
L 251.735204 169.541912 
L 252.039644 167.254716 
L 252.344084 165.621005 
L 252.648523 168.888428 
L 252.800743 167.254716 
L 252.952963 166.927974 
L 253.257403 165.621005 
L 253.409623 167.908201 
L 253.561843 168.234943 
L 254.018502 165.294263 
L 254.170722 165.947747 
L 254.322942 167.254716 
L 254.475162 167.581459 
L 254.627382 167.581459 
L 254.931821 165.621005 
L 255.084041 165.947747 
L 255.388481 167.581459 
L 255.540701 167.581459 
L 255.997361 163.007066 
L 256.14958 163.660551 
L 256.45402 160.393128 
L 256.75846 154.185024 
L 257.0629 151.571086 
L 257.21512 147.976921 
L 259.193978 66.94483 
L 259.346198 64.004149 
L 259.498418 64.004149 
L 260.259517 80.341264 
L 260.411737 80.994749 
L 260.868397 88.509822 
L 261.477276 85.895883 
L 261.629496 86.87611 
L 261.781716 86.549368 
L 262.086156 93.084214 
L 262.390595 110.401556 
L 262.999475 157.77919 
L 263.303915 168.888428 
L 263.608354 175.423274 
L 263.760574 176.403501 
L 264.673893 190.780162 
L 264.826113 191.106904 
L 264.978333 191.760389 
L 265.434993 197.968493 
L 265.739432 196.661524 
L 265.891652 197.315008 
L 266.500532 201.8894 
L 266.652752 201.235916 
L 266.957191 202.869627 
L 267.261631 205.810308 
L 267.413851 206.13705 
L 267.718291 207.770762 
L 267.870511 207.770762 
L 268.022731 210.3847 
L 268.17495 210.711442 
L 268.47939 210.711442 
L 268.63161 211.038185 
L 268.93605 214.959092 
L 269.08827 216.592804 
L 269.392709 215.612577 
L 269.849369 218.88 
L 270.306029 218.88 
L 270.610468 216.919546 
L 270.762688 216.919546 
L 271.067128 216.266062 
L 271.371568 212.998639 
L 271.676008 208.750989 
L 271.980447 207.117277 
L 272.437107 198.621977 
L 272.589327 197.315008 
L 273.654866 182.284862 
L 273.807086 181.95812 
L 274.263745 176.076759 
L 274.415965 176.076759 
L 274.568185 176.403501 
L 274.720405 175.750016 
L 274.872625 174.116305 
L 275.024845 174.116305 
L 275.177065 173.46282 
L 275.329284 173.46282 
L 275.633724 174.769789 
L 275.938164 171.829109 
L 276.090384 171.502366 
L 276.394824 174.769789 
L 276.851483 170.522139 
L 277.003703 171.175624 
L 277.155923 171.175624 
L 277.308143 173.46282 
L 277.612583 171.829109 
L 277.764802 169.868655 
L 277.917022 170.195397 
L 278.069242 170.195397 
L 278.221462 171.829109 
L 278.373682 172.155851 
L 278.678122 170.195397 
L 278.830342 169.541912 
L 278.982561 169.541912 
L 279.134781 171.175624 
L 279.743661 167.581459 
L 280.048101 170.195397 
L 280.20032 169.868655 
L 280.35254 169.21517 
L 280.50476 167.254716 
L 280.65698 167.254716 
L 281.11364 169.868655 
L 281.26586 166.927974 
L 281.418079 166.601232 
L 281.722519 169.21517 
L 281.874739 168.888428 
L 282.179179 165.621005 
L 282.635838 167.581459 
L 283.092498 164.96752 
L 283.244718 164.96752 
L 283.396938 166.274489 
L 283.549158 166.601232 
L 283.701378 166.274489 
L 283.853597 164.640778 
L 284.005817 164.314036 
L 284.158037 165.294263 
L 284.462477 169.21517 
L 284.614697 166.927974 
L 284.766917 166.601232 
L 284.919136 165.294263 
L 285.071356 165.947747 
L 285.223576 165.947747 
L 285.375796 166.927974 
L 285.680236 165.294263 
L 285.832456 164.314036 
L 285.984676 164.314036 
L 286.136895 165.621005 
L 286.289115 165.621005 
L 286.441335 165.947747 
L 286.593555 163.333809 
L 286.745775 163.333809 
L 286.897995 163.660551 
L 287.202435 165.947747 
L 287.354654 165.947747 
L 287.659094 163.007066 
L 287.811314 164.314036 
L 287.963534 166.601232 
L 288.115754 166.274489 
L 288.267974 165.621005 
L 288.420194 165.621005 
L 288.572413 164.314036 
L 289.029073 166.274489 
L 289.181293 165.621005 
L 289.333513 163.987293 
L 289.485733 163.660551 
L 289.942392 165.947747 
L 290.246832 164.640778 
L 290.399052 162.680324 
L 290.855712 166.274489 
L 291.007931 165.947747 
L 291.160151 165.294263 
L 291.464591 163.007066 
L 291.616811 165.294263 
L 291.769031 165.294263 
L 292.073471 163.987293 
L 292.22569 162.02684 
L 292.37791 162.353582 
L 292.68235 164.640778 
L 292.83457 164.314036 
L 293.13901 162.353582 
L 293.29123 162.353582 
L 293.595669 164.96752 
L 293.747889 165.294263 
L 294.052329 161.373355 
L 294.356769 163.660551 
L 294.508989 163.660551 
L 294.813428 162.680324 
L 294.965648 162.353582 
L 295.422308 163.987293 
L 295.574528 164.314036 
L 295.878967 161.700097 
L 296.031187 163.333809 
L 296.183407 163.007066 
L 296.335627 163.660551 
L 296.487847 163.660551 
L 296.792287 161.373355 
L 296.944506 161.700097 
L 297.248946 164.96752 
L 297.401166 164.314036 
L 297.705606 161.373355 
L 297.857826 163.007066 
L 298.010046 162.680324 
L 298.162265 163.987293 
L 298.314485 163.660551 
L 298.618925 161.373355 
L 298.771145 161.373355 
L 299.075585 163.333809 
L 299.227805 163.333809 
L 299.380024 163.007066 
L 299.532244 161.046613 
L 299.684464 160.71987 
L 299.836684 161.046613 
L 299.988904 161.700097 
L 300.597783 156.47222 
L 300.750003 156.798963 
L 300.902223 156.798963 
L 301.054443 156.47222 
L 301.511103 150.917601 
L 301.663323 150.590859 
L 301.815542 151.244344 
L 302.119982 150.590859 
L 302.424422 149.610632 
L 302.728862 154.185024 
L 302.881082 155.491994 
L 303.033301 153.858282 
L 303.337741 154.511767 
L 303.642181 157.452447 
L 303.794401 157.77919 
L 303.946621 159.739643 
L 304.098841 158.105932 
L 304.25106 158.105932 
L 304.70772 161.700097 
L 305.01216 159.086159 
L 305.16438 159.086159 
L 305.316599 159.412901 
L 305.468819 161.373355 
L 305.925479 158.759417 
L 306.077699 159.086159 
L 306.382139 160.393128 
L 306.534358 161.046613 
L 306.686578 159.739643 
L 306.838798 159.412901 
L 306.991018 158.759417 
L 307.447678 162.02684 
L 307.599898 162.353582 
L 307.752117 161.046613 
L 307.904337 157.77919 
L 308.208777 142.749044 
L 308.513217 112.688752 
L 309.122096 45.053096 
L 309.274316 42.439157 
L 309.426536 55.835592 
L 310.187635 157.452447 
L 310.339855 158.759417 
L 310.492075 159.086159 
L 310.644295 158.759417 
L 310.796515 160.71987 
L 310.948735 161.046613 
L 311.100955 160.71987 
L 311.253175 158.759417 
L 311.405394 159.086159 
L 312.014274 162.353582 
L 312.166494 160.71987 
L 312.318714 161.373355 
L 312.623153 163.987293 
L 312.775373 163.333809 
L 312.927593 163.333809 
L 313.079813 161.700097 
L 313.232033 161.373355 
L 313.384253 161.700097 
L 313.688693 162.680324 
L 313.840912 163.007066 
L 314.145352 159.739643 
L 314.297572 161.700097 
L 314.602012 162.353582 
L 314.754232 162.02684 
L 315.210891 158.759417 
L 315.515331 160.066386 
L 315.667551 160.066386 
L 315.819771 159.412901 
L 315.971991 158.105932 
L 316.12421 157.77919 
L 316.27643 158.759417 
L 316.88531 155.818736 
L 317.03753 154.838509 
L 317.18975 154.838509 
L 317.341969 155.165251 
L 317.494189 154.511767 
L 317.646409 152.878055 
L 317.798629 153.204797 
L 318.255289 151.571086 
L 318.407509 151.571086 
L 318.711948 148.630405 
L 318.864168 147.650178 
L 319.016388 148.303663 
L 319.320828 147.323436 
L 319.625268 143.402528 
L 319.929707 142.749044 
L 320.081927 143.402528 
L 320.386367 140.135105 
L 320.538587 137.521167 
L 320.690807 136.867682 
L 320.995246 138.174652 
L 321.451906 133.273517 
L 321.604126 133.600259 
L 321.908566 134.580486 
L 322.060786 134.253744 
L 322.517445 130.332836 
L 322.669665 131.313063 
L 322.821885 130.986321 
L 322.974105 130.986321 
L 323.430764 130.006094 
L 323.735204 132.946775 
L 323.887424 133.273517 
L 324.039644 133.273517 
L 324.191864 132.620032 
L 324.496304 135.887455 
L 324.952963 141.115332 
L 326.475162 150.264117 
L 326.627382 150.264117 
L 326.779602 150.590859 
L 326.931821 149.937374 
L 327.236261 150.590859 
L 327.388481 151.571086 
L 327.540701 151.571086 
L 327.692921 151.244344 
L 327.845141 150.264117 
L 327.997361 150.590859 
L 328.14958 152.224571 
L 328.3018 152.224571 
L 328.45402 152.551313 
L 328.60624 151.244344 
L 328.75846 150.917601 
L 328.91068 151.244344 
L 329.0629 151.244344 
L 329.21512 150.917601 
L 329.367339 151.571086 
L 329.519559 150.917601 
L 329.671779 150.917601 
L 329.976219 151.897828 
L 330.128439 152.224571 
L 330.280659 152.224571 
L 330.432879 151.571086 
L 330.585098 150.264117 
L 331.041758 151.897828 
L 331.498418 150.264117 
L 331.650638 150.264117 
L 331.955077 151.244344 
L 332.107297 150.264117 
L 332.259517 150.917601 
L 332.411737 148.957147 
L 332.563957 149.28389 
L 332.716177 150.264117 
L 332.868397 150.264117 
L 333.020616 149.610632 
L 333.172836 147.323436 
L 333.325056 147.650178 
L 333.629496 146.343209 
L 333.781716 146.343209 
L 333.933936 146.016467 
L 334.086156 142.749044 
L 334.238375 142.095559 
L 334.390595 140.461848 
L 334.695035 141.442075 
L 334.999475 139.154878 
L 335.303915 137.847909 
L 335.456134 138.174652 
L 335.608354 137.194425 
L 336.521673 120.85731 
L 337.130553 100.272545 
L 337.282773 97.985348 
L 337.739432 83.281945 
L 338.196092 66.291345 
L 338.500532 59.103015 
L 338.957191 37.538023 
L 339.109411 36.884538 
L 339.870511 49.627488 
L 340.32717 62.370438 
L 340.47939 63.677407 
L 341.24049 78.38081 
L 341.392709 78.707553 
L 341.544929 79.361037 
L 341.697149 81.648233 
L 342.001589 93.084214 
L 342.458249 118.570113 
L 343.067128 163.333809 
L 343.371568 169.21517 
L 343.828227 177.056985 
L 344.284887 179.017439 
L 344.741547 182.938347 
L 344.893767 183.265089 
L 345.045986 182.611605 
L 345.807086 185.552285 
L 346.111526 185.552285 
L 346.263745 186.532512 
L 346.568185 189.799935 
L 346.720405 190.126677 
L 346.872625 189.799935 
L 347.633724 194.70107 
L 347.785944 194.047585 
L 348.090384 194.70107 
L 348.394824 198.295235 
L 348.547043 198.295235 
L 348.699263 197.64175 
L 348.851483 197.968493 
L 349.003703 198.621977 
L 349.155923 200.909173 
L 349.308143 201.235916 
L 349.460363 202.216143 
L 349.612583 201.8894 
L 349.764802 201.8894 
L 349.917022 201.562658 
L 350.221462 203.19637 
L 350.373682 202.216143 
L 350.525902 202.542885 
L 350.678122 202.216143 
L 350.830342 202.869627 
L 350.982561 202.542885 
L 351.134781 202.542885 
L 351.287001 201.8894 
L 351.591441 198.94872 
L 351.743661 197.64175 
L 351.895881 198.295235 
L 352.20032 195.681297 
L 352.65698 189.473193 
L 352.96142 188.166224 
L 353.570299 176.403501 
L 353.874739 173.789562 
L 354.331399 166.927974 
L 354.483619 165.294263 
L 354.635838 165.294263 
L 354.940278 162.680324 
L 355.244718 159.086159 
L 355.396938 158.432674 
L 355.549158 159.412901 
L 355.701378 159.086159 
L 355.853597 159.086159 
L 356.005817 158.759417 
L 356.310257 156.798963 
L 356.614697 159.086159 
L 356.766917 159.086159 
L 356.919136 157.452447 
L 357.071356 157.77919 
L 357.223576 157.452447 
L 357.528016 159.739643 
L 357.984676 156.798963 
L 358.136895 157.125705 
L 358.289115 159.086159 
L 358.897995 157.77919 
L 359.050215 157.77919 
L 359.354654 160.066386 
L 359.659094 158.432674 
L 359.811314 158.105932 
L 359.963534 158.432674 
L 360.267974 160.71987 
L 360.420194 160.066386 
L 360.572413 157.77919 
L 360.724633 157.452447 
L 360.876853 157.452447 
L 361.181293 158.759417 
L 361.333513 158.759417 
L 361.485733 157.452447 
L 361.637953 157.452447 
L 361.790172 157.125705 
L 361.942392 157.452447 
L 362.094612 158.432674 
L 362.246832 158.432674 
L 362.399052 156.47222 
L 362.551272 156.47222 
L 362.703492 156.145478 
L 363.007931 157.452447 
L 363.160151 156.798963 
L 363.464591 154.838509 
L 363.921251 156.47222 
L 364.073471 156.145478 
L 364.37791 154.185024 
L 364.53013 153.858282 
L 364.68235 155.165251 
L 364.83457 155.491994 
L 364.98679 155.165251 
L 365.29123 153.53154 
L 365.443449 153.53154 
L 365.900109 151.571086 
L 366.661208 139.808363 
L 367.726747 108.767844 
L 368.335627 85.242399 
L 368.792287 69.558768 
L 369.096726 56.815818 
L 369.553386 44.072869 
L 369.857826 33.943857 
L 370.162265 41.132188 
L 370.466705 50.607715 
L 371.532244 67.598314 
L 371.684464 68.251799 
L 371.988904 71.519222 
L 372.141124 73.806418 
L 372.293344 73.479676 
L 372.445564 72.172707 
L 372.597783 72.499449 
L 372.750003 76.093614 
L 373.206663 103.539968 
L 373.967762 160.71987 
L 374.272202 169.21517 
L 374.576642 173.136078 
L 374.881082 177.383728 
L 375.185521 178.690697 
L 375.337741 179.017439 
L 375.489961 179.997666 
L 375.946621 184.572058 
L 376.25106 183.591831 
L 376.85994 188.166224 
L 377.01216 188.166224 
L 377.16438 188.492966 
L 377.316599 188.166224 
L 377.468819 190.45342 
L 377.621039 190.780162 
L 377.773259 192.087131 
L 377.925479 192.087131 
L 378.077699 191.760389 
L 378.534358 196.008039 
L 378.686578 196.988266 
L 378.838798 196.008039 
L 379.752117 199.928947 
L 379.904337 199.602204 
L 380.208777 201.8894 
L 380.513217 202.542885 
L 380.665437 201.8894 
L 381.274316 205.483566 
L 381.730976 203.19637 
L 381.883196 202.542885 
L 382.035416 203.523112 
L 382.187635 203.523112 
L 382.339855 203.19637 
L 383.557614 189.146451 
L 383.862054 185.552285 
L 384.166494 180.977893 
L 384.470934 174.769789 
L 384.623153 174.443047 
L 384.775373 171.829109 
L 384.927593 171.502366 
L 385.384253 163.007066 
L 385.993132 160.066386 
L 386.297572 156.47222 
L 386.449792 155.491994 
L 386.754232 156.47222 
L 387.363111 154.185024 
L 387.515331 156.145478 
L 387.667551 156.47222 
L 388.12421 154.838509 
L 388.27643 154.838509 
L 388.58087 156.798963 
L 388.73309 156.47222 
L 389.03753 154.511767 
L 389.18975 155.165251 
L 389.341969 157.452447 
L 389.646409 156.798963 
L 389.950849 153.858282 
L 390.255289 155.818736 
L 390.407509 155.818736 
L 390.559728 156.145478 
L 390.711948 154.185024 
L 390.864168 154.511767 
L 391.016388 154.185024 
L 391.320828 155.491994 
L 391.473048 155.165251 
L 391.777487 153.204797 
L 392.081927 154.838509 
L 392.234147 155.165251 
L 392.538587 153.204797 
L 392.690807 152.224571 
L 392.995246 152.878055 
L 393.147466 154.185024 
L 393.604126 151.571086 
L 393.756346 151.897828 
L 394.060786 154.185024 
L 394.365225 152.224571 
L 394.517445 152.224571 
L 394.669665 151.897828 
L 394.974105 154.185024 
L 395.430764 151.244344 
L 395.582984 151.244344 
L 395.735204 153.204797 
L 395.887424 152.551313 
L 396.039644 152.878055 
L 396.191864 152.224571 
L 396.344084 150.590859 
L 396.800743 152.878055 
L 397.105183 151.244344 
L 397.257403 150.264117 
L 397.561843 151.897828 
L 397.714063 151.897828 
L 397.866282 151.571086 
L 398.170722 150.264117 
L 398.627382 152.551313 
L 398.779602 151.897828 
L 399.084041 149.937374 
L 399.236261 149.937374 
L 399.388481 150.590859 
L 399.540701 152.224571 
L 400.14958 149.610632 
L 400.3018 151.244344 
L 400.45402 151.244344 
L 400.60624 151.897828 
L 400.91068 149.937374 
L 401.0629 150.264117 
L 401.21512 151.571086 
L 401.367339 151.897828 
L 401.519559 151.244344 
L 401.671779 149.937374 
L 401.823999 149.937374 
L 401.976219 150.264117 
L 402.128439 151.897828 
L 402.280659 152.224571 
L 402.737318 149.28389 
L 403.193978 149.28389 
L 403.346198 148.630405 
L 403.498418 146.343209 
L 403.650638 146.343209 
L 403.802857 145.362982 
L 404.107297 146.016467 
L 404.259517 144.709498 
L 404.716177 139.154878 
L 405.020616 140.78859 
L 405.477276 139.154878 
L 405.933936 144.382755 
L 406.086156 144.382755 
L 406.238375 144.056013 
L 406.542815 145.689724 
L 406.847255 148.957147 
L 406.999475 149.28389 
L 407.151695 148.957147 
L 407.303915 149.28389 
L 407.760574 152.224571 
L 408.065014 152.224571 
L 408.217234 151.571086 
L 408.521673 152.551313 
L 408.673893 152.224571 
L 408.826113 151.571086 
L 408.978333 151.571086 
L 409.130553 151.244344 
L 409.434993 152.224571 
L 409.587213 151.897828 
L 409.891652 149.937374 
L 410.043872 149.937374 
L 410.196092 151.244344 
L 410.348312 151.244344 
L 410.500532 150.917601 
L 410.652752 150.264117 
L 410.804972 150.917601 
L 410.957191 150.590859 
L 411.261631 144.709498 
L 411.566071 125.758444 
L 412.63161 32.636888 
L 412.78383 41.785673 
L 413.544929 138.501394 
L 414.153809 154.838509 
L 414.306029 153.53154 
L 414.458249 150.917601 
L 414.610468 150.264117 
L 415.067128 154.185024 
L 415.523788 153.204797 
L 415.828227 156.145478 
L 416.132667 154.838509 
L 416.284887 154.511767 
L 416.437107 153.858282 
L 416.589327 154.511767 
L 416.741547 156.145478 
L 416.893767 155.818736 
L 417.045986 154.511767 
L 417.350426 153.858282 
L 417.502646 153.858282 
L 417.654866 155.491994 
L 418.263745 151.897828 
L 418.568185 153.204797 
L 418.872625 152.551313 
L 419.177065 150.264117 
L 419.481504 150.264117 
L 419.633724 150.590859 
L 419.785944 150.264117 
L 419.938164 148.957147 
L 420.090384 146.343209 
L 420.242604 147.650178 
L 420.394824 146.996694 
L 420.547043 147.323436 
L 420.699263 146.343209 
L 421.003703 143.075786 
L 421.155923 143.075786 
L 421.460363 143.729271 
L 421.612583 142.095559 
L 421.917022 137.194425 
L 422.069242 136.867682 
L 422.373682 138.501394 
L 422.525902 136.867682 
L 422.830342 132.620032 
L 422.982561 131.313063 
L 423.134781 130.986321 
L 423.287001 131.639806 
L 423.439221 130.986321 
L 423.743661 126.738671 
L 424.048101 125.431702 
L 424.20032 125.431702 
L 424.65698 122.164279 
L 424.8092 122.491021 
L 424.96142 123.79799 
L 425.11364 122.817763 
L 425.26586 123.144506 
L 425.418079 121.837536 
L 425.570299 121.837536 
L 425.722519 123.471248 
L 426.026959 128.04564 
L 426.179179 129.025867 
L 426.331399 129.025867 
L 427.092498 137.194425 
L 427.244718 137.521167 
L 427.549158 141.768817 
L 427.853597 145.03624 
L 428.005817 145.362982 
L 428.158037 145.03624 
L 428.462477 146.669951 
L 428.766917 150.264117 
L 429.223576 147.323436 
L 429.680236 150.590859 
L 429.984676 148.957147 
L 430.289115 148.957147 
L 430.441335 150.264117 
L 430.593555 150.590859 
L 430.745775 150.590859 
L 431.050215 149.28389 
L 431.202435 149.610632 
L 431.506874 150.590859 
L 431.811314 149.937374 
L 431.963534 148.957147 
L 432.115754 150.590859 
L 432.420194 150.590859 
L 432.572413 149.28389 
L 432.724633 148.957147 
L 432.876853 147.976921 
L 433.333513 149.610632 
L 433.637953 147.323436 
L 433.790172 147.650178 
L 434.094612 148.957147 
L 434.246832 148.957147 
L 434.399052 149.28389 
L 434.703492 147.976921 
L 435.007931 149.28389 
L 435.312371 148.630405 
L 435.464591 147.976921 
L 435.616811 150.264117 
L 435.921251 148.303663 
L 436.073471 147.976921 
L 436.53013 144.056013 
L 436.68235 144.382755 
L 436.83457 144.382755 
L 437.13901 142.422301 
L 437.443449 138.501394 
L 437.595669 138.174652 
L 437.747889 139.154878 
L 437.900109 139.154878 
L 438.052329 139.481621 
L 438.204549 139.154878 
L 438.508989 139.808363 
L 438.661208 141.115332 
L 438.813428 141.442075 
L 438.965648 141.115332 
L 439.726747 137.521167 
L 440.792287 112.36201 
L 441.248946 97.985348 
L 441.553386 91.12376 
L 442.010046 75.44013 
L 442.618925 56.162334 
L 442.923365 43.419384 
L 443.075585 41.785673 
L 444.141124 58.44953 
L 444.750003 54.855365 
L 444.902223 55.182107 
L 445.206663 54.528622 
L 445.358883 53.875138 
L 445.511103 54.20188 
L 445.663323 58.44953 
L 445.967762 77.727326 
L 446.881082 159.739643 
L 447.185521 169.21517 
L 447.489961 171.502366 
L 447.946621 177.71047 
L 448.098841 178.363955 
L 448.40328 178.363955 
L 448.5555 179.344182 
L 448.85994 182.611605 
L 449.01216 182.284862 
L 449.316599 181.304635 
L 449.621039 184.245316 
L 449.773259 185.225543 
L 449.925479 184.572058 
L 450.077699 184.898801 
L 450.229919 185.552285 
L 450.686578 189.146451 
L 450.991018 187.839481 
L 451.143238 188.819708 
L 451.447678 193.3941 
L 451.599898 193.3941 
L 451.752117 193.067358 
L 451.904337 192.413874 
L 452.056557 192.740616 
L 452.360997 195.354554 
L 452.665437 196.661524 
L 452.817657 195.681297 
L 453.122096 196.988266 
L 453.426536 200.909173 
L 453.578756 200.582431 
L 453.883196 198.621977 
L 454.339855 201.8894 
L 454.644295 199.928947 
L 454.796515 198.94872 
L 454.948735 199.275462 
L 455.100955 200.255689 
L 455.253175 200.255689 
L 455.557614 198.295235 
L 455.709834 196.334781 
L 455.862054 196.661524 
L 456.014274 196.334781 
L 456.318714 193.720843 
L 456.775373 188.492966 
L 457.079813 186.20577 
L 457.688693 176.076759 
L 457.993132 174.769789 
L 458.449792 164.640778 
L 458.602012 163.987293 
L 458.754232 163.987293 
L 459.058671 160.393128 
L 459.210891 157.77919 
L 459.363111 157.125705 
L 459.819771 158.759417 
L 459.971991 158.105932 
L 460.27643 155.818736 
L 460.88531 158.432674 
L 461.03753 156.47222 
L 461.341969 155.818736 
L 461.494189 157.77919 
L 461.798629 157.125705 
L 461.950849 155.818736 
L 462.255289 155.818736 
L 462.407509 157.452447 
L 462.559728 157.77919 
L 462.711948 157.452447 
L 463.016388 155.818736 
L 463.320828 157.77919 
L 463.473048 157.77919 
L 463.625268 157.452447 
L 463.929707 155.165251 
L 464.081927 155.165251 
L 464.386367 157.125705 
L 464.843027 153.858282 
L 464.995246 155.165251 
L 465.147466 155.491994 
L 465.299686 157.125705 
L 465.451906 156.798963 
L 465.756346 153.53154 
L 465.908566 153.858282 
L 466.060786 155.818736 
L 466.213005 155.491994 
L 466.669665 152.878055 
L 466.821885 152.878055 
L 466.974105 153.53154 
L 467.126325 152.551313 
L 467.582984 145.03624 
L 467.887424 143.075786 
L 468.191864 138.174652 
L 469.105183 110.401556 
L 469.561843 94.064441 
L 470.018502 78.38081 
L 470.475162 65.637861 
L 471.236261 47.013549 
L 471.692921 60.083241 
L 472.3018 68.905284 
L 472.75846 75.113387 
L 473.367339 71.519222 
L 473.671779 67.925057 
L 473.976219 76.420357 
L 474.280659 95.698152 
L 475.041758 151.244344 
L 475.346198 161.700097 
L 476.107297 174.769789 
L 476.411737 177.056985 
L 476.563957 177.383728 
L 476.868397 179.997666 
L 477.020616 182.284862 
L 477.629496 183.591831 
L 477.781716 184.898801 
L 477.933936 187.185997 
L 478.086156 186.532512 
L 478.238375 186.859254 
L 478.390595 186.20577 
L 478.542815 186.859254 
L 478.999475 192.087131 
L 479.151695 192.087131 
L 479.303915 191.433647 
L 479.456134 191.760389 
L 479.912794 196.661524 
L 480.065014 196.334781 
L 480.217234 195.681297 
L 480.369454 196.008039 
L 480.673893 198.94872 
L 480.826113 200.255689 
L 480.978333 200.582431 
L 481.130553 200.255689 
L 481.282773 200.909173 
L 481.434993 202.542885 
L 481.739432 203.19637 
L 481.891652 202.542885 
L 482.043872 201.235916 
L 482.348312 201.8894 
L 482.500532 201.8894 
L 482.652752 202.216143 
L 482.804972 201.235916 
L 483.109411 198.621977 
L 483.261631 198.295235 
L 483.413851 198.295235 
L 483.870511 193.067358 
L 484.022731 190.45342 
L 484.32717 189.473193 
L 484.78383 182.284862 
L 485.08827 179.344182 
L 485.24049 178.037212 
L 485.849369 168.888428 
L 486.001589 167.581459 
L 486.153809 168.561686 
L 486.458249 164.314036 
L 486.762688 160.71987 
L 486.914908 161.046613 
L 487.067128 160.393128 
L 487.219348 160.71987 
L 487.371568 160.71987 
L 487.523788 159.086159 
L 487.676008 159.412901 
L 487.828227 160.393128 
L 487.980447 160.066386 
L 488.132667 160.393128 
L 488.437107 157.77919 
L 488.741547 159.086159 
L 488.893767 159.086159 
L 489.045986 159.739643 
L 489.198206 159.739643 
L 489.350426 158.105932 
L 489.502646 158.105932 
L 489.654866 159.412901 
L 489.807086 159.412901 
L 489.959306 160.066386 
L 490.263745 158.105932 
L 490.415965 158.759417 
L 490.568185 158.432674 
L 490.720405 159.412901 
L 491.024845 158.105932 
L 491.177065 156.47222 
L 491.329284 156.798963 
L 491.481504 158.105932 
L 491.633724 158.105932 
L 491.785944 158.432674 
L 492.090384 155.491994 
L 492.242604 154.838509 
L 492.699263 158.105932 
L 493.003703 154.838509 
L 493.155923 154.838509 
L 493.612583 156.47222 
L 493.917022 153.858282 
L 494.069242 153.858282 
L 494.221462 154.185024 
L 494.373682 155.491994 
L 494.525902 155.165251 
L 494.830342 152.551313 
L 494.982561 152.878055 
L 495.134781 152.878055 
L 495.287001 154.838509 
L 495.743661 152.551313 
L 495.895881 152.878055 
L 496.35254 154.511767 
L 496.50476 154.511767 
L 496.65698 152.878055 
L 496.8092 152.878055 
L 496.96142 153.204797 
L 497.26586 154.185024 
L 497.570299 151.571086 
L 497.874739 154.185024 
L 498.026959 153.53154 
L 498.179179 153.858282 
L 498.483619 152.551313 
L 498.635838 151.897828 
L 498.788058 152.224571 
L 499.092498 154.511767 
L 499.244718 154.185024 
L 499.396938 152.878055 
L 499.549158 152.878055 
L 499.853597 154.511767 
L 500.462477 151.897828 
L 500.766917 153.858282 
L 500.919136 154.511767 
L 501.223576 151.571086 
L 501.680236 153.858282 
L 501.984676 153.204797 
L 502.136895 151.571086 
L 502.441335 153.204797 
L 502.593555 154.511767 
L 503.050215 152.878055 
L 503.202435 152.551313 
L 503.354654 152.878055 
L 503.506874 153.53154 
L 503.659094 153.204797 
L 503.811314 152.551313 
L 503.963534 151.244344 
L 504.115754 151.244344 
L 504.267974 152.224571 
L 504.420194 152.224571 
L 504.572413 152.551313 
L 504.876853 151.244344 
L 505.029073 150.917601 
L 505.333513 153.858282 
L 505.485733 153.53154 
L 505.942392 150.264117 
L 506.246832 153.204797 
L 506.399052 152.878055 
L 506.855712 151.244344 
L 507.160151 152.551313 
L 507.312371 152.551313 
L 507.616811 150.264117 
L 507.921251 152.224571 
L 508.073471 152.224571 
L 508.22569 151.571086 
L 508.37791 152.224571 
L 508.53013 151.571086 
L 508.68235 151.571086 
L 508.83457 151.897828 
L 508.98679 153.204797 
L 509.29123 151.571086 
L 509.595669 149.937374 
L 509.747889 150.264117 
L 509.900109 152.224571 
L 510.204549 149.28389 
L 510.508989 147.650178 
L 510.661208 148.303663 
L 510.813428 148.303663 
L 510.965648 147.323436 
L 511.270088 143.402528 
L 511.422308 142.749044 
L 511.574528 143.075786 
L 511.726747 142.749044 
L 512.183407 139.481621 
L 512.335627 139.808363 
L 512.487847 140.461848 
L 512.792287 143.729271 
L 512.944506 142.095559 
L 513.248946 143.402528 
L 513.705606 148.630405 
L 513.857826 149.28389 
L 514.010046 148.630405 
L 514.314485 151.897828 
L 514.466705 152.224571 
L 514.618925 153.204797 
L 514.771145 152.878055 
L 514.923365 152.224571 
L 515.380024 154.185024 
L 515.532244 153.53154 
L 515.836684 151.244344 
L 515.988904 151.571086 
L 516.445564 153.204797 
L 516.750003 151.244344 
L 516.902223 152.224571 
L 517.206663 156.47222 
L 517.358883 156.145478 
L 517.511103 152.224571 
L 517.967762 123.79799 
L 518.881082 38.191507 
L 519.033301 49.95423 
L 519.794401 156.47222 
L 519.946621 156.145478 
L 520.25106 153.858282 
L 520.5555 153.858282 
L 520.70772 152.878055 
L 521.01216 155.491994 
L 521.16438 155.818736 
L 521.316599 155.491994 
L 521.468819 154.838509 
L 521.621039 154.838509 
L 521.773259 156.145478 
L 521.925479 156.47222 
L 522.077699 156.145478 
L 522.382139 153.53154 
L 522.838798 156.145478 
L 523.295458 154.185024 
L 523.447678 154.511767 
L 523.752117 155.491994 
L 523.904337 155.165251 
L 524.208777 153.53154 
L 524.513217 155.165251 
L 524.817657 154.511767 
L 525.122096 151.897828 
L 525.426536 152.878055 
L 525.578756 153.204797 
L 525.730976 152.878055 
L 525.883196 150.590859 
L 526.035416 150.590859 
L 526.187635 151.244344 
L 526.339855 150.917601 
L 526.644295 149.28389 
L 526.948735 146.669951 
L 527.100955 147.650178 
L 527.253175 146.996694 
L 527.405394 146.996694 
L 527.862054 143.729271 
L 528.014274 142.749044 
L 528.166494 143.075786 
L 528.623153 138.828136 
L 528.775373 137.847909 
L 528.927593 137.847909 
L 529.079813 138.174652 
L 529.232033 137.521167 
L 529.536473 133.927002 
L 529.688693 133.273517 
L 529.840912 133.273517 
L 529.993132 133.927002 
L 530.145352 133.927002 
L 530.297572 133.273517 
L 530.602012 129.025867 
L 530.754232 129.679352 
L 530.906452 129.352609 
L 531.058671 129.352609 
L 531.515331 127.065413 
L 532.27643 130.332836 
L 532.42865 130.332836 
L 532.58087 131.639806 
L 532.88531 136.214198 
L 533.03753 136.54094 
L 533.18975 137.847909 
L 533.341969 138.174652 
L 533.646409 141.115332 
L 533.950849 144.382755 
L 534.407509 146.343209 
L 534.711948 150.590859 
L 534.864168 151.571086 
L 535.016388 150.264117 
L 535.168608 149.937374 
L 535.320828 151.897828 
L 535.625268 152.551313 
L 535.777487 153.53154 
L 535.929707 152.224571 
L 536.386367 154.511767 
L 536.538587 155.165251 
L 536.843027 152.878055 
L 536.995246 152.224571 
L 537.147466 152.551313 
L 537.451906 154.511767 
L 537.604126 153.858282 
L 537.756346 152.551313 
L 537.908566 152.878055 
L 538.060786 152.224571 
L 538.365225 153.204797 
L 538.517445 153.204797 
L 538.821885 151.571086 
L 539.126325 153.858282 
L 539.278545 153.858282 
L 539.430764 154.185024 
L 539.582984 152.551313 
L 539.887424 151.897828 
L 540.191864 153.858282 
L 540.344084 153.53154 
L 540.648523 151.571086 
L 540.800743 151.571086 
L 540.952963 152.551313 
L 541.561843 146.996694 
L 541.866282 146.996694 
L 542.018502 146.669951 
L 542.475162 140.78859 
L 542.931821 144.056013 
L 543.084041 143.729271 
L 543.388481 142.095559 
L 543.540701 142.422301 
L 543.692921 144.382755 
L 543.845141 144.056013 
L 544.3018 137.194425 
L 544.45402 137.194425 
L 544.60624 135.887455 
L 544.75846 133.600259 
L 547.498418 46.033323 
L 547.650638 45.053096 
L 547.802857 46.686807 
L 548.716177 69.232026 
L 548.868397 71.19248 
L 549.172836 79.034295 
L 549.325056 80.014522 
L 549.477276 79.361037 
L 549.629496 79.68778 
L 549.781716 79.68778 
L 550.238375 85.242399 
L 550.390595 88.836564 
L 550.695035 103.86671 
L 551.608354 170.195397 
L 551.912794 177.383728 
L 552.217234 180.651151 
L 552.369454 179.670924 
L 552.826113 185.552285 
L 552.978333 185.879028 
L 553.130553 185.552285 
L 553.282773 185.552285 
L 553.434993 185.879028 
L 553.891652 189.799935 
L 554.043872 189.799935 
L 554.196092 189.473193 
L 554.348312 189.799935 
L 554.804972 194.047585 
L 554.957191 194.70107 
L 555.109411 194.70107 
L 555.261631 196.008039 
L 555.413851 196.334781 
L 555.566071 197.968493 
L 555.718291 198.295235 
L 555.870511 199.602204 
L 556.022731 199.275462 
L 556.17495 199.602204 
L 556.32717 200.255689 
L 556.63161 202.869627 
L 556.78383 203.523112 
L 556.93605 202.542885 
L 557.08827 203.19637 
L 557.544929 207.117277 
L 557.697149 206.13705 
L 558.001589 207.444019 
L 558.153809 207.770762 
L 558.306029 209.077731 
L 558.458249 209.077731 
L 558.914908 207.117277 
L 559.067128 207.117277 
L 559.219348 208.097504 
L 559.371568 207.444019 
L 559.828227 202.869627 
L 560.132667 202.869627 
L 560.437107 199.275462 
L 560.741547 194.047585 
L 561.045986 191.433647 
L 561.350426 186.859254 
L 561.807086 179.670924 
L 561.959306 179.344182 
L 562.263745 174.443047 
L 562.568185 170.848882 
L 562.720405 170.522139 
L 562.872625 169.21517 
L 563.024845 168.888428 
L 563.177065 165.947747 
L 563.329284 165.621005 
L 563.481504 164.314036 
L 563.633724 164.314036 
L 563.785944 165.621005 
L 563.938164 165.294263 
L 564.394824 162.680324 
L 564.699263 164.96752 
L 564.851483 165.621005 
L 565.003703 164.96752 
L 565.155923 163.007066 
L 565.308143 163.007066 
L 565.460363 163.660551 
L 565.612583 164.96752 
L 565.917022 164.96752 
L 566.069242 163.333809 
L 566.221462 163.333809 
L 566.373682 163.660551 
L 566.678122 164.96752 
L 566.982561 163.987293 
L 567.134781 163.660551 
L 567.287001 163.987293 
L 567.591441 165.294263 
L 567.895881 163.660551 
L 568.048101 162.680324 
L 568.20032 162.680324 
L 568.35254 163.987293 
L 568.65698 164.640778 
L 568.96142 161.700097 
L 569.11364 161.373355 
L 569.418079 162.680324 
L 569.570299 162.02684 
L 569.722519 160.066386 
L 570.179179 160.066386 
L 570.331399 160.71987 
L 570.788058 158.432674 
L 570.940278 158.759417 
L 571.092498 160.393128 
L 571.244718 160.71987 
L 571.701378 155.818736 
L 571.853597 155.491994 
L 572.158037 152.551313 
L 572.766917 140.78859 
L 573.071356 135.560713 
L 573.680236 110.728298 
L 574.441335 82.301718 
L 575.354654 42.439157 
L 575.506874 40.478703 
L 576.876853 70.865737 
L 577.637953 80.668006 
L 577.942392 77.400583 
L 578.094612 80.014522 
L 578.399052 94.064441 
L 578.855712 127.718898 
L 579.312371 165.294263 
L 579.616811 174.443047 
L 579.769031 175.096532 
L 579.921251 176.403501 
L 580.53013 184.572058 
L 580.68235 184.245316 
L 580.83457 185.225543 
L 581.13901 189.146451 
L 581.29123 189.473193 
L 581.595669 188.819708 
L 581.747889 189.146451 
L 582.052329 193.067358 
L 582.204549 193.720843 
L 582.508989 192.740616 
L 582.813428 195.681297 
L 583.117868 198.94872 
L 583.270088 199.275462 
L 583.422308 198.621977 
L 583.574528 199.602204 
L 584.031187 204.503339 
L 584.183407 204.176596 
L 584.335627 204.176596 
L 584.487847 204.830081 
L 584.944506 209.077731 
L 585.096726 209.077731 
L 585.248946 208.750989 
L 585.401166 208.097504 
L 585.553386 209.077731 
L 585.705606 211.038185 
L 585.857826 210.711442 
L 586.314485 204.830081 
L 586.466705 205.483566 
L 586.618925 204.830081 
L 586.771145 203.523112 
L 587.227805 194.047585 
L 587.380024 191.433647 
L 587.532244 191.106904 
L 588.445564 175.096532 
L 588.750003 170.195397 
L 589.054443 166.274489 
L 589.206663 164.96752 
L 589.358883 164.640778 
L 589.967762 160.393128 
L 590.424422 163.333809 
L 590.728862 159.412901 
L 590.881082 159.086159 
L 591.337741 161.373355 
L 591.489961 161.046613 
L 591.794401 159.086159 
L 591.946621 159.739643 
L 592.098841 161.373355 
L 592.25106 161.373355 
L 592.40328 160.71987 
L 592.5555 159.412901 
L 592.70772 161.373355 
L 592.85994 160.71987 
L 593.01216 161.700097 
L 593.316599 160.71987 
L 593.468819 158.759417 
L 593.773259 159.412901 
L 593.925479 160.393128 
L 594.077699 160.066386 
L 594.382139 157.125705 
L 594.534358 157.125705 
L 594.838798 159.739643 
L 594.991018 159.086159 
L 595.295458 156.145478 
L 595.447678 156.47222 
L 595.752117 158.105932 
L 595.904337 157.77919 
L 596.208777 154.838509 
L 596.360997 155.165251 
L 596.665437 156.798963 
L 596.817657 156.798963 
L 597.122096 154.838509 
L 597.274316 154.511767 
L 597.730976 156.798963 
L 598.187635 154.185024 
L 598.492075 156.47222 
L 598.644295 156.145478 
L 599.100955 153.53154 
L 599.253175 155.165251 
L 599.405394 155.165251 
L 599.557614 154.838509 
L 599.709834 155.165251 
L 599.862054 153.858282 
L 600.014274 153.53154 
L 600.318714 155.165251 
L 600.470934 155.491994 
L 600.623153 153.858282 
L 600.927593 153.204797 
L 601.232033 154.185024 
L 601.384253 154.511767 
L 601.536473 153.204797 
L 601.688693 152.878055 
L 601.840912 153.204797 
L 601.993132 153.204797 
L 602.145352 154.511767 
L 602.297572 154.838509 
L 602.449792 154.185024 
L 602.602012 152.878055 
L 602.754232 153.53154 
L 602.906452 153.204797 
L 603.058671 154.838509 
L 603.210891 154.511767 
L 603.363111 153.858282 
L 603.515331 152.551313 
L 603.667551 152.224571 
L 603.819771 152.878055 
L 603.971991 154.185024 
L 604.12421 154.511767 
L 604.27643 152.551313 
L 604.42865 152.551313 
L 604.58087 153.858282 
L 605.03753 153.858282 
L 605.341969 152.551313 
L 605.494189 153.204797 
L 605.646409 154.511767 
L 605.798629 153.53154 
L 605.950849 153.53154 
L 606.255289 152.224571 
L 606.407509 151.897828 
L 606.559728 152.551313 
L 606.711948 153.858282 
L 606.864168 153.858282 
L 607.016388 153.204797 
L 607.320828 151.244344 
L 607.473048 151.571086 
L 607.777487 150.917601 
L 608.234147 147.323436 
L 608.690807 145.362982 
L 608.995246 141.115332 
L 609.147466 141.115332 
L 609.451906 142.422301 
L 609.604126 142.749044 
L 609.756346 142.095559 
L 609.908566 142.749044 
L 610.213005 145.689724 
L 610.365225 147.650178 
L 610.517445 147.650178 
L 610.669665 147.976921 
L 610.821885 147.976921 
L 610.974105 148.630405 
L 611.430764 152.551313 
L 611.887424 152.551313 
L 612.191864 155.165251 
L 612.344084 153.858282 
L 612.496304 153.858282 
L 612.800743 152.878055 
L 613.105183 154.511767 
L 613.561843 151.897828 
L 614.018502 153.858282 
L 614.170722 153.858282 
L 614.322942 152.224571 
L 614.475162 151.897828 
L 614.627382 152.551313 
L 614.931821 155.165251 
L 615.084041 154.185024 
L 615.388481 141.768817 
L 615.845141 109.748071 
L 616.60624 39.825219 
L 616.75846 43.746126 
L 617.21512 105.500421 
L 617.519559 137.847909 
L 617.823999 148.957147 
L 618.128439 153.858282 
L 618.432879 155.165251 
L 618.585098 153.204797 
L 618.737318 152.878055 
L 618.889538 153.204797 
L 619.041758 153.204797 
L 619.650638 156.47222 
L 619.802857 156.145478 
L 619.955077 155.165251 
L 620.107297 155.491994 
L 620.259517 157.77919 
L 620.563957 157.125705 
L 620.716177 155.818736 
L 620.868397 156.145478 
L 621.020616 155.165251 
L 621.325056 156.798963 
L 621.477276 157.125705 
L 621.781716 154.185024 
L 621.933936 154.511767 
L 622.390595 156.47222 
L 622.542815 154.511767 
L 622.695035 154.185024 
L 622.847255 153.53154 
L 622.999475 153.53154 
L 623.151695 154.511767 
L 623.303915 154.511767 
L 623.608354 150.917601 
L 623.760574 150.590859 
L 623.912794 151.244344 
L 624.217234 153.53154 
L 624.521673 149.28389 
L 624.673893 149.28389 
L 624.978333 150.917601 
L 625.282773 148.630405 
L 625.587213 145.03624 
L 625.739432 146.996694 
L 625.891652 146.996694 
L 626.043872 147.976921 
L 626.500532 141.442075 
L 626.652752 142.095559 
L 626.804972 143.402528 
L 626.957191 142.749044 
L 627.109411 140.78859 
L 627.261631 137.194425 
L 627.566071 136.54094 
L 627.718291 137.194425 
L 627.870511 136.214198 
L 628.32717 130.986321 
L 628.47939 130.659579 
L 628.63161 130.986321 
L 628.78383 130.659579 
L 629.24049 126.738671 
L 629.392709 126.738671 
L 629.697149 127.392156 
L 629.849369 126.411929 
L 630.153809 123.471248 
L 630.306029 123.79799 
L 630.610468 126.411929 
L 630.762688 126.411929 
L 630.914908 125.431702 
L 631.067128 125.431702 
L 631.523788 133.273517 
L 631.676008 133.273517 
L 631.828227 132.946775 
L 632.132667 135.233971 
L 632.437107 140.461848 
L 632.589327 141.115332 
L 632.741547 140.78859 
L 632.893767 143.075786 
L 633.045986 142.422301 
L 633.350426 146.669951 
L 633.502646 147.323436 
L 633.654866 146.343209 
L 633.807086 146.669951 
L 634.111526 149.610632 
L 634.415965 153.53154 
L 634.568185 151.571086 
L 634.720405 151.244344 
L 634.872625 151.244344 
L 635.024845 152.551313 
L 635.329284 152.551313 
L 635.481504 151.571086 
L 635.633724 151.571086 
L 635.785944 151.244344 
L 636.090384 153.204797 
L 636.242604 153.204797 
L 636.699263 150.917601 
L 636.851483 152.551313 
L 637.003703 152.878055 
L 637.308143 152.224571 
L 637.612583 150.590859 
L 637.764802 152.551313 
L 638.069242 150.917601 
L 638.221462 149.610632 
L 638.373682 149.610632 
L 638.678122 152.224571 
L 638.830342 152.878055 
L 638.982561 152.878055 
L 639.439221 150.590859 
L 639.591441 151.571086 
L 639.743661 150.917601 
L 639.895881 151.244344 
L 640.048101 150.590859 
L 640.20032 150.917601 
L 640.35254 151.571086 
L 640.50476 151.571086 
L 640.65698 152.224571 
L 640.8092 151.244344 
L 640.96142 151.571086 
L 641.26586 151.571086 
L 641.418079 152.224571 
L 641.722519 148.957147 
L 642.026959 147.650178 
L 642.179179 147.650178 
L 642.483619 146.996694 
L 642.940278 143.075786 
L 643.092498 142.749044 
L 643.396938 142.749044 
L 643.701378 140.135105 
L 643.853597 140.78859 
L 644.158037 144.056013 
L 644.310257 143.729271 
L 644.614697 141.442075 
L 644.766917 141.442075 
L 645.071356 142.749044 
L 645.375796 139.808363 
L 645.680236 133.927002 
L 645.832456 133.273517 
L 645.984676 130.986321 
L 646.441335 115.956175 
L 646.745775 107.134133 
L 647.050215 99.945802 
L 648.876853 43.092642 
L 649.029073 42.7659 
L 649.181293 43.419384 
L 649.485733 49.95423 
L 649.942392 59.756499 
L 650.094612 60.409984 
L 650.703492 69.885511 
L 650.855712 69.558768 
L 651.007931 68.578541 
L 651.160151 68.905284 
L 651.464591 70.865737 
L 651.769031 77.073841 
L 652.073471 87.856337 
L 652.37791 110.401556 
L 652.83457 150.264117 
L 653.29123 170.195397 
L 653.595669 174.443047 
L 653.747889 174.116305 
L 653.900109 174.769789 
L 654.508989 182.284862 
L 654.661208 182.284862 
L 654.813428 181.95812 
L 654.965648 182.284862 
L 655.117868 183.918574 
L 655.270088 184.245316 
L 655.422308 184.898801 
L 655.574528 184.898801 
L 655.726747 185.225543 
L 656.031187 188.166224 
L 656.183407 188.166224 
L 656.487847 185.879028 
L 656.792287 189.146451 
L 656.944506 189.473193 
L 657.096726 190.126677 
L 657.401166 189.473193 
L 657.553386 190.126677 
L 657.857826 192.740616 
L 658.162265 193.3941 
L 658.314485 193.3941 
L 658.618925 196.661524 
L 658.771145 198.295235 
L 658.923365 198.295235 
L 659.227805 197.315008 
L 659.380024 197.315008 
L 659.836684 200.909173 
L 659.988904 200.582431 
L 660.141124 200.582431 
L 660.293344 199.928947 
L 660.597783 202.542885 
L 660.750003 203.849854 
L 661.206663 198.621977 
L 661.358883 200.582431 
L 661.511103 200.582431 
L 661.663323 201.235916 
L 662.119982 196.988266 
L 662.272202 196.334781 
L 662.424422 196.988266 
L 662.576642 196.334781 
L 662.728862 195.027812 
L 663.033301 191.106904 
L 663.642181 186.532512 
L 664.098841 179.017439 
L 664.70772 172.155851 
L 665.01216 166.927974 
L 665.16438 166.927974 
L 665.773259 159.739643 
L 665.925479 159.739643 
L 666.077699 160.066386 
L 666.229919 159.739643 
L 666.382139 159.086159 
L 666.534358 157.452447 
L 666.686578 157.125705 
L 666.838798 157.125705 
L 666.991018 158.105932 
L 667.143238 157.77919 
L 667.295458 157.77919 
L 667.599898 156.145478 
L 667.904337 157.77919 
L 668.056557 158.105932 
L 668.208777 157.77919 
L 668.513217 156.145478 
L 668.665437 155.818736 
L 668.969876 156.798963 
L 669.274316 155.818736 
L 669.578756 155.818736 
L 669.730976 156.145478 
L 670.035416 154.838509 
L 670.339855 156.145478 
L 670.492075 156.798963 
L 670.644295 156.798963 
L 670.948735 155.491994 
L 671.100955 155.491994 
L 671.253175 155.165251 
L 671.557614 156.47222 
L 671.709834 156.145478 
L 672.014274 155.165251 
L 672.166494 155.491994 
L 672.318714 155.165251 
L 672.470934 156.47222 
L 672.775373 155.491994 
L 672.927593 155.165251 
L 673.232033 155.818736 
L 673.384253 155.491994 
L 673.536473 155.818736 
L 674.145352 150.917601 
L 674.297572 151.244344 
L 674.449792 149.610632 
L 675.515331 129.025867 
L 678.103069 37.864765 
L 678.255289 35.250827 
L 678.407509 35.904311 
L 678.559728 38.51825 
L 679.168608 55.835592 
L 679.320828 58.44953 
L 679.777487 72.172707 
L 680.081927 76.747099 
L 680.234147 76.747099 
L 680.843027 81.321491 
L 681.147466 94.717925 
L 682.213005 164.314036 
L 682.517445 171.502366 
L 682.821885 174.116305 
L 683.278545 177.71047 
L 684.191864 181.631378 
L 684.344084 183.265089 
L 684.496304 183.591831 
L 684.648523 183.591831 
L 684.800743 183.918574 
L 684.952963 183.918574 
L 685.257403 186.532512 
L 685.409623 186.859254 
L 685.561843 186.532512 
L 685.714063 186.859254 
L 686.170722 190.45342 
L 686.322942 189.473193 
L 686.627382 190.126677 
L 686.779602 190.780162 
L 687.236261 194.70107 
L 687.388481 195.354554 
L 687.540701 194.70107 
L 687.692921 195.354554 
L 687.997361 197.968493 
L 688.14958 198.295235 
L 688.60624 198.295235 
L 688.91068 200.582431 
L 689.21512 200.582431 
L 689.367339 199.928947 
L 689.519559 200.255689 
L 689.671779 201.235916 
L 689.823999 201.235916 
L 689.976219 201.562658 
L 690.432879 197.968493 
L 690.585098 198.621977 
L 690.737318 197.968493 
L 691.193978 192.740616 
L 691.346198 192.740616 
L 691.498418 192.087131 
L 691.955077 185.879028 
L 692.259517 180.651151 
L 692.411737 180.324408 
L 692.868397 172.482593 
L 693.172836 167.581459 
L 693.325056 167.254716 
L 693.781716 163.007066 
L 693.933936 160.066386 
L 694.086156 159.739643 
L 694.238375 159.739643 
L 694.390595 160.066386 
L 694.695035 158.759417 
L 694.847255 156.145478 
L 695.456134 158.432674 
L 695.608354 156.798963 
L 695.912794 156.145478 
L 696.217234 158.432674 
L 696.521673 156.798963 
L 696.673893 156.47222 
L 696.826113 157.125705 
L 696.978333 159.086159 
L 697.434993 156.798963 
L 697.587213 155.491994 
L 697.739432 156.47222 
L 698.043872 160.066386 
L 698.196092 159.086159 
L 698.652752 154.511767 
L 698.957191 157.452447 
L 699.109411 157.125705 
L 699.566071 154.838509 
L 699.870511 156.798963 
L 700.17495 155.491994 
L 700.47939 153.53154 
L 700.63161 155.491994 
L 700.78383 155.491994 
L 701.24049 152.551313 
L 701.392709 153.204797 
L 701.544929 153.204797 
L 701.697149 155.491994 
L 701.849369 154.838509 
L 702.153809 151.571086 
L 702.306029 151.571086 
L 702.610468 153.858282 
L 702.762688 153.858282 
L 703.067128 152.224571 
L 703.219348 150.264117 
L 703.371568 151.571086 
L 703.523788 153.858282 
L 703.676008 153.204797 
L 703.980447 150.264117 
L 704.132667 150.590859 
L 704.284887 151.244344 
L 704.437107 153.53154 
L 704.589327 153.204797 
L 704.893767 150.590859 
L 705.045986 150.264117 
L 705.350426 151.571086 
L 705.502646 151.897828 
L 705.807086 149.937374 
L 705.959306 149.937374 
L 706.263745 153.53154 
L 706.415965 153.53154 
L 706.872625 150.264117 
L 707.024845 150.917601 
L 707.177065 152.551313 
L 707.329284 152.878055 
L 707.481504 152.551313 
L 707.785944 149.937374 
L 707.938164 151.244344 
L 708.090384 151.244344 
L 708.242604 152.551313 
L 708.394824 151.897828 
L 708.699263 149.610632 
L 709.155923 151.897828 
L 709.308143 151.571086 
L 709.460363 150.264117 
L 709.612583 150.264117 
L 709.917022 150.917601 
L 710.069242 152.551313 
L 710.525902 148.957147 
L 710.678122 149.937374 
L 710.830342 149.937374 
L 710.982561 151.244344 
L 711.287001 148.957147 
L 711.439221 148.303663 
L 711.591441 148.630405 
L 711.743661 147.976921 
L 711.895881 147.976921 
L 712.35254 144.056013 
L 712.50476 144.382755 
L 713.418079 138.501394 
L 713.570299 138.501394 
L 713.874739 139.154878 
L 714.026959 138.828136 
L 714.179179 138.828136 
L 714.483619 141.442075 
L 714.940278 143.075786 
L 715.396938 147.976921 
L 715.549158 148.303663 
L 715.853597 147.650178 
L 716.462477 151.571086 
L 716.614697 151.571086 
L 716.766917 151.244344 
L 716.919136 150.590859 
L 717.071356 150.917601 
L 717.223576 151.897828 
L 717.375796 151.571086 
L 717.528016 152.224571 
L 717.680236 150.264117 
L 717.832456 149.937374 
L 718.136895 151.244344 
L 718.289115 150.917601 
L 718.441335 151.571086 
L 718.593555 151.244344 
L 718.745775 149.937374 
L 719.354654 153.53154 
L 719.506874 148.957147 
L 719.963534 121.510794 
L 720.267974 92.103987 
L 720.724633 38.191507 
L 720.876853 31.983404 
L 721.029073 38.51825 
L 721.942392 151.244344 
L 722.094612 152.878055 
L 722.399052 151.244344 
L 722.551272 153.858282 
L 722.703492 153.204797 
L 722.855712 153.204797 
L 723.007931 151.571086 
L 723.160151 151.897828 
L 723.312371 151.897828 
L 723.616811 153.53154 
L 723.769031 153.53154 
L 723.921251 153.204797 
L 724.073471 153.53154 
L 724.37791 154.511767 
L 724.53013 154.838509 
L 725.29123 153.204797 
L 725.443449 154.185024 
L 725.595669 153.858282 
L 725.747889 153.858282 
L 725.900109 154.185024 
L 726.052329 152.878055 
L 726.356769 154.511767 
L 726.508989 153.204797 
L 726.661208 153.204797 
L 726.965648 151.571086 
L 727.270088 152.878055 
L 727.422308 152.224571 
L 727.574528 150.917601 
L 727.726747 151.571086 
L 727.878967 150.590859 
L 728.031187 151.244344 
L 728.487847 148.957147 
L 728.792287 146.669951 
L 728.944506 147.650178 
L 729.248946 147.650178 
L 729.401166 146.996694 
L 729.553386 145.03624 
L 729.705606 144.709498 
L 730.010046 143.402528 
L 730.162265 143.402528 
L 730.771145 140.135105 
L 731.075585 139.154878 
L 731.227805 138.828136 
L 731.532244 135.233971 
L 731.684464 135.233971 
L 731.988904 133.273517 
L 732.141124 132.29329 
L 732.293344 130.006094 
L 732.445564 130.332836 
L 732.750003 128.699125 
L 732.902223 129.352609 
L 733.511103 125.758444 
L 733.663323 126.411929 
L 733.815542 126.085186 
L 733.967762 126.738671 
L 734.119982 125.104959 
L 734.424422 126.738671 
L 734.576642 127.718898 
L 734.728862 127.718898 
L 734.881082 126.738671 
L 735.033301 128.04564 
L 735.185521 130.332836 
L 735.337741 130.659579 
L 735.642181 133.600259 
L 735.794401 135.233971 
L 735.946621 135.233971 
L 736.5555 142.095559 
L 736.70772 142.422301 
L 736.85994 144.056013 
L 737.01216 144.382755 
L 737.16438 145.689724 
L 737.316599 147.976921 
L 737.468819 148.303663 
L 737.621039 149.937374 
L 737.773259 148.957147 
L 737.925479 149.28389 
L 738.077699 150.917601 
L 738.077699 150.917601 
" clip-path="url(#p0baa2be6ee)" style="fill: none; stroke: #1f77b4; stroke-width: 2; stroke-linecap: square"/>
   </g>
   <g id="patch_3">
    <path d="M 98.914062 228.96 
L 98.914062 7.2 
" style="fill: none; stroke: #000000; stroke-width: 2; stroke-linejoin: miter; stroke-linecap: square"/>
   </g>
   <g id="patch_4">
    <path d="M 768.514063 228.96 
L 768.514063 7.2 
" style="fill: none; stroke: #000000; stroke-width: 2; stroke-linejoin: miter; stroke-linecap: square"/>
   </g>
   <g id="patch_5">
    <path d="M 98.914062 228.96 
L 768.514063 228.96 
" style="fill: none; stroke: #000000; stroke-width: 2; stroke-linejoin: miter; stroke-linecap: square"/>
   </g>
   <g id="patch_6">
    <path d="M 98.914062 7.2 
L 768.514063 7.2 
" style="fill: none; stroke: #000000; stroke-width: 2; stroke-linejoin: miter; stroke-linecap: square"/>
   </g>
  </g>
 </g>
 <defs>
  <clipPath id="p0baa2be6ee">
   <rect x="98.914062" y="7.2" width="669.6" height="221.76"/>
  </clipPath>
 </defs>
</svg>
