<?xml version="1.0" encoding="utf-8" standalone="no"?>
<!DOCTYPE svg PUBLIC "-//W3C//DTD SVG 1.1//EN"
  "http://www.w3.org/Graphics/SVG/1.1/DTD/svg11.dtd">
<svg xmlns:xlink="http://www.w3.org/1999/xlink" width="552.514062pt" height="406.62375pt" viewBox="0 0 552.514062 406.62375" xmlns="http://www.w3.org/2000/svg" version="1.1">
 <metadata>
  <rdf:RDF xmlns:dc="http://purl.org/dc/elements/1.1/" xmlns:cc="http://creativecommons.org/ns#" xmlns:rdf="http://www.w3.org/1999/02/22-rdf-syntax-ns#">
   <cc:Work>
    <dc:type rdf:resource="http://purl.org/dc/dcmitype/StillImage"/>
    <dc:date>2024-05-15T14:40:10.562186</dc:date>
    <dc:format>image/svg+xml</dc:format>
    <dc:creator>
     <cc:Agent>
      <dc:title>Matplotlib v3.7.5, https://matplotlib.org/</dc:title>
     </cc:Agent>
    </dc:creator>
   </cc:Work>
  </rdf:RDF>
 </metadata>
 <defs>
  <style type="text/css">*{stroke-linejoin: round; stroke-linecap: butt}</style>
 </defs>
 <g id="figure_1">
  <g id="patch_1">
   <path d="M 0 406.62375 
L 552.514062 406.62375 
L 552.514062 0 
L 0 0 
z
" style="fill: #ffffff"/>
  </g>
  <g id="axes_1">
   <g id="patch_2">
    <path d="M 98.914062 339.84 
L 545.314062 339.84 
L 545.314062 7.2 
L 98.914062 7.2 
z
" style="fill: #ffffff"/>
   </g>
   <g id="PolyCollection_1">
    <defs>
     <path id="m63a5cb4e29" d="M 119.204972 -204.341986 
L 119.204972 -114.810618 
L 120.553205 -113.927245 
L 121.901438 -113.094118 
L 123.249671 -112.338794 
L 124.597904 -111.620749 
L 125.946137 -111.008061 
L 127.294371 -110.403477 
L 128.642604 -109.935046 
L 129.990837 -109.516862 
L 131.33907 -109.174859 
L 132.687303 -108.826372 
L 134.035536 -108.537858 
L 135.38377 -108.323903 
L 136.732003 -108.257447 
L 138.080236 -108.216926 
L 139.428469 -108.212063 
L 140.776702 -108.006213 
L 142.124935 -107.900856 
L 143.473169 -107.883027 
L 144.821402 -107.928411 
L 146.169635 -108.048355 
L 147.517868 -108.054839 
L 148.866101 -108.030526 
L 150.214334 -108.084015 
L 151.562567 -108.13102 
L 152.910801 -108.244481 
L 154.259034 -108.450331 
L 155.607267 -108.510303 
L 156.9555 -108.463298 
L 158.303733 -108.451952 
L 159.651966 -108.390359 
L 161.0002 -108.50544 
L 162.348433 -108.648077 
L 163.696666 -108.763158 
L 165.044899 -108.884724 
L 166.393132 -108.978734 
L 167.741365 -109.262386 
L 169.089599 -109.664361 
L 170.437832 -110.199248 
L 171.786065 -110.717926 
L 173.134298 -111.140972 
L 174.482531 -111.568881 
L 175.830764 -112.14429 
L 177.178998 -112.920686 
L 178.527231 -113.653318 
L 179.875464 -114.466994 
L 181.223697 -115.245011 
L 182.57193 -116.141351 
L 183.920163 -116.955027 
L 185.268397 -117.705489 
L 186.61663 -118.509439 
L 187.964863 -119.224242 
L 189.313096 -119.679706 
L 190.661329 -119.945529 
L 192.009562 -120.217835 
L 193.357796 -120.130308 
L 194.706029 -120.013605 
L 196.054262 -119.721849 
L 197.402495 -119.109161 
L 198.750728 -118.407325 
L 200.098961 -117.441287 
L 201.447194 -116.504425 
L 202.795428 -115.58053 
L 204.143661 -114.509136 
L 205.491894 -113.215684 
L 206.840127 -111.975719 
L 208.18836 -110.896221 
L 209.536593 -110.058232 
L 210.884827 -109.396918 
L 212.23306 -108.787471 
L 213.581293 -108.190992 
L 214.929526 -107.766324 
L 216.277759 -107.654484 
L 217.625992 -107.920307 
L 218.974226 -108.649698 
L 220.322459 -109.541175 
L 221.670692 -110.829765 
L 223.018925 -112.473326 
L 224.367158 -114.599905 
L 225.715391 -117.168981 
L 227.063625 -120.114099 
L 228.411858 -123.368803 
L 229.760091 -126.913641 
L 231.108324 -130.755099 
L 232.456557 -134.818616 
L 233.80479 -139.310042 
L 235.153024 -143.994352 
L 236.501257 -148.720803 
L 237.84949 -153.596375 
L 239.197723 -158.413596 
L 240.545956 -163.472326 
L 241.894189 -168.644516 
L 243.242423 -174.418049 
L 244.590656 -181.134927 
L 245.938889 -189.333279 
L 247.287122 -199.074698 
L 248.635355 -210.625005 
L 249.983588 -224.081454 
L 251.331821 -239.137699 
L 252.680055 -254.882814 
L 254.028288 -270.212986 
L 255.376521 -283.768307 
L 256.724754 -292.793302 
L 258.072987 -294.772382 
L 259.42122 -288.008499 
L 260.769454 -273.018709 
L 262.117687 -252.331567 
L 263.46592 -229.013756 
L 264.814153 -205.70567 
L 266.162386 -184.021694 
L 267.510619 -164.671768 
L 268.858853 -148.843989 
L 270.207086 -136.588604 
L 271.555319 -127.336688 
L 272.903552 -120.144896 
L 274.251785 -114.437818 
L 275.600018 -109.837794 
L 276.948252 -105.934743 
L 278.296485 -102.522815 
L 279.644718 -99.522588 
L 280.992951 -97.060489 
L 282.341184 -95.209458 
L 283.689417 -93.658287 
L 285.037651 -92.285411 
L 286.385884 -91.115144 
L 287.734117 -90.188008 
L 289.08235 -89.510485 
L 290.430583 -89.011257 
L 291.778816 -88.706534 
L 293.12705 -88.356427 
L 294.475283 -88.033874 
L 295.823516 -87.654591 
L 297.171749 -87.33528 
L 298.519982 -87.178055 
L 299.868215 -87.040282 
L 301.216448 -86.720971 
L 302.564682 -86.400039 
L 303.912915 -86.184463 
L 305.261148 -86.007789 
L 306.609381 -85.881361 
L 307.957614 -85.810043 
L 309.305847 -85.575017 
L 310.654081 -85.323782 
L 312.002314 -84.894252 
L 313.350547 -84.618704 
L 314.69878 -84.440409 
L 316.047013 -84.419338 
L 317.395246 -84.130823 
L 318.74348 -83.735331 
L 320.091713 -83.430608 
L 321.439946 -83.112918 
L 322.788179 -82.918414 
L 324.136412 -82.851958 
L 325.484645 -82.532647 
L 326.832879 -82.336522 
L 328.181112 -82.122567 
L 329.529345 -81.924821 
L 330.877578 -81.90375 
L 332.225811 -81.955618 
L 333.574044 -81.953997 
L 334.922278 -81.973447 
L 336.270511 -82.013969 
L 337.618744 -82.182539 
L 338.966977 -82.393252 
L 340.31521 -82.659075 
L 341.663443 -83.059429 
L 343.011677 -83.463025 
L 344.35991 -83.816375 
L 345.708143 -84.317223 
L 347.056376 -85.012575 
L 348.404609 -85.874877 
L 349.752842 -86.680449 
L 351.101075 -87.489262 
L 352.449309 -88.277004 
L 353.797542 -89.191174 
L 355.145775 -90.392237 
L 356.494008 -91.594921 
L 357.842241 -92.650107 
L 359.190474 -93.661529 
L 360.538708 -94.687538 
L 361.886941 -95.891843 
L 363.235174 -97.13667 
L 364.583407 -98.481991 
L 365.93164 -99.634428 
L 367.279873 -100.692855 
L 368.628107 -101.772353 
L 369.97634 -102.688144 
L 371.324573 -103.821131 
L 372.672806 -104.681812 
L 374.021039 -105.313951 
L 375.369272 -105.803453 
L 376.717506 -106.181115 
L 378.065739 -106.406416 
L 379.413972 -106.636579 
L 380.762205 -106.782457 
L 382.110438 -106.696551 
L 383.458671 -106.382103 
L 384.806905 -106.02227 
L 386.155138 -105.834249 
L 387.503371 -105.539251 
L 388.851604 -105.328538 
L 390.199837 -105.057853 
L 391.54807 -104.681812 
L 392.896304 -104.263628 
L 394.244537 -103.932971 
L 395.59277 -103.764401 
L 396.941003 -103.490474 
L 398.289236 -103.297591 
L 399.637469 -103.018801 
L 400.985702 -102.788638 
L 402.333936 -102.657348 
L 403.682169 -102.582788 
L 405.030402 -102.551991 
L 406.378635 -102.500123 
L 407.726868 -102.406113 
L 409.075101 -102.415838 
L 410.423335 -102.388283 
L 411.771568 -102.383421 
L 413.119801 -102.592513 
L 414.468034 -102.598996 
L 415.816267 -102.555233 
L 417.1645 -102.548749 
L 418.512734 -102.595755 
L 419.860967 -102.752979 
L 421.2092 -103.020422 
L 422.557433 -103.133883 
L 423.905666 -103.226272 
L 425.253899 -103.261931 
L 426.602133 -103.360804 
L 427.950366 -103.790334 
L 429.298599 -104.302529 
L 430.646832 -104.722334 
L 431.995065 -105.202111 
L 433.343298 -105.827766 
L 434.691532 -106.529602 
L 436.039765 -107.494019 
L 437.387998 -108.605934 
L 438.736231 -109.881558 
L 440.084464 -111.30468 
L 441.432697 -112.94824 
L 442.780931 -114.862486 
L 444.129164 -117.081454 
L 445.477397 -119.738058 
L 446.82563 -122.741527 
L 448.173863 -126.020543 
L 449.522096 -129.52486 
L 450.870329 -133.342005 
L 452.218563 -137.51412 
L 453.566796 -141.905052 
L 454.915029 -146.689855 
L 456.263262 -151.576773 
L 457.611495 -156.783002 
L 458.959728 -162.084862 
L 460.307962 -167.610402 
L 461.656195 -173.238057 
L 463.004428 -178.779806 
L 464.352661 -184.117325 
L 465.700894 -189.522921 
L 467.049127 -194.59948 
L 468.397361 -199.47181 
L 469.745594 -203.981066 
L 471.093827 -207.880875 
L 472.44206 -211.253902 
L 473.790293 -214.231437 
L 475.138526 -216.743783 
L 476.48676 -218.988685 
L 477.834993 -220.748948 
L 479.183226 -221.773337 
L 480.531459 -221.920836 
L 481.879692 -221.452405 
L 483.227925 -220.308072 
L 484.576159 -218.75366 
L 485.924392 -216.803755 
L 487.272625 -214.743631 
L 488.620858 -212.479278 
L 489.969091 -210.030146 
L 491.317324 -207.164451 
L 492.665558 -203.937303 
L 494.013791 -200.095845 
L 495.362024 -195.649803 
L 496.710257 -190.808269 
L 498.05849 -185.721985 
L 499.406723 -180.509272 
L 500.754956 -175.273868 
L 502.10319 -170.002804 
L 503.451423 -164.465918 
L 504.799656 -158.499502 
L 506.147889 -152.473114 
L 507.496122 -146.495351 
L 508.844355 -140.50138 
L 510.192589 -134.512272 
L 511.540822 -128.388632 
L 512.889055 -122.762598 
L 514.237288 -117.452633 
L 515.585521 -112.624067 
L 516.933754 -108.39198 
L 518.281988 -104.227969 
L 519.630221 -100.264946 
L 520.978454 -96.417005 
L 522.326687 -92.885133 
L 523.67492 -89.798999 
L 525.023153 -87.174814 
L 525.023153 -176.706181 
L 525.023153 -176.706181 
L 523.67492 -179.330367 
L 522.326687 -182.4165 
L 520.978454 -185.948372 
L 519.630221 -189.796314 
L 518.281988 -193.759337 
L 516.933754 -197.923347 
L 515.585521 -202.155434 
L 514.237288 -206.984001 
L 512.889055 -212.293966 
L 511.540822 -217.919999 
L 510.192589 -224.04364 
L 508.844355 -230.032748 
L 507.496122 -236.026719 
L 506.147889 -242.004481 
L 504.799656 -248.03087 
L 503.451423 -253.997286 
L 502.10319 -259.534172 
L 500.754956 -264.805235 
L 499.406723 -270.04064 
L 498.05849 -275.253352 
L 496.710257 -280.339637 
L 495.362024 -285.181171 
L 494.013791 -289.627212 
L 492.665558 -293.46867 
L 491.317324 -296.695819 
L 489.969091 -299.561514 
L 488.620858 -302.010646 
L 487.272625 -304.274999 
L 485.924392 -306.335123 
L 484.576159 -308.285027 
L 483.227925 -309.83944 
L 481.879692 -310.983773 
L 480.531459 -311.452204 
L 479.183226 -311.304705 
L 477.834993 -310.280316 
L 476.48676 -308.520053 
L 475.138526 -306.275151 
L 473.790293 -303.762805 
L 472.44206 -300.78527 
L 471.093827 -297.412243 
L 469.745594 -293.512434 
L 468.397361 -289.003178 
L 467.049127 -284.130848 
L 465.700894 -279.054289 
L 464.352661 -273.648693 
L 463.004428 -268.311174 
L 461.656195 -262.769425 
L 460.307962 -257.14177 
L 458.959728 -251.61623 
L 457.611495 -246.31437 
L 456.263262 -241.108141 
L 454.915029 -236.221223 
L 453.566796 -231.43642 
L 452.218563 -227.045488 
L 450.870329 -222.873373 
L 449.522096 -219.056228 
L 448.173863 -215.551911 
L 446.82563 -212.272894 
L 445.477397 -209.269425 
L 444.129164 -206.612822 
L 442.780931 -204.393853 
L 441.432697 -202.479608 
L 440.084464 -200.836048 
L 438.736231 -199.412925 
L 437.387998 -198.137302 
L 436.039765 -197.025386 
L 434.691532 -196.06097 
L 433.343298 -195.359134 
L 431.995065 -194.733478 
L 430.646832 -194.253701 
L 429.298599 -193.833897 
L 427.950366 -193.321702 
L 426.602133 -192.892172 
L 425.253899 -192.793299 
L 423.905666 -192.75764 
L 422.557433 -192.665251 
L 421.2092 -192.55179 
L 419.860967 -192.284347 
L 418.512734 -192.127122 
L 417.1645 -192.080117 
L 415.816267 -192.086601 
L 414.468034 -192.130364 
L 413.119801 -192.123881 
L 411.771568 -191.914789 
L 410.423335 -191.919651 
L 409.075101 -191.947206 
L 407.726868 -191.937481 
L 406.378635 -192.031491 
L 405.030402 -192.083359 
L 403.682169 -192.114155 
L 402.333936 -192.188715 
L 400.985702 -192.320006 
L 399.637469 -192.550169 
L 398.289236 -192.828958 
L 396.941003 -193.021842 
L 395.59277 -193.295768 
L 394.244537 -193.464339 
L 392.896304 -193.794996 
L 391.54807 -194.21318 
L 390.199837 -194.589221 
L 388.851604 -194.859906 
L 387.503371 -195.070619 
L 386.155138 -195.365617 
L 384.806905 -195.553638 
L 383.458671 -195.913471 
L 382.110438 -196.227919 
L 380.762205 -196.313825 
L 379.413972 -196.167947 
L 378.065739 -195.937784 
L 376.717506 -195.712483 
L 375.369272 -195.334821 
L 374.021039 -194.845318 
L 372.672806 -194.21318 
L 371.324573 -193.352499 
L 369.97634 -192.219512 
L 368.628107 -191.303721 
L 367.279873 -190.224223 
L 365.93164 -189.165796 
L 364.583407 -188.013359 
L 363.235174 -186.668038 
L 361.886941 -185.423211 
L 360.538708 -184.218906 
L 359.190474 -183.192896 
L 357.842241 -182.181474 
L 356.494008 -181.126289 
L 355.145775 -179.923605 
L 353.797542 -178.722542 
L 352.449309 -177.808372 
L 351.101075 -177.02063 
L 349.752842 -176.211817 
L 348.404609 -175.406245 
L 347.056376 -174.543943 
L 345.708143 -173.848591 
L 344.35991 -173.347742 
L 343.011677 -172.994393 
L 341.663443 -172.590797 
L 340.31521 -172.190442 
L 338.966977 -171.92462 
L 337.618744 -171.713907 
L 336.270511 -171.545337 
L 334.922278 -171.504815 
L 333.574044 -171.485365 
L 332.225811 -171.486986 
L 330.877578 -171.435118 
L 329.529345 -171.456189 
L 328.181112 -171.653935 
L 326.832879 -171.86789 
L 325.484645 -172.064015 
L 324.136412 -172.383326 
L 322.788179 -172.449781 
L 321.439946 -172.644285 
L 320.091713 -172.961976 
L 318.74348 -173.266699 
L 317.395246 -173.662191 
L 316.047013 -173.950705 
L 314.69878 -173.971777 
L 313.350547 -174.150072 
L 312.002314 -174.42562 
L 310.654081 -174.85515 
L 309.305847 -175.106384 
L 307.957614 -175.34141 
L 306.609381 -175.412729 
L 305.261148 -175.539156 
L 303.912915 -175.715831 
L 302.564682 -175.931406 
L 301.216448 -176.252338 
L 299.868215 -176.571649 
L 298.519982 -176.709423 
L 297.171749 -176.866647 
L 295.823516 -177.185958 
L 294.475283 -177.565242 
L 293.12705 -177.887794 
L 291.778816 -178.237902 
L 290.430583 -178.542625 
L 289.08235 -179.041853 
L 287.734117 -179.719376 
L 286.385884 -180.646512 
L 285.037651 -181.816779 
L 283.689417 -183.189655 
L 282.341184 -184.740826 
L 280.992951 -186.591857 
L 279.644718 -189.053956 
L 278.296485 -192.054183 
L 276.948252 -195.466111 
L 275.600018 -199.369162 
L 274.251785 -203.969186 
L 272.903552 -209.676263 
L 271.555319 -216.868056 
L 270.207086 -226.119972 
L 268.858853 -238.375357 
L 267.510619 -254.203136 
L 266.162386 -273.553062 
L 264.814153 -295.237038 
L 263.46592 -318.545124 
L 262.117687 -341.862935 
L 260.769454 -362.550077 
L 259.42122 -377.539867 
L 258.072987 -384.30375 
L 256.724754 -382.32467 
L 255.376521 -373.299675 
L 254.028288 -359.744354 
L 252.680055 -344.414181 
L 251.331821 -328.669067 
L 249.983588 -313.612821 
L 248.635355 -300.156373 
L 247.287122 -288.606065 
L 245.938889 -278.864647 
L 244.590656 -270.666295 
L 243.242423 -263.949417 
L 241.894189 -258.175884 
L 240.545956 -253.003693 
L 239.197723 -247.944964 
L 237.84949 -243.127743 
L 236.501257 -238.252171 
L 235.153024 -233.525719 
L 233.80479 -228.84141 
L 232.456557 -224.349984 
L 231.108324 -220.286467 
L 229.760091 -216.445009 
L 228.411858 -212.90017 
L 227.063625 -209.645467 
L 225.715391 -206.700349 
L 224.367158 -204.131273 
L 223.018925 -202.004694 
L 221.670692 -200.361133 
L 220.322459 -199.072543 
L 218.974226 -198.181065 
L 217.625992 -197.451675 
L 216.277759 -197.185852 
L 214.929526 -197.297692 
L 213.581293 -197.72236 
L 212.23306 -198.318839 
L 210.884827 -198.928286 
L 209.536593 -199.5896 
L 208.18836 -200.427589 
L 206.840127 -201.507087 
L 205.491894 -202.747051 
L 204.143661 -204.040504 
L 202.795428 -205.111898 
L 201.447194 -206.035793 
L 200.098961 -206.972655 
L 198.750728 -207.938692 
L 197.402495 -208.640528 
L 196.054262 -209.253217 
L 194.706029 -209.544973 
L 193.357796 -209.661675 
L 192.009562 -209.749202 
L 190.661329 -209.476896 
L 189.313096 -209.211074 
L 187.964863 -208.75561 
L 186.61663 -208.040807 
L 185.268397 -207.236856 
L 183.920163 -206.486394 
L 182.57193 -205.672719 
L 181.223697 -204.776378 
L 179.875464 -203.998362 
L 178.527231 -203.184686 
L 177.178998 -202.452053 
L 175.830764 -201.675657 
L 174.482531 -201.100249 
L 173.134298 -200.67234 
L 171.786065 -200.249293 
L 170.437832 -199.730615 
L 169.089599 -199.195729 
L 167.741365 -198.793754 
L 166.393132 -198.510102 
L 165.044899 -198.416091 
L 163.696666 -198.294526 
L 162.348433 -198.179444 
L 161.0002 -198.036808 
L 159.651966 -197.921726 
L 158.303733 -197.983319 
L 156.9555 -197.994665 
L 155.607267 -198.041671 
L 154.259034 -197.981699 
L 152.910801 -197.775848 
L 151.562567 -197.662387 
L 150.214334 -197.615382 
L 148.866101 -197.561894 
L 147.517868 -197.586207 
L 146.169635 -197.579723 
L 144.821402 -197.459779 
L 143.473169 -197.414395 
L 142.124935 -197.432224 
L 140.776702 -197.537581 
L 139.428469 -197.743431 
L 138.080236 -197.748294 
L 136.732003 -197.788815 
L 135.38377 -197.855271 
L 134.035536 -198.069225 
L 132.687303 -198.35774 
L 131.33907 -198.706227 
L 129.990837 -199.04823 
L 128.642604 -199.466414 
L 127.294371 -199.934845 
L 125.946137 -200.539429 
L 124.597904 -201.152117 
L 123.249671 -201.870162 
L 121.901438 -202.625486 
L 120.553205 -203.458612 
L 119.204972 -204.341986 
z
" style="stroke: #808080; stroke-opacity: 0.3"/>
    </defs>
    <g clip-path="url(#p8af83bb38d)">
     <use xlink:href="#m63a5cb4e29" x="0" y="406.62375" style="fill: #808080; fill-opacity: 0.3; stroke: #808080; stroke-opacity: 0.3"/>
    </g>
   </g>
   <g id="matplotlib.axis_1">
    <g id="xtick_1">
     <g id="line2d_1">
      <defs>
       <path id="me63fcbd6c9" d="M 0 0 
L 0 -3.5 
" style="stroke: #000000; stroke-width: 2"/>
      </defs>
      <g>
       <use xlink:href="#me63fcbd6c9" x="119.204972" y="339.84" style="stroke: #000000; stroke-width: 2"/>
      </g>
     </g>
     <g id="text_1">
      <!-- 0 -->
      <g transform="translate(112.206222 363.556562) scale(0.22 -0.22)">
       <defs>
        <path id="DejaVuSans-30" d="M 2034 4250 
Q 1547 4250 1301 3770 
Q 1056 3291 1056 2328 
Q 1056 1369 1301 889 
Q 1547 409 2034 409 
Q 2525 409 2770 889 
Q 3016 1369 3016 2328 
Q 3016 3291 2770 3770 
Q 2525 4250 2034 4250 
z
M 2034 4750 
Q 2819 4750 3233 4129 
Q 3647 3509 3647 2328 
Q 3647 1150 3233 529 
Q 2819 -91 2034 -91 
Q 1250 -91 836 529 
Q 422 1150 422 2328 
Q 422 3509 836 4129 
Q 1250 4750 2034 4750 
z
" transform="scale(0.015625)"/>
       </defs>
       <use xlink:href="#DejaVuSans-30"/>
      </g>
     </g>
    </g>
    <g id="xtick_2">
     <g id="line2d_2">
      <g>
       <use xlink:href="#me63fcbd6c9" x="254.028288" y="339.84" style="stroke: #000000; stroke-width: 2"/>
      </g>
     </g>
     <g id="text_2">
      <!-- 100 -->
      <g transform="translate(233.032038 363.556562) scale(0.22 -0.22)">
       <defs>
        <path id="DejaVuSans-31" d="M 794 531 
L 1825 531 
L 1825 4091 
L 703 3866 
L 703 4441 
L 1819 4666 
L 2450 4666 
L 2450 531 
L 3481 531 
L 3481 0 
L 794 0 
L 794 531 
z
" transform="scale(0.015625)"/>
       </defs>
       <use xlink:href="#DejaVuSans-31"/>
       <use xlink:href="#DejaVuSans-30" x="63.623047"/>
       <use xlink:href="#DejaVuSans-30" x="127.246094"/>
      </g>
     </g>
    </g>
    <g id="xtick_3">
     <g id="line2d_3">
      <g>
       <use xlink:href="#me63fcbd6c9" x="388.851604" y="339.84" style="stroke: #000000; stroke-width: 2"/>
      </g>
     </g>
     <g id="text_3">
      <!-- 200 -->
      <g transform="translate(367.855354 363.556562) scale(0.22 -0.22)">
       <defs>
        <path id="DejaVuSans-32" d="M 1228 531 
L 3431 531 
L 3431 0 
L 469 0 
L 469 531 
Q 828 903 1448 1529 
Q 2069 2156 2228 2338 
Q 2531 2678 2651 2914 
Q 2772 3150 2772 3378 
Q 2772 3750 2511 3984 
Q 2250 4219 1831 4219 
Q 1534 4219 1204 4116 
Q 875 4013 500 3803 
L 500 4441 
Q 881 4594 1212 4672 
Q 1544 4750 1819 4750 
Q 2544 4750 2975 4387 
Q 3406 4025 3406 3419 
Q 3406 3131 3298 2873 
Q 3191 2616 2906 2266 
Q 2828 2175 2409 1742 
Q 1991 1309 1228 531 
z
" transform="scale(0.015625)"/>
       </defs>
       <use xlink:href="#DejaVuSans-32"/>
       <use xlink:href="#DejaVuSans-30" x="63.623047"/>
       <use xlink:href="#DejaVuSans-30" x="127.246094"/>
      </g>
     </g>
    </g>
    <g id="xtick_4">
     <g id="line2d_4">
      <g>
       <use xlink:href="#me63fcbd6c9" x="523.67492" y="339.84" style="stroke: #000000; stroke-width: 2"/>
      </g>
     </g>
     <g id="text_4">
      <!-- 300 -->
      <g transform="translate(502.67867 363.556562) scale(0.22 -0.22)">
       <defs>
        <path id="DejaVuSans-33" d="M 2597 2516 
Q 3050 2419 3304 2112 
Q 3559 1806 3559 1356 
Q 3559 666 3084 287 
Q 2609 -91 1734 -91 
Q 1441 -91 1130 -33 
Q 819 25 488 141 
L 488 750 
Q 750 597 1062 519 
Q 1375 441 1716 441 
Q 2309 441 2620 675 
Q 2931 909 2931 1356 
Q 2931 1769 2642 2001 
Q 2353 2234 1838 2234 
L 1294 2234 
L 1294 2753 
L 1863 2753 
Q 2328 2753 2575 2939 
Q 2822 3125 2822 3475 
Q 2822 3834 2567 4026 
Q 2313 4219 1838 4219 
Q 1578 4219 1281 4162 
Q 984 4106 628 3988 
L 628 4550 
Q 988 4650 1302 4700 
Q 1616 4750 1894 4750 
Q 2613 4750 3031 4423 
Q 3450 4097 3450 3541 
Q 3450 3153 3228 2886 
Q 3006 2619 2597 2516 
z
" transform="scale(0.015625)"/>
       </defs>
       <use xlink:href="#DejaVuSans-33"/>
       <use xlink:href="#DejaVuSans-30" x="63.623047"/>
       <use xlink:href="#DejaVuSans-30" x="127.246094"/>
      </g>
     </g>
    </g>
    <g id="text_5">
     <!-- Sample -->
     <g transform="translate(280.8675 394.848437) scale(0.22 -0.22)">
      <defs>
       <path id="DejaVuSans-53" d="M 3425 4513 
L 3425 3897 
Q 3066 4069 2747 4153 
Q 2428 4238 2131 4238 
Q 1616 4238 1336 4038 
Q 1056 3838 1056 3469 
Q 1056 3159 1242 3001 
Q 1428 2844 1947 2747 
L 2328 2669 
Q 3034 2534 3370 2195 
Q 3706 1856 3706 1288 
Q 3706 609 3251 259 
Q 2797 -91 1919 -91 
Q 1588 -91 1214 -16 
Q 841 59 441 206 
L 441 856 
Q 825 641 1194 531 
Q 1563 422 1919 422 
Q 2459 422 2753 634 
Q 3047 847 3047 1241 
Q 3047 1584 2836 1778 
Q 2625 1972 2144 2069 
L 1759 2144 
Q 1053 2284 737 2584 
Q 422 2884 422 3419 
Q 422 4038 858 4394 
Q 1294 4750 2059 4750 
Q 2388 4750 2728 4690 
Q 3069 4631 3425 4513 
z
" transform="scale(0.015625)"/>
       <path id="DejaVuSans-61" d="M 2194 1759 
Q 1497 1759 1228 1600 
Q 959 1441 959 1056 
Q 959 750 1161 570 
Q 1363 391 1709 391 
Q 2188 391 2477 730 
Q 2766 1069 2766 1631 
L 2766 1759 
L 2194 1759 
z
M 3341 1997 
L 3341 0 
L 2766 0 
L 2766 531 
Q 2569 213 2275 61 
Q 1981 -91 1556 -91 
Q 1019 -91 701 211 
Q 384 513 384 1019 
Q 384 1609 779 1909 
Q 1175 2209 1959 2209 
L 2766 2209 
L 2766 2266 
Q 2766 2663 2505 2880 
Q 2244 3097 1772 3097 
Q 1472 3097 1187 3025 
Q 903 2953 641 2809 
L 641 3341 
Q 956 3463 1253 3523 
Q 1550 3584 1831 3584 
Q 2591 3584 2966 3190 
Q 3341 2797 3341 1997 
z
" transform="scale(0.015625)"/>
       <path id="DejaVuSans-6d" d="M 3328 2828 
Q 3544 3216 3844 3400 
Q 4144 3584 4550 3584 
Q 5097 3584 5394 3201 
Q 5691 2819 5691 2113 
L 5691 0 
L 5113 0 
L 5113 2094 
Q 5113 2597 4934 2840 
Q 4756 3084 4391 3084 
Q 3944 3084 3684 2787 
Q 3425 2491 3425 1978 
L 3425 0 
L 2847 0 
L 2847 2094 
Q 2847 2600 2669 2842 
Q 2491 3084 2119 3084 
Q 1678 3084 1418 2786 
Q 1159 2488 1159 1978 
L 1159 0 
L 581 0 
L 581 3500 
L 1159 3500 
L 1159 2956 
Q 1356 3278 1631 3431 
Q 1906 3584 2284 3584 
Q 2666 3584 2933 3390 
Q 3200 3197 3328 2828 
z
" transform="scale(0.015625)"/>
       <path id="DejaVuSans-70" d="M 1159 525 
L 1159 -1331 
L 581 -1331 
L 581 3500 
L 1159 3500 
L 1159 2969 
Q 1341 3281 1617 3432 
Q 1894 3584 2278 3584 
Q 2916 3584 3314 3078 
Q 3713 2572 3713 1747 
Q 3713 922 3314 415 
Q 2916 -91 2278 -91 
Q 1894 -91 1617 61 
Q 1341 213 1159 525 
z
M 3116 1747 
Q 3116 2381 2855 2742 
Q 2594 3103 2138 3103 
Q 1681 3103 1420 2742 
Q 1159 2381 1159 1747 
Q 1159 1113 1420 752 
Q 1681 391 2138 391 
Q 2594 391 2855 752 
Q 3116 1113 3116 1747 
z
" transform="scale(0.015625)"/>
       <path id="DejaVuSans-6c" d="M 603 4863 
L 1178 4863 
L 1178 0 
L 603 0 
L 603 4863 
z
" transform="scale(0.015625)"/>
       <path id="DejaVuSans-65" d="M 3597 1894 
L 3597 1613 
L 953 1613 
Q 991 1019 1311 708 
Q 1631 397 2203 397 
Q 2534 397 2845 478 
Q 3156 559 3463 722 
L 3463 178 
Q 3153 47 2828 -22 
Q 2503 -91 2169 -91 
Q 1331 -91 842 396 
Q 353 884 353 1716 
Q 353 2575 817 3079 
Q 1281 3584 2069 3584 
Q 2775 3584 3186 3129 
Q 3597 2675 3597 1894 
z
M 3022 2063 
Q 3016 2534 2758 2815 
Q 2500 3097 2075 3097 
Q 1594 3097 1305 2825 
Q 1016 2553 972 2059 
L 3022 2063 
z
" transform="scale(0.015625)"/>
      </defs>
      <use xlink:href="#DejaVuSans-53"/>
      <use xlink:href="#DejaVuSans-61" x="63.476562"/>
      <use xlink:href="#DejaVuSans-6d" x="124.755859"/>
      <use xlink:href="#DejaVuSans-70" x="222.167969"/>
      <use xlink:href="#DejaVuSans-6c" x="285.644531"/>
      <use xlink:href="#DejaVuSans-65" x="313.427734"/>
     </g>
    </g>
   </g>
   <g id="matplotlib.axis_2">
    <g id="ytick_1">
     <g id="line2d_5">
      <defs>
       <path id="m528d65c952" d="M 0 0 
L 3.5 0 
" style="stroke: #000000; stroke-width: 2"/>
      </defs>
      <g>
       <use xlink:href="#m528d65c952" x="98.914062" y="321.368505" style="stroke: #000000; stroke-width: 2"/>
      </g>
     </g>
     <g id="text_6">
      <!-- −0.5 -->
      <g transform="translate(38.491875 329.726786) scale(0.22 -0.22)">
       <defs>
        <path id="DejaVuSans-2212" d="M 678 2272 
L 4684 2272 
L 4684 1741 
L 678 1741 
L 678 2272 
z
" transform="scale(0.015625)"/>
        <path id="DejaVuSans-2e" d="M 684 794 
L 1344 794 
L 1344 0 
L 684 0 
L 684 794 
z
" transform="scale(0.015625)"/>
        <path id="DejaVuSans-35" d="M 691 4666 
L 3169 4666 
L 3169 4134 
L 1269 4134 
L 1269 2991 
Q 1406 3038 1543 3061 
Q 1681 3084 1819 3084 
Q 2600 3084 3056 2656 
Q 3513 2228 3513 1497 
Q 3513 744 3044 326 
Q 2575 -91 1722 -91 
Q 1428 -91 1123 -41 
Q 819 9 494 109 
L 494 744 
Q 775 591 1075 516 
Q 1375 441 1709 441 
Q 2250 441 2565 725 
Q 2881 1009 2881 1497 
Q 2881 1984 2565 2268 
Q 2250 2553 1709 2553 
Q 1456 2553 1204 2497 
Q 953 2441 691 2322 
L 691 4666 
z
" transform="scale(0.015625)"/>
       </defs>
       <use xlink:href="#DejaVuSans-2212"/>
       <use xlink:href="#DejaVuSans-30" x="83.789062"/>
       <use xlink:href="#DejaVuSans-2e" x="147.412109"/>
       <use xlink:href="#DejaVuSans-35" x="179.199219"/>
      </g>
     </g>
    </g>
    <g id="ytick_2">
     <g id="line2d_6">
      <g>
       <use xlink:href="#m528d65c952" x="98.914062" y="236.607564" style="stroke: #000000; stroke-width: 2"/>
      </g>
     </g>
     <g id="text_7">
      <!-- 0.0 -->
      <g transform="translate(56.927188 244.965846) scale(0.22 -0.22)">
       <use xlink:href="#DejaVuSans-30"/>
       <use xlink:href="#DejaVuSans-2e" x="63.623047"/>
       <use xlink:href="#DejaVuSans-30" x="95.410156"/>
      </g>
     </g>
    </g>
    <g id="ytick_3">
     <g id="line2d_7">
      <g>
       <use xlink:href="#m528d65c952" x="98.914062" y="151.846624" style="stroke: #000000; stroke-width: 2"/>
      </g>
     </g>
     <g id="text_8">
      <!-- 0.5 -->
      <g transform="translate(56.927188 160.204905) scale(0.22 -0.22)">
       <use xlink:href="#DejaVuSans-30"/>
       <use xlink:href="#DejaVuSans-2e" x="63.623047"/>
       <use xlink:href="#DejaVuSans-35" x="95.410156"/>
      </g>
     </g>
    </g>
    <g id="ytick_4">
     <g id="line2d_8">
      <g>
       <use xlink:href="#m528d65c952" x="98.914062" y="67.085684" style="stroke: #000000; stroke-width: 2"/>
      </g>
     </g>
     <g id="text_9">
      <!-- 1.0 -->
      <g transform="translate(56.927188 75.443965) scale(0.22 -0.22)">
       <use xlink:href="#DejaVuSans-31"/>
       <use xlink:href="#DejaVuSans-2e" x="63.623047"/>
       <use xlink:href="#DejaVuSans-30" x="95.410156"/>
      </g>
     </g>
    </g>
    <g id="text_10">
     <!-- Amplitude (mV) -->
     <g transform="translate(23.916562 260.208594) rotate(-90) scale(0.22 -0.22)">
      <defs>
       <path id="DejaVuSans-41" d="M 2188 4044 
L 1331 1722 
L 3047 1722 
L 2188 4044 
z
M 1831 4666 
L 2547 4666 
L 4325 0 
L 3669 0 
L 3244 1197 
L 1141 1197 
L 716 0 
L 50 0 
L 1831 4666 
z
" transform="scale(0.015625)"/>
       <path id="DejaVuSans-69" d="M 603 3500 
L 1178 3500 
L 1178 0 
L 603 0 
L 603 3500 
z
M 603 4863 
L 1178 4863 
L 1178 4134 
L 603 4134 
L 603 4863 
z
" transform="scale(0.015625)"/>
       <path id="DejaVuSans-74" d="M 1172 4494 
L 1172 3500 
L 2356 3500 
L 2356 3053 
L 1172 3053 
L 1172 1153 
Q 1172 725 1289 603 
Q 1406 481 1766 481 
L 2356 481 
L 2356 0 
L 1766 0 
Q 1100 0 847 248 
Q 594 497 594 1153 
L 594 3053 
L 172 3053 
L 172 3500 
L 594 3500 
L 594 4494 
L 1172 4494 
z
" transform="scale(0.015625)"/>
       <path id="DejaVuSans-75" d="M 544 1381 
L 544 3500 
L 1119 3500 
L 1119 1403 
Q 1119 906 1312 657 
Q 1506 409 1894 409 
Q 2359 409 2629 706 
Q 2900 1003 2900 1516 
L 2900 3500 
L 3475 3500 
L 3475 0 
L 2900 0 
L 2900 538 
Q 2691 219 2414 64 
Q 2138 -91 1772 -91 
Q 1169 -91 856 284 
Q 544 659 544 1381 
z
M 1991 3584 
L 1991 3584 
z
" transform="scale(0.015625)"/>
       <path id="DejaVuSans-64" d="M 2906 2969 
L 2906 4863 
L 3481 4863 
L 3481 0 
L 2906 0 
L 2906 525 
Q 2725 213 2448 61 
Q 2172 -91 1784 -91 
Q 1150 -91 751 415 
Q 353 922 353 1747 
Q 353 2572 751 3078 
Q 1150 3584 1784 3584 
Q 2172 3584 2448 3432 
Q 2725 3281 2906 2969 
z
M 947 1747 
Q 947 1113 1208 752 
Q 1469 391 1925 391 
Q 2381 391 2643 752 
Q 2906 1113 2906 1747 
Q 2906 2381 2643 2742 
Q 2381 3103 1925 3103 
Q 1469 3103 1208 2742 
Q 947 2381 947 1747 
z
" transform="scale(0.015625)"/>
       <path id="DejaVuSans-20" transform="scale(0.015625)"/>
       <path id="DejaVuSans-28" d="M 1984 4856 
Q 1566 4138 1362 3434 
Q 1159 2731 1159 2009 
Q 1159 1288 1364 580 
Q 1569 -128 1984 -844 
L 1484 -844 
Q 1016 -109 783 600 
Q 550 1309 550 2009 
Q 550 2706 781 3412 
Q 1013 4119 1484 4856 
L 1984 4856 
z
" transform="scale(0.015625)"/>
       <path id="DejaVuSans-56" d="M 1831 0 
L 50 4666 
L 709 4666 
L 2188 738 
L 3669 4666 
L 4325 4666 
L 2547 0 
L 1831 0 
z
" transform="scale(0.015625)"/>
       <path id="DejaVuSans-29" d="M 513 4856 
L 1013 4856 
Q 1481 4119 1714 3412 
Q 1947 2706 1947 2009 
Q 1947 1309 1714 600 
Q 1481 -109 1013 -844 
L 513 -844 
Q 928 -128 1133 580 
Q 1338 1288 1338 2009 
Q 1338 2731 1133 3434 
Q 928 4138 513 4856 
z
" transform="scale(0.015625)"/>
      </defs>
      <use xlink:href="#DejaVuSans-41"/>
      <use xlink:href="#DejaVuSans-6d" x="68.408203"/>
      <use xlink:href="#DejaVuSans-70" x="165.820312"/>
      <use xlink:href="#DejaVuSans-6c" x="229.296875"/>
      <use xlink:href="#DejaVuSans-69" x="257.080078"/>
      <use xlink:href="#DejaVuSans-74" x="284.863281"/>
      <use xlink:href="#DejaVuSans-75" x="324.072266"/>
      <use xlink:href="#DejaVuSans-64" x="387.451172"/>
      <use xlink:href="#DejaVuSans-65" x="450.927734"/>
      <use xlink:href="#DejaVuSans-20" x="512.451172"/>
      <use xlink:href="#DejaVuSans-28" x="544.238281"/>
      <use xlink:href="#DejaVuSans-6d" x="583.251953"/>
      <use xlink:href="#DejaVuSans-56" x="680.664062"/>
      <use xlink:href="#DejaVuSans-29" x="749.072266"/>
     </g>
    </g>
   </g>
   <g id="line2d_9">
    <path d="M 119.204972 247.047448 
L 121.901438 248.763948 
L 124.597904 250.237317 
L 127.294371 251.454589 
L 129.990837 252.341204 
L 134.035536 253.320208 
L 135.38377 253.534163 
L 144.821402 253.929655 
L 146.169635 253.809711 
L 151.562567 253.727046 
L 155.607267 253.347763 
L 159.651966 253.467707 
L 166.393132 252.879332 
L 167.741365 252.59568 
L 169.089599 252.193705 
L 171.786065 251.140141 
L 174.482531 250.289185 
L 175.830764 249.713776 
L 182.57193 245.716715 
L 186.61663 243.348627 
L 187.964863 242.633824 
L 189.313096 242.17836 
L 192.009562 241.640232 
L 194.706029 241.844461 
L 196.054262 242.136217 
L 198.750728 243.450741 
L 204.143661 247.34893 
L 206.840127 249.882347 
L 208.18836 250.961845 
L 209.536593 251.799834 
L 213.581293 253.667074 
L 214.929526 254.091742 
L 216.277759 254.203582 
L 217.625992 253.937759 
L 218.974226 253.208369 
L 220.322459 252.316891 
L 221.670692 251.028301 
L 223.018925 249.38474 
L 224.367158 247.258161 
L 225.715391 244.689085 
L 227.063625 241.743967 
L 229.760091 234.944425 
L 232.456557 227.03945 
L 235.153024 217.863715 
L 239.197723 203.44447 
L 241.894189 193.21355 
L 243.242423 187.440017 
L 244.590656 180.723139 
L 245.938889 172.524787 
L 247.287122 162.783368 
L 248.635355 151.233061 
L 249.983588 137.776613 
L 255.376521 78.089759 
L 256.724754 69.064764 
L 258.072987 67.085684 
L 259.42122 73.849567 
L 260.769454 88.839357 
L 262.117687 109.526499 
L 266.162386 177.836372 
L 267.510619 197.186298 
L 268.858853 213.014077 
L 270.207086 225.269462 
L 271.555319 234.521378 
L 272.903552 241.713171 
L 274.251785 247.420248 
L 275.600018 252.020272 
L 276.948252 255.923323 
L 278.296485 259.335251 
L 279.644718 262.335478 
L 280.992951 264.797577 
L 282.341184 266.648608 
L 283.689417 268.199779 
L 285.037651 269.572655 
L 286.385884 270.742922 
L 287.734117 271.670058 
L 289.08235 272.347581 
L 290.430583 272.846809 
L 294.475283 273.824192 
L 297.171749 274.522787 
L 299.868215 274.817785 
L 303.912915 275.673603 
L 306.609381 275.976705 
L 307.957614 276.048024 
L 310.654081 276.534284 
L 312.002314 276.963814 
L 314.69878 277.417657 
L 316.047013 277.438729 
L 318.74348 278.122735 
L 322.788179 278.939653 
L 324.136412 279.006108 
L 325.484645 279.325419 
L 329.529345 279.933245 
L 333.574044 279.904069 
L 336.270511 279.844097 
L 338.966977 279.464814 
L 340.31521 279.198992 
L 345.708143 277.540843 
L 347.056376 276.845491 
L 351.101075 274.368804 
L 353.797542 272.666892 
L 357.842241 269.207959 
L 360.538708 267.170528 
L 363.235174 264.721396 
L 364.583407 263.376075 
L 367.279873 261.165211 
L 368.628107 260.085713 
L 369.97634 259.169922 
L 371.324573 258.036935 
L 372.672806 257.176254 
L 374.021039 256.544115 
L 376.717506 255.676951 
L 380.762205 255.075609 
L 382.110438 255.161515 
L 387.503371 256.318815 
L 390.199837 256.800213 
L 394.244537 257.925095 
L 396.941003 258.367592 
L 399.637469 258.839265 
L 402.333936 259.200719 
L 407.726868 259.451953 
L 411.771568 259.474645 
L 413.119801 259.265553 
L 418.512734 259.262312 
L 423.905666 258.631794 
L 426.602133 258.497262 
L 430.646832 257.135732 
L 431.995065 256.655955 
L 434.691532 255.328464 
L 436.039765 254.364048 
L 437.387998 253.252132 
L 440.084464 250.553386 
L 441.432697 248.909826 
L 442.780931 246.99558 
L 444.129164 244.776612 
L 445.477397 242.120009 
L 446.82563 239.11654 
L 449.522096 232.333206 
L 450.870329 228.516061 
L 453.566796 219.953014 
L 456.263262 210.281293 
L 460.307962 194.247664 
L 464.352661 177.740741 
L 467.049127 167.258586 
L 469.745594 157.877 
L 471.093827 153.977191 
L 472.44206 150.604164 
L 473.790293 147.626629 
L 475.138526 145.114283 
L 476.48676 142.869381 
L 477.834993 141.109118 
L 479.183226 140.084729 
L 480.531459 139.93723 
L 481.879692 140.405661 
L 483.227925 141.549994 
L 484.576159 143.104407 
L 487.272625 147.114435 
L 489.969091 151.82792 
L 491.317324 154.693615 
L 492.665558 157.920764 
L 494.013791 161.762221 
L 495.362024 166.208263 
L 498.05849 176.136081 
L 503.451423 197.392148 
L 512.889055 239.095468 
L 514.237288 244.405433 
L 515.585521 249.233999 
L 519.630221 261.59312 
L 522.326687 268.972933 
L 523.67492 272.059067 
L 525.023153 274.683252 
L 525.023153 274.683252 
" clip-path="url(#p8af83bb38d)" style="fill: none; stroke: #1f77b4; stroke-width: 2; stroke-linecap: square"/>
   </g>
   <g id="patch_3">
    <path d="M 98.914062 339.84 
L 98.914062 7.2 
" style="fill: none; stroke: #000000; stroke-width: 2; stroke-linejoin: miter; stroke-linecap: square"/>
   </g>
   <g id="patch_4">
    <path d="M 545.314062 339.84 
L 545.314062 7.2 
" style="fill: none; stroke: #000000; stroke-width: 2; stroke-linejoin: miter; stroke-linecap: square"/>
   </g>
   <g id="patch_5">
    <path d="M 98.914062 339.84 
L 545.314062 339.84 
" style="fill: none; stroke: #000000; stroke-width: 2; stroke-linejoin: miter; stroke-linecap: square"/>
   </g>
   <g id="patch_6">
    <path d="M 98.914062 7.2 
L 545.314062 7.2 
" style="fill: none; stroke: #000000; stroke-width: 2; stroke-linejoin: miter; stroke-linecap: square"/>
   </g>
   <g id="legend_1">
    <g id="patch_7">
     <path d="M 330.45875 74.44125 
L 532.714062 74.44125 
Q 536.314062 74.44125 536.314062 70.84125 
L 536.314062 19.8 
Q 536.314062 16.2 532.714062 16.2 
L 330.45875 16.2 
Q 326.85875 16.2 326.85875 19.8 
L 326.85875 70.84125 
Q 326.85875 74.44125 330.45875 74.44125 
z
" style="fill: #ffffff; opacity: 0.8; stroke: #cccccc; stroke-linejoin: miter"/>
    </g>
    <g id="line2d_10">
     <path d="M 334.05875 30.777187 
L 352.05875 30.777187 
L 370.05875 30.777187 
" style="fill: none; stroke: #1f77b4; stroke-width: 2; stroke-linecap: square"/>
    </g>
    <g id="text_11">
     <!-- Mean of F beats -->
     <g transform="translate(384.45875 37.077187) scale(0.18 -0.18)">
      <defs>
       <path id="DejaVuSans-4d" d="M 628 4666 
L 1569 4666 
L 2759 1491 
L 3956 4666 
L 4897 4666 
L 4897 0 
L 4281 0 
L 4281 4097 
L 3078 897 
L 2444 897 
L 1241 4097 
L 1241 0 
L 628 0 
L 628 4666 
z
" transform="scale(0.015625)"/>
       <path id="DejaVuSans-6e" d="M 3513 2113 
L 3513 0 
L 2938 0 
L 2938 2094 
Q 2938 2591 2744 2837 
Q 2550 3084 2163 3084 
Q 1697 3084 1428 2787 
Q 1159 2491 1159 1978 
L 1159 0 
L 581 0 
L 581 3500 
L 1159 3500 
L 1159 2956 
Q 1366 3272 1645 3428 
Q 1925 3584 2291 3584 
Q 2894 3584 3203 3211 
Q 3513 2838 3513 2113 
z
" transform="scale(0.015625)"/>
       <path id="DejaVuSans-6f" d="M 1959 3097 
Q 1497 3097 1228 2736 
Q 959 2375 959 1747 
Q 959 1119 1226 758 
Q 1494 397 1959 397 
Q 2419 397 2687 759 
Q 2956 1122 2956 1747 
Q 2956 2369 2687 2733 
Q 2419 3097 1959 3097 
z
M 1959 3584 
Q 2709 3584 3137 3096 
Q 3566 2609 3566 1747 
Q 3566 888 3137 398 
Q 2709 -91 1959 -91 
Q 1206 -91 779 398 
Q 353 888 353 1747 
Q 353 2609 779 3096 
Q 1206 3584 1959 3584 
z
" transform="scale(0.015625)"/>
       <path id="DejaVuSans-66" d="M 2375 4863 
L 2375 4384 
L 1825 4384 
Q 1516 4384 1395 4259 
Q 1275 4134 1275 3809 
L 1275 3500 
L 2222 3500 
L 2222 3053 
L 1275 3053 
L 1275 0 
L 697 0 
L 697 3053 
L 147 3053 
L 147 3500 
L 697 3500 
L 697 3744 
Q 697 4328 969 4595 
Q 1241 4863 1831 4863 
L 2375 4863 
z
" transform="scale(0.015625)"/>
       <path id="DejaVuSans-46" d="M 628 4666 
L 3309 4666 
L 3309 4134 
L 1259 4134 
L 1259 2759 
L 3109 2759 
L 3109 2228 
L 1259 2228 
L 1259 0 
L 628 0 
L 628 4666 
z
" transform="scale(0.015625)"/>
       <path id="DejaVuSans-62" d="M 3116 1747 
Q 3116 2381 2855 2742 
Q 2594 3103 2138 3103 
Q 1681 3103 1420 2742 
Q 1159 2381 1159 1747 
Q 1159 1113 1420 752 
Q 1681 391 2138 391 
Q 2594 391 2855 752 
Q 3116 1113 3116 1747 
z
M 1159 2969 
Q 1341 3281 1617 3432 
Q 1894 3584 2278 3584 
Q 2916 3584 3314 3078 
Q 3713 2572 3713 1747 
Q 3713 922 3314 415 
Q 2916 -91 2278 -91 
Q 1894 -91 1617 61 
Q 1341 213 1159 525 
L 1159 0 
L 581 0 
L 581 4863 
L 1159 4863 
L 1159 2969 
z
" transform="scale(0.015625)"/>
       <path id="DejaVuSans-73" d="M 2834 3397 
L 2834 2853 
Q 2591 2978 2328 3040 
Q 2066 3103 1784 3103 
Q 1356 3103 1142 2972 
Q 928 2841 928 2578 
Q 928 2378 1081 2264 
Q 1234 2150 1697 2047 
L 1894 2003 
Q 2506 1872 2764 1633 
Q 3022 1394 3022 966 
Q 3022 478 2636 193 
Q 2250 -91 1575 -91 
Q 1294 -91 989 -36 
Q 684 19 347 128 
L 347 722 
Q 666 556 975 473 
Q 1284 391 1588 391 
Q 1994 391 2212 530 
Q 2431 669 2431 922 
Q 2431 1156 2273 1281 
Q 2116 1406 1581 1522 
L 1381 1569 
Q 847 1681 609 1914 
Q 372 2147 372 2553 
Q 372 3047 722 3315 
Q 1072 3584 1716 3584 
Q 2034 3584 2315 3537 
Q 2597 3491 2834 3397 
z
" transform="scale(0.015625)"/>
      </defs>
      <use xlink:href="#DejaVuSans-4d"/>
      <use xlink:href="#DejaVuSans-65" x="86.279297"/>
      <use xlink:href="#DejaVuSans-61" x="147.802734"/>
      <use xlink:href="#DejaVuSans-6e" x="209.082031"/>
      <use xlink:href="#DejaVuSans-20" x="272.460938"/>
      <use xlink:href="#DejaVuSans-6f" x="304.248047"/>
      <use xlink:href="#DejaVuSans-66" x="365.429688"/>
      <use xlink:href="#DejaVuSans-20" x="400.634766"/>
      <use xlink:href="#DejaVuSans-46" x="432.421875"/>
      <use xlink:href="#DejaVuSans-20" x="489.941406"/>
      <use xlink:href="#DejaVuSans-62" x="521.728516"/>
      <use xlink:href="#DejaVuSans-65" x="585.205078"/>
      <use xlink:href="#DejaVuSans-61" x="646.728516"/>
      <use xlink:href="#DejaVuSans-74" x="708.007812"/>
      <use xlink:href="#DejaVuSans-73" x="747.216797"/>
     </g>
    </g>
    <g id="patch_8">
     <path d="M 334.05875 63.497812 
L 370.05875 63.497812 
L 370.05875 50.897812 
L 334.05875 50.897812 
z
" style="fill: #808080; fill-opacity: 0.3; stroke: #808080; stroke-opacity: 0.3; stroke-linejoin: miter"/>
    </g>
    <g id="text_12">
     <!-- Standard Range -->
     <g transform="translate(384.45875 63.497812) scale(0.18 -0.18)">
      <defs>
       <path id="DejaVuSans-72" d="M 2631 2963 
Q 2534 3019 2420 3045 
Q 2306 3072 2169 3072 
Q 1681 3072 1420 2755 
Q 1159 2438 1159 1844 
L 1159 0 
L 581 0 
L 581 3500 
L 1159 3500 
L 1159 2956 
Q 1341 3275 1631 3429 
Q 1922 3584 2338 3584 
Q 2397 3584 2469 3576 
Q 2541 3569 2628 3553 
L 2631 2963 
z
" transform="scale(0.015625)"/>
       <path id="DejaVuSans-52" d="M 2841 2188 
Q 3044 2119 3236 1894 
Q 3428 1669 3622 1275 
L 4263 0 
L 3584 0 
L 2988 1197 
Q 2756 1666 2539 1819 
Q 2322 1972 1947 1972 
L 1259 1972 
L 1259 0 
L 628 0 
L 628 4666 
L 2053 4666 
Q 2853 4666 3247 4331 
Q 3641 3997 3641 3322 
Q 3641 2881 3436 2590 
Q 3231 2300 2841 2188 
z
M 1259 4147 
L 1259 2491 
L 2053 2491 
Q 2509 2491 2742 2702 
Q 2975 2913 2975 3322 
Q 2975 3731 2742 3939 
Q 2509 4147 2053 4147 
L 1259 4147 
z
" transform="scale(0.015625)"/>
       <path id="DejaVuSans-67" d="M 2906 1791 
Q 2906 2416 2648 2759 
Q 2391 3103 1925 3103 
Q 1463 3103 1205 2759 
Q 947 2416 947 1791 
Q 947 1169 1205 825 
Q 1463 481 1925 481 
Q 2391 481 2648 825 
Q 2906 1169 2906 1791 
z
M 3481 434 
Q 3481 -459 3084 -895 
Q 2688 -1331 1869 -1331 
Q 1566 -1331 1297 -1286 
Q 1028 -1241 775 -1147 
L 775 -588 
Q 1028 -725 1275 -790 
Q 1522 -856 1778 -856 
Q 2344 -856 2625 -561 
Q 2906 -266 2906 331 
L 2906 616 
Q 2728 306 2450 153 
Q 2172 0 1784 0 
Q 1141 0 747 490 
Q 353 981 353 1791 
Q 353 2603 747 3093 
Q 1141 3584 1784 3584 
Q 2172 3584 2450 3431 
Q 2728 3278 2906 2969 
L 2906 3500 
L 3481 3500 
L 3481 434 
z
" transform="scale(0.015625)"/>
      </defs>
      <use xlink:href="#DejaVuSans-53"/>
      <use xlink:href="#DejaVuSans-74" x="63.476562"/>
      <use xlink:href="#DejaVuSans-61" x="102.685547"/>
      <use xlink:href="#DejaVuSans-6e" x="163.964844"/>
      <use xlink:href="#DejaVuSans-64" x="227.34375"/>
      <use xlink:href="#DejaVuSans-61" x="290.820312"/>
      <use xlink:href="#DejaVuSans-72" x="352.099609"/>
      <use xlink:href="#DejaVuSans-64" x="391.462891"/>
      <use xlink:href="#DejaVuSans-20" x="454.939453"/>
      <use xlink:href="#DejaVuSans-52" x="486.726562"/>
      <use xlink:href="#DejaVuSans-61" x="553.958984"/>
      <use xlink:href="#DejaVuSans-6e" x="615.238281"/>
      <use xlink:href="#DejaVuSans-67" x="678.617188"/>
      <use xlink:href="#DejaVuSans-65" x="742.09375"/>
     </g>
    </g>
   </g>
  </g>
 </g>
 <defs>
  <clipPath id="p8af83bb38d">
   <rect x="98.914062" y="7.2" width="446.4" height="332.64"/>
  </clipPath>
 </defs>
</svg>
