<?xml version="1.0" encoding="utf-8" standalone="no"?>
<!DOCTYPE svg PUBLIC "-//W3C//DTD SVG 1.1//EN"
  "http://www.w3.org/Graphics/SVG/1.1/DTD/svg11.dtd">
<svg xmlns:xlink="http://www.w3.org/1999/xlink" width="566.511562pt" height="406.62375pt" viewBox="0 0 566.511562 406.62375" xmlns="http://www.w3.org/2000/svg" version="1.1">
 <metadata>
  <rdf:RDF xmlns:dc="http://purl.org/dc/elements/1.1/" xmlns:cc="http://creativecommons.org/ns#" xmlns:rdf="http://www.w3.org/1999/02/22-rdf-syntax-ns#">
   <cc:Work>
    <dc:type rdf:resource="http://purl.org/dc/dcmitype/StillImage"/>
    <dc:date>2024-05-15T14:41:24.103383</dc:date>
    <dc:format>image/svg+xml</dc:format>
    <dc:creator>
     <cc:Agent>
      <dc:title>Matplotlib v3.7.5, https://matplotlib.org/</dc:title>
     </cc:Agent>
    </dc:creator>
   </cc:Work>
  </rdf:RDF>
 </metadata>
 <defs>
  <style type="text/css">*{stroke-linejoin: round; stroke-linecap: butt}</style>
 </defs>
 <g id="figure_1">
  <g id="patch_1">
   <path d="M 0 406.62375 
L 566.511562 406.62375 
L 566.511562 0 
L 0 0 
z
" style="fill: #ffffff"/>
  </g>
  <g id="axes_1">
   <g id="patch_2">
    <path d="M 112.911563 339.84 
L 559.311563 339.84 
L 559.311563 7.2 
L 112.911563 7.2 
z
" style="fill: #ffffff"/>
   </g>
   <g id="PolyCollection_1">
    <defs>
     <path id="me505a8a9a8" d="M 133.202472 -176.669922 
L 133.202472 -119.118209 
L 134.550705 -119.640517 
L 135.898938 -119.885349 
L 137.247171 -119.983281 
L 138.595404 -119.395685 
L 139.943637 -119.689483 
L 141.291871 -120.228113 
L 142.640104 -120.293402 
L 143.988337 -119.901671 
L 145.33657 -120.179147 
L 146.684803 -119.705805 
L 148.033036 -119.395685 
L 149.38127 -119.771094 
L 150.729503 -120.309724 
L 152.077736 -120.407657 
L 153.425969 -120.244436 
L 154.774202 -119.771094 
L 156.122435 -119.575228 
L 157.470669 -119.460973 
L 158.818902 -119.803738 
L 160.167135 -119.689483 
L 161.515368 -118.661189 
L 162.863601 -118.171525 
L 164.211834 -117.453351 
L 165.560067 -116.914721 
L 166.908301 -116.506668 
L 168.256534 -115.641595 
L 169.604767 -114.450079 
L 170.953 -113.127986 
L 172.301233 -111.479451 
L 173.649466 -110.124714 
L 174.9977 -108.623078 
L 176.345933 -106.843966 
L 177.694166 -105.750383 
L 179.042399 -103.922305 
L 180.390632 -102.322736 
L 181.738865 -101.343408 
L 183.087099 -100.331436 
L 184.435332 -99.286819 
L 185.783565 -98.078982 
L 187.131798 -96.332514 
L 188.480031 -94.471791 
L 189.828264 -93.16602 
L 191.176498 -92.137726 
L 192.524731 -91.09311 
L 193.872964 -89.526185 
L 195.221197 -88.497891 
L 196.56943 -87.355342 
L 197.917663 -87.094188 
L 199.265897 -86.637168 
L 200.61413 -86.637168 
L 201.962363 -85.967961 
L 203.310596 -85.690484 
L 204.658829 -86.065893 
L 206.007062 -86.816711 
L 207.355296 -87.812361 
L 208.703529 -88.579502 
L 210.051762 -88.8733 
L 211.399995 -88.546857 
L 212.748228 -88.710079 
L 214.096461 -89.41193 
L 215.444694 -90.048493 
L 216.792928 -90.309647 
L 218.141161 -90.750345 
L 219.489394 -90.946211 
L 220.837627 -91.17472 
L 222.18586 -91.582774 
L 223.534093 -92.643712 
L 224.882327 -93.231309 
L 226.23056 -93.574074 
L 227.578793 -93.753617 
L 228.927026 -94.16167 
L 230.275259 -94.602368 
L 231.623492 -95.418474 
L 232.971726 -96.006071 
L 234.319959 -96.577346 
L 235.668192 -97.115976 
L 237.016425 -97.719895 
L 238.364658 -98.405424 
L 239.712891 -99.515329 
L 241.061125 -99.792805 
L 242.409358 -100.233503 
L 243.757591 -100.984321 
L 245.105824 -101.979971 
L 246.454057 -102.991943 
L 247.80229 -104.509901 
L 249.150524 -105.146464 
L 250.498757 -105.619806 
L 251.84699 -104.88531 
L 253.195223 -103.057232 
L 254.543456 -99.384752 
L 255.891689 -93.753617 
L 257.239923 -87.322697 
L 258.588156 -85.168176 
L 259.936389 -91.615418 
L 261.284622 -108.574112 
L 262.632855 -136.321735 
L 263.981088 -175.902902 
L 265.329321 -225.962878 
L 266.677555 -276.561483 
L 268.025788 -314.102385 
L 269.374021 -326.752036 
L 270.722254 -307.198123 
L 272.070487 -257.170792 
L 273.41872 -197.660303 
L 274.766954 -152.594899 
L 276.115187 -131.702571 
L 277.46342 -127.981126 
L 278.811653 -131.147619 
L 280.159886 -132.453389 
L 281.508119 -131.245552 
L 282.856353 -127.981126 
L 284.204586 -123.998526 
L 285.552819 -120.734099 
L 286.901052 -118.122559 
L 288.249285 -116.849432 
L 289.597518 -116.245513 
L 290.945752 -115.266186 
L 292.293985 -114.270536 
L 293.642218 -113.633973 
L 294.990451 -113.046376 
L 296.338684 -112.883154 
L 297.686917 -112.785222 
L 299.035151 -112.670967 
L 300.383384 -112.654645 
L 301.731617 -112.752577 
L 303.07985 -113.095342 
L 304.428083 -113.372818 
L 305.776316 -114.07467 
L 307.12455 -113.84616 
L 308.472783 -113.438107 
L 309.821016 -112.589356 
L 311.169249 -113.013732 
L 312.517482 -112.932121 
L 313.865715 -112.801544 
L 315.213948 -112.001759 
L 316.562182 -111.675317 
L 317.910415 -111.577384 
L 319.258648 -111.446807 
L 320.606881 -111.561062 
L 321.955114 -110.793922 
L 323.303347 -110.483801 
L 324.651581 -109.912527 
L 325.999814 -109.406541 
L 327.348047 -109.373896 
L 328.69628 -109.55344 
L 330.044513 -109.210675 
L 331.392746 -108.753655 
L 332.74098 -108.149737 
L 334.089213 -107.741683 
L 335.437446 -107.79065 
L 336.785679 -108.019159 
L 338.133912 -108.198703 
L 339.482145 -107.627428 
L 340.830379 -107.121442 
L 342.178612 -107.121442 
L 343.526845 -107.56214 
L 344.875078 -107.349952 
L 346.223311 -107.349952 
L 347.571544 -107.235697 
L 348.919778 -106.941899 
L 350.268011 -106.321658 
L 351.616244 -106.517523 
L 352.964477 -106.240047 
L 354.31271 -106.256369 
L 355.660943 -105.636128 
L 357.009177 -105.374974 
L 358.35741 -104.836344 
L 359.705643 -105.407619 
L 361.053876 -105.244397 
L 362.402109 -104.558868 
L 363.750342 -103.661151 
L 365.098575 -102.371702 
L 366.446809 -101.58824 
L 367.795042 -101.35973 
L 369.143275 -100.657878 
L 370.491508 -99.694873 
L 371.839741 -97.817828 
L 373.187974 -96.38148 
L 374.536208 -94.912488 
L 375.884441 -93.884194 
L 377.232674 -92.774289 
L 378.580907 -91.076788 
L 379.92914 -89.395608 
L 381.277373 -87.404308 
L 382.625607 -86.131182 
L 383.97384 -85.151854 
L 385.322073 -84.254137 
L 386.670306 -83.486997 
L 388.018539 -83.193198 
L 389.366772 -81.90375 
L 390.715006 -82.083293 
L 392.063239 -81.920072 
L 393.411472 -82.230193 
L 394.759705 -82.850434 
L 396.107938 -82.752501 
L 397.456171 -82.083293 
L 398.804405 -82.083293 
L 400.152638 -82.36077 
L 401.500871 -83.601252 
L 402.849104 -84.776445 
L 404.197337 -85.086566 
L 405.54557 -85.65784 
L 406.893804 -86.637168 
L 408.242037 -87.698106 
L 409.59027 -88.954911 
L 410.938503 -90.146426 
L 412.286736 -90.848278 
L 413.634969 -90.946211 
L 414.983202 -91.484841 
L 416.331436 -93.117054 
L 417.679669 -93.998449 
L 419.027902 -94.667656 
L 420.376135 -95.630662 
L 421.724368 -95.61434 
L 423.072601 -95.973427 
L 424.420835 -97.132298 
L 425.769068 -97.556674 
L 427.117301 -97.752539 
L 428.465534 -98.291169 
L 429.813767 -98.60129 
L 431.162 -98.584968 
L 432.510234 -99.254175 
L 433.858467 -99.59694 
L 435.2067 -100.657878 
L 436.554933 -100.951677 
L 437.903166 -100.935355 
L 439.251399 -101.425019 
L 440.599633 -102.04526 
L 441.947866 -101.800428 
L 443.296099 -101.735139 
L 444.644332 -102.159514 
L 445.992565 -102.632856 
L 447.340798 -102.910333 
L 448.689032 -103.759083 
L 450.037265 -105.440263 
L 451.385498 -106.305336 
L 452.733731 -107.300986 
L 454.081964 -107.970193 
L 455.430197 -108.051804 
L 456.778431 -109.161709 
L 458.126664 -109.63505 
L 459.474897 -109.700339 
L 460.82313 -110.059426 
L 462.171363 -110.190003 
L 463.519596 -110.287936 
L 464.867829 -109.994137 
L 466.216063 -110.124714 
L 467.564296 -110.614378 
L 468.912529 -110.842888 
L 470.260762 -111.006109 
L 471.608995 -111.299908 
L 472.957228 -111.642673 
L 474.305462 -111.740605 
L 475.653695 -111.234619 
L 477.001928 -110.402191 
L 478.350161 -109.341252 
L 479.698394 -108.672045 
L 481.046627 -108.361924 
L 482.394861 -109.129064 
L 483.743094 -109.765627 
L 485.091327 -109.488151 
L 486.43956 -108.835266 
L 487.787793 -108.900555 
L 489.136026 -108.802622 
L 490.48426 -108.769978 
L 491.832493 -109.210675 
L 493.180726 -109.602406 
L 494.528959 -108.835266 
L 495.877192 -109.537118 
L 497.225425 -110.157359 
L 498.573659 -110.957143 
L 499.921892 -111.136686 
L 501.270125 -111.528418 
L 502.618358 -111.920149 
L 503.966591 -112.295558 
L 505.314824 -113.356496 
L 506.663058 -113.976737 
L 508.011291 -113.209597 
L 509.359524 -112.164981 
L 510.707757 -110.679667 
L 512.05599 -110.647023 
L 513.404223 -111.006109 
L 514.752456 -112.230269 
L 516.10069 -113.095342 
L 517.448923 -113.633973 
L 518.797156 -113.519718 
L 520.145389 -112.948443 
L 521.493622 -112.932121 
L 522.841855 -112.866832 
L 524.190089 -112.899477 
L 525.538322 -113.650295 
L 526.886555 -114.53169 
L 528.234788 -115.478373 
L 529.583021 -116.6046 
L 530.931254 -117.51864 
L 532.279488 -116.931043 
L 533.627721 -116.06597 
L 534.975954 -114.727555 
L 536.324187 -113.127986 
L 537.67242 -112.034404 
L 539.020653 -111.85486 
L 539.020653 -169.406574 
L 539.020653 -169.406574 
L 537.67242 -169.586118 
L 536.324187 -170.6797 
L 534.975954 -172.279269 
L 533.627721 -173.617684 
L 532.279488 -174.482757 
L 530.931254 -175.070354 
L 529.583021 -174.156314 
L 528.234788 -173.030087 
L 526.886555 -172.083404 
L 525.538322 -171.202009 
L 524.190089 -170.451191 
L 522.841855 -170.418546 
L 521.493622 -170.483835 
L 520.145389 -170.500157 
L 518.797156 -171.071432 
L 517.448923 -171.185686 
L 516.10069 -170.647056 
L 514.752456 -169.781983 
L 513.404223 -168.557823 
L 512.05599 -168.198737 
L 510.707757 -168.231381 
L 509.359524 -169.716695 
L 508.011291 -170.761311 
L 506.663058 -171.528451 
L 505.314824 -170.90821 
L 503.966591 -169.847272 
L 502.618358 -169.471863 
L 501.270125 -169.080132 
L 499.921892 -168.6884 
L 498.573659 -168.508857 
L 497.225425 -167.709073 
L 495.877192 -167.088832 
L 494.528959 -166.38698 
L 493.180726 -167.15412 
L 491.832493 -166.762389 
L 490.48426 -166.321691 
L 489.136026 -166.354336 
L 487.787793 -166.452269 
L 486.43956 -166.38698 
L 485.091327 -167.039865 
L 483.743094 -167.317341 
L 482.394861 -166.680778 
L 481.046627 -165.913638 
L 479.698394 -166.223759 
L 478.350161 -166.892966 
L 477.001928 -167.953905 
L 475.653695 -168.786333 
L 474.305462 -169.292319 
L 472.957228 -169.194387 
L 471.608995 -168.851622 
L 470.260762 -168.557823 
L 468.912529 -168.394602 
L 467.564296 -168.166092 
L 466.216063 -167.676428 
L 464.867829 -167.545851 
L 463.519596 -167.83965 
L 462.171363 -167.741717 
L 460.82313 -167.61114 
L 459.474897 -167.252053 
L 458.126664 -167.186764 
L 456.778431 -166.713423 
L 455.430197 -165.603518 
L 454.081964 -165.521907 
L 452.733731 -164.8527 
L 451.385498 -163.85705 
L 450.037265 -162.991977 
L 448.689032 -161.310797 
L 447.340798 -160.462046 
L 445.992565 -160.18457 
L 444.644332 -159.711228 
L 443.296099 -159.286853 
L 441.947866 -159.352142 
L 440.599633 -159.596974 
L 439.251399 -158.976733 
L 437.903166 -158.487069 
L 436.554933 -158.503391 
L 435.2067 -158.209592 
L 433.858467 -157.148654 
L 432.510234 -156.805889 
L 431.162 -156.136682 
L 429.813767 -156.153004 
L 428.465534 -155.842883 
L 427.117301 -155.304253 
L 425.769068 -155.108388 
L 424.420835 -154.684012 
L 423.072601 -153.525141 
L 421.724368 -153.166054 
L 420.376135 -153.182376 
L 419.027902 -152.21937 
L 417.679669 -151.550163 
L 416.331436 -150.668768 
L 414.983202 -149.036555 
L 413.634969 -148.497924 
L 412.286736 -148.399992 
L 410.938503 -147.69814 
L 409.59027 -146.506625 
L 408.242037 -145.24982 
L 406.893804 -144.188882 
L 405.54557 -143.209554 
L 404.197337 -142.638279 
L 402.849104 -142.328159 
L 401.500871 -141.152966 
L 400.152638 -139.912484 
L 398.804405 -139.635007 
L 397.456171 -139.635007 
L 396.107938 -140.304215 
L 394.759705 -140.402148 
L 393.411472 -139.781907 
L 392.063239 -139.471786 
L 390.715006 -139.635007 
L 389.366772 -139.455464 
L 388.018539 -140.744912 
L 386.670306 -141.038711 
L 385.322073 -141.805851 
L 383.97384 -142.703568 
L 382.625607 -143.682896 
L 381.277373 -144.956022 
L 379.92914 -146.947322 
L 378.580907 -148.628502 
L 377.232674 -150.326003 
L 375.884441 -151.435908 
L 374.536208 -152.464202 
L 373.187974 -153.933194 
L 371.839741 -155.369542 
L 370.491508 -157.246587 
L 369.143275 -158.209592 
L 367.795042 -158.911444 
L 366.446809 -159.139954 
L 365.098575 -159.923416 
L 363.750342 -161.212864 
L 362.402109 -162.110582 
L 361.053876 -162.796111 
L 359.705643 -162.959332 
L 358.35741 -162.388058 
L 357.009177 -162.926688 
L 355.660943 -163.187842 
L 354.31271 -163.808083 
L 352.964477 -163.791761 
L 351.616244 -164.069237 
L 350.268011 -163.873372 
L 348.919778 -164.493613 
L 347.571544 -164.787411 
L 346.223311 -164.901666 
L 344.875078 -164.901666 
L 343.526845 -165.113854 
L 342.178612 -164.673156 
L 340.830379 -164.673156 
L 339.482145 -165.179142 
L 338.133912 -165.750417 
L 336.785679 -165.570873 
L 335.437446 -165.342364 
L 334.089213 -165.293397 
L 332.74098 -165.70145 
L 331.392746 -166.305369 
L 330.044513 -166.762389 
L 328.69628 -167.105154 
L 327.348047 -166.92561 
L 325.999814 -166.958255 
L 324.651581 -167.464241 
L 323.303347 -168.035515 
L 321.955114 -168.345636 
L 320.606881 -169.112776 
L 319.258648 -168.998521 
L 317.910415 -169.129098 
L 316.562182 -169.227031 
L 315.213948 -169.553473 
L 313.865715 -170.353258 
L 312.517482 -170.483835 
L 311.169249 -170.565446 
L 309.821016 -170.14107 
L 308.472783 -170.989821 
L 307.12455 -171.397874 
L 305.776316 -171.626384 
L 304.428083 -170.924532 
L 303.07985 -170.647056 
L 301.731617 -170.304291 
L 300.383384 -170.206359 
L 299.035151 -170.222681 
L 297.686917 -170.336936 
L 296.338684 -170.434868 
L 294.990451 -170.59809 
L 293.642218 -171.185686 
L 292.293985 -171.82225 
L 290.945752 -172.8179 
L 289.597518 -173.797227 
L 288.249285 -174.401146 
L 286.901052 -175.674272 
L 285.552819 -178.285813 
L 284.204586 -181.55024 
L 282.856353 -185.53284 
L 281.508119 -188.797266 
L 280.159886 -190.005103 
L 278.811653 -188.699333 
L 277.46342 -185.53284 
L 276.115187 -189.254285 
L 274.766954 -210.146613 
L 273.41872 -255.212016 
L 272.070487 -314.722506 
L 270.722254 -364.749837 
L 269.374021 -384.30375 
L 268.025788 -371.654099 
L 266.677555 -334.113197 
L 265.329321 -283.514592 
L 263.981088 -233.454616 
L 262.632855 -193.873448 
L 261.284622 -166.125826 
L 259.936389 -149.167132 
L 258.588156 -142.71989 
L 257.239923 -144.874411 
L 255.891689 -151.305331 
L 254.543456 -156.936466 
L 253.195223 -160.608946 
L 251.84699 -162.437024 
L 250.498757 -163.17152 
L 249.150524 -162.698178 
L 247.80229 -162.061615 
L 246.454057 -160.543657 
L 245.105824 -159.531685 
L 243.757591 -158.536035 
L 242.409358 -157.785217 
L 241.061125 -157.344519 
L 239.712891 -157.067043 
L 238.364658 -155.957138 
L 237.016425 -155.271609 
L 235.668192 -154.66769 
L 234.319959 -154.12906 
L 232.971726 -153.557785 
L 231.623492 -152.970188 
L 230.275259 -152.154082 
L 228.927026 -151.713384 
L 227.578793 -151.305331 
L 226.23056 -151.125788 
L 224.882327 -150.783023 
L 223.534093 -150.195426 
L 222.18586 -149.134488 
L 220.837627 -148.726434 
L 219.489394 -148.497924 
L 218.141161 -148.302059 
L 216.792928 -147.861361 
L 215.444694 -147.600207 
L 214.096461 -146.963644 
L 212.748228 -146.261793 
L 211.399995 -146.098571 
L 210.051762 -146.425014 
L 208.703529 -146.131216 
L 207.355296 -145.364075 
L 206.007062 -144.368425 
L 204.658829 -143.617607 
L 203.310596 -143.242198 
L 201.962363 -143.519675 
L 200.61413 -144.188882 
L 199.265897 -144.188882 
L 197.917663 -144.645902 
L 196.56943 -144.907056 
L 195.221197 -146.049605 
L 193.872964 -147.077899 
L 192.524731 -148.644824 
L 191.176498 -149.68944 
L 189.828264 -150.717734 
L 188.480031 -152.023505 
L 187.131798 -153.884228 
L 185.783565 -155.630696 
L 184.435332 -156.838533 
L 183.087099 -157.88315 
L 181.738865 -158.895122 
L 180.390632 -159.87445 
L 179.042399 -161.474019 
L 177.694166 -163.302097 
L 176.345933 -164.39568 
L 174.9977 -166.174792 
L 173.649466 -167.676428 
L 172.301233 -169.031165 
L 170.953 -170.6797 
L 169.604767 -172.001793 
L 168.256534 -173.193309 
L 166.908301 -174.058382 
L 165.560067 -174.466435 
L 164.211834 -175.005065 
L 162.863601 -175.723239 
L 161.515368 -176.212903 
L 160.167135 -177.241197 
L 158.818902 -177.355452 
L 157.470669 -177.012687 
L 156.122435 -177.126942 
L 154.774202 -177.322808 
L 153.425969 -177.79615 
L 152.077736 -177.959371 
L 150.729503 -177.861438 
L 149.38127 -177.322808 
L 148.033036 -176.947399 
L 146.684803 -177.257519 
L 145.33657 -177.730861 
L 143.988337 -177.453385 
L 142.640104 -177.845116 
L 141.291871 -177.779827 
L 139.943637 -177.241197 
L 138.595404 -176.947399 
L 137.247171 -177.534995 
L 135.898938 -177.437063 
L 134.550705 -177.192231 
L 133.202472 -176.669922 
z
" style="stroke: #808080; stroke-opacity: 0.3"/>
    </defs>
    <g clip-path="url(#p24ff907669)">
     <use xlink:href="#me505a8a9a8" x="0" y="406.62375" style="fill: #808080; fill-opacity: 0.3; stroke: #808080; stroke-opacity: 0.3"/>
    </g>
   </g>
   <g id="matplotlib.axis_1">
    <g id="xtick_1">
     <g id="line2d_1">
      <defs>
       <path id="mbd09625758" d="M 0 0 
L 0 -3.5 
" style="stroke: #000000; stroke-width: 2"/>
      </defs>
      <g>
       <use xlink:href="#mbd09625758" x="133.202472" y="339.84" style="stroke: #000000; stroke-width: 2"/>
      </g>
     </g>
     <g id="text_1">
      <!-- 0 -->
      <g transform="translate(126.203722 363.556563) scale(0.22 -0.22)">
       <defs>
        <path id="DejaVuSans-30" d="M 2034 4250 
Q 1547 4250 1301 3770 
Q 1056 3291 1056 2328 
Q 1056 1369 1301 889 
Q 1547 409 2034 409 
Q 2525 409 2770 889 
Q 3016 1369 3016 2328 
Q 3016 3291 2770 3770 
Q 2525 4250 2034 4250 
z
M 2034 4750 
Q 2819 4750 3233 4129 
Q 3647 3509 3647 2328 
Q 3647 1150 3233 529 
Q 2819 -91 2034 -91 
Q 1250 -91 836 529 
Q 422 1150 422 2328 
Q 422 3509 836 4129 
Q 1250 4750 2034 4750 
z
" transform="scale(0.015625)"/>
       </defs>
       <use xlink:href="#DejaVuSans-30"/>
      </g>
     </g>
    </g>
    <g id="xtick_2">
     <g id="line2d_2">
      <g>
       <use xlink:href="#mbd09625758" x="268.025788" y="339.84" style="stroke: #000000; stroke-width: 2"/>
      </g>
     </g>
     <g id="text_2">
      <!-- 100 -->
      <g transform="translate(247.029538 363.556563) scale(0.22 -0.22)">
       <defs>
        <path id="DejaVuSans-31" d="M 794 531 
L 1825 531 
L 1825 4091 
L 703 3866 
L 703 4441 
L 1819 4666 
L 2450 4666 
L 2450 531 
L 3481 531 
L 3481 0 
L 794 0 
L 794 531 
z
" transform="scale(0.015625)"/>
       </defs>
       <use xlink:href="#DejaVuSans-31"/>
       <use xlink:href="#DejaVuSans-30" x="63.623047"/>
       <use xlink:href="#DejaVuSans-30" x="127.246094"/>
      </g>
     </g>
    </g>
    <g id="xtick_3">
     <g id="line2d_3">
      <g>
       <use xlink:href="#mbd09625758" x="402.849104" y="339.84" style="stroke: #000000; stroke-width: 2"/>
      </g>
     </g>
     <g id="text_3">
      <!-- 200 -->
      <g transform="translate(381.852854 363.556563) scale(0.22 -0.22)">
       <defs>
        <path id="DejaVuSans-32" d="M 1228 531 
L 3431 531 
L 3431 0 
L 469 0 
L 469 531 
Q 828 903 1448 1529 
Q 2069 2156 2228 2338 
Q 2531 2678 2651 2914 
Q 2772 3150 2772 3378 
Q 2772 3750 2511 3984 
Q 2250 4219 1831 4219 
Q 1534 4219 1204 4116 
Q 875 4013 500 3803 
L 500 4441 
Q 881 4594 1212 4672 
Q 1544 4750 1819 4750 
Q 2544 4750 2975 4387 
Q 3406 4025 3406 3419 
Q 3406 3131 3298 2873 
Q 3191 2616 2906 2266 
Q 2828 2175 2409 1742 
Q 1991 1309 1228 531 
z
" transform="scale(0.015625)"/>
       </defs>
       <use xlink:href="#DejaVuSans-32"/>
       <use xlink:href="#DejaVuSans-30" x="63.623047"/>
       <use xlink:href="#DejaVuSans-30" x="127.246094"/>
      </g>
     </g>
    </g>
    <g id="xtick_4">
     <g id="line2d_4">
      <g>
       <use xlink:href="#mbd09625758" x="537.67242" y="339.84" style="stroke: #000000; stroke-width: 2"/>
      </g>
     </g>
     <g id="text_4">
      <!-- 300 -->
      <g transform="translate(516.67617 363.556563) scale(0.22 -0.22)">
       <defs>
        <path id="DejaVuSans-33" d="M 2597 2516 
Q 3050 2419 3304 2112 
Q 3559 1806 3559 1356 
Q 3559 666 3084 287 
Q 2609 -91 1734 -91 
Q 1441 -91 1130 -33 
Q 819 25 488 141 
L 488 750 
Q 750 597 1062 519 
Q 1375 441 1716 441 
Q 2309 441 2620 675 
Q 2931 909 2931 1356 
Q 2931 1769 2642 2001 
Q 2353 2234 1838 2234 
L 1294 2234 
L 1294 2753 
L 1863 2753 
Q 2328 2753 2575 2939 
Q 2822 3125 2822 3475 
Q 2822 3834 2567 4026 
Q 2313 4219 1838 4219 
Q 1578 4219 1281 4162 
Q 984 4106 628 3988 
L 628 4550 
Q 988 4650 1302 4700 
Q 1616 4750 1894 4750 
Q 2613 4750 3031 4423 
Q 3450 4097 3450 3541 
Q 3450 3153 3228 2886 
Q 3006 2619 2597 2516 
z
" transform="scale(0.015625)"/>
       </defs>
       <use xlink:href="#DejaVuSans-33"/>
       <use xlink:href="#DejaVuSans-30" x="63.623047"/>
       <use xlink:href="#DejaVuSans-30" x="127.246094"/>
      </g>
     </g>
    </g>
    <g id="text_5">
     <!-- Sample -->
     <g transform="translate(294.865 394.848438) scale(0.22 -0.22)">
      <defs>
       <path id="DejaVuSans-53" d="M 3425 4513 
L 3425 3897 
Q 3066 4069 2747 4153 
Q 2428 4238 2131 4238 
Q 1616 4238 1336 4038 
Q 1056 3838 1056 3469 
Q 1056 3159 1242 3001 
Q 1428 2844 1947 2747 
L 2328 2669 
Q 3034 2534 3370 2195 
Q 3706 1856 3706 1288 
Q 3706 609 3251 259 
Q 2797 -91 1919 -91 
Q 1588 -91 1214 -16 
Q 841 59 441 206 
L 441 856 
Q 825 641 1194 531 
Q 1563 422 1919 422 
Q 2459 422 2753 634 
Q 3047 847 3047 1241 
Q 3047 1584 2836 1778 
Q 2625 1972 2144 2069 
L 1759 2144 
Q 1053 2284 737 2584 
Q 422 2884 422 3419 
Q 422 4038 858 4394 
Q 1294 4750 2059 4750 
Q 2388 4750 2728 4690 
Q 3069 4631 3425 4513 
z
" transform="scale(0.015625)"/>
       <path id="DejaVuSans-61" d="M 2194 1759 
Q 1497 1759 1228 1600 
Q 959 1441 959 1056 
Q 959 750 1161 570 
Q 1363 391 1709 391 
Q 2188 391 2477 730 
Q 2766 1069 2766 1631 
L 2766 1759 
L 2194 1759 
z
M 3341 1997 
L 3341 0 
L 2766 0 
L 2766 531 
Q 2569 213 2275 61 
Q 1981 -91 1556 -91 
Q 1019 -91 701 211 
Q 384 513 384 1019 
Q 384 1609 779 1909 
Q 1175 2209 1959 2209 
L 2766 2209 
L 2766 2266 
Q 2766 2663 2505 2880 
Q 2244 3097 1772 3097 
Q 1472 3097 1187 3025 
Q 903 2953 641 2809 
L 641 3341 
Q 956 3463 1253 3523 
Q 1550 3584 1831 3584 
Q 2591 3584 2966 3190 
Q 3341 2797 3341 1997 
z
" transform="scale(0.015625)"/>
       <path id="DejaVuSans-6d" d="M 3328 2828 
Q 3544 3216 3844 3400 
Q 4144 3584 4550 3584 
Q 5097 3584 5394 3201 
Q 5691 2819 5691 2113 
L 5691 0 
L 5113 0 
L 5113 2094 
Q 5113 2597 4934 2840 
Q 4756 3084 4391 3084 
Q 3944 3084 3684 2787 
Q 3425 2491 3425 1978 
L 3425 0 
L 2847 0 
L 2847 2094 
Q 2847 2600 2669 2842 
Q 2491 3084 2119 3084 
Q 1678 3084 1418 2786 
Q 1159 2488 1159 1978 
L 1159 0 
L 581 0 
L 581 3500 
L 1159 3500 
L 1159 2956 
Q 1356 3278 1631 3431 
Q 1906 3584 2284 3584 
Q 2666 3584 2933 3390 
Q 3200 3197 3328 2828 
z
" transform="scale(0.015625)"/>
       <path id="DejaVuSans-70" d="M 1159 525 
L 1159 -1331 
L 581 -1331 
L 581 3500 
L 1159 3500 
L 1159 2969 
Q 1341 3281 1617 3432 
Q 1894 3584 2278 3584 
Q 2916 3584 3314 3078 
Q 3713 2572 3713 1747 
Q 3713 922 3314 415 
Q 2916 -91 2278 -91 
Q 1894 -91 1617 61 
Q 1341 213 1159 525 
z
M 3116 1747 
Q 3116 2381 2855 2742 
Q 2594 3103 2138 3103 
Q 1681 3103 1420 2742 
Q 1159 2381 1159 1747 
Q 1159 1113 1420 752 
Q 1681 391 2138 391 
Q 2594 391 2855 752 
Q 3116 1113 3116 1747 
z
" transform="scale(0.015625)"/>
       <path id="DejaVuSans-6c" d="M 603 4863 
L 1178 4863 
L 1178 0 
L 603 0 
L 603 4863 
z
" transform="scale(0.015625)"/>
       <path id="DejaVuSans-65" d="M 3597 1894 
L 3597 1613 
L 953 1613 
Q 991 1019 1311 708 
Q 1631 397 2203 397 
Q 2534 397 2845 478 
Q 3156 559 3463 722 
L 3463 178 
Q 3153 47 2828 -22 
Q 2503 -91 2169 -91 
Q 1331 -91 842 396 
Q 353 884 353 1716 
Q 353 2575 817 3079 
Q 1281 3584 2069 3584 
Q 2775 3584 3186 3129 
Q 3597 2675 3597 1894 
z
M 3022 2063 
Q 3016 2534 2758 2815 
Q 2500 3097 2075 3097 
Q 1594 3097 1305 2825 
Q 1016 2553 972 2059 
L 3022 2063 
z
" transform="scale(0.015625)"/>
      </defs>
      <use xlink:href="#DejaVuSans-53"/>
      <use xlink:href="#DejaVuSans-61" x="63.476562"/>
      <use xlink:href="#DejaVuSans-6d" x="124.755859"/>
      <use xlink:href="#DejaVuSans-70" x="222.167969"/>
      <use xlink:href="#DejaVuSans-6c" x="285.644531"/>
      <use xlink:href="#DejaVuSans-65" x="313.427734"/>
     </g>
    </g>
   </g>
   <g id="matplotlib.axis_2">
    <g id="ytick_1">
     <g id="line2d_5">
      <defs>
       <path id="m7733d9c33c" d="M 0 0 
L 3.5 0 
" style="stroke: #000000; stroke-width: 2"/>
      </defs>
      <g>
       <use xlink:href="#m7733d9c33c" x="112.911563" y="323.221045" style="stroke: #000000; stroke-width: 2"/>
      </g>
     </g>
     <g id="text_6">
      <!-- −0.25 -->
      <g transform="translate(38.491875 331.579326) scale(0.22 -0.22)">
       <defs>
        <path id="DejaVuSans-2212" d="M 678 2272 
L 4684 2272 
L 4684 1741 
L 678 1741 
L 678 2272 
z
" transform="scale(0.015625)"/>
        <path id="DejaVuSans-2e" d="M 684 794 
L 1344 794 
L 1344 0 
L 684 0 
L 684 794 
z
" transform="scale(0.015625)"/>
        <path id="DejaVuSans-35" d="M 691 4666 
L 3169 4666 
L 3169 4134 
L 1269 4134 
L 1269 2991 
Q 1406 3038 1543 3061 
Q 1681 3084 1819 3084 
Q 2600 3084 3056 2656 
Q 3513 2228 3513 1497 
Q 3513 744 3044 326 
Q 2575 -91 1722 -91 
Q 1428 -91 1123 -41 
Q 819 9 494 109 
L 494 744 
Q 775 591 1075 516 
Q 1375 441 1709 441 
Q 2250 441 2565 725 
Q 2881 1009 2881 1497 
Q 2881 1984 2565 2268 
Q 2250 2553 1709 2553 
Q 1456 2553 1204 2497 
Q 953 2441 691 2322 
L 691 4666 
z
" transform="scale(0.015625)"/>
       </defs>
       <use xlink:href="#DejaVuSans-2212"/>
       <use xlink:href="#DejaVuSans-30" x="83.789062"/>
       <use xlink:href="#DejaVuSans-2e" x="147.412109"/>
       <use xlink:href="#DejaVuSans-32" x="179.199219"/>
       <use xlink:href="#DejaVuSans-35" x="242.822266"/>
      </g>
     </g>
    </g>
    <g id="ytick_2">
     <g id="line2d_6">
      <g>
       <use xlink:href="#m7733d9c33c" x="112.911563" y="268.796007" style="stroke: #000000; stroke-width: 2"/>
      </g>
     </g>
     <g id="text_7">
      <!-- 0.00 -->
      <g transform="translate(56.927188 277.154289) scale(0.22 -0.22)">
       <use xlink:href="#DejaVuSans-30"/>
       <use xlink:href="#DejaVuSans-2e" x="63.623047"/>
       <use xlink:href="#DejaVuSans-30" x="95.410156"/>
       <use xlink:href="#DejaVuSans-30" x="159.033203"/>
      </g>
     </g>
    </g>
    <g id="ytick_3">
     <g id="line2d_7">
      <g>
       <use xlink:href="#m7733d9c33c" x="112.911563" y="214.37097" style="stroke: #000000; stroke-width: 2"/>
      </g>
     </g>
     <g id="text_8">
      <!-- 0.25 -->
      <g transform="translate(56.927188 222.729251) scale(0.22 -0.22)">
       <use xlink:href="#DejaVuSans-30"/>
       <use xlink:href="#DejaVuSans-2e" x="63.623047"/>
       <use xlink:href="#DejaVuSans-32" x="95.410156"/>
       <use xlink:href="#DejaVuSans-35" x="159.033203"/>
      </g>
     </g>
    </g>
    <g id="ytick_4">
     <g id="line2d_8">
      <g>
       <use xlink:href="#m7733d9c33c" x="112.911563" y="159.945932" style="stroke: #000000; stroke-width: 2"/>
      </g>
     </g>
     <g id="text_9">
      <!-- 0.50 -->
      <g transform="translate(56.927188 168.304213) scale(0.22 -0.22)">
       <use xlink:href="#DejaVuSans-30"/>
       <use xlink:href="#DejaVuSans-2e" x="63.623047"/>
       <use xlink:href="#DejaVuSans-35" x="95.410156"/>
       <use xlink:href="#DejaVuSans-30" x="159.033203"/>
      </g>
     </g>
    </g>
    <g id="ytick_5">
     <g id="line2d_9">
      <g>
       <use xlink:href="#m7733d9c33c" x="112.911563" y="105.520895" style="stroke: #000000; stroke-width: 2"/>
      </g>
     </g>
     <g id="text_10">
      <!-- 0.75 -->
      <g transform="translate(56.927188 113.879176) scale(0.22 -0.22)">
       <defs>
        <path id="DejaVuSans-37" d="M 525 4666 
L 3525 4666 
L 3525 4397 
L 1831 0 
L 1172 0 
L 2766 4134 
L 525 4134 
L 525 4666 
z
" transform="scale(0.015625)"/>
       </defs>
       <use xlink:href="#DejaVuSans-30"/>
       <use xlink:href="#DejaVuSans-2e" x="63.623047"/>
       <use xlink:href="#DejaVuSans-37" x="95.410156"/>
       <use xlink:href="#DejaVuSans-35" x="159.033203"/>
      </g>
     </g>
    </g>
    <g id="ytick_6">
     <g id="line2d_10">
      <g>
       <use xlink:href="#m7733d9c33c" x="112.911563" y="51.095857" style="stroke: #000000; stroke-width: 2"/>
      </g>
     </g>
     <g id="text_11">
      <!-- 1.00 -->
      <g transform="translate(56.927188 59.454138) scale(0.22 -0.22)">
       <use xlink:href="#DejaVuSans-31"/>
       <use xlink:href="#DejaVuSans-2e" x="63.623047"/>
       <use xlink:href="#DejaVuSans-30" x="95.410156"/>
       <use xlink:href="#DejaVuSans-30" x="159.033203"/>
      </g>
     </g>
    </g>
    <g id="text_12">
     <!-- Amplitude(mV) -->
     <g transform="translate(23.916563 256.712656) rotate(-90) scale(0.22 -0.22)">
      <defs>
       <path id="DejaVuSans-41" d="M 2188 4044 
L 1331 1722 
L 3047 1722 
L 2188 4044 
z
M 1831 4666 
L 2547 4666 
L 4325 0 
L 3669 0 
L 3244 1197 
L 1141 1197 
L 716 0 
L 50 0 
L 1831 4666 
z
" transform="scale(0.015625)"/>
       <path id="DejaVuSans-69" d="M 603 3500 
L 1178 3500 
L 1178 0 
L 603 0 
L 603 3500 
z
M 603 4863 
L 1178 4863 
L 1178 4134 
L 603 4134 
L 603 4863 
z
" transform="scale(0.015625)"/>
       <path id="DejaVuSans-74" d="M 1172 4494 
L 1172 3500 
L 2356 3500 
L 2356 3053 
L 1172 3053 
L 1172 1153 
Q 1172 725 1289 603 
Q 1406 481 1766 481 
L 2356 481 
L 2356 0 
L 1766 0 
Q 1100 0 847 248 
Q 594 497 594 1153 
L 594 3053 
L 172 3053 
L 172 3500 
L 594 3500 
L 594 4494 
L 1172 4494 
z
" transform="scale(0.015625)"/>
       <path id="DejaVuSans-75" d="M 544 1381 
L 544 3500 
L 1119 3500 
L 1119 1403 
Q 1119 906 1312 657 
Q 1506 409 1894 409 
Q 2359 409 2629 706 
Q 2900 1003 2900 1516 
L 2900 3500 
L 3475 3500 
L 3475 0 
L 2900 0 
L 2900 538 
Q 2691 219 2414 64 
Q 2138 -91 1772 -91 
Q 1169 -91 856 284 
Q 544 659 544 1381 
z
M 1991 3584 
L 1991 3584 
z
" transform="scale(0.015625)"/>
       <path id="DejaVuSans-64" d="M 2906 2969 
L 2906 4863 
L 3481 4863 
L 3481 0 
L 2906 0 
L 2906 525 
Q 2725 213 2448 61 
Q 2172 -91 1784 -91 
Q 1150 -91 751 415 
Q 353 922 353 1747 
Q 353 2572 751 3078 
Q 1150 3584 1784 3584 
Q 2172 3584 2448 3432 
Q 2725 3281 2906 2969 
z
M 947 1747 
Q 947 1113 1208 752 
Q 1469 391 1925 391 
Q 2381 391 2643 752 
Q 2906 1113 2906 1747 
Q 2906 2381 2643 2742 
Q 2381 3103 1925 3103 
Q 1469 3103 1208 2742 
Q 947 2381 947 1747 
z
" transform="scale(0.015625)"/>
       <path id="DejaVuSans-28" d="M 1984 4856 
Q 1566 4138 1362 3434 
Q 1159 2731 1159 2009 
Q 1159 1288 1364 580 
Q 1569 -128 1984 -844 
L 1484 -844 
Q 1016 -109 783 600 
Q 550 1309 550 2009 
Q 550 2706 781 3412 
Q 1013 4119 1484 4856 
L 1984 4856 
z
" transform="scale(0.015625)"/>
       <path id="DejaVuSans-56" d="M 1831 0 
L 50 4666 
L 709 4666 
L 2188 738 
L 3669 4666 
L 4325 4666 
L 2547 0 
L 1831 0 
z
" transform="scale(0.015625)"/>
       <path id="DejaVuSans-29" d="M 513 4856 
L 1013 4856 
Q 1481 4119 1714 3412 
Q 1947 2706 1947 2009 
Q 1947 1309 1714 600 
Q 1481 -109 1013 -844 
L 513 -844 
Q 928 -128 1133 580 
Q 1338 1288 1338 2009 
Q 1338 2731 1133 3434 
Q 928 4138 513 4856 
z
" transform="scale(0.015625)"/>
      </defs>
      <use xlink:href="#DejaVuSans-41"/>
      <use xlink:href="#DejaVuSans-6d" x="68.408203"/>
      <use xlink:href="#DejaVuSans-70" x="165.820312"/>
      <use xlink:href="#DejaVuSans-6c" x="229.296875"/>
      <use xlink:href="#DejaVuSans-69" x="257.080078"/>
      <use xlink:href="#DejaVuSans-74" x="284.863281"/>
      <use xlink:href="#DejaVuSans-75" x="324.072266"/>
      <use xlink:href="#DejaVuSans-64" x="387.451172"/>
      <use xlink:href="#DejaVuSans-65" x="450.927734"/>
      <use xlink:href="#DejaVuSans-28" x="512.451172"/>
      <use xlink:href="#DejaVuSans-6d" x="551.464844"/>
      <use xlink:href="#DejaVuSans-56" x="648.876953"/>
      <use xlink:href="#DejaVuSans-29" x="717.285156"/>
     </g>
    </g>
   </g>
   <g id="line2d_11">
    <path d="M 133.202472 258.729685 
L 134.550705 258.207376 
L 135.898938 257.962544 
L 137.247171 257.864612 
L 138.595404 258.452208 
L 139.943637 258.15841 
L 141.291871 257.61978 
L 142.640104 257.554491 
L 143.988337 257.946222 
L 145.33657 257.668746 
L 146.684803 258.142088 
L 148.033036 258.452208 
L 149.38127 258.076799 
L 150.729503 257.538169 
L 152.077736 257.440236 
L 153.425969 257.603457 
L 154.774202 258.076799 
L 157.470669 258.38692 
L 158.818902 258.044155 
L 160.167135 258.15841 
L 161.515368 259.186704 
L 162.863601 259.676368 
L 164.211834 260.394542 
L 165.560067 260.933172 
L 166.908301 261.341225 
L 168.256534 262.206298 
L 170.953 264.719907 
L 172.301233 266.368442 
L 174.9977 269.224815 
L 176.345933 271.003927 
L 177.694166 272.09751 
L 179.042399 273.925588 
L 180.390632 275.525157 
L 184.435332 278.561074 
L 185.783565 279.768911 
L 188.480031 283.376102 
L 189.828264 284.681873 
L 192.524731 286.754783 
L 193.872964 288.321708 
L 196.56943 290.492551 
L 197.917663 290.753705 
L 199.265897 291.210725 
L 200.61413 291.210725 
L 201.962363 291.879932 
L 203.310596 292.157409 
L 204.658829 291.782 
L 206.007062 291.031182 
L 207.355296 290.035532 
L 208.703529 289.268391 
L 210.051762 288.974593 
L 211.399995 289.301036 
L 212.748228 289.137814 
L 215.444694 287.7994 
L 216.792928 287.538246 
L 218.141161 287.097548 
L 220.837627 286.673173 
L 222.18586 286.265119 
L 223.534093 285.204181 
L 224.882327 284.616584 
L 226.23056 284.273819 
L 227.578793 284.094276 
L 230.275259 283.245525 
L 231.623492 282.429419 
L 238.364658 279.442469 
L 239.712891 278.332564 
L 241.061125 278.055088 
L 242.409358 277.61439 
L 243.757591 276.863572 
L 246.454057 274.85595 
L 247.80229 273.337992 
L 249.150524 272.701429 
L 250.498757 272.228087 
L 251.84699 272.962583 
L 253.195223 274.790661 
L 254.543456 278.463141 
L 255.891689 284.094276 
L 257.239923 290.525196 
L 258.588156 292.679717 
L 259.936389 286.232475 
L 261.284622 269.273781 
L 262.632855 241.526159 
L 263.981088 201.944991 
L 266.677555 101.28641 
L 268.025788 63.745508 
L 269.374021 51.095857 
L 270.722254 70.64977 
L 272.070487 120.677101 
L 273.41872 180.18759 
L 274.766954 225.252994 
L 276.115187 246.145322 
L 277.46342 249.866767 
L 278.811653 246.700274 
L 280.159886 245.394504 
L 281.508119 246.602341 
L 282.856353 249.866767 
L 284.204586 253.849367 
L 285.552819 257.113794 
L 286.901052 259.725334 
L 288.249285 260.998461 
L 289.597518 261.60238 
L 292.293985 263.577357 
L 294.990451 264.801517 
L 297.686917 265.062671 
L 300.383384 265.193248 
L 301.731617 265.095316 
L 304.428083 264.475075 
L 305.776316 263.773223 
L 307.12455 264.001733 
L 308.472783 264.409786 
L 309.821016 265.258537 
L 311.169249 264.834161 
L 313.865715 265.046349 
L 315.213948 265.846134 
L 316.562182 266.172576 
L 319.258648 266.401086 
L 320.606881 266.286831 
L 321.955114 267.053971 
L 323.303347 267.364092 
L 325.999814 268.441352 
L 327.348047 268.473997 
L 328.69628 268.294453 
L 331.392746 269.094238 
L 332.74098 269.698156 
L 334.089213 270.10621 
L 335.437446 270.057243 
L 338.133912 269.64919 
L 340.830379 270.726451 
L 342.178612 270.726451 
L 343.526845 270.285753 
L 344.875078 270.497941 
L 346.223311 270.497941 
L 347.571544 270.612196 
L 348.919778 270.905994 
L 350.268011 271.526235 
L 351.616244 271.33037 
L 352.964477 271.607846 
L 354.31271 271.591524 
L 355.660943 272.211765 
L 357.009177 272.472919 
L 358.35741 273.011549 
L 359.705643 272.440274 
L 361.053876 272.603496 
L 362.402109 273.289025 
L 363.750342 274.186742 
L 365.098575 275.476191 
L 366.446809 276.259653 
L 367.795042 276.488163 
L 369.143275 277.190015 
L 370.491508 278.15302 
L 371.839741 280.030065 
L 374.536208 282.935405 
L 377.232674 285.073604 
L 379.92914 288.452285 
L 381.277373 290.443585 
L 382.625607 291.716711 
L 385.322073 293.593756 
L 386.670306 294.360896 
L 388.018539 294.654695 
L 389.366772 295.944143 
L 390.715006 295.7646 
L 392.063239 295.927821 
L 393.411472 295.6177 
L 394.759705 294.997459 
L 396.107938 295.095392 
L 397.456171 295.7646 
L 398.804405 295.7646 
L 400.152638 295.487123 
L 402.849104 293.071448 
L 404.197337 292.761327 
L 405.54557 292.190053 
L 408.242037 290.149787 
L 410.938503 287.701467 
L 412.286736 286.999615 
L 413.634969 286.901682 
L 414.983202 286.363052 
L 416.331436 284.730839 
L 417.679669 283.849444 
L 419.027902 283.180237 
L 420.376135 282.217231 
L 421.724368 282.233553 
L 423.072601 281.874466 
L 424.420835 280.715595 
L 425.769068 280.291219 
L 427.117301 280.095354 
L 428.465534 279.556724 
L 429.813767 279.246603 
L 431.162 279.262925 
L 432.510234 278.593718 
L 433.858467 278.250953 
L 435.2067 277.190015 
L 436.554933 276.896216 
L 437.903166 276.912538 
L 439.251399 276.422874 
L 440.599633 275.802633 
L 441.947866 276.047465 
L 443.296099 276.112754 
L 447.340798 274.937561 
L 448.689032 274.08881 
L 450.037265 272.40763 
L 454.081964 269.8777 
L 455.430197 269.796089 
L 456.778431 268.686184 
L 458.126664 268.212843 
L 459.474897 268.147554 
L 460.82313 267.788467 
L 463.519596 267.559957 
L 464.867829 267.853756 
L 466.216063 267.723179 
L 467.564296 267.233515 
L 471.608995 266.547985 
L 472.957228 266.20522 
L 474.305462 266.107288 
L 475.653695 266.613274 
L 477.001928 267.445702 
L 478.350161 268.506641 
L 479.698394 269.175848 
L 481.046627 269.485969 
L 482.394861 268.718829 
L 483.743094 268.082266 
L 485.091327 268.359742 
L 486.43956 269.012627 
L 487.787793 268.947338 
L 490.48426 269.077916 
L 493.180726 268.245487 
L 494.528959 269.012627 
L 498.573659 266.89075 
L 499.921892 266.711207 
L 503.966591 265.552335 
L 505.314824 264.491397 
L 506.663058 263.871156 
L 508.011291 264.638296 
L 509.359524 265.682912 
L 510.707757 267.168226 
L 512.05599 267.20087 
L 513.404223 266.841784 
L 514.752456 265.617624 
L 516.10069 264.752551 
L 517.448923 264.21392 
L 518.797156 264.328175 
L 520.145389 264.89945 
L 524.190089 264.948416 
L 525.538322 264.197598 
L 528.234788 262.36952 
L 529.583021 261.243293 
L 530.931254 260.329253 
L 532.279488 260.91685 
L 533.627721 261.781923 
L 534.975954 263.120338 
L 536.324187 264.719907 
L 537.67242 265.813489 
L 539.020653 265.993033 
L 539.020653 265.993033 
" clip-path="url(#p24ff907669)" style="fill: none; stroke: #1f77b4; stroke-width: 2; stroke-linecap: square"/>
   </g>
   <g id="patch_3">
    <path d="M 112.911563 339.84 
L 112.911563 7.2 
" style="fill: none; stroke: #000000; stroke-width: 2; stroke-linejoin: miter; stroke-linecap: square"/>
   </g>
   <g id="patch_4">
    <path d="M 559.311563 339.84 
L 559.311563 7.2 
" style="fill: none; stroke: #000000; stroke-width: 2; stroke-linejoin: miter; stroke-linecap: square"/>
   </g>
   <g id="patch_5">
    <path d="M 112.911562 339.84 
L 559.311563 339.84 
" style="fill: none; stroke: #000000; stroke-width: 2; stroke-linejoin: miter; stroke-linecap: square"/>
   </g>
   <g id="patch_6">
    <path d="M 112.911562 7.2 
L 559.311563 7.2 
" style="fill: none; stroke: #000000; stroke-width: 2; stroke-linejoin: miter; stroke-linecap: square"/>
   </g>
   <g id="legend_1">
    <g id="patch_7">
     <path d="M 344.160938 74.44125 
L 546.711563 74.44125 
Q 550.311563 74.44125 550.311563 70.84125 
L 550.311563 19.8 
Q 550.311563 16.2 546.711563 16.2 
L 344.160938 16.2 
Q 340.560938 16.2 340.560938 19.8 
L 340.560938 70.84125 
Q 340.560938 74.44125 344.160938 74.44125 
z
" style="fill: #ffffff; opacity: 0.8; stroke: #cccccc; stroke-linejoin: miter"/>
    </g>
    <g id="line2d_12">
     <path d="M 347.760938 30.777188 
L 365.760938 30.777188 
L 383.760938 30.777188 
" style="fill: none; stroke: #1f77b4; stroke-width: 2; stroke-linecap: square"/>
    </g>
    <g id="text_13">
     <!-- Mean of S beats -->
     <g transform="translate(398.160937 37.077188) scale(0.18 -0.18)">
      <defs>
       <path id="DejaVuSans-4d" d="M 628 4666 
L 1569 4666 
L 2759 1491 
L 3956 4666 
L 4897 4666 
L 4897 0 
L 4281 0 
L 4281 4097 
L 3078 897 
L 2444 897 
L 1241 4097 
L 1241 0 
L 628 0 
L 628 4666 
z
" transform="scale(0.015625)"/>
       <path id="DejaVuSans-6e" d="M 3513 2113 
L 3513 0 
L 2938 0 
L 2938 2094 
Q 2938 2591 2744 2837 
Q 2550 3084 2163 3084 
Q 1697 3084 1428 2787 
Q 1159 2491 1159 1978 
L 1159 0 
L 581 0 
L 581 3500 
L 1159 3500 
L 1159 2956 
Q 1366 3272 1645 3428 
Q 1925 3584 2291 3584 
Q 2894 3584 3203 3211 
Q 3513 2838 3513 2113 
z
" transform="scale(0.015625)"/>
       <path id="DejaVuSans-20" transform="scale(0.015625)"/>
       <path id="DejaVuSans-6f" d="M 1959 3097 
Q 1497 3097 1228 2736 
Q 959 2375 959 1747 
Q 959 1119 1226 758 
Q 1494 397 1959 397 
Q 2419 397 2687 759 
Q 2956 1122 2956 1747 
Q 2956 2369 2687 2733 
Q 2419 3097 1959 3097 
z
M 1959 3584 
Q 2709 3584 3137 3096 
Q 3566 2609 3566 1747 
Q 3566 888 3137 398 
Q 2709 -91 1959 -91 
Q 1206 -91 779 398 
Q 353 888 353 1747 
Q 353 2609 779 3096 
Q 1206 3584 1959 3584 
z
" transform="scale(0.015625)"/>
       <path id="DejaVuSans-66" d="M 2375 4863 
L 2375 4384 
L 1825 4384 
Q 1516 4384 1395 4259 
Q 1275 4134 1275 3809 
L 1275 3500 
L 2222 3500 
L 2222 3053 
L 1275 3053 
L 1275 0 
L 697 0 
L 697 3053 
L 147 3053 
L 147 3500 
L 697 3500 
L 697 3744 
Q 697 4328 969 4595 
Q 1241 4863 1831 4863 
L 2375 4863 
z
" transform="scale(0.015625)"/>
       <path id="DejaVuSans-62" d="M 3116 1747 
Q 3116 2381 2855 2742 
Q 2594 3103 2138 3103 
Q 1681 3103 1420 2742 
Q 1159 2381 1159 1747 
Q 1159 1113 1420 752 
Q 1681 391 2138 391 
Q 2594 391 2855 752 
Q 3116 1113 3116 1747 
z
M 1159 2969 
Q 1341 3281 1617 3432 
Q 1894 3584 2278 3584 
Q 2916 3584 3314 3078 
Q 3713 2572 3713 1747 
Q 3713 922 3314 415 
Q 2916 -91 2278 -91 
Q 1894 -91 1617 61 
Q 1341 213 1159 525 
L 1159 0 
L 581 0 
L 581 4863 
L 1159 4863 
L 1159 2969 
z
" transform="scale(0.015625)"/>
       <path id="DejaVuSans-73" d="M 2834 3397 
L 2834 2853 
Q 2591 2978 2328 3040 
Q 2066 3103 1784 3103 
Q 1356 3103 1142 2972 
Q 928 2841 928 2578 
Q 928 2378 1081 2264 
Q 1234 2150 1697 2047 
L 1894 2003 
Q 2506 1872 2764 1633 
Q 3022 1394 3022 966 
Q 3022 478 2636 193 
Q 2250 -91 1575 -91 
Q 1294 -91 989 -36 
Q 684 19 347 128 
L 347 722 
Q 666 556 975 473 
Q 1284 391 1588 391 
Q 1994 391 2212 530 
Q 2431 669 2431 922 
Q 2431 1156 2273 1281 
Q 2116 1406 1581 1522 
L 1381 1569 
Q 847 1681 609 1914 
Q 372 2147 372 2553 
Q 372 3047 722 3315 
Q 1072 3584 1716 3584 
Q 2034 3584 2315 3537 
Q 2597 3491 2834 3397 
z
" transform="scale(0.015625)"/>
      </defs>
      <use xlink:href="#DejaVuSans-4d"/>
      <use xlink:href="#DejaVuSans-65" x="86.279297"/>
      <use xlink:href="#DejaVuSans-61" x="147.802734"/>
      <use xlink:href="#DejaVuSans-6e" x="209.082031"/>
      <use xlink:href="#DejaVuSans-20" x="272.460938"/>
      <use xlink:href="#DejaVuSans-6f" x="304.248047"/>
      <use xlink:href="#DejaVuSans-66" x="365.429688"/>
      <use xlink:href="#DejaVuSans-20" x="400.634766"/>
      <use xlink:href="#DejaVuSans-53" x="432.421875"/>
      <use xlink:href="#DejaVuSans-20" x="495.898438"/>
      <use xlink:href="#DejaVuSans-62" x="527.685547"/>
      <use xlink:href="#DejaVuSans-65" x="591.162109"/>
      <use xlink:href="#DejaVuSans-61" x="652.685547"/>
      <use xlink:href="#DejaVuSans-74" x="713.964844"/>
      <use xlink:href="#DejaVuSans-73" x="753.173828"/>
     </g>
    </g>
    <g id="patch_8">
     <path d="M 347.760938 63.497813 
L 383.760938 63.497813 
L 383.760938 50.897813 
L 347.760938 50.897813 
z
" style="fill: #808080; fill-opacity: 0.3; stroke: #808080; stroke-opacity: 0.3; stroke-linejoin: miter"/>
    </g>
    <g id="text_14">
     <!-- Standard Range -->
     <g transform="translate(398.160937 63.497813) scale(0.18 -0.18)">
      <defs>
       <path id="DejaVuSans-72" d="M 2631 2963 
Q 2534 3019 2420 3045 
Q 2306 3072 2169 3072 
Q 1681 3072 1420 2755 
Q 1159 2438 1159 1844 
L 1159 0 
L 581 0 
L 581 3500 
L 1159 3500 
L 1159 2956 
Q 1341 3275 1631 3429 
Q 1922 3584 2338 3584 
Q 2397 3584 2469 3576 
Q 2541 3569 2628 3553 
L 2631 2963 
z
" transform="scale(0.015625)"/>
       <path id="DejaVuSans-52" d="M 2841 2188 
Q 3044 2119 3236 1894 
Q 3428 1669 3622 1275 
L 4263 0 
L 3584 0 
L 2988 1197 
Q 2756 1666 2539 1819 
Q 2322 1972 1947 1972 
L 1259 1972 
L 1259 0 
L 628 0 
L 628 4666 
L 2053 4666 
Q 2853 4666 3247 4331 
Q 3641 3997 3641 3322 
Q 3641 2881 3436 2590 
Q 3231 2300 2841 2188 
z
M 1259 4147 
L 1259 2491 
L 2053 2491 
Q 2509 2491 2742 2702 
Q 2975 2913 2975 3322 
Q 2975 3731 2742 3939 
Q 2509 4147 2053 4147 
L 1259 4147 
z
" transform="scale(0.015625)"/>
       <path id="DejaVuSans-67" d="M 2906 1791 
Q 2906 2416 2648 2759 
Q 2391 3103 1925 3103 
Q 1463 3103 1205 2759 
Q 947 2416 947 1791 
Q 947 1169 1205 825 
Q 1463 481 1925 481 
Q 2391 481 2648 825 
Q 2906 1169 2906 1791 
z
M 3481 434 
Q 3481 -459 3084 -895 
Q 2688 -1331 1869 -1331 
Q 1566 -1331 1297 -1286 
Q 1028 -1241 775 -1147 
L 775 -588 
Q 1028 -725 1275 -790 
Q 1522 -856 1778 -856 
Q 2344 -856 2625 -561 
Q 2906 -266 2906 331 
L 2906 616 
Q 2728 306 2450 153 
Q 2172 0 1784 0 
Q 1141 0 747 490 
Q 353 981 353 1791 
Q 353 2603 747 3093 
Q 1141 3584 1784 3584 
Q 2172 3584 2450 3431 
Q 2728 3278 2906 2969 
L 2906 3500 
L 3481 3500 
L 3481 434 
z
" transform="scale(0.015625)"/>
      </defs>
      <use xlink:href="#DejaVuSans-53"/>
      <use xlink:href="#DejaVuSans-74" x="63.476562"/>
      <use xlink:href="#DejaVuSans-61" x="102.685547"/>
      <use xlink:href="#DejaVuSans-6e" x="163.964844"/>
      <use xlink:href="#DejaVuSans-64" x="227.34375"/>
      <use xlink:href="#DejaVuSans-61" x="290.820312"/>
      <use xlink:href="#DejaVuSans-72" x="352.099609"/>
      <use xlink:href="#DejaVuSans-64" x="391.462891"/>
      <use xlink:href="#DejaVuSans-20" x="454.939453"/>
      <use xlink:href="#DejaVuSans-52" x="486.726562"/>
      <use xlink:href="#DejaVuSans-61" x="553.958984"/>
      <use xlink:href="#DejaVuSans-6e" x="615.238281"/>
      <use xlink:href="#DejaVuSans-67" x="678.617188"/>
      <use xlink:href="#DejaVuSans-65" x="742.09375"/>
     </g>
    </g>
   </g>
  </g>
 </g>
 <defs>
  <clipPath id="p24ff907669">
   <rect x="112.911563" y="7.2" width="446.4" height="332.64"/>
  </clipPath>
 </defs>
</svg>
