<?xml version="1.0" encoding="utf-8" standalone="no"?>
<!DOCTYPE svg PUBLIC "-//W3C//DTD SVG 1.1//EN"
  "http://www.w3.org/Graphics/SVG/1.1/DTD/svg11.dtd">
<svg xmlns:xlink="http://www.w3.org/1999/xlink" width="531.524687pt" height="406.62375pt" viewBox="0 0 531.524687 406.62375" xmlns="http://www.w3.org/2000/svg" version="1.1">
 <metadata>
  <rdf:RDF xmlns:dc="http://purl.org/dc/elements/1.1/" xmlns:cc="http://creativecommons.org/ns#" xmlns:rdf="http://www.w3.org/1999/02/22-rdf-syntax-ns#">
   <cc:Work>
    <dc:type rdf:resource="http://purl.org/dc/dcmitype/StillImage"/>
    <dc:date>2024-05-15T14:40:53.738280</dc:date>
    <dc:format>image/svg+xml</dc:format>
    <dc:creator>
     <cc:Agent>
      <dc:title>Matplotlib v3.7.5, https://matplotlib.org/</dc:title>
     </cc:Agent>
    </dc:creator>
   </cc:Work>
  </rdf:RDF>
 </metadata>
 <defs>
  <style type="text/css">*{stroke-linejoin: round; stroke-linecap: butt}</style>
 </defs>
 <g id="figure_1">
  <g id="patch_1">
   <path d="M 0 406.62375 
L 531.524687 406.62375 
L 531.524687 0 
L 0 0 
z
" style="fill: #ffffff"/>
  </g>
  <g id="axes_1">
   <g id="patch_2">
    <path d="M 77.924688 339.84 
L 524.324687 339.84 
L 524.324687 7.2 
L 77.924688 7.2 
z
" style="fill: #ffffff"/>
   </g>
   <g id="PolyCollection_1">
    <defs>
     <path id="mc851453eae" d="M 98.215597 -315.04763 
L 98.215597 -225.608833 
L 99.56383 -227.057363 
L 100.912063 -227.904616 
L 102.260296 -228.943185 
L 103.608529 -230.118407 
L 104.956762 -231.047653 
L 106.304996 -231.785583 
L 107.653229 -232.632836 
L 109.001462 -233.452759 
L 110.349695 -234.60065 
L 111.697928 -235.447903 
L 113.046161 -236.021849 
L 114.394395 -236.486472 
L 115.742628 -236.978425 
L 117.090861 -237.470379 
L 118.439094 -238.290301 
L 119.787327 -238.61827 
L 121.13556 -238.782255 
L 122.483794 -238.918909 
L 123.832027 -238.836916 
L 125.18026 -238.508947 
L 126.528493 -238.536278 
L 127.876726 -238.918909 
L 129.224959 -239.301539 
L 130.573192 -239.246878 
L 131.921426 -238.754924 
L 133.269659 -238.782255 
L 134.617892 -238.782255 
L 135.966125 -238.672932 
L 137.314358 -238.727593 
L 138.662591 -238.317632 
L 140.010825 -238.23564 
L 141.359058 -237.415717 
L 142.707291 -237.607033 
L 144.055524 -237.169741 
L 145.403757 -236.923764 
L 146.75199 -236.732449 
L 148.100224 -236.103841 
L 149.448457 -236.40448 
L 150.79669 -236.158503 
L 152.144923 -235.939857 
L 153.493156 -236.103841 
L 154.841389 -236.377149 
L 156.189623 -236.78711 
L 157.537856 -236.650456 
L 158.886089 -236.568464 
L 160.234322 -236.732449 
L 161.582555 -236.595795 
L 162.930788 -236.158503 
L 164.279022 -235.857865 
L 165.627255 -235.256588 
L 166.975488 -234.764635 
L 168.323721 -234.436666 
L 169.671954 -234.136027 
L 171.020187 -233.780728 
L 172.368421 -234.081366 
L 173.716654 -233.753397 
L 175.064887 -234.026704 
L 176.41312 -233.890051 
L 177.761353 -233.86272 
L 179.109586 -234.026704 
L 180.457819 -234.026704 
L 181.806053 -234.491327 
L 183.154286 -234.709973 
L 184.502519 -234.463996 
L 185.850752 -234.819296 
L 187.198985 -235.229257 
L 188.547218 -235.557226 
L 189.895452 -235.174596 
L 191.243685 -234.819296 
L 192.591918 -234.983281 
L 193.940151 -234.901288 
L 195.288384 -234.163358 
L 196.636617 -232.851482 
L 197.984851 -229.817769 
L 199.333084 -227.439994 
L 200.681317 -225.034888 
L 202.02955 -223.039743 
L 203.377783 -219.978699 
L 204.726016 -216.535024 
L 206.07425 -212.845373 
L 207.422483 -209.647675 
L 208.770716 -206.996593 
L 210.118949 -203.880887 
L 211.467182 -199.999921 
L 212.815415 -194.807078 
L 214.163649 -189.805551 
L 215.511882 -187.701083 
L 216.860115 -187.919729 
L 218.208348 -191.472727 
L 219.556581 -198.196091 
L 220.904814 -205.739378 
L 222.253048 -211.232859 
L 223.601281 -213.911272 
L 224.949514 -216.671678 
L 226.297747 -222.602451 
L 227.64598 -232.250206 
L 228.994213 -245.013666 
L 230.342446 -260.018248 
L 231.69068 -274.831514 
L 233.038913 -287.922943 
L 234.387146 -294.864954 
L 235.735379 -291.120641 
L 237.083612 -276.717336 
L 238.431845 -254.962059 
L 239.780079 -229.927092 
L 241.128312 -201.776419 
L 242.476545 -171.712594 
L 243.824778 -146.896273 
L 245.173011 -129.923878 
L 246.521244 -117.297071 
L 247.869478 -108.441908 
L 249.217711 -103.522373 
L 250.565944 -101.554559 
L 251.914177 -100.051368 
L 253.26241 -96.580363 
L 254.610643 -90.622259 
L 255.958877 -84.527502 
L 257.30711 -81.90375 
L 258.655343 -83.37961 
L 260.003576 -86.604639 
L 261.351809 -89.829667 
L 262.700042 -92.453419 
L 264.048276 -95.569125 
L 265.396509 -99.39543 
L 266.744742 -103.959665 
L 268.092975 -108.5239 
L 269.441208 -113.033474 
L 270.789441 -117.734363 
L 272.137675 -123.227844 
L 273.485908 -128.885309 
L 274.834141 -135.034728 
L 276.182374 -140.801516 
L 277.530607 -146.568304 
L 278.87884 -152.335093 
L 280.227073 -158.566504 
L 281.575307 -164.797915 
L 282.92354 -170.482711 
L 284.271773 -175.92153 
L 285.620006 -180.950388 
L 286.968239 -185.186654 
L 288.316472 -190.461489 
L 289.664706 -195.080386 
L 291.012939 -198.87936 
L 292.361172 -202.213711 
L 293.709405 -205.985355 
L 295.057638 -209.265045 
L 296.405871 -212.216766 
L 297.754105 -214.731195 
L 299.102338 -216.781001 
L 300.450571 -218.830807 
L 301.798804 -220.306668 
L 303.147037 -221.809859 
L 304.49527 -223.641019 
L 305.843504 -225.49951 
L 307.191737 -226.510748 
L 308.53997 -227.084694 
L 309.888203 -227.740632 
L 311.236436 -228.369239 
L 312.584669 -229.271154 
L 313.932903 -230.364384 
L 315.281136 -231.402952 
L 316.629369 -231.812914 
L 317.977602 -232.332198 
L 319.325835 -233.015467 
L 320.674068 -234.026704 
L 322.022302 -235.092604 
L 323.370535 -236.103841 
L 324.718768 -236.841772 
L 326.067001 -237.798348 
L 327.415234 -238.809586 
L 328.763467 -240.230785 
L 330.1117 -241.433338 
L 331.459934 -242.881867 
L 332.808167 -244.05709 
L 334.1564 -245.259643 
L 335.504633 -247.063472 
L 336.852866 -248.867302 
L 338.201099 -250.233839 
L 339.549333 -252.146992 
L 340.897566 -253.349545 
L 342.245799 -255.344689 
L 343.594032 -256.765888 
L 344.942265 -258.433064 
L 346.290498 -260.373547 
L 347.638732 -262.177377 
L 348.986965 -263.707899 
L 350.335198 -265.21109 
L 351.683431 -266.331651 
L 353.031664 -268.053488 
L 354.379897 -269.474687 
L 355.728131 -271.442501 
L 357.076364 -272.48107 
L 358.424597 -273.847607 
L 359.77283 -274.722191 
L 361.121063 -276.416698 
L 362.469296 -277.892558 
L 363.81753 -279.06778 
L 365.165763 -279.915034 
L 366.513996 -281.336233 
L 367.862229 -281.96484 
L 369.210462 -282.730101 
L 370.558695 -284.041977 
L 371.906929 -284.916561 
L 373.255162 -285.463176 
L 374.603395 -285.955129 
L 375.951628 -286.392421 
L 377.299861 -287.130352 
L 378.648094 -287.704297 
L 379.996327 -287.81362 
L 381.344561 -288.086928 
L 382.692794 -287.922943 
L 384.041027 -287.403659 
L 385.38926 -287.704297 
L 386.737493 -287.43099 
L 388.085726 -287.212344 
L 389.43396 -286.802383 
L 390.782193 -286.33776 
L 392.130426 -285.517837 
L 393.478659 -284.834569 
L 394.826892 -284.041977 
L 396.175125 -283.276716 
L 397.523359 -281.882848 
L 398.871592 -280.980933 
L 400.219825 -279.341088 
L 401.568058 -278.275189 
L 402.916291 -277.318612 
L 404.264524 -275.952075 
L 405.612758 -274.558207 
L 406.960991 -272.918362 
L 408.309224 -271.41517 
L 409.657457 -270.349271 
L 411.00569 -268.873411 
L 412.353923 -267.561535 
L 413.702157 -265.757705 
L 415.05039 -264.254514 
L 416.398623 -263.02463 
L 417.746856 -261.9314 
L 419.095089 -260.974824 
L 420.443322 -259.471633 
L 421.791556 -257.91378 
L 423.139789 -256.711227 
L 424.488022 -255.317359 
L 425.836255 -254.196798 
L 427.184488 -253.103568 
L 428.532721 -251.901015 
L 429.880954 -251.245077 
L 431.229188 -249.741886 
L 432.577421 -248.375348 
L 433.925654 -247.446103 
L 435.273887 -246.817495 
L 436.62212 -246.134227 
L 437.970353 -244.576374 
L 439.318587 -243.975097 
L 440.66682 -242.936529 
L 442.015053 -242.389914 
L 443.363286 -241.979953 
L 444.711519 -240.832061 
L 446.059752 -239.984808 
L 447.407986 -239.137555 
L 448.756219 -238.672932 
L 450.104452 -238.071655 
L 451.452685 -237.443048 
L 452.800918 -237.251733 
L 454.149151 -236.705118 
L 455.497385 -236.076511 
L 456.845618 -235.31125 
L 458.193851 -235.33858 
L 459.542084 -235.256588 
L 460.890317 -235.147265 
L 462.23855 -234.491327 
L 463.586784 -234.300012 
L 464.935017 -233.726066 
L 466.28325 -233.753397 
L 467.631483 -233.726066 
L 468.979716 -233.671405 
L 470.327949 -233.50742 
L 471.676183 -233.234113 
L 473.024416 -233.015467 
L 474.372649 -233.343436 
L 475.720882 -233.370766 
L 477.069115 -233.234113 
L 478.417348 -233.15212 
L 479.765581 -233.398097 
L 481.113815 -233.480089 
L 482.462048 -233.398097 
L 483.810281 -233.398097 
L 485.158514 -233.534751 
L 486.506747 -233.616743 
L 487.85498 -233.534751 
L 489.203214 -233.370766 
L 490.551447 -233.589412 
L 491.89968 -233.726066 
L 493.247913 -233.780728 
L 494.596146 -233.288774 
L 495.944379 -233.316105 
L 497.292613 -233.070128 
L 498.640846 -232.960805 
L 499.989079 -232.933474 
L 501.337312 -233.206782 
L 502.685545 -232.988136 
L 504.033778 -232.906144 
L 504.033778 -322.34494 
L 504.033778 -322.34494 
L 502.685545 -322.426932 
L 501.337312 -322.645578 
L 499.989079 -322.372271 
L 498.640846 -322.399601 
L 497.292613 -322.508924 
L 495.944379 -322.754901 
L 494.596146 -322.72757 
L 493.247913 -323.219524 
L 491.89968 -323.164862 
L 490.551447 -323.028209 
L 489.203214 -322.809563 
L 487.85498 -322.973547 
L 486.506747 -323.055539 
L 485.158514 -322.973547 
L 483.810281 -322.836893 
L 482.462048 -322.836893 
L 481.113815 -322.918886 
L 479.765581 -322.836893 
L 478.417348 -322.590917 
L 477.069115 -322.672909 
L 475.720882 -322.809563 
L 474.372649 -322.782232 
L 473.024416 -322.454263 
L 471.676183 -322.672909 
L 470.327949 -322.946216 
L 468.979716 -323.110201 
L 467.631483 -323.164862 
L 466.28325 -323.192193 
L 464.935017 -323.164862 
L 463.586784 -323.738808 
L 462.23855 -323.930123 
L 460.890317 -324.586061 
L 459.542084 -324.695384 
L 458.193851 -324.777377 
L 456.845618 -324.750046 
L 455.497385 -325.515307 
L 454.149151 -326.143914 
L 452.800918 -326.690529 
L 451.452685 -326.881844 
L 450.104452 -327.510452 
L 448.756219 -328.111728 
L 447.407986 -328.576351 
L 446.059752 -329.423604 
L 444.711519 -330.270857 
L 443.363286 -331.418749 
L 442.015053 -331.82871 
L 440.66682 -332.375325 
L 439.318587 -333.413894 
L 437.970353 -334.01517 
L 436.62212 -335.573023 
L 435.273887 -336.256292 
L 433.925654 -336.884899 
L 432.577421 -337.814144 
L 431.229188 -339.180682 
L 429.880954 -340.683873 
L 428.532721 -341.339811 
L 427.184488 -342.542364 
L 425.836255 -343.635594 
L 424.488022 -344.756155 
L 423.139789 -346.150023 
L 421.791556 -347.352576 
L 420.443322 -348.910429 
L 419.095089 -350.41362 
L 417.746856 -351.370196 
L 416.398623 -352.463426 
L 415.05039 -353.69331 
L 413.702157 -355.196501 
L 412.353923 -357.000331 
L 411.00569 -358.312207 
L 409.657457 -359.788067 
L 408.309224 -360.853967 
L 406.960991 -362.357158 
L 405.612758 -363.997003 
L 404.264524 -365.390871 
L 402.916291 -366.757409 
L 401.568058 -367.713985 
L 400.219825 -368.779884 
L 398.871592 -370.419729 
L 397.523359 -371.321644 
L 396.175125 -372.715512 
L 394.826892 -373.480773 
L 393.478659 -374.273365 
L 392.130426 -374.956634 
L 390.782193 -375.776556 
L 389.43396 -376.241179 
L 388.085726 -376.65114 
L 386.737493 -376.869786 
L 385.38926 -377.143094 
L 384.041027 -376.842455 
L 382.692794 -377.36174 
L 381.344561 -377.525724 
L 379.996327 -377.252417 
L 378.648094 -377.143094 
L 377.299861 -376.569148 
L 375.951628 -375.831218 
L 374.603395 -375.393926 
L 373.255162 -374.901972 
L 371.906929 -374.355357 
L 370.558695 -373.480773 
L 369.210462 -372.168897 
L 367.862229 -371.403636 
L 366.513996 -370.775029 
L 365.165763 -369.35383 
L 363.81753 -368.506577 
L 362.469296 -367.331354 
L 361.121063 -365.855494 
L 359.77283 -364.160987 
L 358.424597 -363.286403 
L 357.076364 -361.919866 
L 355.728131 -360.881297 
L 354.379897 -358.913483 
L 353.031664 -357.492284 
L 351.683431 -355.770447 
L 350.335198 -354.649886 
L 348.986965 -353.146695 
L 347.638732 -351.616173 
L 346.290498 -349.812344 
L 344.942265 -347.87186 
L 343.594032 -346.204685 
L 342.245799 -344.783486 
L 340.897566 -342.788341 
L 339.549333 -341.585788 
L 338.201099 -339.672635 
L 336.852866 -338.306098 
L 335.504633 -336.502268 
L 334.1564 -334.698439 
L 332.808167 -333.495886 
L 331.459934 -332.320664 
L 330.1117 -330.872134 
L 328.763467 -329.669581 
L 327.415234 -328.248382 
L 326.067001 -327.237144 
L 324.718768 -326.280568 
L 323.370535 -325.542638 
L 322.022302 -324.5314 
L 320.674068 -323.465501 
L 319.325835 -322.454263 
L 317.977602 -321.770994 
L 316.629369 -321.25171 
L 315.281136 -320.841749 
L 313.932903 -319.80318 
L 312.584669 -318.70995 
L 311.236436 -317.808035 
L 309.888203 -317.179428 
L 308.53997 -316.52349 
L 307.191737 -315.949544 
L 305.843504 -314.938307 
L 304.49527 -313.079816 
L 303.147037 -311.248655 
L 301.798804 -309.745464 
L 300.450571 -308.269604 
L 299.102338 -306.219797 
L 297.754105 -304.169991 
L 296.405871 -301.655562 
L 295.057638 -298.703841 
L 293.709405 -295.424151 
L 292.361172 -291.652508 
L 291.012939 -288.318156 
L 289.664706 -284.519182 
L 288.316472 -279.900285 
L 286.968239 -274.62545 
L 285.620006 -270.389184 
L 284.271773 -265.360326 
L 282.92354 -259.921507 
L 281.575307 -254.236711 
L 280.227073 -248.0053 
L 278.87884 -241.773889 
L 277.530607 -236.007101 
L 276.182374 -230.240312 
L 274.834141 -224.473524 
L 273.485908 -218.324105 
L 272.137675 -212.66664 
L 270.789441 -207.173159 
L 269.441208 -202.47227 
L 268.092975 -197.962697 
L 266.744742 -193.398461 
L 265.396509 -188.834226 
L 264.048276 -185.007921 
L 262.700042 -181.892216 
L 261.351809 -179.268464 
L 260.003576 -176.043435 
L 258.655343 -172.818407 
L 257.30711 -171.342546 
L 255.958877 -173.966298 
L 254.610643 -180.061055 
L 253.26241 -186.019159 
L 251.914177 -189.490164 
L 250.565944 -190.993355 
L 249.217711 -192.961169 
L 247.869478 -197.880704 
L 246.521244 -206.735867 
L 245.173011 -219.362674 
L 243.824778 -236.33507 
L 242.476545 -261.151391 
L 241.128312 -291.215216 
L 239.780079 -319.365888 
L 238.431845 -344.400855 
L 237.083612 -366.156132 
L 235.735379 -380.559437 
L 234.387146 -384.30375 
L 233.038913 -377.36174 
L 231.69068 -364.27031 
L 230.342446 -349.457044 
L 228.994213 -334.452462 
L 227.64598 -321.689002 
L 226.297747 -312.041247 
L 224.949514 -306.110474 
L 223.601281 -303.350069 
L 222.253048 -300.671655 
L 220.904814 -295.178174 
L 219.556581 -287.634887 
L 218.208348 -280.911523 
L 216.860115 -277.358525 
L 215.511882 -277.139879 
L 214.163649 -279.244347 
L 212.815415 -284.245874 
L 211.467182 -289.438717 
L 210.118949 -293.319683 
L 208.770716 -296.435389 
L 207.422483 -299.086472 
L 206.07425 -302.284169 
L 204.726016 -305.973821 
L 203.377783 -309.417495 
L 202.02955 -312.478539 
L 200.681317 -314.473684 
L 199.333084 -316.87879 
L 197.984851 -319.256565 
L 196.636617 -322.290278 
L 195.288384 -323.602154 
L 193.940151 -324.340085 
L 192.591918 -324.422077 
L 191.243685 -324.258092 
L 189.895452 -324.613392 
L 188.547218 -324.996023 
L 187.198985 -324.668054 
L 185.850752 -324.258092 
L 184.502519 -323.902793 
L 183.154286 -324.148769 
L 181.806053 -323.930123 
L 180.457819 -323.465501 
L 179.109586 -323.465501 
L 177.761353 -323.301516 
L 176.41312 -323.328847 
L 175.064887 -323.465501 
L 173.716654 -323.192193 
L 172.368421 -323.520162 
L 171.020187 -323.219524 
L 169.671954 -323.574824 
L 168.323721 -323.875462 
L 166.975488 -324.203431 
L 165.627255 -324.695384 
L 164.279022 -325.296661 
L 162.930788 -325.597299 
L 161.582555 -326.034591 
L 160.234322 -326.171245 
L 158.886089 -326.00726 
L 157.537856 -326.089253 
L 156.189623 -326.225906 
L 154.841389 -325.815945 
L 153.493156 -325.542638 
L 152.144923 -325.378653 
L 150.79669 -325.597299 
L 149.448457 -325.843276 
L 148.100224 -325.542638 
L 146.75199 -326.171245 
L 145.403757 -326.36256 
L 144.055524 -326.608537 
L 142.707291 -327.045829 
L 141.359058 -326.854514 
L 140.010825 -327.674436 
L 138.662591 -327.756428 
L 137.314358 -328.16639 
L 135.966125 -328.111728 
L 134.617892 -328.221051 
L 133.269659 -328.221051 
L 131.921426 -328.19372 
L 130.573192 -328.685674 
L 129.224959 -328.740335 
L 127.876726 -328.357705 
L 126.528493 -327.975074 
L 125.18026 -327.947744 
L 123.832027 -328.275713 
L 122.483794 -328.357705 
L 121.13556 -328.221051 
L 119.787327 -328.057067 
L 118.439094 -327.729098 
L 117.090861 -326.909175 
L 115.742628 -326.417222 
L 114.394395 -325.925268 
L 113.046161 -325.460645 
L 111.697928 -324.8867 
L 110.349695 -324.039446 
L 109.001462 -322.891555 
L 107.653229 -322.071632 
L 106.304996 -321.224379 
L 104.956762 -320.486449 
L 103.608529 -319.557203 
L 102.260296 -318.381981 
L 100.912063 -317.343413 
L 99.56383 -316.496159 
L 98.215597 -315.04763 
z
" style="stroke: #808080; stroke-opacity: 0.3"/>
    </defs>
    <g clip-path="url(#p34b2fe574c)">
     <use xlink:href="#mc851453eae" x="0" y="406.62375" style="fill: #808080; fill-opacity: 0.3; stroke: #808080; stroke-opacity: 0.3"/>
    </g>
   </g>
   <g id="matplotlib.axis_1">
    <g id="xtick_1">
     <g id="line2d_1">
      <defs>
       <path id="mefda29a0a4" d="M 0 0 
L 0 -3.5 
" style="stroke: #000000; stroke-width: 2"/>
      </defs>
      <g>
       <use xlink:href="#mefda29a0a4" x="98.215597" y="339.84" style="stroke: #000000; stroke-width: 2"/>
      </g>
     </g>
     <g id="text_1">
      <!-- 0 -->
      <g transform="translate(91.216847 363.556563) scale(0.22 -0.22)">
       <defs>
        <path id="DejaVuSans-30" d="M 2034 4250 
Q 1547 4250 1301 3770 
Q 1056 3291 1056 2328 
Q 1056 1369 1301 889 
Q 1547 409 2034 409 
Q 2525 409 2770 889 
Q 3016 1369 3016 2328 
Q 3016 3291 2770 3770 
Q 2525 4250 2034 4250 
z
M 2034 4750 
Q 2819 4750 3233 4129 
Q 3647 3509 3647 2328 
Q 3647 1150 3233 529 
Q 2819 -91 2034 -91 
Q 1250 -91 836 529 
Q 422 1150 422 2328 
Q 422 3509 836 4129 
Q 1250 4750 2034 4750 
z
" transform="scale(0.015625)"/>
       </defs>
       <use xlink:href="#DejaVuSans-30"/>
      </g>
     </g>
    </g>
    <g id="xtick_2">
     <g id="line2d_2">
      <g>
       <use xlink:href="#mefda29a0a4" x="233.038913" y="339.84" style="stroke: #000000; stroke-width: 2"/>
      </g>
     </g>
     <g id="text_2">
      <!-- 100 -->
      <g transform="translate(212.042663 363.556563) scale(0.22 -0.22)">
       <defs>
        <path id="DejaVuSans-31" d="M 794 531 
L 1825 531 
L 1825 4091 
L 703 3866 
L 703 4441 
L 1819 4666 
L 2450 4666 
L 2450 531 
L 3481 531 
L 3481 0 
L 794 0 
L 794 531 
z
" transform="scale(0.015625)"/>
       </defs>
       <use xlink:href="#DejaVuSans-31"/>
       <use xlink:href="#DejaVuSans-30" x="63.623047"/>
       <use xlink:href="#DejaVuSans-30" x="127.246094"/>
      </g>
     </g>
    </g>
    <g id="xtick_3">
     <g id="line2d_3">
      <g>
       <use xlink:href="#mefda29a0a4" x="367.862229" y="339.84" style="stroke: #000000; stroke-width: 2"/>
      </g>
     </g>
     <g id="text_3">
      <!-- 200 -->
      <g transform="translate(346.865979 363.556563) scale(0.22 -0.22)">
       <defs>
        <path id="DejaVuSans-32" d="M 1228 531 
L 3431 531 
L 3431 0 
L 469 0 
L 469 531 
Q 828 903 1448 1529 
Q 2069 2156 2228 2338 
Q 2531 2678 2651 2914 
Q 2772 3150 2772 3378 
Q 2772 3750 2511 3984 
Q 2250 4219 1831 4219 
Q 1534 4219 1204 4116 
Q 875 4013 500 3803 
L 500 4441 
Q 881 4594 1212 4672 
Q 1544 4750 1819 4750 
Q 2544 4750 2975 4387 
Q 3406 4025 3406 3419 
Q 3406 3131 3298 2873 
Q 3191 2616 2906 2266 
Q 2828 2175 2409 1742 
Q 1991 1309 1228 531 
z
" transform="scale(0.015625)"/>
       </defs>
       <use xlink:href="#DejaVuSans-32"/>
       <use xlink:href="#DejaVuSans-30" x="63.623047"/>
       <use xlink:href="#DejaVuSans-30" x="127.246094"/>
      </g>
     </g>
    </g>
    <g id="xtick_4">
     <g id="line2d_4">
      <g>
       <use xlink:href="#mefda29a0a4" x="502.685545" y="339.84" style="stroke: #000000; stroke-width: 2"/>
      </g>
     </g>
     <g id="text_4">
      <!-- 300 -->
      <g transform="translate(481.689295 363.556563) scale(0.22 -0.22)">
       <defs>
        <path id="DejaVuSans-33" d="M 2597 2516 
Q 3050 2419 3304 2112 
Q 3559 1806 3559 1356 
Q 3559 666 3084 287 
Q 2609 -91 1734 -91 
Q 1441 -91 1130 -33 
Q 819 25 488 141 
L 488 750 
Q 750 597 1062 519 
Q 1375 441 1716 441 
Q 2309 441 2620 675 
Q 2931 909 2931 1356 
Q 2931 1769 2642 2001 
Q 2353 2234 1838 2234 
L 1294 2234 
L 1294 2753 
L 1863 2753 
Q 2328 2753 2575 2939 
Q 2822 3125 2822 3475 
Q 2822 3834 2567 4026 
Q 2313 4219 1838 4219 
Q 1578 4219 1281 4162 
Q 984 4106 628 3988 
L 628 4550 
Q 988 4650 1302 4700 
Q 1616 4750 1894 4750 
Q 2613 4750 3031 4423 
Q 3450 4097 3450 3541 
Q 3450 3153 3228 2886 
Q 3006 2619 2597 2516 
z
" transform="scale(0.015625)"/>
       </defs>
       <use xlink:href="#DejaVuSans-33"/>
       <use xlink:href="#DejaVuSans-30" x="63.623047"/>
       <use xlink:href="#DejaVuSans-30" x="127.246094"/>
      </g>
     </g>
    </g>
    <g id="text_5">
     <!-- Sample -->
     <g transform="translate(259.878125 394.848438) scale(0.22 -0.22)">
      <defs>
       <path id="DejaVuSans-53" d="M 3425 4513 
L 3425 3897 
Q 3066 4069 2747 4153 
Q 2428 4238 2131 4238 
Q 1616 4238 1336 4038 
Q 1056 3838 1056 3469 
Q 1056 3159 1242 3001 
Q 1428 2844 1947 2747 
L 2328 2669 
Q 3034 2534 3370 2195 
Q 3706 1856 3706 1288 
Q 3706 609 3251 259 
Q 2797 -91 1919 -91 
Q 1588 -91 1214 -16 
Q 841 59 441 206 
L 441 856 
Q 825 641 1194 531 
Q 1563 422 1919 422 
Q 2459 422 2753 634 
Q 3047 847 3047 1241 
Q 3047 1584 2836 1778 
Q 2625 1972 2144 2069 
L 1759 2144 
Q 1053 2284 737 2584 
Q 422 2884 422 3419 
Q 422 4038 858 4394 
Q 1294 4750 2059 4750 
Q 2388 4750 2728 4690 
Q 3069 4631 3425 4513 
z
" transform="scale(0.015625)"/>
       <path id="DejaVuSans-61" d="M 2194 1759 
Q 1497 1759 1228 1600 
Q 959 1441 959 1056 
Q 959 750 1161 570 
Q 1363 391 1709 391 
Q 2188 391 2477 730 
Q 2766 1069 2766 1631 
L 2766 1759 
L 2194 1759 
z
M 3341 1997 
L 3341 0 
L 2766 0 
L 2766 531 
Q 2569 213 2275 61 
Q 1981 -91 1556 -91 
Q 1019 -91 701 211 
Q 384 513 384 1019 
Q 384 1609 779 1909 
Q 1175 2209 1959 2209 
L 2766 2209 
L 2766 2266 
Q 2766 2663 2505 2880 
Q 2244 3097 1772 3097 
Q 1472 3097 1187 3025 
Q 903 2953 641 2809 
L 641 3341 
Q 956 3463 1253 3523 
Q 1550 3584 1831 3584 
Q 2591 3584 2966 3190 
Q 3341 2797 3341 1997 
z
" transform="scale(0.015625)"/>
       <path id="DejaVuSans-6d" d="M 3328 2828 
Q 3544 3216 3844 3400 
Q 4144 3584 4550 3584 
Q 5097 3584 5394 3201 
Q 5691 2819 5691 2113 
L 5691 0 
L 5113 0 
L 5113 2094 
Q 5113 2597 4934 2840 
Q 4756 3084 4391 3084 
Q 3944 3084 3684 2787 
Q 3425 2491 3425 1978 
L 3425 0 
L 2847 0 
L 2847 2094 
Q 2847 2600 2669 2842 
Q 2491 3084 2119 3084 
Q 1678 3084 1418 2786 
Q 1159 2488 1159 1978 
L 1159 0 
L 581 0 
L 581 3500 
L 1159 3500 
L 1159 2956 
Q 1356 3278 1631 3431 
Q 1906 3584 2284 3584 
Q 2666 3584 2933 3390 
Q 3200 3197 3328 2828 
z
" transform="scale(0.015625)"/>
       <path id="DejaVuSans-70" d="M 1159 525 
L 1159 -1331 
L 581 -1331 
L 581 3500 
L 1159 3500 
L 1159 2969 
Q 1341 3281 1617 3432 
Q 1894 3584 2278 3584 
Q 2916 3584 3314 3078 
Q 3713 2572 3713 1747 
Q 3713 922 3314 415 
Q 2916 -91 2278 -91 
Q 1894 -91 1617 61 
Q 1341 213 1159 525 
z
M 3116 1747 
Q 3116 2381 2855 2742 
Q 2594 3103 2138 3103 
Q 1681 3103 1420 2742 
Q 1159 2381 1159 1747 
Q 1159 1113 1420 752 
Q 1681 391 2138 391 
Q 2594 391 2855 752 
Q 3116 1113 3116 1747 
z
" transform="scale(0.015625)"/>
       <path id="DejaVuSans-6c" d="M 603 4863 
L 1178 4863 
L 1178 0 
L 603 0 
L 603 4863 
z
" transform="scale(0.015625)"/>
       <path id="DejaVuSans-65" d="M 3597 1894 
L 3597 1613 
L 953 1613 
Q 991 1019 1311 708 
Q 1631 397 2203 397 
Q 2534 397 2845 478 
Q 3156 559 3463 722 
L 3463 178 
Q 3153 47 2828 -22 
Q 2503 -91 2169 -91 
Q 1331 -91 842 396 
Q 353 884 353 1716 
Q 353 2575 817 3079 
Q 1281 3584 2069 3584 
Q 2775 3584 3186 3129 
Q 3597 2675 3597 1894 
z
M 3022 2063 
Q 3016 2534 2758 2815 
Q 2500 3097 2075 3097 
Q 1594 3097 1305 2825 
Q 1016 2553 972 2059 
L 3022 2063 
z
" transform="scale(0.015625)"/>
      </defs>
      <use xlink:href="#DejaVuSans-53"/>
      <use xlink:href="#DejaVuSans-61" x="63.476562"/>
      <use xlink:href="#DejaVuSans-6d" x="124.755859"/>
      <use xlink:href="#DejaVuSans-70" x="222.167969"/>
      <use xlink:href="#DejaVuSans-6c" x="285.644531"/>
      <use xlink:href="#DejaVuSans-65" x="313.427734"/>
     </g>
    </g>
   </g>
   <g id="matplotlib.axis_2">
    <g id="ytick_1">
     <g id="line2d_5">
      <defs>
       <path id="me816ee2053" d="M 0 0 
L 3.5 0 
" style="stroke: #000000; stroke-width: 2"/>
      </defs>
      <g>
       <use xlink:href="#me816ee2053" x="77.924688" y="329.074321" style="stroke: #000000; stroke-width: 2"/>
      </g>
     </g>
     <g id="text_6">
      <!-- −3 -->
      <g transform="translate(38.491875 337.432602) scale(0.22 -0.22)">
       <defs>
        <path id="DejaVuSans-2212" d="M 678 2272 
L 4684 2272 
L 4684 1741 
L 678 1741 
L 678 2272 
z
" transform="scale(0.015625)"/>
       </defs>
       <use xlink:href="#DejaVuSans-2212"/>
       <use xlink:href="#DejaVuSans-33" x="83.789062"/>
      </g>
     </g>
    </g>
    <g id="ytick_2">
     <g id="line2d_6">
      <g>
       <use xlink:href="#me816ee2053" x="77.924688" y="263.56559" style="stroke: #000000; stroke-width: 2"/>
      </g>
     </g>
     <g id="text_7">
      <!-- −2 -->
      <g transform="translate(38.491875 271.923872) scale(0.22 -0.22)">
       <use xlink:href="#DejaVuSans-2212"/>
       <use xlink:href="#DejaVuSans-32" x="83.789062"/>
      </g>
     </g>
    </g>
    <g id="ytick_3">
     <g id="line2d_7">
      <g>
       <use xlink:href="#me816ee2053" x="77.924688" y="198.05686" style="stroke: #000000; stroke-width: 2"/>
      </g>
     </g>
     <g id="text_8">
      <!-- −1 -->
      <g transform="translate(38.491875 206.415141) scale(0.22 -0.22)">
       <use xlink:href="#DejaVuSans-2212"/>
       <use xlink:href="#DejaVuSans-31" x="83.789062"/>
      </g>
     </g>
    </g>
    <g id="ytick_4">
     <g id="line2d_8">
      <g>
       <use xlink:href="#me816ee2053" x="77.924688" y="132.548129" style="stroke: #000000; stroke-width: 2"/>
      </g>
     </g>
     <g id="text_9">
      <!-- 0 -->
      <g transform="translate(56.927188 140.90641) scale(0.22 -0.22)">
       <use xlink:href="#DejaVuSans-30"/>
      </g>
     </g>
    </g>
    <g id="ytick_5">
     <g id="line2d_9">
      <g>
       <use xlink:href="#me816ee2053" x="77.924688" y="67.039398" style="stroke: #000000; stroke-width: 2"/>
      </g>
     </g>
     <g id="text_10">
      <!-- 1 -->
      <g transform="translate(56.927188 75.397679) scale(0.22 -0.22)">
       <use xlink:href="#DejaVuSans-31"/>
      </g>
     </g>
    </g>
    <g id="text_11">
     <!-- Amplitude(mV) -->
     <g transform="translate(23.916563 256.712656) rotate(-90) scale(0.22 -0.22)">
      <defs>
       <path id="DejaVuSans-41" d="M 2188 4044 
L 1331 1722 
L 3047 1722 
L 2188 4044 
z
M 1831 4666 
L 2547 4666 
L 4325 0 
L 3669 0 
L 3244 1197 
L 1141 1197 
L 716 0 
L 50 0 
L 1831 4666 
z
" transform="scale(0.015625)"/>
       <path id="DejaVuSans-69" d="M 603 3500 
L 1178 3500 
L 1178 0 
L 603 0 
L 603 3500 
z
M 603 4863 
L 1178 4863 
L 1178 4134 
L 603 4134 
L 603 4863 
z
" transform="scale(0.015625)"/>
       <path id="DejaVuSans-74" d="M 1172 4494 
L 1172 3500 
L 2356 3500 
L 2356 3053 
L 1172 3053 
L 1172 1153 
Q 1172 725 1289 603 
Q 1406 481 1766 481 
L 2356 481 
L 2356 0 
L 1766 0 
Q 1100 0 847 248 
Q 594 497 594 1153 
L 594 3053 
L 172 3053 
L 172 3500 
L 594 3500 
L 594 4494 
L 1172 4494 
z
" transform="scale(0.015625)"/>
       <path id="DejaVuSans-75" d="M 544 1381 
L 544 3500 
L 1119 3500 
L 1119 1403 
Q 1119 906 1312 657 
Q 1506 409 1894 409 
Q 2359 409 2629 706 
Q 2900 1003 2900 1516 
L 2900 3500 
L 3475 3500 
L 3475 0 
L 2900 0 
L 2900 538 
Q 2691 219 2414 64 
Q 2138 -91 1772 -91 
Q 1169 -91 856 284 
Q 544 659 544 1381 
z
M 1991 3584 
L 1991 3584 
z
" transform="scale(0.015625)"/>
       <path id="DejaVuSans-64" d="M 2906 2969 
L 2906 4863 
L 3481 4863 
L 3481 0 
L 2906 0 
L 2906 525 
Q 2725 213 2448 61 
Q 2172 -91 1784 -91 
Q 1150 -91 751 415 
Q 353 922 353 1747 
Q 353 2572 751 3078 
Q 1150 3584 1784 3584 
Q 2172 3584 2448 3432 
Q 2725 3281 2906 2969 
z
M 947 1747 
Q 947 1113 1208 752 
Q 1469 391 1925 391 
Q 2381 391 2643 752 
Q 2906 1113 2906 1747 
Q 2906 2381 2643 2742 
Q 2381 3103 1925 3103 
Q 1469 3103 1208 2742 
Q 947 2381 947 1747 
z
" transform="scale(0.015625)"/>
       <path id="DejaVuSans-28" d="M 1984 4856 
Q 1566 4138 1362 3434 
Q 1159 2731 1159 2009 
Q 1159 1288 1364 580 
Q 1569 -128 1984 -844 
L 1484 -844 
Q 1016 -109 783 600 
Q 550 1309 550 2009 
Q 550 2706 781 3412 
Q 1013 4119 1484 4856 
L 1984 4856 
z
" transform="scale(0.015625)"/>
       <path id="DejaVuSans-56" d="M 1831 0 
L 50 4666 
L 709 4666 
L 2188 738 
L 3669 4666 
L 4325 4666 
L 2547 0 
L 1831 0 
z
" transform="scale(0.015625)"/>
       <path id="DejaVuSans-29" d="M 513 4856 
L 1013 4856 
Q 1481 4119 1714 3412 
Q 1947 2706 1947 2009 
Q 1947 1309 1714 600 
Q 1481 -109 1013 -844 
L 513 -844 
Q 928 -128 1133 580 
Q 1338 1288 1338 2009 
Q 1338 2731 1133 3434 
Q 928 4138 513 4856 
z
" transform="scale(0.015625)"/>
      </defs>
      <use xlink:href="#DejaVuSans-41"/>
      <use xlink:href="#DejaVuSans-6d" x="68.408203"/>
      <use xlink:href="#DejaVuSans-70" x="165.820312"/>
      <use xlink:href="#DejaVuSans-6c" x="229.296875"/>
      <use xlink:href="#DejaVuSans-69" x="257.080078"/>
      <use xlink:href="#DejaVuSans-74" x="284.863281"/>
      <use xlink:href="#DejaVuSans-75" x="324.072266"/>
      <use xlink:href="#DejaVuSans-64" x="387.451172"/>
      <use xlink:href="#DejaVuSans-65" x="450.927734"/>
      <use xlink:href="#DejaVuSans-28" x="512.451172"/>
      <use xlink:href="#DejaVuSans-6d" x="551.464844"/>
      <use xlink:href="#DejaVuSans-56" x="648.876953"/>
      <use xlink:href="#DejaVuSans-29" x="717.285156"/>
     </g>
    </g>
   </g>
   <g id="line2d_10">
    <path d="M 98.215597 136.295519 
L 99.56383 134.846989 
L 100.912063 133.999736 
L 104.956762 130.856699 
L 107.653229 129.271516 
L 109.001462 128.451593 
L 110.349695 127.303702 
L 111.697928 126.456449 
L 114.394395 125.41788 
L 117.090861 124.433973 
L 118.439094 123.614051 
L 119.787327 123.286082 
L 122.483794 122.985443 
L 123.832027 123.067436 
L 125.18026 123.395405 
L 126.528493 123.368074 
L 129.224959 122.602813 
L 130.573192 122.657474 
L 131.921426 123.149428 
L 134.617892 123.122097 
L 135.966125 123.23142 
L 137.314358 123.176759 
L 138.662591 123.58672 
L 140.010825 123.668712 
L 141.359058 124.488635 
L 142.707291 124.297319 
L 144.055524 124.734611 
L 146.75199 125.171903 
L 148.100224 125.800511 
L 149.448457 125.499872 
L 152.144923 125.964495 
L 154.841389 125.527203 
L 156.189623 125.117242 
L 158.886089 125.335888 
L 160.234322 125.171903 
L 161.582555 125.308557 
L 162.930788 125.745849 
L 164.279022 126.046487 
L 166.975488 127.139717 
L 171.020187 128.123624 
L 172.368421 127.822986 
L 173.716654 128.150955 
L 175.064887 127.877648 
L 177.761353 128.041632 
L 179.109586 127.877648 
L 180.457819 127.877648 
L 181.806053 127.413025 
L 183.154286 127.194379 
L 184.502519 127.440356 
L 188.547218 126.347126 
L 191.243685 127.085056 
L 192.591918 126.921071 
L 193.940151 127.003064 
L 195.288384 127.740994 
L 196.636617 129.05287 
L 197.984851 132.086583 
L 200.681317 136.869464 
L 202.02955 138.864609 
L 203.377783 141.925653 
L 207.422483 152.256677 
L 208.770716 154.907759 
L 210.118949 158.023465 
L 211.467182 161.904431 
L 214.163649 172.098801 
L 215.511882 174.203269 
L 216.860115 173.984623 
L 218.208348 170.431625 
L 219.556581 163.708261 
L 220.904814 156.164974 
L 222.253048 150.671493 
L 224.949514 145.232674 
L 226.297747 139.301901 
L 227.64598 129.654146 
L 228.994213 116.890686 
L 231.69068 87.072838 
L 233.038913 73.981409 
L 234.387146 67.039398 
L 235.735379 70.783711 
L 237.083612 85.187016 
L 238.431845 106.942293 
L 239.780079 131.97726 
L 243.824778 215.008078 
L 245.173011 231.980474 
L 246.521244 244.607281 
L 247.869478 253.462444 
L 249.217711 258.381979 
L 250.565944 260.349793 
L 251.914177 261.852984 
L 253.26241 265.323989 
L 255.958877 277.37685 
L 257.30711 280.000602 
L 258.655343 278.524741 
L 261.351809 272.074684 
L 262.700042 269.450932 
L 264.048276 266.335227 
L 265.396509 262.508922 
L 270.789441 244.169989 
L 273.485908 233.019043 
L 276.182374 221.102836 
L 280.227073 203.337848 
L 281.575307 197.106437 
L 284.271773 185.982822 
L 285.620006 180.953964 
L 286.968239 176.717698 
L 288.316472 171.442863 
L 289.664706 166.823966 
L 291.012939 163.024992 
L 292.361172 159.690641 
L 293.709405 155.918997 
L 295.057638 152.639307 
L 296.405871 149.687586 
L 297.754105 147.173157 
L 300.450571 143.073545 
L 303.147037 140.094493 
L 305.843504 136.404842 
L 307.191737 135.393604 
L 309.888203 134.16372 
L 311.236436 133.535113 
L 312.584669 132.633198 
L 315.281136 130.5014 
L 317.977602 129.572154 
L 319.325835 128.888885 
L 323.370535 125.800511 
L 324.718768 125.06258 
L 327.415234 123.094766 
L 328.763467 121.673567 
L 330.1117 120.471014 
L 331.459934 119.022485 
L 334.1564 116.644709 
L 336.852866 113.03705 
L 338.201099 111.670513 
L 339.549333 109.75736 
L 340.897566 108.554807 
L 342.245799 106.559663 
L 343.594032 105.138464 
L 344.942265 103.471288 
L 347.638732 99.726975 
L 350.335198 96.693262 
L 351.683431 95.572701 
L 353.031664 93.850864 
L 354.379897 92.429665 
L 355.728131 90.461851 
L 357.076364 89.423282 
L 358.424597 88.056745 
L 359.77283 87.182161 
L 361.121063 85.487654 
L 362.469296 84.011794 
L 363.81753 82.836572 
L 365.165763 81.989318 
L 366.513996 80.568119 
L 367.862229 79.939512 
L 369.210462 79.174251 
L 370.558695 77.862375 
L 371.906929 76.987791 
L 374.603395 75.949223 
L 375.951628 75.511931 
L 377.299861 74.774 
L 378.648094 74.200055 
L 379.996327 74.090732 
L 381.344561 73.817424 
L 382.692794 73.981409 
L 384.041027 74.500693 
L 385.38926 74.200055 
L 389.43396 75.101969 
L 390.782193 75.566592 
L 392.130426 76.386515 
L 394.826892 77.862375 
L 396.175125 78.627636 
L 397.523359 80.021504 
L 398.871592 80.923419 
L 400.219825 82.563264 
L 402.916291 84.58574 
L 405.612758 87.346145 
L 408.309224 90.489182 
L 409.657457 91.555081 
L 413.702157 96.146647 
L 415.05039 97.649838 
L 417.746856 99.972952 
L 419.095089 100.929528 
L 421.791556 103.990572 
L 423.139789 105.193125 
L 424.488022 106.586993 
L 428.532721 110.003337 
L 429.880954 110.659275 
L 432.577421 113.529004 
L 433.925654 114.458249 
L 436.62212 115.770125 
L 437.970353 117.327978 
L 439.318587 117.929255 
L 440.66682 118.967823 
L 442.015053 119.514438 
L 443.363286 119.924399 
L 444.711519 121.072291 
L 447.407986 122.766797 
L 448.756219 123.23142 
L 451.452685 124.461304 
L 452.800918 124.652619 
L 455.497385 125.827841 
L 456.845618 126.593102 
L 459.542084 126.647764 
L 460.890317 126.757087 
L 462.23855 127.413025 
L 463.586784 127.60434 
L 464.935017 128.178286 
L 467.631483 128.178286 
L 470.327949 128.396932 
L 473.024416 128.888885 
L 474.372649 128.560916 
L 475.720882 128.533586 
L 478.417348 128.752232 
L 479.765581 128.506255 
L 481.113815 128.424263 
L 483.810281 128.506255 
L 486.506747 128.287609 
L 489.203214 128.533586 
L 491.89968 128.178286 
L 493.247913 128.123624 
L 494.596146 128.615578 
L 495.944379 128.588247 
L 497.292613 128.834224 
L 499.989079 128.970878 
L 501.337312 128.69757 
L 502.685545 128.916216 
L 504.033778 128.998208 
L 504.033778 128.998208 
" clip-path="url(#p34b2fe574c)" style="fill: none; stroke: #1f77b4; stroke-width: 2; stroke-linecap: square"/>
   </g>
   <g id="patch_3">
    <path d="M 77.924688 339.84 
L 77.924688 7.2 
" style="fill: none; stroke: #000000; stroke-width: 2; stroke-linejoin: miter; stroke-linecap: square"/>
   </g>
   <g id="patch_4">
    <path d="M 524.324687 339.84 
L 524.324687 7.2 
" style="fill: none; stroke: #000000; stroke-width: 2; stroke-linejoin: miter; stroke-linecap: square"/>
   </g>
   <g id="patch_5">
    <path d="M 77.924688 339.84 
L 524.324687 339.84 
" style="fill: none; stroke: #000000; stroke-width: 2; stroke-linejoin: miter; stroke-linecap: square"/>
   </g>
   <g id="patch_6">
    <path d="M 77.924688 7.2 
L 524.324687 7.2 
" style="fill: none; stroke: #000000; stroke-width: 2; stroke-linejoin: miter; stroke-linecap: square"/>
   </g>
   <g id="legend_1">
    <g id="patch_7">
     <path d="M 308.288125 330.84 
L 511.724687 330.84 
Q 515.324687 330.84 515.324687 327.24 
L 515.324687 276.19875 
Q 515.324687 272.59875 511.724687 272.59875 
L 308.288125 272.59875 
Q 304.688125 272.59875 304.688125 276.19875 
L 304.688125 327.24 
Q 304.688125 330.84 308.288125 330.84 
z
" style="fill: #ffffff; opacity: 0.8; stroke: #cccccc; stroke-linejoin: miter"/>
    </g>
    <g id="line2d_11">
     <path d="M 311.888125 287.175938 
L 329.888125 287.175938 
L 347.888125 287.175938 
" style="fill: none; stroke: #1f77b4; stroke-width: 2; stroke-linecap: square"/>
    </g>
    <g id="text_12">
     <!-- Mean of V beats -->
     <g transform="translate(362.288125 293.475938) scale(0.18 -0.18)">
      <defs>
       <path id="DejaVuSans-4d" d="M 628 4666 
L 1569 4666 
L 2759 1491 
L 3956 4666 
L 4897 4666 
L 4897 0 
L 4281 0 
L 4281 4097 
L 3078 897 
L 2444 897 
L 1241 4097 
L 1241 0 
L 628 0 
L 628 4666 
z
" transform="scale(0.015625)"/>
       <path id="DejaVuSans-6e" d="M 3513 2113 
L 3513 0 
L 2938 0 
L 2938 2094 
Q 2938 2591 2744 2837 
Q 2550 3084 2163 3084 
Q 1697 3084 1428 2787 
Q 1159 2491 1159 1978 
L 1159 0 
L 581 0 
L 581 3500 
L 1159 3500 
L 1159 2956 
Q 1366 3272 1645 3428 
Q 1925 3584 2291 3584 
Q 2894 3584 3203 3211 
Q 3513 2838 3513 2113 
z
" transform="scale(0.015625)"/>
       <path id="DejaVuSans-20" transform="scale(0.015625)"/>
       <path id="DejaVuSans-6f" d="M 1959 3097 
Q 1497 3097 1228 2736 
Q 959 2375 959 1747 
Q 959 1119 1226 758 
Q 1494 397 1959 397 
Q 2419 397 2687 759 
Q 2956 1122 2956 1747 
Q 2956 2369 2687 2733 
Q 2419 3097 1959 3097 
z
M 1959 3584 
Q 2709 3584 3137 3096 
Q 3566 2609 3566 1747 
Q 3566 888 3137 398 
Q 2709 -91 1959 -91 
Q 1206 -91 779 398 
Q 353 888 353 1747 
Q 353 2609 779 3096 
Q 1206 3584 1959 3584 
z
" transform="scale(0.015625)"/>
       <path id="DejaVuSans-66" d="M 2375 4863 
L 2375 4384 
L 1825 4384 
Q 1516 4384 1395 4259 
Q 1275 4134 1275 3809 
L 1275 3500 
L 2222 3500 
L 2222 3053 
L 1275 3053 
L 1275 0 
L 697 0 
L 697 3053 
L 147 3053 
L 147 3500 
L 697 3500 
L 697 3744 
Q 697 4328 969 4595 
Q 1241 4863 1831 4863 
L 2375 4863 
z
" transform="scale(0.015625)"/>
       <path id="DejaVuSans-62" d="M 3116 1747 
Q 3116 2381 2855 2742 
Q 2594 3103 2138 3103 
Q 1681 3103 1420 2742 
Q 1159 2381 1159 1747 
Q 1159 1113 1420 752 
Q 1681 391 2138 391 
Q 2594 391 2855 752 
Q 3116 1113 3116 1747 
z
M 1159 2969 
Q 1341 3281 1617 3432 
Q 1894 3584 2278 3584 
Q 2916 3584 3314 3078 
Q 3713 2572 3713 1747 
Q 3713 922 3314 415 
Q 2916 -91 2278 -91 
Q 1894 -91 1617 61 
Q 1341 213 1159 525 
L 1159 0 
L 581 0 
L 581 4863 
L 1159 4863 
L 1159 2969 
z
" transform="scale(0.015625)"/>
       <path id="DejaVuSans-73" d="M 2834 3397 
L 2834 2853 
Q 2591 2978 2328 3040 
Q 2066 3103 1784 3103 
Q 1356 3103 1142 2972 
Q 928 2841 928 2578 
Q 928 2378 1081 2264 
Q 1234 2150 1697 2047 
L 1894 2003 
Q 2506 1872 2764 1633 
Q 3022 1394 3022 966 
Q 3022 478 2636 193 
Q 2250 -91 1575 -91 
Q 1294 -91 989 -36 
Q 684 19 347 128 
L 347 722 
Q 666 556 975 473 
Q 1284 391 1588 391 
Q 1994 391 2212 530 
Q 2431 669 2431 922 
Q 2431 1156 2273 1281 
Q 2116 1406 1581 1522 
L 1381 1569 
Q 847 1681 609 1914 
Q 372 2147 372 2553 
Q 372 3047 722 3315 
Q 1072 3584 1716 3584 
Q 2034 3584 2315 3537 
Q 2597 3491 2834 3397 
z
" transform="scale(0.015625)"/>
      </defs>
      <use xlink:href="#DejaVuSans-4d"/>
      <use xlink:href="#DejaVuSans-65" x="86.279297"/>
      <use xlink:href="#DejaVuSans-61" x="147.802734"/>
      <use xlink:href="#DejaVuSans-6e" x="209.082031"/>
      <use xlink:href="#DejaVuSans-20" x="272.460938"/>
      <use xlink:href="#DejaVuSans-6f" x="304.248047"/>
      <use xlink:href="#DejaVuSans-66" x="365.429688"/>
      <use xlink:href="#DejaVuSans-20" x="400.634766"/>
      <use xlink:href="#DejaVuSans-56" x="432.421875"/>
      <use xlink:href="#DejaVuSans-20" x="500.830078"/>
      <use xlink:href="#DejaVuSans-62" x="532.617188"/>
      <use xlink:href="#DejaVuSans-65" x="596.09375"/>
      <use xlink:href="#DejaVuSans-61" x="657.617188"/>
      <use xlink:href="#DejaVuSans-74" x="718.896484"/>
      <use xlink:href="#DejaVuSans-73" x="758.105469"/>
     </g>
    </g>
    <g id="patch_8">
     <path d="M 311.888125 319.896563 
L 347.888125 319.896563 
L 347.888125 307.296563 
L 311.888125 307.296563 
z
" style="fill: #808080; fill-opacity: 0.3; stroke: #808080; stroke-opacity: 0.3; stroke-linejoin: miter"/>
    </g>
    <g id="text_13">
     <!-- Standard Range -->
     <g transform="translate(362.288125 319.896563) scale(0.18 -0.18)">
      <defs>
       <path id="DejaVuSans-72" d="M 2631 2963 
Q 2534 3019 2420 3045 
Q 2306 3072 2169 3072 
Q 1681 3072 1420 2755 
Q 1159 2438 1159 1844 
L 1159 0 
L 581 0 
L 581 3500 
L 1159 3500 
L 1159 2956 
Q 1341 3275 1631 3429 
Q 1922 3584 2338 3584 
Q 2397 3584 2469 3576 
Q 2541 3569 2628 3553 
L 2631 2963 
z
" transform="scale(0.015625)"/>
       <path id="DejaVuSans-52" d="M 2841 2188 
Q 3044 2119 3236 1894 
Q 3428 1669 3622 1275 
L 4263 0 
L 3584 0 
L 2988 1197 
Q 2756 1666 2539 1819 
Q 2322 1972 1947 1972 
L 1259 1972 
L 1259 0 
L 628 0 
L 628 4666 
L 2053 4666 
Q 2853 4666 3247 4331 
Q 3641 3997 3641 3322 
Q 3641 2881 3436 2590 
Q 3231 2300 2841 2188 
z
M 1259 4147 
L 1259 2491 
L 2053 2491 
Q 2509 2491 2742 2702 
Q 2975 2913 2975 3322 
Q 2975 3731 2742 3939 
Q 2509 4147 2053 4147 
L 1259 4147 
z
" transform="scale(0.015625)"/>
       <path id="DejaVuSans-67" d="M 2906 1791 
Q 2906 2416 2648 2759 
Q 2391 3103 1925 3103 
Q 1463 3103 1205 2759 
Q 947 2416 947 1791 
Q 947 1169 1205 825 
Q 1463 481 1925 481 
Q 2391 481 2648 825 
Q 2906 1169 2906 1791 
z
M 3481 434 
Q 3481 -459 3084 -895 
Q 2688 -1331 1869 -1331 
Q 1566 -1331 1297 -1286 
Q 1028 -1241 775 -1147 
L 775 -588 
Q 1028 -725 1275 -790 
Q 1522 -856 1778 -856 
Q 2344 -856 2625 -561 
Q 2906 -266 2906 331 
L 2906 616 
Q 2728 306 2450 153 
Q 2172 0 1784 0 
Q 1141 0 747 490 
Q 353 981 353 1791 
Q 353 2603 747 3093 
Q 1141 3584 1784 3584 
Q 2172 3584 2450 3431 
Q 2728 3278 2906 2969 
L 2906 3500 
L 3481 3500 
L 3481 434 
z
" transform="scale(0.015625)"/>
      </defs>
      <use xlink:href="#DejaVuSans-53"/>
      <use xlink:href="#DejaVuSans-74" x="63.476562"/>
      <use xlink:href="#DejaVuSans-61" x="102.685547"/>
      <use xlink:href="#DejaVuSans-6e" x="163.964844"/>
      <use xlink:href="#DejaVuSans-64" x="227.34375"/>
      <use xlink:href="#DejaVuSans-61" x="290.820312"/>
      <use xlink:href="#DejaVuSans-72" x="352.099609"/>
      <use xlink:href="#DejaVuSans-64" x="391.462891"/>
      <use xlink:href="#DejaVuSans-20" x="454.939453"/>
      <use xlink:href="#DejaVuSans-52" x="486.726562"/>
      <use xlink:href="#DejaVuSans-61" x="553.958984"/>
      <use xlink:href="#DejaVuSans-6e" x="615.238281"/>
      <use xlink:href="#DejaVuSans-67" x="678.617188"/>
      <use xlink:href="#DejaVuSans-65" x="742.09375"/>
     </g>
    </g>
   </g>
  </g>
 </g>
 <defs>
  <clipPath id="p34b2fe574c">
   <rect x="77.924688" y="7.2" width="446.4" height="332.64"/>
  </clipPath>
 </defs>
</svg>
